<?xml version="1.0" encoding="UTF-8"?>
<svg id="Camada_1" data-name="Camada 1" xmlns="http://www.w3.org/2000/svg" viewBox="0 0 14.44 11.34">
  <defs>
    <style>
      .cls-1 {
        fill: #436d17;
        stroke-width: 0px;
      }
    </style>
  </defs>
  <path class="cls-1" d="m1.67,9.08s0,0,0,0c0,0-.01,0-.02-.01l-.74-.46c-.05-.05-.12-.1-.15-.1-.01,0-.04.03-.05.13l-.21,2.17s0,.1.02.12c0,0,.02,0,.03,0,.01,0,.03,0,.04-.02l1.86-1.13c.06-.04.12-.11.12-.14,0-.01-.03-.04-.12-.07h-.02s-.76-.49-.76-.49Zm-.96-.73h0c.13-.03.26.09.3.14l.65.41c.4-.77,3.87-7.22,8.2-8.43.06-.02.12-.03.17-.05,1.39-.34,2.75-.11,4.02.69.04.02.05.07.02.11-.02.04-.07.05-.11.02-1.29-.81-2.66-1.02-4.07-.63C5.62,1.82,2.17,8.27,1.8,8.98l.7.44c.13.04.2.11.22.2.02.15-.15.27-.19.29l-1.87,1.13s-.06.02-.08.03c-.08.02-.14,0-.17-.03-.09-.08-.08-.22-.08-.25l.21-2.18c.02-.15.08-.24.17-.26Z"/>
</svg>