<?xml version="1.0" encoding="UTF-8"?>
<svg id="Camada_1" data-name="Camada 1" xmlns="http://www.w3.org/2000/svg" viewBox="0 0 12.55 13.95">
  <defs>
    <style>
      .cls-1 {
        fill: #9d9c9c;
        stroke-width: 0px;
      }
    </style>
  </defs>
  <path class="cls-1" d="m12.01.93s-.08-.03-.08-.03l-2.31-.37c-.09,0-.14,0-.15.02-.02.03.02.13.06.19l.6.8-.02,1.06c0,.09.03.13.04.14.03.02.12-.03.18-.09l1.67-1.62s.03-.06.03-.07c0,0-.01-.02-.04-.04m-1.91,1.95c-.08-.04-.12-.13-.13-.28l.02-.95c-.79.08-6.75.82-8.8,4.48-1.09,1.95-.9,4.42.58,7.33.02.04,0,.09-.03.11-.02.01-.05.01-.07,0-.01,0-.03-.02-.03-.03C.12,10.58-.07,8.06,1.05,6.05,3.1,2.4,8.94,1.61,9.92,1.5l-.51-.67s-.15-.23-.07-.36c.05-.08.15-.11.3-.1l2.31.37s.07.01.12.04c.09.04.12.1.13.15.01.06-.01.13-.07.2l-1.68,1.63s-.21.19-.36.11Z"/>
</svg>