<?xml version="1.0" encoding="UTF-8"?>
<svg id="Camada_1" data-name="Camada 1" xmlns="http://www.w3.org/2000/svg" viewBox="0 0 9.1 8.41">
  <defs>
    <style>
      .cls-1 {
        fill: #436d17;
        stroke-width: 0px;
      }
    </style>
  </defs>
  <path class="cls-1" d="m6.88,1.72s.08-.01.1-.05c.02-.04.02-.08,0-.11-.73-.93-1.61-1.22-2.22-1.3-.6-.08-1.06.04-1.15.06-.59.17-1.01.46-1.24.86-.25.43-.25.95,0,1.33-.3.41-.5.9-.59,1.47,0,.02,0,.05.01.07.01.02.04.04.07.04h0s.08-.03.1-.09c.09-.55.28-1.03.57-1.42h0s.03-.03.03-.05c.2-.25.44-.47.72-.64.54-.33,1.05-.39,1.06-.39.05,0,.09-.05.08-.1,0-.05-.05-.09-.1-.08h0c-.17.02-.63.11-1.12.42-.27.17-.51.37-.71.61-.17-.31-.16-.74.04-1.07.21-.36.59-.62,1.13-.78.07-.02,1.77-.45,3.05,1.04-.2.04-.57.18-1.11.61-.17.14-1.72,1.38-2.83.47-.04-.03-.1-.03-.13.01-.02.02-.02.04-.02.07,0,.03.01.05.03.06h0c.54.44,1.25.5,2.04.16.5-.21.88-.5,1.03-.62h0c.76-.61,1.14-.59,1.16-.59m-2.55-.35"/>
  <path class="cls-1" d="m8.55,4.32c-.28-.41-.77-.65-1.23-.59-.24-.44-.61-.84-1.1-1.18-.05-.03-.1-.02-.13.03-.03.05-.02.1.03.13.8.55,1.26,1.26,1.35,2.1.05.53-.07.96-.11,1.08h0s0,.06,0,.08c0,.02.03.04.05.05.01,0,.03,0,.04,0,.04,0,.08-.03.09-.06,0,0,.19-.49.12-1.17-.03-.31-.11-.6-.24-.88.36-.02.75.19.98.52.24.35.31.8.21,1.33,0,0-.08.46-.43.96-.3.43-.87,1-1.89,1.23.05-.22.08-.6-.07-1.24,0-.02-.58-2.07.82-2.67.05-.02.07-.07.05-.12,0-.02-.03-.04-.05-.05-.02,0-.05,0-.07,0-1.51.64-.96,2.8-.93,2.89.2.86.05,1.2.02,1.26h0s-.02.07,0,.11c.02.03.05.04.08.04h.02c1.19-.22,1.84-.86,2.18-1.35.32-.47.43-.9.45-1.02h0c.11-.6.03-1.09-.24-1.48"/>
  <path class="cls-1" d="m5.37,6.72c-.52.23-1.04.34-1.54.32,0,0,0,0-.01,0-.02,0-.05,0-.07,0-.32-.02-.64-.1-.93-.22-.56-.24-.89-.59-.92-.63-.01-.02-.04-.03-.06-.04-.03,0-.05,0-.07.02-.02.01-.03.04-.04.06,0,.03,0,.05.02.07h0c.12.13.45.45.98.68.29.12.6.2.91.23-.17.31-.54.53-.94.55-.43.03-.87-.13-1.3-.48-.01-.01-1.39-1.12-.81-3.03.17.16.49.37,1.14.56.02,0,2.15.55,1.98,2.02,0,.02,0,.05.02.07.02.02.04.03.06.03.05,0,.1-.03.1-.08.08-.68-.27-1.28-1.01-1.74-.55-.35-1.12-.48-1.12-.48-.94-.28-1.13-.59-1.14-.6-.01-.03-.05-.05-.09-.05s-.07.03-.08.06c-.39,1.11-.15,1.98.12,2.51.3.58.69.89.69.89.43.35.88.53,1.32.53.04,0,.07,0,.11,0,.51-.04.95-.32,1.13-.73.03,0,.07,0,.1,0,.48,0,.99-.11,1.5-.33.05-.02.07-.07.05-.13-.02-.05-.07-.07-.13-.05"/>
</svg>