<?xml version="1.0" encoding="UTF-8"?>
<svg id="Camada_1" data-name="Camada 1" xmlns="http://www.w3.org/2000/svg" viewBox="0 0 8.21 8.21">
  <defs>
    <style>
      .cls-1 {
        fill: #436d17;
        stroke-width: 0px;
      }
    </style>
  </defs>
  <path class="cls-1" d="m1.31,4.67s-.07.03-.07.06.03.06.07.06c.09,0,.19.03.29.05.11.03.22.06.33.06s.22-.03.33-.06c.1-.03.2-.05.29-.05s.19.03.29.05c.11.03.22.06.33.06s.22-.03.33-.06c.1-.03.2-.05.29-.05s.19.03.29.05c.11.03.21.06.33.06s.22-.03.33-.06c.1-.03.2-.05.29-.05s.19.03.29.05c.11.03.22.06.33.06s.22-.03.33-.06c.1-.03.2-.05.29-.05s.19.03.29.05c.11.03.22.06.33.06.04,0,.06-.03.06-.06s-.03-.06-.06-.06c-.09,0-.19-.03-.29-.05-.11-.03-.22-.06-.33-.06s-.22.03-.33.06c-.1.03-.2.05-.29.05-.07,0-.15-.02-.23-.04.1-.02.2-.09.26-.19.1-.17.06-.37-.08-.49l.13-.22c.09,0,.17-.03.26-.05.1-.03.2-.05.29-.05s.19.03.29.05c.11.03.22.06.33.06.04,0,.06-.03.06-.06s-.03-.06-.06-.06c-.09,0-.19-.03-.29-.05-.11-.03-.22-.06-.33-.06s-.22.03-.33.06c-.05.01-.09.03-.14.04l.05-.09c.13-.22.05-.51-.17-.63l-.12-.07.07-.12h0s.05.03.08.03c.06,0,.11-.03.14-.08l.2-.35s.03-.08.02-.12c-.01-.04-.04-.08-.08-.1l-1.1-.64c-.08-.05-.18-.02-.23.06l-.2.35s-.03.08-.02.12c.01.04.04.08.08.1h0s-.07.12-.07.12l-.12-.07c-.22-.13-.51-.05-.63.17l-.26.45c-.07-.03-.15-.03-.23,0-.1.03-.19.09-.24.18-.05.09-.07.2-.04.3,0,.03.02.05.03.07-.13,0-.25.08-.32.19,0,.01-.01.03-.02.04-.04,0-.07,0-.11,0-.11,0-.22.03-.33.06-.1.03-.2.05-.29.05s-.19-.03-.29-.05c-.11-.03-.22-.06-.33-.06-.04,0-.07.03-.07.06s.03.06.07.06c.09,0,.19.03.29.05.11.03.22.06.33.06s.22-.03.33-.06c.1-.03.2-.05.29-.05.02,0,.05,0,.08,0,0,.04,0,.09.01.13,0,.03.02.05.03.07-.03,0-.05,0-.08.01-.1.03-.19.09-.24.18-.11.18-.05.41.13.53-.09,0-.17.03-.26.05-.1.03-.2.05-.29.05s-.19-.03-.29-.05c-.11-.03-.22-.06-.33-.06m3.29-2.67l.2-.35s.02-.02.03-.02c0,0,.01,0,.02,0l1.1.64s.01.02.02.02c0,0,0,.02,0,.03l-.2.35s-.03.02-.05.01l-1.04-.6h0l-.06-.04s-.01-.02-.02-.02c0,0,0-.02,0-.03Zm-.75.45c.09-.16.3-.21.46-.12l.17.1s.03.01.05,0c.02,0,.03-.01.04-.03l.1-.18.86.5-.1.18s-.01.03,0,.05c0,.02.02.03.03.04l.17.1c.08.04.13.12.16.2.02.09.01.18-.03.25l-.26.45-1.9-1.1.26-.45Zm-.76.83c-.02-.07,0-.14.03-.2.03-.06.09-.1.16-.12.02,0,.05,0,.07,0,.05,0,.09.01.13.04l2,1.15c.12.07.17.23.1.36-.07.13-.23.17-.36.1,0,0,0,0,0,0l-2-1.15c-.06-.03-.1-.09-.12-.16Zm.06.27l1.15.67.79.46s-.04,0-.06,0c-.11,0-.22.03-.33.06-.1.03-.2.05-.29.05-.08,0-.17-.02-.26-.04l-1.27-.73s0,0,0,0c-.06-.03-.1-.09-.12-.16-.02-.07,0-.14.03-.2.07-.13.23-.17.36-.1Zm-.69.66c.03-.06.09-.1.16-.12.07-.02.14,0,.2.03l.96.55c-.11,0-.21.03-.32.06-.1.03-.2.05-.29.05s-.19-.03-.29-.05c-.03,0-.06-.02-.09-.02l-.23-.13c-.12-.07-.17-.23-.1-.36Z"/>
  <path class="cls-1" d="m6.9,5.84c-.09,0-.19-.03-.29-.05-.11-.03-.22-.06-.33-.06s-.22.03-.33.06c-.1.03-.2.05-.29.05s-.19-.03-.29-.05c-.11-.03-.21-.06-.33-.06-.02,0-.04,0-.07,0-.05-.35-.35-.62-.71-.62-.19,0-.37.07-.5.2-.12.12-.2.28-.21.45-.03,0-.05.01-.08.02-.1.03-.2.05-.29.05s-.19-.03-.29-.05c-.11-.03-.22-.06-.33-.06s-.22.03-.33.06c-.1.03-.2.05-.29.05s-.19-.03-.29-.05c-.11-.03-.22-.06-.33-.06-.04,0-.06.03-.06.06s.03.06.06.06c.1,0,.19.03.29.05.11.03.22.06.33.06s.22-.03.33-.06c.1-.03.2-.05.29-.05s.19.03.29.05c.11.03.22.06.33.06s.22-.03.33-.06c.1-.03.2-.05.29-.05s.19.03.29.05c.11.03.21.06.33.06s.22-.03.33-.06c.1-.03.2-.05.29-.05s.19.03.29.05c.11.03.22.06.33.06s.22-.03.33-.06c.1-.03.2-.05.29-.05s.19.03.29.05c.11.03.22.06.33.06.04,0,.06-.03.06-.06s-.03-.06-.06-.06m-2.19-.05c-.1.03-.2.05-.29.05s-.19-.03-.29-.05c-.11-.03-.22-.06-.33-.06-.04,0-.08,0-.12.01.05-.28.29-.5.58-.5s.54.22.58.51c-.05,0-.09.02-.13.03Z"/>
  <path class="cls-1" d="m2.58,6.02c-.19,0-.34.15-.34.34s.15.34.34.34.34-.15.34-.34-.15-.34-.34-.34m0,.55c-.12,0-.21-.1-.21-.21s.09-.21.21-.21.21.1.21.21-.09.21-.21.21Z"/>
  <path class="cls-1" d="m6.36,4.04c-.12,0-.22.1-.22.22s.1.22.22.22.22-.1.22-.22-.1-.22-.22-.22m0,.3s-.09-.04-.09-.09.04-.09.09-.09.09.04.09.09-.04.09-.09.09Z"/>
  <path class="cls-1" d="m2.08,4.26c0-.12-.1-.22-.22-.22s-.22.1-.22.22.1.22.22.22.22-.1.22-.22m-.3,0s.04-.09.09-.09.09.04.09.09-.04.09-.09.09-.09-.04-.09-.09Z"/>
  <path class="cls-1" d="m1.8,5.37c0,.16.13.28.28.28s.28-.13.28-.28-.13-.28-.28-.28-.28.13-.28.28m.44,0c0,.08-.07.15-.15.15s-.15-.07-.15-.15.07-.15.15-.15.15.07.15.15Z"/>
  <path class="cls-1" d="m4.11.2C1.95.2.2,1.95.2,4.1s1.75,3.9,3.9,3.9,3.9-1.75,3.9-3.9S6.26.2,4.11.2Zm3.65,3.9c0,.96-.38,1.83-.99,2.48L1.62,1.44c.65-.61,1.52-.99,2.48-.99,2.01,0,3.65,1.64,3.65,3.65ZM.45,4.1c0-.96.38-1.83.99-2.48l5.14,5.14c-.65.61-1.52.99-2.48.99-2.01,0-3.65-1.64-3.65-3.65Z"/>
</svg>