<?xml version="1.0" encoding="UTF-8"?>
<svg id="Camada_1" data-name="Camada 1" xmlns="http://www.w3.org/2000/svg" viewBox="0 0 6.8 9.03">
  <defs>
    <style>
      .cls-1 {
        fill: #436d17;
        fill-rule: evenodd;
        stroke-width: 0px;
      }
    </style>
  </defs>
  <path class="cls-1" d="m4.12,8.81c-.05,0-.1-.04-.1-.1v-.8h-1.26v.79c0,.05-.03.1-.08.11,0,0-.01,0-.02,0-.05,0-.1-.04-.1-.1v-.8h-.17c-.17,0-.31-.09-.39-.23-.08-.15-.07-.32.02-.46,0,0,.69-.9,1.18-1.14l.07-.04v-3.65c0-1.09-.88-1.97-1.97-1.97H.38l.02.14c.12,1.1,1.01,1.97,2.11,2.06.06,0,.11.06.1.12,0,.06-.05.1-.11.1C1.19,2.75.16,1.64.16.33v-.11h1.16c1.2,0,2.18.98,2.19,2.18v.69s.23-.3.23-.3c.42-.55,1.05-.86,1.74-.86h1.16v.11c0,1.31-.98,2.39-2.28,2.52h0c-.07,0-.11-.04-.12-.1,0-.06.04-.11.1-.12,1.1-.11,1.95-.96,2.07-2.05l.02-.14h-.94c-1.09,0-1.97.88-1.97,1.97v1.94l.07.04c.49.24,1.18,1.14,1.19,1.14.08.13.09.3.01.45-.08.15-.23.23-.39.23h-.17v.79c0,.05-.03.1-.08.11,0,0-.01,0-.02,0m-.77-2.54c-.16.05-1.2.96-1.15,1.28.01.07.07.15.2.15h1.97c.13,0,.19-.08.2-.16.05-.33-.99-1.22-1.15-1.27h-.04s-.04,0-.04,0Z"/>
</svg>