<?xml version="1.0" encoding="UTF-8"?>
<svg id="Camada_1" data-name="Camada 1" xmlns="http://www.w3.org/2000/svg" viewBox="0 0 7.17 9.21">
  <defs>
    <style>
      .cls-1 {
        fill: #436d17;
        stroke-width: 0px;
      }
    </style>
  </defs>
  <path class="cls-1" d="m.15,1.53s0-.02,0-.02c0,0,0-.16,0-.34,0-.16,0-.33,0-.42,0-.16.07-.29.17-.38.11-.1.25-.16.41-.18,0,0,0,0,.01,0h0s4.1,0,4.1,0c.03,0,.06.01.08.04l1.97,1.91s.03.05.03.07l.08,6.18c0,.18-.05.32-.15.42-.1.1-.24.15-.43.16-.01,0-.27,0-.56,0-.38,0-.83,0-.86,0l-4.18.04c-.21,0-.38-.04-.49-.14-.12-.1-.17-.25-.17-.44v-3.4s-.04-3.5-.04-3.5Zm.21-.36c0,.16,0,.31,0,.35.03,2.32.04,4.6.04,6.91,0,.13.03.23.1.29.07.06.19.09.35.09,1.39,0,2.79-.03,4.18-.04.02,0,.47,0,.86,0,.29,0,.54,0,.55,0,.13,0,.23-.04.29-.1.06-.06.09-.15.09-.27l-.08-6.08-1.28.02c-.21,0-.37-.05-.49-.14-.11-.08-.18-.2-.2-.36,0-.01,0-.03,0-.04v-.03s0,0,0,0V.4S.76.4.76.4c-.11.01-.21.05-.28.12-.06.06-.1.14-.1.24,0,.09,0,.26,0,.42Zm6.22.94l-1.63-1.58v1.22c0,.13.05.22.13.28.08.06.2.09.36.09l1.14-.02Z"/>
  <path class="cls-1" d="m4.05,7.11s-.04-.04-.04-.06c0-.01-.01-.03-.01-.05,0-.03.01-.06.03-.08h0s.57-.5.57-.5c.04-.04.11-.03.15,0,.04.04.03.11,0,.14l-.37.32h.76c.16,0,.29-.04.39-.09.09-.05.15-.12.19-.2.04-.08.06-.18.06-.29,0-.19-.07-.4-.19-.59l-.27-.45s-.01-.11.04-.14c.05-.03.11-.01.14.04l.27.45c.14.23.21.47.22.69,0,.14-.02.27-.08.38-.06.12-.15.22-.27.29-.13.07-.29.12-.49.12h-.76s.44.32.44.32c.05.03.05.1.02.14-.03.04-.1.05-.14.02l-.64-.47Z"/>
  <path class="cls-1" d="m1.33,5.35c-.05.02-.11,0-.14-.05-.02-.05,0-.11.06-.13.26-.1.52-.21.78-.32.05-.02.1,0,.13.04,0,0,0,.01,0,.02,0,0,0,0,0,.01l.2.7c.02.05-.02.11-.07.12-.05.01-.11-.02-.13-.07l-.13-.47-.3.54c-.14.24-.21.45-.2.63,0,.1.03.19.07.26.04.07.11.14.2.19.15.08.36.13.63.12h.52c.06,0,.1.03.11.09,0,.06-.04.1-.1.1h-.52c-.3.01-.55-.04-.73-.14-.12-.07-.21-.15-.27-.26-.06-.1-.1-.23-.1-.36,0-.21.07-.46.23-.73l.28-.5-.5.2Z"/>
  <path class="cls-1" d="m2.6,4.27s-.09.06-.14.04c-.05-.03-.07-.09-.04-.14l.24-.41c.16-.28.36-.48.57-.6.14-.08.29-.12.43-.13.15,0,.3.03.44.11.18.1.35.27.49.51l.23.39.08-.43c.01-.06.06-.09.12-.08.06.01.09.06.08.12l-.13.69s-.02.06-.05.07c-.02.01-.05.02-.08,0l-.7-.18c-.06-.01-.09-.07-.07-.12.01-.05.07-.09.13-.07l.46.12-.24-.42c-.13-.21-.27-.35-.42-.44-.11-.06-.22-.09-.33-.09-.11,0-.22.04-.34.1-.18.1-.35.28-.5.53l-.24.41Z"/>
</svg>