<?xml version="1.0" encoding="UTF-8"?>
<svg id="Camada_1" data-name="Camada 1" xmlns="http://www.w3.org/2000/svg" viewBox="0 0 9.85 9.47">
  <defs>
    <style>
      .cls-1 {
        fill: #436d17;
        stroke-width: 0px;
      }
    </style>
  </defs>
  <path class="cls-1" d="m4.71,5.83s-.02,0-.03,0c-.02-.18-.01-.35,0-.52l.65-.23c.05-.02.08-.08.06-.13-.02-.05-.08-.08-.13-.06l-.54.19c.12-.56.4-.96.4-.97.03-.05.02-.11-.03-.15-.05-.03-.11-.02-.15.03-.01.02-.14.21-.27.5l-.16-.28c-.03-.05-.09-.07-.14-.04-.05.03-.07.09-.04.14l.24.44c-.09.28-.16.63-.13,1.01-.38-.17-.6-.59-.54-1.06.1-.68.64-1.46,1.85-1.46.34,0,.54.09.57.14.01.03,0,.06-.09.18-.16.21-.43.57-.43,1.4,0,.21-.09.42-.25.59-.22.22-.55.33-.86.28M.56,4.18s.07-.08.12-.08h.66v-.1c.11-1.94,1.69-3.46,3.61-3.46,1.21,0,2.35.6,3.03,1.61,0,.02.23.41-.13.66-.29.2-.54.17-.76-.1-.66-.81-1.24-1.12-2.13-1.12-1.35,0-2.45,1.03-2.55,2.4v.11s.85,0,.85,0c.05,0,.1.03.12.08.02.05.02.1-.02.15l-1.19,1.61s-.06.05-.11.05v.1s0-.1,0-.1c-.04,0-.08-.02-.1-.05l-1.37-1.61s-.04-.1-.02-.15Zm1.49,2.02h0c.1,0,.2-.05.27-.13l1.19-1.61c.08-.1.1-.25.04-.37-.06-.12-.18-.2-.31-.2h-.63c.15-1.2,1.13-2.1,2.33-2.1.83,0,1.34.27,1.97,1.04.29.35.66.41,1.04.15.41-.28.31-.73.2-.94-.72-1.07-1.92-1.71-3.2-1.71C2.95.33,1.3,1.88,1.15,3.89h-.46c-.13,0-.26.08-.31.2-.06.12-.04.27.05.37l1.37,1.61c.07.08.16.12.26.12Zm7.24-.89s-.07.08-.12.08h-.66s0,.1,0,.1c-.1,1.94-1.68,3.46-3.6,3.46-1.21,0-2.35-.6-3.03-1.61,0-.02-.23-.41.13-.66.13-.09.24-.13.35-.13.15,0,.28.08.41.23.66.81,1.24,1.12,2.13,1.12,1.35,0,2.45-1.03,2.55-2.4v-.11s-.85,0-.85,0c-.05,0-.1-.03-.12-.08-.02-.05-.02-.1.02-.15l1.19-1.61s.06-.05.11-.05c.04,0,.08.02.1.05l1.37,1.61s.04.1.02.15Zm.14-.28l-1.37-1.61c-.07-.08-.16-.12-.27-.12h0c-.1,0-.2.05-.27.13l-1.19,1.61c-.08.1-.1.25-.04.37.06.12.18.2.31.2h.63c-.15,1.2-1.13,2.1-2.33,2.1-.83,0-1.34-.27-1.97-1.04-.29-.35-.66-.41-1.04-.15-.41.28-.31.73-.2.94.72,1.07,1.92,1.7,3.2,1.7,2,0,3.65-1.56,3.8-3.56h.46c.13,0,.26-.08.31-.2.06-.12.04-.27-.05-.37Zm-3.71.68c.2-.2.32-.46.31-.74,0-.76.23-1.07.39-1.28.09-.13.18-.24.11-.39-.09-.19-.45-.26-.76-.26-.67,0-1.86.35-2.05,1.64-.09.61.24,1.14.77,1.32.04.22.1.44.21.66.02.04.06.06.09.06.02,0,.03,0,.05-.01.05-.03.07-.09.05-.14-.09-.17-.14-.35-.18-.52.05,0,.1,0,.15,0,.32,0,.63-.13.86-.36Z"/>
</svg>