<svg width="28" height="25" viewBox="0 0 28 25" fill="none" xmlns="http://www.w3.org/2000/svg">
<path d="M20.4518 5.11293C20.4518 5.11293 20.6896 5.08321 20.7491 4.9643C20.8086 4.8454 20.8086 4.72649 20.7491 4.63731C18.5791 1.87274 15.9631 1.01068 14.1498 0.772863C12.3662 0.535051 10.9988 0.891769 10.7313 0.951222C8.9774 1.45657 7.72889 2.31864 7.04518 3.5077C6.30201 4.78594 6.30201 6.33172 7.04518 7.46133C6.15338 8.68012 5.55885 10.1367 5.29131 11.8311C5.29131 11.8906 5.29131 11.9798 5.32104 12.0392C5.35077 12.0987 5.43995 12.1581 5.52913 12.1581C5.52913 12.1581 5.76694 12.0689 5.82639 11.8906C6.09393 10.2556 6.65873 8.82875 7.5208 7.66941C7.5208 7.66941 7.60998 7.58024 7.60998 7.52078C8.20451 6.77762 8.91795 6.12364 9.75029 5.61829C11.3555 4.63731 12.8716 4.45895 12.9013 4.45895C13.0499 4.45895 13.1688 4.31032 13.1391 4.16169C13.1391 4.01305 12.9905 3.89415 12.8418 3.92387C12.3365 3.98333 10.9691 4.25087 9.51248 5.17239C8.70986 5.67774 7.99643 6.27227 7.4019 6.9857C6.89655 6.06418 6.92627 4.78594 7.5208 3.80497C8.14506 2.73481 9.27467 1.96192 10.8799 1.4863C11.088 1.42685 16.1415 0.148607 19.9465 4.57786C19.352 4.69676 18.2521 5.11293 16.6468 6.39118C16.1415 6.80735 11.5339 10.4934 8.23424 7.78832C8.11533 7.69914 7.93697 7.69914 7.84779 7.81805C7.78834 7.8775 7.78834 7.93695 7.78834 8.02613C7.78834 8.11531 7.81807 8.17477 7.87752 8.20449C9.48275 9.51246 11.5933 9.69082 13.9417 8.68012C15.4281 8.05586 16.5577 7.19379 17.0036 6.83707C19.2628 5.02375 20.3924 5.08321 20.4518 5.08321" fill="#A8CF45"/>
<path d="M25.4162 12.8419C24.5838 11.6231 23.1272 10.9097 21.7598 11.088C21.0464 9.78008 19.9465 8.59102 18.4899 7.58031C18.3413 7.49114 18.1926 7.52086 18.1034 7.66949C18.0143 7.81813 18.044 7.96676 18.1926 8.05594C20.5707 9.6909 21.9382 11.8015 22.2057 14.2985C22.3543 15.874 21.9976 17.1523 21.8787 17.509C21.8787 17.509 21.8787 17.6873 21.8787 17.7468C21.8787 17.8062 21.9679 17.8657 22.0273 17.8954C22.0571 17.8954 22.1165 17.8954 22.1463 17.8954C22.2652 17.8954 22.3841 17.8062 22.4138 17.7171C22.4138 17.7171 22.9786 16.2605 22.7705 14.2391C22.6813 13.3175 22.4435 12.4555 22.0571 11.6231C23.1272 11.5637 24.2866 12.1879 24.9703 13.1689C25.6837 14.2093 25.8918 15.547 25.5945 17.1225C25.5945 17.1225 25.3567 18.4899 24.3163 19.9763C23.4245 21.2545 21.7301 22.9489 18.698 23.6326C18.8466 22.9787 18.9358 21.849 18.4899 19.9465C18.4899 19.8871 16.7658 13.7932 20.9275 12.0096C21.0761 11.9501 21.1356 11.8015 21.0761 11.6528C21.0761 11.5934 20.9869 11.5339 20.9275 11.5042C20.868 11.5042 20.7788 11.5042 20.7194 11.5042C16.2307 13.4067 17.8656 19.8276 17.9548 20.0952C18.5493 22.6517 18.1034 23.6624 18.0143 23.8407C18.0143 23.8407 17.9548 24.0488 18.0143 24.1677C18.0737 24.2569 18.1629 24.2866 18.2521 24.2866H18.3115C21.849 23.6326 23.7812 21.7301 24.7919 20.2735C25.7432 18.8764 26.0702 17.5982 26.1296 17.2414C26.4566 15.4578 26.2188 14.0012 25.4162 12.8419Z" fill="#A8CF45"/>
<path d="M15.9631 19.9762C14.4174 20.6599 12.8716 20.9869 11.3853 20.9274C11.3853 20.9274 11.3853 20.9274 11.3555 20.9274C11.2961 20.9274 11.2069 20.9274 11.1474 20.9274C10.1962 20.868 9.24495 20.6302 8.38288 20.2734C6.71819 19.56 5.73722 18.5196 5.64804 18.4007C5.61831 18.3412 5.52913 18.3115 5.46968 18.2818C5.3805 18.2818 5.32105 18.2818 5.26159 18.3412C5.20214 18.3709 5.17242 18.4601 5.14269 18.5196C5.14269 18.6088 5.14269 18.6682 5.20214 18.7277C5.55886 19.1141 6.53983 20.0654 8.11534 20.7491C8.97741 21.1058 9.89893 21.3436 10.8205 21.4328C10.3151 22.3543 9.21522 23.0083 8.02616 23.0677C6.74792 23.1569 5.43995 22.6813 4.16171 21.6409C4.13199 21.6111 0.0297276 18.3115 1.75387 12.6337C2.25922 13.1094 3.21047 13.7336 5.14269 14.2984C5.20214 14.2984 11.5339 15.9334 11.0285 20.3032C11.0285 20.3626 11.0285 20.4518 11.088 20.5113C11.1474 20.5707 11.2069 20.6004 11.2664 20.6004C11.415 20.6004 11.5636 20.5113 11.5636 20.3626C11.8014 18.3412 10.761 16.5576 8.56124 15.1902C6.92628 14.1498 5.23187 13.7633 5.23187 13.7633C2.43758 12.931 1.87277 12.0095 1.84305 11.9797C1.81332 11.8906 1.69441 11.8311 1.57551 11.8311C1.4566 11.8311 1.36742 11.9203 1.33769 12.0095C0.17836 15.3091 0.891797 17.8953 1.69441 19.4708C2.58621 21.195 3.74554 22.1165 3.74554 22.1165C5.02378 23.1569 6.36148 23.692 7.66944 23.692C7.78835 23.692 7.87753 23.692 7.99643 23.692C9.51249 23.5731 10.8205 22.7407 11.3555 21.522C11.4447 21.522 11.5636 21.522 11.6528 21.522C13.0797 21.522 14.5957 21.195 16.1118 20.541C16.2604 20.4815 16.3199 20.3329 16.2604 20.1545C16.201 20.0059 16.0523 19.9465 15.874 20.0059" fill="#A8CF45"/>
</svg>
