<svg width="27" height="21" viewBox="0 0 27 21" fill="none" xmlns="http://www.w3.org/2000/svg">
<path d="M24.2301 5.50174C24.4939 5.50174 24.8456 5.50174 25.2267 5.58843C25.6077 5.64622 26.1353 5.73291 26.8095 5.90629V10.2119C26.3991 10.0385 25.9888 9.95183 25.5491 9.92293C25.4612 9.92293 25.3732 9.92293 25.2853 9.92293C24.9629 9.92293 24.6111 9.98072 24.318 10.0674C23.9663 10.2119 23.6732 10.4142 23.4387 10.6742C23.2042 10.9343 23.0869 11.2811 23.0869 11.6856V20.9904H18.0747V11.4545C18.0747 10.4142 18.2213 9.54727 18.5437 8.79596C18.8661 8.04465 19.3058 7.43782 19.8627 6.94657C20.4196 6.45533 21.0645 6.10857 21.8266 5.8774C22.5593 5.64622 23.3801 5.53064 24.2301 5.53064" fill="#FF782D"/>
<path d="M8.87103 8.33362C9.51587 8.33362 10.0142 8.16024 10.3659 7.78458C10.7176 7.38003 10.8642 6.94658 10.8642 6.45533C10.8642 5.96409 10.6883 5.55954 10.3659 5.18388C10.0435 4.80822 9.54518 4.63484 8.87103 4.63484H5.79335V8.30472H8.87103V8.33362ZM8.87103 16.338C9.66243 16.338 10.2487 16.1068 10.659 15.6734C11.0401 15.2399 11.2452 14.7487 11.2452 14.1996C11.2452 13.6506 11.0401 13.1883 10.659 12.7259C10.278 12.2925 9.66243 12.0613 8.87103 12.0613H5.79335V16.3091H8.87103V16.338ZM16.5506 14.7198C16.5506 15.0376 16.5506 15.3266 16.4919 15.5578C16.2281 17.2338 15.4954 18.5341 14.2936 19.4877C13.0918 20.4413 11.3625 20.9037 9.01758 20.9037H0.429405V0.213654H8.84172C9.8383 0.213654 10.7763 0.358137 11.6263 0.647104C12.4763 0.93607 13.1798 1.34062 13.7953 1.88966C14.4108 2.4098 14.8798 3.07442 15.2022 3.85463C15.5247 4.60595 15.6712 5.41505 15.6712 6.33975V6.51313C15.6712 6.7443 15.6126 7.03327 15.5247 7.32224C15.4367 7.6401 15.2902 7.95796 15.1143 8.24693C14.9384 8.56479 14.704 8.85376 14.4402 9.14273C14.1764 9.43169 13.8539 9.66287 13.4729 9.86514C14.1764 10.2119 14.7626 10.6454 15.1729 11.1366C15.6126 11.6278 15.9057 12.1191 16.1109 12.6681C16.3161 13.1883 16.4333 13.7084 16.4626 14.2285C16.4626 14.4019 16.4919 14.5753 16.4919 14.7198H16.5506Z" fill="#FF782D"/>
</svg>
