<svg width="326" height="140" viewBox="0 0 326 140" fill="none" xmlns="http://www.w3.org/2000/svg">
<path d="M21.1853 131.214C12.0272 131.214 4.7477 124.639 4.7477 115.011C4.7477 105.383 12.0272 98.8082 21.1853 98.8082C28.3239 98.8082 32.3158 102.565 34.5232 106.463L28.7935 109.281C27.4785 106.745 24.6606 104.726 21.1853 104.726C15.7374 104.726 11.6045 109.093 11.6045 115.011C11.6045 120.929 15.7374 125.296 21.1853 125.296C24.6606 125.296 27.4785 123.324 28.7935 120.741L34.5232 123.512C32.2689 127.41 28.3239 131.214 21.1853 131.214ZM47.9326 131.214C40.4653 131.214 35.9567 125.766 35.9567 119.285C35.9567 112.851 40.4653 107.403 47.9326 107.403C55.4469 107.403 59.9555 112.851 59.9555 119.285C59.9555 125.766 55.4469 131.214 47.9326 131.214ZM47.9326 125.907C51.6428 125.907 53.7562 122.854 53.7562 119.285C53.7562 115.762 51.6428 112.71 47.9326 112.71C44.2224 112.71 42.156 115.762 42.156 119.285C42.156 122.854 44.2224 125.907 47.9326 125.907ZM69.4057 127.738V139.292H63.4412V107.966H69.4057V110.831C71.1433 108.624 73.6325 107.403 76.4034 107.403C82.227 107.403 86.4538 111.723 86.4538 119.285C86.4538 126.846 82.227 131.214 76.4034 131.214C73.7264 131.214 71.2373 130.087 69.4057 127.738ZM80.2545 119.285C80.2545 115.387 77.9532 112.71 74.5248 112.71C72.5992 112.71 70.3919 113.837 69.4057 115.293V123.324C70.3919 124.733 72.5992 125.907 74.5248 125.907C77.9532 125.907 80.2545 123.23 80.2545 119.285ZM100.494 131.214C93.027 131.214 88.5184 125.766 88.5184 119.285C88.5184 112.851 93.027 107.403 100.494 107.403C108.009 107.403 112.517 112.851 112.517 119.285C112.517 125.766 108.009 131.214 100.494 131.214ZM100.494 125.907C104.204 125.907 106.318 122.854 106.318 119.285C106.318 115.762 104.204 112.71 100.494 112.71C96.7841 112.71 94.7177 115.762 94.7177 119.285C94.7177 122.854 96.7841 125.907 100.494 125.907ZM114.03 127.691L116.613 123.512C118.257 125.061 121.639 126.611 124.456 126.611C127.04 126.611 128.261 125.719 128.261 124.31C128.261 122.713 126.288 122.15 123.705 121.633C119.807 120.882 114.782 119.942 114.782 114.541C114.782 110.737 118.116 107.403 124.081 107.403C127.932 107.403 130.985 108.718 133.192 110.502L130.844 114.588C129.482 113.132 126.899 111.958 124.128 111.958C121.967 111.958 120.558 112.757 120.558 114.072C120.558 115.481 122.343 115.997 124.879 116.514C128.777 117.265 133.99 118.298 133.99 123.934C133.99 128.114 130.468 131.214 124.175 131.214C120.23 131.214 116.426 129.899 114.03 127.691ZM170.126 130.65H164.114V127.785C162.33 129.993 159.841 131.214 157.117 131.214C151.387 131.214 147.066 126.893 147.066 119.332C147.066 111.911 151.34 107.403 157.117 107.403C159.794 107.403 162.33 108.577 164.114 110.878V99.3248H170.126V130.65ZM164.114 123.324V115.293C163.081 113.79 160.968 112.71 158.948 112.71C155.567 112.71 153.219 115.387 153.219 119.332C153.219 123.23 155.567 125.907 158.948 125.907C160.968 125.907 163.081 124.827 164.114 123.324ZM173.645 119.285C173.645 112.71 178.482 107.403 185.386 107.403C192.149 107.403 196.752 112.475 196.752 119.895V121.21H179.891C180.267 124.075 182.568 126.47 186.419 126.47C188.533 126.47 191.022 125.625 192.478 124.216L195.108 128.067C192.807 130.181 189.284 131.214 185.762 131.214C178.858 131.214 173.645 126.564 173.645 119.285ZM185.386 112.146C181.676 112.146 180.079 114.917 179.797 117.171H190.975C190.834 115.011 189.331 112.146 185.386 112.146ZM218.007 130.65H211.339V99.3248H225.991C232.801 99.3248 236.511 103.927 236.511 109.422C236.511 114.87 232.754 119.426 225.991 119.426H218.007V130.65ZM229.702 109.375C229.702 106.792 227.729 105.055 225.099 105.055H218.007V113.696H225.099C227.729 113.696 229.702 112.005 229.702 109.375ZM258.232 130.65H252.268V128.302C250.718 130.134 248.041 131.214 245.082 131.214C241.466 131.214 237.192 128.772 237.192 123.699C237.192 118.392 241.466 116.467 245.082 116.467C248.088 116.467 250.765 117.406 252.268 119.238V116.091C252.268 113.79 250.295 112.287 247.289 112.287C244.847 112.287 242.593 113.179 240.667 114.964L238.413 110.972C241.184 108.53 244.753 107.403 248.323 107.403C253.489 107.403 258.232 109.469 258.232 115.997V130.65ZM252.268 125.202V122.384C251.281 121.069 249.403 120.412 247.477 120.412C245.129 120.412 243.204 121.68 243.204 123.84C243.204 125.954 245.129 127.175 247.477 127.175C249.403 127.175 251.281 126.517 252.268 125.202ZM269.173 127.738V139.292H263.209V107.966H269.173V110.831C270.911 108.624 273.4 107.403 276.171 107.403C281.995 107.403 286.222 111.723 286.222 119.285C286.222 126.846 281.995 131.214 276.171 131.214C273.494 131.214 271.005 130.087 269.173 127.738ZM280.022 119.285C280.022 115.387 277.721 112.71 274.293 112.71C272.367 112.71 270.16 113.837 269.173 115.293V123.324C270.16 124.733 272.367 125.907 274.293 125.907C277.721 125.907 280.022 123.23 280.022 119.285ZM288.286 119.285C288.286 112.71 293.123 107.403 300.027 107.403C306.79 107.403 311.393 112.475 311.393 119.895V121.21H294.532C294.908 124.075 297.209 126.47 301.06 126.47C303.174 126.47 305.663 125.625 307.119 124.216L309.749 128.067C307.448 130.181 303.925 131.214 300.403 131.214C293.499 131.214 288.286 126.564 288.286 119.285ZM300.027 112.146C296.317 112.146 294.72 114.917 294.438 117.171H305.616C305.475 115.011 303.972 112.146 300.027 112.146ZM320.726 130.65H314.762V99.3248H320.726V130.65Z" fill="#436D17"/>
<path d="M91.8002 59.4995V18.3164C98.1772 18.3164 106.741 17.4909 111.706 20.6553C116.898 23.9573 115.851 31.5243 115.851 38.8621C115.851 42.1641 116.078 46.6584 115.714 49.777C114.256 61.288 102.641 59.4536 91.8002 59.4536M78.545 1.94407C75.6754 2.40268 75.4932 4.19126 75.4932 7.12635V64.4524C75.4932 72.4781 74.2178 75.8718 80.4581 75.8718C85.8786 75.8718 91.2991 75.8718 96.7196 75.8718C108.062 75.8718 115.304 75.1839 122.729 69.3137C124.186 68.1672 125.553 66.7455 126.692 65.1862C130.837 59.7288 132.112 53.0331 132.112 45.9247C132.112 40.5131 132.203 34.9639 132.112 29.5523C131.93 20.3343 128.559 12.6297 121.544 7.44738C118.629 5.24606 114.393 3.50334 110.066 2.63199C104.281 1.48546 93.3033 1.80649 86.6074 1.80649C84.3299 1.80649 80.6859 1.57719 78.5906 1.94407H78.545ZM28.9408 47.0712C29.3052 45.8329 35.5912 26.6172 36.2289 25.2873L43.5169 47.0712H28.9408ZM22.5182 63.4894H49.9395C50.7138 65.5531 51.5337 67.7086 52.3081 69.8182C54.7678 76.5139 55.5877 75.8718 63.8779 75.8718C72.168 75.8718 71.5303 74.1291 68.6151 66.6538L61.2359 47.4839C58.0019 38.9997 54.6312 30.4695 51.4426 21.9853C49.8484 17.7202 48.163 13.5469 46.5232 9.23595C45.7489 7.17221 45.0656 4.69573 43.6991 3.3199C41.8315 1.48546 39.2807 1.85235 36.32 1.85235C28.5309 1.85235 28.622 2.17338 25.9801 9.14423C19.5575 26.1128 12.816 43.1271 6.39345 60.1415C5.43689 62.7097 1.70177 71.2399 1.97507 73.4412C2.29392 76.0553 5.66464 75.9177 8.26101 75.9177C10.6296 75.9177 14.638 76.2387 16.5512 75.3215C18.6009 74.3584 19.1475 72.2488 20.0585 69.9558C20.8784 67.892 21.7894 65.599 22.5182 63.5352V63.4894ZM174.793 1.98993C195.29 1.98993 211.871 18.7292 211.871 39.3207C211.871 48.4011 208.637 56.702 203.307 63.1683C203.763 63.6269 204.173 64.1314 204.674 64.6359C207.999 68.0755 189.733 69.4513 186.18 68.5341C184.95 68.213 183.994 67.3875 183.994 65.1862C184.039 63.4894 187.683 46.2457 190.325 49.1808L191.419 50.3732C193.514 47.2088 194.744 43.4023 194.744 39.2748C194.744 28.1765 185.816 19.1878 174.793 19.1878C163.77 19.1878 154.842 28.1765 154.842 39.2748C154.842 50.3732 163.77 59.3619 174.793 59.3619C177.571 59.3619 180.259 58.7657 182.673 57.7568L181.124 66.6996C180.578 69.222 181.853 71.194 184.677 71.3774L193.332 71.6526C187.866 74.817 181.534 76.6514 174.793 76.6514C154.295 76.6514 137.715 59.9122 137.715 39.3207C137.715 18.7292 154.295 1.98993 174.793 1.98993ZM243.437 75.7342H233.507C232.55 75.7342 231.822 74.9546 231.822 74.0374V23.0859C231.822 20.2426 229.544 17.9495 226.72 17.9495H212.827C211.871 17.9495 211.142 17.1699 211.142 16.2527V4.97089C211.142 3.3199 212.463 1.98993 214.103 1.98993H266.03C267.67 1.98993 268.991 3.3199 268.991 4.97089V16.2068C268.991 17.1699 268.216 17.9037 267.305 17.9037H250.269C249.313 17.9037 248.584 18.6833 248.584 19.6005V70.5061C248.584 73.3495 246.307 75.6425 243.482 75.6425L243.437 75.7342ZM243.437 75.7342H233.507C232.55 75.7342 231.822 74.9546 231.822 74.0374V23.0859C231.822 20.2426 229.544 17.9495 226.72 17.9495H212.827C211.871 17.9495 211.142 17.1699 211.142 16.2527V4.97089C211.142 3.3199 212.463 1.98993 214.103 1.98993H266.03C267.67 1.98993 268.991 3.3199 268.991 4.97089V16.2068C268.991 17.1699 268.216 17.9037 267.305 17.9037H250.269C249.313 17.9037 248.584 18.6833 248.584 19.6005V70.5061C248.584 73.3495 246.307 75.6425 243.482 75.6425M283.84 75.4591C279.148 75.4591 275.322 71.6067 275.322 66.8831V10.5659C275.322 5.84225 279.148 1.98993 283.84 1.98993H319.324C321.966 1.98993 324.152 4.1454 324.152 6.85119V16.2985C324.152 17.1699 323.423 17.9037 322.558 17.9037C312.719 17.9037 302.88 17.9037 293.041 17.9037C292.085 17.9037 291.356 18.6833 291.356 19.6005V29.002C291.356 29.9651 292.13 30.6988 293.041 30.6988C300.101 30.6988 307.162 30.6988 314.222 30.6988C315.862 30.6988 317.183 32.0288 317.183 33.6798V44.9157C317.183 45.8788 316.408 46.6126 315.497 46.6126C307.982 46.6126 300.511 46.6126 293.041 46.6126C292.085 46.6126 291.356 47.3922 291.356 48.3094V57.7568C291.356 58.7198 292.13 59.4536 293.041 59.4536C302.926 59.4536 312.764 59.4536 322.603 59.4536C323.469 59.4536 324.198 60.1874 324.198 61.0587V70.5061C324.198 73.166 322.057 75.3673 319.369 75.3673H283.886L283.84 75.4591Z" fill="#A8CF45"/>
</svg>
