<svg width="334" height="62" viewBox="0 0 334 62" fill="none" xmlns="http://www.w3.org/2000/svg">
<path d="M236.944 54H230.838V25.319H244.254C250.489 25.319 253.886 29.533 253.886 34.564C253.886 39.552 250.446 43.723 244.254 43.723H236.944V54ZM247.651 34.521C247.651 32.156 245.845 30.565 243.437 30.565H236.944V38.477H243.437C245.845 38.477 247.651 36.929 247.651 34.521ZM273.773 54H268.312V51.85C266.893 53.527 264.442 54.516 261.733 54.516C258.422 54.516 254.509 52.28 254.509 47.636C254.509 42.777 258.422 41.014 261.733 41.014C264.485 41.014 266.936 41.874 268.312 43.551V40.67C268.312 38.563 266.506 37.187 263.754 37.187C261.518 37.187 259.454 38.004 257.691 39.638L255.627 35.983C258.164 33.747 261.432 32.715 264.7 32.715C269.43 32.715 273.773 34.607 273.773 40.584V54ZM268.312 49.012V46.432C267.409 45.228 265.689 44.626 263.926 44.626C261.776 44.626 260.013 45.787 260.013 47.765C260.013 49.7 261.776 50.818 263.926 50.818C265.689 50.818 267.409 50.216 268.312 49.012ZM283.791 51.334V61.912H278.33V33.231H283.791V35.854C285.382 33.833 287.661 32.715 290.198 32.715C295.53 32.715 299.4 36.671 299.4 43.594C299.4 50.517 295.53 54.516 290.198 54.516C287.747 54.516 285.468 53.484 283.791 51.334ZM293.724 43.594C293.724 40.025 291.617 37.574 288.478 37.574C286.715 37.574 284.694 38.606 283.791 39.939V47.292C284.694 48.582 286.715 49.657 288.478 49.657C291.617 49.657 293.724 47.206 293.724 43.594ZM301.29 43.594C301.29 37.574 305.719 32.715 312.04 32.715C318.232 32.715 322.446 37.359 322.446 44.153V45.357H307.009C307.353 47.98 309.46 50.173 312.986 50.173C314.921 50.173 317.2 49.399 318.533 48.109L320.941 51.635C318.834 53.57 315.609 54.516 312.384 54.516C306.063 54.516 301.29 50.259 301.29 43.594ZM312.04 37.058C308.643 37.058 307.181 39.595 306.923 41.659H317.157C317.028 39.681 315.652 37.058 312.04 37.058ZM330.992 54H325.531V25.319H330.992V54Z" fill="#436D17"/>
<path d="M321.937 21H319.505V19.841C318.783 20.734 317.776 21.228 316.674 21.228C314.356 21.228 312.608 19.48 312.608 16.421C312.608 13.419 314.337 11.595 316.674 11.595C317.757 11.595 318.783 12.07 319.505 13.001V8.327H321.937V21ZM319.505 18.036V14.787C319.087 14.179 318.232 13.742 317.415 13.742C316.047 13.742 315.097 14.825 315.097 16.421C315.097 17.998 316.047 19.081 317.415 19.081C318.232 19.081 319.087 18.644 319.505 18.036ZM323.361 16.402C323.361 13.742 325.318 11.595 328.111 11.595C330.847 11.595 332.709 13.647 332.709 16.649V17.181H325.888C326.04 18.34 326.971 19.309 328.529 19.309C329.384 19.309 330.391 18.967 330.98 18.397L332.044 19.955C331.113 20.81 329.688 21.228 328.263 21.228C325.47 21.228 323.361 19.347 323.361 16.402ZM328.111 13.514C326.61 13.514 325.964 14.635 325.85 15.547H330.372C330.315 14.673 329.707 13.514 328.111 13.514Z" fill="#436D17"/>
<path d="M239.752 23.336C234.292 23.336 229.952 19.416 229.952 13.676C229.952 7.936 234.292 4.016 239.752 4.016C244.008 4.016 246.388 6.256 247.704 8.58L244.288 10.26C243.504 8.748 241.824 7.544 239.752 7.544C236.504 7.544 234.04 10.148 234.04 13.676C234.04 17.204 236.504 19.808 239.752 19.808C241.824 19.808 243.504 18.632 244.288 17.092L247.704 18.744C246.36 21.068 244.008 23.336 239.752 23.336ZM255.699 23.336C251.247 23.336 248.559 20.088 248.559 16.224C248.559 12.388 251.247 9.14 255.699 9.14C260.179 9.14 262.867 12.388 262.867 16.224C262.867 20.088 260.179 23.336 255.699 23.336ZM255.699 20.172C257.911 20.172 259.171 18.352 259.171 16.224C259.171 14.124 257.911 12.304 255.699 12.304C253.487 12.304 252.255 14.124 252.255 16.224C252.255 18.352 253.487 20.172 255.699 20.172ZM268.501 21.264V28.152H264.945V9.476H268.501V11.184C269.537 9.868 271.021 9.14 272.673 9.14C276.145 9.14 278.665 11.716 278.665 16.224C278.665 20.732 276.145 23.336 272.673 23.336C271.077 23.336 269.593 22.664 268.501 21.264ZM274.969 16.224C274.969 13.9 273.597 12.304 271.553 12.304C270.405 12.304 269.089 12.976 268.501 13.844V18.632C269.089 19.472 270.405 20.172 271.553 20.172C273.597 20.172 274.969 18.576 274.969 16.224ZM287.036 23.336C282.584 23.336 279.896 20.088 279.896 16.224C279.896 12.388 282.584 9.14 287.036 9.14C291.516 9.14 294.204 12.388 294.204 16.224C294.204 20.088 291.516 23.336 287.036 23.336ZM287.036 20.172C289.248 20.172 290.508 18.352 290.508 16.224C290.508 14.124 289.248 12.304 287.036 12.304C284.824 12.304 283.592 14.124 283.592 16.224C283.592 18.352 284.824 20.172 287.036 20.172ZM295.106 21.236L296.646 18.744C297.626 19.668 299.642 20.592 301.322 20.592C302.862 20.592 303.59 20.06 303.59 19.22C303.59 18.268 302.414 17.932 300.874 17.624C298.55 17.176 295.554 16.616 295.554 13.396C295.554 11.128 297.542 9.14 301.098 9.14C303.394 9.14 305.214 9.924 306.53 10.988L305.13 13.424C304.318 12.556 302.778 11.856 301.126 11.856C299.838 11.856 298.998 12.332 298.998 13.116C298.998 13.956 300.062 14.264 301.574 14.572C303.898 15.02 307.006 15.636 307.006 18.996C307.006 21.488 304.906 23.336 301.154 23.336C298.802 23.336 296.534 22.552 295.106 21.236Z" fill="#436D17"/>
<g clip-path="url(#clip0_199_78)">
<path d="M58.6373 45.0685V18.5475C62.744 18.5475 68.2587 18.0159 71.456 20.0537C74.8 22.1801 74.1253 27.0531 74.1253 31.7785C74.1253 33.9049 74.272 36.7991 74.0373 38.8074C73.0987 46.2203 65.6187 45.039 58.6373 45.039M50.1013 8.00411C48.2533 8.29944 48.136 9.45125 48.136 11.3414V48.2581C48.136 53.4264 47.3147 55.6119 51.3333 55.6119C54.824 55.6119 58.3147 55.6119 61.8053 55.6119C69.1093 55.6119 73.7733 55.1689 78.5547 51.3886C79.4933 50.6503 80.3733 49.7348 81.1067 48.7306C83.776 45.2162 84.5973 40.9043 84.5973 36.3266C84.5973 32.8417 84.656 29.2681 84.5973 25.7832C84.48 19.847 82.3093 14.8854 77.792 11.5481C75.9147 10.1305 73.1867 9.00825 70.4 8.44711C66.6747 7.70878 59.6053 7.91551 55.2933 7.91551C53.8267 7.91551 51.48 7.76784 50.1307 8.00411H50.1013ZM18.1573 37.0649C18.392 36.2675 22.44 23.8931 22.8507 23.0366L27.544 37.0649H18.1573ZM14.0213 47.6379H31.68C32.1787 48.9669 32.7067 50.355 33.2053 51.7135C34.7893 56.0254 35.3173 55.6119 40.656 55.6119C45.9947 55.6119 45.584 54.4896 43.7067 49.6757L38.9547 37.3307C36.872 31.8671 34.7013 26.3739 32.648 20.9102C31.6213 18.1636 30.536 15.4761 29.48 12.6999C28.9813 11.3709 28.5413 9.77611 27.6613 8.89011C26.4587 7.70878 24.816 7.94504 22.9093 7.94504C17.8933 7.94504 17.952 8.15178 16.2507 12.6408C12.1147 23.5682 7.77334 34.5251 3.63734 45.482C3.02134 47.1358 0.616003 52.629 0.792003 54.0466C0.997336 55.73 3.168 55.6414 4.84 55.6414C6.36534 55.6414 8.94667 55.8482 10.1787 55.2575C11.4987 54.6373 11.8507 53.2788 12.4373 51.8021C12.9653 50.4731 13.552 48.9964 14.0213 47.6674V47.6379ZM112.083 8.03364C125.283 8.03364 135.96 18.8133 135.96 32.0738C135.96 37.9214 133.877 43.267 130.445 47.4312C130.739 47.7265 131.003 48.0514 131.325 48.3762C133.467 50.5912 121.704 51.4772 119.416 50.8866C118.624 50.6798 118.008 50.1482 118.008 48.7306C118.037 47.6379 120.384 36.5333 122.085 38.4235L122.789 39.1913C124.139 37.1535 124.931 34.7023 124.931 32.0443C124.931 24.8972 119.181 19.1087 112.083 19.1087C104.984 19.1087 99.2347 24.8972 99.2347 32.0443C99.2347 39.1913 104.984 44.9799 112.083 44.9799C113.872 44.9799 115.603 44.596 117.157 43.9462L116.16 49.7052C115.808 51.3296 116.629 52.5995 118.448 52.7176L124.021 52.8948C120.501 54.9326 116.424 56.114 112.083 56.114C98.8827 56.114 88.2053 45.3343 88.2053 32.0738C88.2053 18.8133 98.8827 8.03364 112.083 8.03364ZM156.288 55.5233H149.893C149.277 55.5233 148.808 55.0212 148.808 54.4306V21.619C148.808 19.7879 147.341 18.3113 145.523 18.3113H136.576C135.96 18.3113 135.491 17.8092 135.491 17.2185V9.95331C135.491 8.89011 136.341 8.03364 137.397 8.03364H170.837C171.893 8.03364 172.744 8.89011 172.744 9.95331V17.189C172.744 17.8092 172.245 18.2817 171.659 18.2817H160.688C160.072 18.2817 159.603 18.7838 159.603 19.3745V52.1565C159.603 53.9876 158.136 55.4642 156.317 55.4642L156.288 55.5233ZM156.288 55.5233H149.893C149.277 55.5233 148.808 55.0212 148.808 54.4306V21.619C148.808 19.7879 147.341 18.3113 145.523 18.3113H136.576C135.96 18.3113 135.491 17.8092 135.491 17.2185V9.95331C135.491 8.89011 136.341 8.03364 137.397 8.03364H170.837C171.893 8.03364 172.744 8.89011 172.744 9.95331V17.189C172.744 17.8092 172.245 18.2817 171.659 18.2817H160.688C160.072 18.2817 159.603 18.7838 159.603 19.3745V52.1565C159.603 53.9876 158.136 55.4642 156.317 55.4642M182.307 55.3461C179.285 55.3461 176.821 52.8653 176.821 49.8234V13.5564C176.821 10.5144 179.285 8.03364 182.307 8.03364H205.157C206.859 8.03364 208.267 9.42171 208.267 11.1642V17.2481C208.267 17.8092 207.797 18.2817 207.24 18.2817C200.904 18.2817 194.568 18.2817 188.232 18.2817C187.616 18.2817 187.147 18.7838 187.147 19.3745V25.4288C187.147 26.049 187.645 26.5215 188.232 26.5215C192.779 26.5215 197.325 26.5215 201.872 26.5215C202.928 26.5215 203.779 27.378 203.779 28.4412V35.6769C203.779 36.2971 203.28 36.7696 202.693 36.7696C197.853 36.7696 193.043 36.7696 188.232 36.7696C187.616 36.7696 187.147 37.2717 187.147 37.8623V43.9462C187.147 44.5664 187.645 45.039 188.232 45.039C194.597 45.039 200.933 45.039 207.269 45.039C207.827 45.039 208.296 45.5115 208.296 46.0726V52.1565C208.296 53.8694 206.917 55.287 205.187 55.287H182.336L182.307 55.3461Z" fill="#A8CF45"/>
</g>
<defs>
<clipPath id="clip0_199_78">
<rect width="209" height="50" fill="white" transform="translate(0 7)"/>
</clipPath>
</defs>
</svg>
