<svg width="430" height="424" viewBox="0 0 430 424" fill="none" xmlns="http://www.w3.org/2000/svg">
<path d="M292.669 338.521C292.669 338.521 292.669 338.491 292.699 338.46L294.141 336.037C294.233 335.761 294.295 335.669 294.356 335.669C294.448 335.669 294.663 335.853 294.785 336.037L298.405 341.681C298.405 341.681 298.405 341.742 298.436 341.773C298.436 341.773 298.436 341.834 298.436 341.865C298.405 341.926 298.221 341.957 298.068 341.957L291.38 341.466C291.104 341.435 291.012 341.343 291.012 341.313C291.012 341.221 291.135 340.975 291.288 340.853V340.791L292.669 338.552V338.521ZM290.552 341.435C290.614 341.712 290.89 341.865 291.35 341.926L298.068 342.417C298.068 342.417 298.62 342.417 298.834 342.172C298.926 342.049 299.018 341.773 298.834 341.435L295.215 335.761C295.215 335.761 294.755 335.116 294.295 335.208C294.018 335.239 293.834 335.485 293.712 335.883L292.423 338.061C290.184 336.988 270.153 326.896 266.135 313.828C266.135 313.552 265.614 313.46 265.675 313.981C269.724 327.172 289.755 337.294 292.147 338.491L290.951 340.515C290.951 340.515 290.46 341.037 290.552 341.435Z" fill="#9D9C9C"/>
<path d="M175.522 55.6411L175.751 55.555L182.383 54.4928C182.641 54.4641 182.785 54.4928 182.813 54.5502C182.871 54.6363 182.756 54.9234 182.641 55.0957L180.919 57.3923L180.976 60.4354C180.976 60.6938 180.89 60.8086 180.861 60.8373C180.775 60.8947 180.517 60.7512 180.344 60.5789L175.493 55.9282C175.493 55.9282 175.407 55.756 175.407 55.7273C175.407 55.7273 175.435 55.6698 175.522 55.6124M181.005 61.2105C181.234 61.0957 181.349 60.8373 181.378 60.4067L181.321 57.6794C183.589 57.9091 200.699 60.0335 206.584 70.5407C209.713 76.1674 209.167 83.2296 204.919 91.6124C204.861 91.7273 204.919 91.8708 205.005 91.9282C205.062 91.9569 205.148 91.9569 205.206 91.9282C205.234 91.9282 205.292 91.8708 205.292 91.8421C209.598 83.3445 210.172 76.11 206.957 70.3684C201.129 59.8899 184.335 57.622 181.522 57.3062L182.986 55.3828C182.986 55.3828 183.416 54.7225 183.187 54.3493C183.043 54.1196 182.756 54.0335 182.325 54.0622L175.665 55.1244C175.665 55.1244 175.464 55.1531 175.321 55.2392C175.062 55.354 174.976 55.5263 174.947 55.6698C174.919 55.8421 174.976 56.043 175.148 56.244L179.971 60.9234C179.971 60.9234 180.574 61.4689 181.005 61.2392V61.2105Z" fill="#436D17"/>
<path d="M89.4791 156.641C89.4791 156.641 89.4482 156.641 89.4172 156.703L87.1884 158.219C87.1884 158.219 87.0646 158.374 86.9408 158.467C86.817 158.529 86.7551 158.56 86.7241 158.529C86.6931 158.529 86.6003 158.405 86.5693 158.158L85.6407 151.44C85.6407 151.44 85.6407 151.1 85.7026 151.069C85.7026 151.069 85.7954 151.069 85.9193 151.1L91.8008 154.381C91.9865 154.474 92.1723 154.69 92.1723 154.783C92.1723 154.814 92.1104 154.876 92.0794 154.907C92.0175 154.938 91.9246 155 91.8318 155.031L89.5101 156.61L89.4791 156.641ZM87.1884 158.869C87.3432 158.777 87.467 158.622 87.5289 158.56L89.5101 157.229C90.8412 159.581 102.295 179.114 115.853 182.365C120.404 183.448 124.738 182.612 128.762 179.888C128.886 179.826 128.886 179.672 128.824 179.548C128.762 179.424 128.607 179.393 128.483 179.486C124.583 182.148 120.373 182.953 115.946 181.9C102.542 178.65 91.1198 159.086 89.9125 156.95L92.0175 155.495C92.5437 155.31 92.6676 155 92.6676 154.783C92.6676 154.35 92.1413 154.04 92.0485 153.978L86.1359 150.697C85.8264 150.573 85.6097 150.573 85.424 150.697C85.0835 150.914 85.1454 151.44 85.1454 151.533L86.0431 158.25C86.105 158.653 86.2598 158.9 86.5074 158.993C86.6312 159.055 86.8789 159.086 87.1884 158.869Z" fill="#436D17"/>
<path d="M101.923 244.767C101.923 244.767 101.894 244.767 101.864 244.738L99.6826 243.382C99.5352 243.234 99.3288 243.087 99.2404 243.087C99.2109 243.087 99.1225 243.175 99.093 243.47L98.474 249.867C98.474 249.867 98.474 250.162 98.5329 250.221C98.5329 250.221 98.5919 250.221 98.6213 250.221C98.6508 250.221 98.7098 250.221 98.7393 250.162L104.222 246.831C104.399 246.713 104.576 246.506 104.576 246.418C104.576 246.388 104.488 246.3 104.222 246.212H104.163L101.923 244.767ZM99.093 242.615C99.4762 242.527 99.8595 242.88 99.9774 243.028L101.894 244.236C103.073 241.967 113.302 222.952 126.066 219.385C126.243 219.327 126.42 219.297 126.568 219.238C130.665 218.236 134.674 218.914 138.418 221.272C138.536 221.331 138.566 221.479 138.477 221.596C138.418 221.714 138.271 221.744 138.153 221.655C134.35 219.268 130.311 218.649 126.155 219.798C113.567 223.365 103.397 242.379 102.306 244.472L104.37 245.769C104.753 245.887 104.959 246.094 105.018 246.359C105.077 246.801 104.576 247.155 104.458 247.214L98.9456 250.545C98.9456 250.545 98.7687 250.604 98.7098 250.633C98.474 250.692 98.2971 250.633 98.2086 250.545C97.9433 250.309 97.9728 249.896 97.9728 249.808L98.5919 243.382C98.6508 242.939 98.8277 242.674 99.093 242.615Z" fill="#436D17"/>
<path d="M116.239 337.239C116.239 337.239 116.21 337.416 116.239 337.593L117.478 344.348C117.478 344.348 117.596 344.672 117.655 344.702C117.655 344.702 117.743 344.702 117.861 344.584L122.522 339.54C122.522 339.54 122.699 339.304 122.758 339.156C122.758 339.127 122.788 339.038 122.758 339.009C122.729 338.95 122.581 338.92 122.345 338.891L119.336 339.009H119.248L116.829 337.268C116.682 337.18 116.416 337.062 116.298 337.121C116.298 337.121 116.269 337.121 116.239 337.209M123.201 339.304C123.112 339.599 122.906 339.835 122.876 339.864L118.186 344.938C117.891 345.203 117.655 345.203 117.507 345.174C117.153 345.056 117.035 344.554 117.006 344.466L115.767 337.681C115.679 337.062 115.944 336.796 116.121 336.737C116.505 336.59 116.976 336.885 117.094 336.944L119.13 338.389C119.366 335.498 121.283 318.212 131.903 311.9C137.714 308.448 145.148 308.861 153.997 313.05C154.115 313.109 154.145 313.227 154.115 313.316C154.115 313.316 154.115 313.316 154.115 313.345C154.056 313.463 153.909 313.522 153.82 313.463C145.089 309.333 137.802 308.95 132.109 312.313C121.49 318.625 119.749 336.236 119.572 338.566L122.345 338.448C122.758 338.448 122.994 338.566 123.142 338.743C123.23 338.861 123.289 339.038 123.201 339.304Z" fill="#436D17"/>
<path d="M300.512 57.8L300.271 57.7097L293.316 56.5957C293.045 56.5957 292.895 56.5957 292.865 56.6559C292.805 56.7462 292.925 57.0473 293.045 57.2279L294.852 59.6365L294.792 62.8279C294.792 63.0989 294.882 63.2193 294.912 63.2494C295.002 63.3097 295.273 63.1591 295.454 62.9785L300.482 58.1011C300.482 58.1011 300.572 57.9204 300.572 57.8903C300.572 57.8903 300.542 57.8301 300.452 57.7699M294.701 63.6408C294.46 63.5204 294.34 63.2494 294.31 62.7978L294.37 59.9376C291.992 60.1785 274.048 62.4064 267.876 73.4258C264.594 79.2968 265.166 86.7333 269.622 95.4946C269.682 95.615 269.622 95.7656 269.531 95.8258C269.471 95.8559 269.381 95.8559 269.321 95.8258C269.291 95.8258 269.23 95.7656 269.23 95.7355C264.714 86.8537 264.142 79.2666 267.514 73.215C273.686 62.2258 291.269 59.8473 294.22 59.5161L292.684 57.4989C292.684 57.4989 292.232 56.8064 292.473 56.415C292.624 56.1742 292.925 56.0838 293.377 56.114L300.331 57.2279C300.331 57.2279 300.542 57.258 300.693 57.3484C300.964 57.4688 301.054 57.6494 301.084 57.8C301.114 57.9806 301.054 58.1914 300.873 58.4021L295.815 63.3097C295.815 63.3097 295.183 63.8817 294.731 63.6408H294.701Z" fill="#9D9C9C"/>
<path d="M315.595 160.514C315.595 160.514 315.595 160.484 315.595 160.454L314.271 158.016C314.091 157.806 314.061 157.685 314.061 157.655C314.091 157.565 314.361 157.475 314.572 157.475L321.133 157.234C321.133 157.234 321.193 157.234 321.253 157.234C321.253 157.234 321.313 157.234 321.343 157.264C321.343 157.324 321.313 157.505 321.223 157.595L317.461 163.012C317.281 163.223 317.19 163.283 317.16 163.253C317.07 163.253 316.95 162.982 316.889 162.771V162.711L315.625 160.454L315.595 160.514ZM316.98 163.764C317.251 163.825 317.521 163.704 317.792 163.343L321.554 157.926C321.554 157.926 321.855 157.475 321.735 157.144C321.675 156.993 321.494 156.782 321.103 156.782L314.512 157.023C314.512 157.023 313.76 157.083 313.579 157.505C313.489 157.746 313.579 158.016 313.85 158.347L315.054 160.544C313.037 161.869 294.499 173.726 281.468 170.596C281.227 170.476 280.896 170.837 281.347 171.078C294.499 174.268 313.067 162.41 315.264 160.966L316.378 163.012C316.408 163.193 316.589 163.704 316.95 163.825L316.98 163.764Z" fill="#9D9C9C"/>
<path d="M315.143 244.364C315.143 244.364 315.114 244.364 315.085 244.394L312.765 245.744C312.501 245.803 312.413 245.891 312.413 245.95C312.413 246.038 312.589 246.244 312.736 246.361L318.109 249.855C318.109 249.855 318.168 249.884 318.197 249.884C318.197 249.884 318.256 249.884 318.285 249.884C318.344 249.855 318.373 249.679 318.373 249.532L317.962 243.131C317.933 242.867 317.845 242.779 317.815 242.779C317.727 242.779 317.492 242.896 317.345 243.043H317.287L315.114 244.335L315.143 244.364ZM317.933 242.339C318.197 242.427 318.344 242.662 318.402 243.102L318.814 249.532C318.814 249.532 318.814 250.06 318.579 250.266C318.461 250.354 318.197 250.442 317.874 250.266L312.472 246.743C312.472 246.743 311.855 246.302 311.943 245.862C311.972 245.598 312.207 245.421 312.589 245.304L314.703 244.071C313.705 241.957 304.192 222.696 291.684 218.762C287.603 217.499 283.551 217.998 279.675 220.259C279.558 220.318 279.44 220.259 279.352 220.171C279.294 220.054 279.352 219.907 279.44 219.848C283.287 217.617 287.28 217.059 291.332 218.204C291.508 218.263 291.655 218.292 291.831 218.351C304.427 222.314 313.998 241.546 315.085 243.865L317.052 242.72C317.052 242.72 317.58 242.25 317.933 242.339Z" fill="#9D9C9C"/>
<path d="M334.808 161.947H332.887V157.529C332.887 156.515 332.357 156.167 331.54 156.167C330.783 156.167 330.193 156.59 329.875 157.029V161.947H327.953V154.638H329.875V155.592C330.344 155.032 331.237 154.457 332.433 154.457C334.037 154.457 334.808 155.365 334.808 156.787V161.947ZM338.956 152.943C338.76 152.732 338.593 152.535 338.351 152.535C338.048 152.535 337.806 152.822 337.806 153.473H336.792C336.792 152.187 337.367 151.445 338.427 151.445C339.002 151.445 339.304 151.778 339.562 152.066C339.774 152.278 339.94 152.459 340.182 152.459C340.485 152.459 340.727 152.172 340.727 151.536H341.741C341.741 152.822 341.181 153.564 340.122 153.564C339.531 153.564 339.214 153.231 338.956 152.943ZM342.422 161.947H340.5V161.191C340.001 161.781 339.138 162.129 338.185 162.129C337.019 162.129 335.642 161.342 335.642 159.708C335.642 157.998 337.019 157.377 338.185 157.377C339.153 157.377 340.016 157.68 340.5 158.27V157.256C340.5 156.515 339.864 156.031 338.896 156.031C338.109 156.031 337.383 156.318 336.762 156.893L336.036 155.607C336.929 154.82 338.079 154.457 339.229 154.457C340.893 154.457 342.422 155.123 342.422 157.226V161.947ZM340.5 160.192V159.284C340.182 158.86 339.577 158.648 338.956 158.648C338.2 158.648 337.579 159.057 337.579 159.753C337.579 160.434 338.2 160.828 338.956 160.828C339.577 160.828 340.182 160.616 340.5 160.192ZM347.112 162.129C344.706 162.129 343.254 160.374 343.254 158.285C343.254 156.212 344.706 154.457 347.112 154.457C349.534 154.457 350.986 156.212 350.986 158.285C350.986 160.374 349.534 162.129 347.112 162.129ZM347.112 160.419C348.308 160.419 348.989 159.435 348.989 158.285C348.989 157.15 348.308 156.167 347.112 156.167C345.917 156.167 345.251 157.15 345.251 158.285C345.251 159.435 345.917 160.419 347.112 160.419ZM354.939 159.102H351.307V157.468H354.939V159.102ZM357.66 161.947H355.738V154.638H357.66V155.637C358.175 154.986 359.083 154.472 359.991 154.472V156.348C359.854 156.318 359.673 156.303 359.461 156.303C358.825 156.303 357.978 156.651 357.66 157.12V161.947ZM360.117 158.285C360.117 156.167 361.676 154.457 363.9 154.457C366.079 154.457 367.562 156.091 367.562 158.482V158.906H362.13C362.251 159.829 362.992 160.601 364.233 160.601C364.914 160.601 365.716 160.328 366.185 159.874L367.033 161.115C366.291 161.796 365.156 162.129 364.021 162.129C361.797 162.129 360.117 160.631 360.117 158.285ZM363.9 155.985C362.705 155.985 362.19 156.878 362.099 157.604H365.701C365.656 156.908 365.171 155.985 363.9 155.985ZM375.2 161.947H373.278V157.529C373.278 156.515 372.749 156.167 371.932 156.167C371.175 156.167 370.585 156.59 370.267 157.029V161.947H368.345V154.638H370.267V155.592C370.736 155.032 371.629 154.457 372.825 154.457C374.429 154.457 375.2 155.365 375.2 156.787V161.947ZM379.893 162.129C377.487 162.129 376.034 160.374 376.034 158.285C376.034 156.212 377.487 154.457 379.893 154.457C382.314 154.457 383.767 156.212 383.767 158.285C383.767 160.374 382.314 162.129 379.893 162.129ZM379.893 160.419C381.089 160.419 381.769 159.435 381.769 158.285C381.769 157.15 381.089 156.167 379.893 156.167C378.698 156.167 378.032 157.15 378.032 158.285C378.032 159.435 378.698 160.419 379.893 160.419ZM388.552 161.947H386.479L383.543 154.638H385.601L387.508 159.723L389.415 154.638H391.488L388.552 161.947ZM397.96 151.355L395.509 153.534H394.162L396.19 151.355H397.96ZM398.051 161.947H396.129V161.191C395.63 161.781 394.767 162.129 393.814 162.129C392.649 162.129 391.272 161.342 391.272 159.708C391.272 157.998 392.649 157.377 393.814 157.377C394.782 157.377 395.645 157.68 396.129 158.27V157.256C396.129 156.515 395.494 156.031 394.525 156.031C393.738 156.031 393.012 156.318 392.391 156.893L391.665 155.607C392.558 154.82 393.708 154.457 394.858 154.457C396.523 154.457 398.051 155.123 398.051 157.226V161.947ZM396.129 160.192V159.284C395.811 158.86 395.206 158.648 394.586 158.648C393.829 158.648 393.208 159.057 393.208 159.753C393.208 160.434 393.829 160.828 394.586 160.828C395.206 160.828 395.811 160.616 396.129 160.192ZM403.317 161.947H401.243L398.308 154.638H400.366L402.272 159.723L404.179 154.638H406.252L403.317 161.947ZM406.036 158.285C406.036 156.167 407.595 154.457 409.819 154.457C411.998 154.457 413.481 156.091 413.481 158.482V158.906H408.049C408.17 159.829 408.911 160.601 410.152 160.601C410.833 160.601 411.635 160.328 412.104 159.874L412.952 161.115C412.21 161.796 411.075 162.129 409.94 162.129C407.716 162.129 406.036 160.631 406.036 158.285ZM409.819 155.985C408.624 155.985 408.109 156.878 408.018 157.604H411.62C411.574 156.908 411.09 155.985 409.819 155.985ZM416.186 161.947H414.264V151.854H416.186V161.947Z" fill="#9D9C9C"/>
<path d="M334.7 149H333.826V143.217L331.435 149H331.076L328.696 143.217V149H327.822V141.974H329.075L331.256 147.262L333.447 141.974H334.7V149ZM339.857 149H339.067V148.421C338.639 148.891 338.077 149.126 337.382 149.126C336.911 149.126 336.497 148.975 336.139 148.673C335.781 148.371 335.602 147.961 335.602 147.441C335.602 146.907 335.777 146.497 336.128 146.209C336.486 145.914 336.904 145.766 337.382 145.766C338.105 145.766 338.667 145.998 339.067 146.461V145.545C339.067 145.208 338.948 144.945 338.709 144.755C338.47 144.565 338.161 144.471 337.782 144.471C337.185 144.471 336.666 144.706 336.223 145.176L335.854 144.629C336.395 144.067 337.073 143.786 337.887 143.786C338.47 143.786 338.944 143.926 339.309 144.207C339.675 144.488 339.857 144.92 339.857 145.503V149ZM337.666 148.558C338.298 148.558 338.765 148.347 339.067 147.926V146.967C338.765 146.546 338.298 146.335 337.666 146.335C337.301 146.335 336.999 146.44 336.76 146.651C336.529 146.855 336.413 147.122 336.413 147.452C336.413 147.775 336.529 148.041 336.76 148.252C336.999 148.456 337.301 148.558 337.666 148.558ZM342.305 149.126C341.932 149.126 341.651 149.025 341.462 148.821C341.272 148.617 341.177 148.322 341.177 147.936V144.608H340.335V143.912H341.177V142.522H341.968V143.912H343V144.608H341.968V147.768C341.968 147.964 342.01 148.122 342.094 148.242C342.185 148.361 342.315 148.421 342.484 148.421C342.715 148.421 342.894 148.35 343.021 148.21L343.253 148.8C343.021 149.018 342.705 149.126 342.305 149.126ZM347.687 141.627L345.906 143.143H345.306L346.865 141.627H347.687ZM345.991 149.126C345.232 149.126 344.611 148.881 344.126 148.389C343.642 147.89 343.399 147.244 343.399 146.451C343.399 145.707 343.638 145.078 344.116 144.565C344.593 144.046 345.19 143.786 345.906 143.786C346.658 143.786 347.251 144.046 347.687 144.565C348.129 145.078 348.35 145.728 348.35 146.514V146.714H344.232C344.267 147.213 344.449 147.631 344.779 147.968C345.109 148.305 345.538 148.473 346.064 148.473C346.696 148.473 347.22 148.259 347.634 147.831L348.013 148.347C347.494 148.867 346.819 149.126 345.991 149.126ZM347.571 146.135C347.564 145.699 347.416 145.31 347.128 144.966C346.84 144.615 346.43 144.439 345.896 144.439C345.39 144.439 344.99 144.611 344.695 144.955C344.407 145.299 344.253 145.692 344.232 146.135H347.571ZM349.999 149H349.208V143.912H349.999V144.734C350.469 144.116 351.034 143.807 351.694 143.807V144.618C351.596 144.597 351.491 144.586 351.378 144.586C351.14 144.586 350.88 144.671 350.599 144.839C350.318 145.008 350.118 145.194 349.999 145.398V149ZM352.654 143.185C352.513 143.185 352.39 143.136 352.285 143.038C352.18 142.933 352.127 142.806 352.127 142.659C352.127 142.511 352.18 142.385 352.285 142.28C352.39 142.174 352.513 142.122 352.654 142.122C352.801 142.122 352.928 142.174 353.033 142.28C353.138 142.385 353.191 142.511 353.191 142.659C353.191 142.806 353.138 142.933 353.033 143.038C352.928 143.136 352.801 143.185 352.654 143.185ZM353.054 149H352.264V143.912H353.054V149ZM358.18 149H357.39V148.421C356.961 148.891 356.4 149.126 355.704 149.126C355.234 149.126 354.82 148.975 354.461 148.673C354.103 148.371 353.924 147.961 353.924 147.441C353.924 146.907 354.1 146.497 354.451 146.209C354.809 145.914 355.227 145.766 355.704 145.766C356.428 145.766 356.989 145.998 357.39 146.461V145.545C357.39 145.208 357.27 144.945 357.032 144.755C356.793 144.565 356.484 144.471 356.105 144.471C355.508 144.471 354.988 144.706 354.546 145.176L354.177 144.629C354.718 144.067 355.395 143.786 356.21 143.786C356.793 143.786 357.267 143.926 357.632 144.207C357.997 144.488 358.18 144.92 358.18 145.503V149ZM355.989 148.558C356.621 148.558 357.088 148.347 357.39 147.926V146.967C357.088 146.546 356.621 146.335 355.989 146.335C355.624 146.335 355.322 146.44 355.083 146.651C354.851 146.855 354.735 147.122 354.735 147.452C354.735 147.775 354.851 148.041 355.083 148.252C355.322 148.456 355.624 148.558 355.989 148.558ZM361.396 146.798H358.868V146.103H361.396V146.798ZM364.586 149.126C363.869 149.126 363.297 148.828 362.869 148.231V150.938H362.079V143.912H362.869V144.671C363.058 144.404 363.304 144.19 363.606 144.028C363.908 143.867 364.235 143.786 364.586 143.786C365.26 143.786 365.804 144.028 366.218 144.513C366.64 144.99 366.85 145.636 366.85 146.451C366.85 147.265 366.64 147.915 366.218 148.4C365.804 148.884 365.26 149.126 364.586 149.126ZM364.386 148.421C364.884 148.421 365.281 148.238 365.576 147.873C365.871 147.501 366.018 147.027 366.018 146.451C366.018 145.875 365.871 145.405 365.576 145.039C365.281 144.674 364.884 144.492 364.386 144.492C364.084 144.492 363.789 144.572 363.501 144.734C363.22 144.888 363.009 145.078 362.869 145.303V147.599C363.009 147.831 363.22 148.027 363.501 148.189C363.789 148.343 364.084 148.421 364.386 148.421ZM368.475 149H367.685V143.912H368.475V144.734C368.946 144.116 369.511 143.807 370.171 143.807V144.618C370.073 144.597 369.968 144.586 369.855 144.586C369.617 144.586 369.357 144.671 369.076 144.839C368.795 145.008 368.595 145.194 368.475 145.398V149ZM371.131 143.185C370.99 143.185 370.867 143.136 370.762 143.038C370.657 142.933 370.604 142.806 370.604 142.659C370.604 142.511 370.657 142.385 370.762 142.28C370.867 142.174 370.99 142.122 371.131 142.122C371.278 142.122 371.405 142.174 371.51 142.28C371.615 142.385 371.668 142.511 371.668 142.659C371.668 142.806 371.615 142.933 371.51 143.038C371.405 143.136 371.278 143.185 371.131 143.185ZM371.531 149H370.741V143.912H371.531V149ZM379.617 149H378.827V145.545C378.827 144.843 378.514 144.492 377.889 144.492C377.636 144.492 377.383 144.569 377.131 144.723C376.878 144.878 376.681 145.06 376.541 145.271V149H375.751V145.545C375.751 144.843 375.438 144.492 374.813 144.492C374.568 144.492 374.318 144.569 374.065 144.723C373.82 144.878 373.623 145.064 373.476 145.282V149H372.686V143.912H373.476V144.65C373.602 144.453 373.823 144.26 374.139 144.07C374.455 143.881 374.782 143.786 375.119 143.786C375.491 143.786 375.793 143.874 376.025 144.049C376.256 144.225 376.411 144.453 376.488 144.734C376.643 144.481 376.878 144.26 377.194 144.07C377.51 143.881 377.843 143.786 378.195 143.786C379.143 143.786 379.617 144.299 379.617 145.324V149ZM384.742 149H383.952V148.421C383.524 148.891 382.962 149.126 382.267 149.126C381.797 149.126 381.382 148.975 381.024 148.673C380.666 148.371 380.487 147.961 380.487 147.441C380.487 146.907 380.662 146.497 381.014 146.209C381.372 145.914 381.789 145.766 382.267 145.766C382.99 145.766 383.552 145.998 383.952 146.461V145.545C383.952 145.208 383.833 144.945 383.594 144.755C383.355 144.565 383.046 144.471 382.667 144.471C382.07 144.471 381.551 144.706 381.108 145.176L380.74 144.629C381.28 144.067 381.958 143.786 382.773 143.786C383.355 143.786 383.829 143.926 384.195 144.207C384.56 144.488 384.742 144.92 384.742 145.503V149ZM382.551 148.558C383.183 148.558 383.65 148.347 383.952 147.926V146.967C383.65 146.546 383.183 146.335 382.551 146.335C382.186 146.335 381.884 146.44 381.646 146.651C381.414 146.855 381.298 147.122 381.298 147.452C381.298 147.775 381.414 148.041 381.646 148.252C381.884 148.456 382.186 148.558 382.551 148.558Z" fill="#9D9C9C"/>
<path d="M320.267 276.006H318.604V272.042C318.604 271.458 318.344 271.042 317.668 271.042C317.083 271.042 316.602 271.432 316.368 271.769V276.006H314.705V272.042C314.705 271.458 314.445 271.042 313.769 271.042C313.197 271.042 312.716 271.432 312.469 271.782V276.006H310.819V269.729H312.469V270.548C312.729 270.171 313.561 269.573 314.523 269.573C315.445 269.573 316.03 270.002 316.264 270.717C316.628 270.145 317.46 269.573 318.422 269.573C319.578 269.573 320.267 270.184 320.267 271.471V276.006ZM322.185 268.806C321.652 268.806 321.197 268.364 321.197 267.819C321.197 267.273 321.652 266.831 322.185 266.831C322.731 266.831 323.173 267.273 323.173 267.819C323.173 268.364 322.731 268.806 322.185 268.806ZM323.017 276.006H321.366V269.729H323.017V276.006ZM323.731 272.861C323.731 270.938 325.121 269.573 327.058 269.573C328.344 269.573 329.124 270.132 329.54 270.717L328.461 271.717C328.162 271.289 327.707 271.042 327.136 271.042C326.135 271.042 325.433 271.769 325.433 272.861C325.433 273.953 326.135 274.694 327.136 274.694C327.707 274.694 328.162 274.434 328.461 274.018L329.54 275.019C329.124 275.603 328.344 276.162 327.058 276.162C325.121 276.162 323.731 274.798 323.731 272.861ZM331.75 276.006H330.099V269.729H331.75V270.587C332.191 270.028 332.971 269.586 333.751 269.586V271.198C333.634 271.172 333.478 271.159 333.296 271.159C332.75 271.159 332.022 271.458 331.75 271.86V276.006ZM337.174 276.162C335.107 276.162 333.86 274.655 333.86 272.861C333.86 271.081 335.107 269.573 337.174 269.573C339.253 269.573 340.501 271.081 340.501 272.861C340.501 274.655 339.253 276.162 337.174 276.162ZM337.174 274.694C338.2 274.694 338.785 273.849 338.785 272.861C338.785 271.886 338.2 271.042 337.174 271.042C336.147 271.042 335.575 271.886 335.575 272.861C335.575 273.849 336.147 274.694 337.174 274.694ZM342.856 275.2V278.398H341.205V269.729H342.856V270.522C343.337 269.911 344.025 269.573 344.792 269.573C346.404 269.573 347.573 270.769 347.573 272.861C347.573 274.954 346.404 276.162 344.792 276.162C344.051 276.162 343.363 275.85 342.856 275.2ZM345.858 272.861C345.858 271.782 345.221 271.042 344.272 271.042C343.74 271.042 343.129 271.354 342.856 271.756V273.979C343.129 274.369 343.74 274.694 344.272 274.694C345.221 274.694 345.858 273.953 345.858 272.861ZM349.938 276.006H348.288V267.338H349.938V276.006ZM356.397 266.909L354.291 268.78H353.134L354.876 266.909H356.397ZM356.475 276.006H354.824V275.356C354.395 275.863 353.654 276.162 352.836 276.162C351.835 276.162 350.652 275.486 350.652 274.083C350.652 272.614 351.835 272.081 352.836 272.081C353.667 272.081 354.408 272.341 354.824 272.848V271.977C354.824 271.341 354.278 270.925 353.446 270.925C352.771 270.925 352.147 271.172 351.614 271.665L350.99 270.561C351.757 269.885 352.745 269.573 353.732 269.573C355.162 269.573 356.475 270.145 356.475 271.951V276.006ZM354.824 274.499V273.719C354.551 273.355 354.031 273.173 353.498 273.173C352.849 273.173 352.316 273.524 352.316 274.122C352.316 274.707 352.849 275.044 353.498 275.044C354.031 275.044 354.551 274.863 354.824 274.499ZM357.046 275.187L357.761 274.031C358.216 274.46 359.151 274.889 359.931 274.889C360.646 274.889 360.984 274.642 360.984 274.252C360.984 273.81 360.438 273.654 359.723 273.511C358.644 273.303 357.254 273.043 357.254 271.548C357.254 270.496 358.177 269.573 359.827 269.573C360.893 269.573 361.738 269.937 362.348 270.431L361.699 271.561C361.322 271.159 360.607 270.834 359.84 270.834C359.242 270.834 358.852 271.055 358.852 271.419C358.852 271.808 359.346 271.951 360.048 272.094C361.127 272.302 362.569 272.588 362.569 274.148C362.569 275.304 361.595 276.162 359.853 276.162C358.761 276.162 357.709 275.798 357.046 275.187ZM365.371 276.162C364.214 276.162 363.59 275.564 363.59 274.447V271.172H362.551V269.729H363.59V268.013H365.254V269.729H366.528V271.172H365.254V274.005C365.254 274.395 365.462 274.694 365.826 274.694C366.073 274.694 366.307 274.603 366.398 274.512L366.748 275.759C366.502 275.98 366.06 276.162 365.371 276.162ZM367.956 268.806C367.423 268.806 366.968 268.364 366.968 267.819C366.968 267.273 367.423 266.831 367.956 266.831C368.502 266.831 368.943 267.273 368.943 267.819C368.943 268.364 368.502 268.806 367.956 268.806ZM368.787 276.006H367.137V269.729H368.787V276.006ZM369.501 272.861C369.501 270.938 370.892 269.573 372.828 269.573C374.115 269.573 374.895 270.132 375.311 270.717L374.232 271.717C373.933 271.289 373.478 271.042 372.906 271.042C371.906 271.042 371.204 271.769 371.204 272.861C371.204 273.953 371.906 274.694 372.906 274.694C373.478 274.694 373.933 274.434 374.232 274.018L375.311 275.019C374.895 275.603 374.115 276.162 372.828 276.162C370.892 276.162 369.501 274.798 369.501 272.861ZM378.781 276.162C376.715 276.162 375.467 274.655 375.467 272.861C375.467 271.081 376.715 269.573 378.781 269.573C380.86 269.573 382.108 271.081 382.108 272.861C382.108 274.655 380.86 276.162 378.781 276.162ZM378.781 274.694C379.808 274.694 380.393 273.849 380.393 272.861C380.393 271.886 379.808 271.042 378.781 271.042C377.754 271.042 377.183 271.886 377.183 272.861C377.183 273.849 377.754 274.694 378.781 274.694Z" fill="#9D9C9C"/>
<path d="M313.097 263.126C311.959 263.126 311.06 262.754 310.4 262.01L310.916 261.346C311.513 262.013 312.251 262.347 313.128 262.347C313.697 262.347 314.115 262.228 314.382 261.989C314.649 261.743 314.782 261.459 314.782 261.136C314.782 260.89 314.705 260.683 314.55 260.514C314.396 260.346 314.196 260.216 313.95 260.124C313.711 260.026 313.441 259.938 313.139 259.861C312.844 259.784 312.549 259.699 312.254 259.608C311.959 259.51 311.689 259.394 311.443 259.261C311.204 259.127 311.008 258.938 310.853 258.692C310.699 258.446 310.621 258.155 310.621 257.817C310.621 257.242 310.85 256.775 311.306 256.417C311.763 256.051 312.338 255.869 313.034 255.869C314.08 255.869 314.912 256.195 315.53 256.848L315.003 257.491C314.491 256.929 313.813 256.648 312.97 256.648C312.549 256.648 312.202 256.754 311.928 256.964C311.661 257.168 311.527 257.435 311.527 257.765C311.527 258.011 311.629 258.214 311.833 258.376C312.044 258.537 312.3 258.657 312.602 258.734C312.911 258.811 313.244 258.909 313.602 259.029C313.968 259.141 314.301 259.264 314.603 259.398C314.912 259.524 315.168 259.731 315.372 260.019C315.583 260.307 315.688 260.655 315.688 261.062C315.688 261.638 315.474 262.126 315.046 262.526C314.624 262.926 313.975 263.126 313.097 263.126ZM318.837 263.126C318.079 263.126 317.457 262.881 316.973 262.389C316.488 261.89 316.246 261.244 316.246 260.451C316.246 259.707 316.484 259.078 316.962 258.565C317.44 258.046 318.036 257.786 318.753 257.786C319.504 257.786 320.097 258.046 320.533 258.565C320.975 259.078 321.196 259.728 321.196 260.514V260.714H317.078C317.113 261.213 317.296 261.631 317.626 261.968C317.956 262.305 318.384 262.473 318.911 262.473C319.543 262.473 320.066 262.259 320.48 261.831L320.859 262.347C320.34 262.867 319.666 263.126 318.837 263.126ZM320.417 260.135C320.41 259.699 320.263 259.31 319.975 258.966C319.687 258.615 319.276 258.439 318.742 258.439C318.237 258.439 317.836 258.611 317.541 258.955C317.253 259.299 317.099 259.692 317.078 260.135H320.417ZM325.634 263.126C325.262 263.126 324.981 263.025 324.791 262.821C324.602 262.617 324.507 262.322 324.507 261.936V258.608H323.664V257.912H324.507V256.522H325.297V257.912H326.329V258.608H325.297V261.768C325.297 261.964 325.339 262.122 325.423 262.242C325.515 262.361 325.645 262.421 325.813 262.421C326.045 262.421 326.224 262.35 326.35 262.21L326.582 262.8C326.35 263.018 326.034 263.126 325.634 263.126ZM327.814 263H327.024V257.912H327.814V258.734C328.285 258.116 328.85 257.807 329.51 257.807V258.618C329.412 258.597 329.306 258.586 329.194 258.586C328.955 258.586 328.695 258.671 328.414 258.839C328.134 259.008 327.933 259.194 327.814 259.398V263ZM334.051 263H333.261V262.421C332.832 262.891 332.271 263.126 331.575 263.126C331.105 263.126 330.691 262.975 330.332 262.673C329.974 262.371 329.795 261.961 329.795 261.441C329.795 260.907 329.971 260.497 330.322 260.209C330.68 259.914 331.098 259.766 331.575 259.766C332.299 259.766 332.86 259.998 333.261 260.461V259.545C333.261 259.208 333.141 258.945 332.903 258.755C332.664 258.565 332.355 258.471 331.976 258.471C331.379 258.471 330.859 258.706 330.417 259.176L330.048 258.629C330.589 258.067 331.266 257.786 332.081 257.786C332.664 257.786 333.138 257.926 333.503 258.207C333.868 258.488 334.051 258.92 334.051 259.503V263ZM331.86 262.558C332.492 262.558 332.959 262.347 333.261 261.926V260.967C332.959 260.546 332.492 260.335 331.86 260.335C331.495 260.335 331.193 260.44 330.954 260.651C330.722 260.855 330.606 261.122 330.606 261.452C330.606 261.775 330.722 262.041 330.954 262.252C331.193 262.456 331.495 262.558 331.86 262.558ZM336.825 263.126C335.961 263.126 335.276 262.86 334.771 262.326L335.181 261.757C335.357 261.961 335.596 262.133 335.898 262.273C336.207 262.414 336.526 262.484 336.856 262.484C337.235 262.484 337.53 262.403 337.741 262.242C337.952 262.08 338.057 261.869 338.057 261.61C338.057 261.385 337.948 261.209 337.731 261.083C337.513 260.949 337.25 260.851 336.941 260.788C336.639 260.718 336.333 260.64 336.024 260.556C335.715 260.465 335.452 260.314 335.234 260.103C335.016 259.886 334.908 259.601 334.908 259.25C334.908 258.836 335.076 258.488 335.413 258.207C335.757 257.926 336.221 257.786 336.804 257.786C337.569 257.786 338.198 258.032 338.689 258.523L338.32 259.071C337.962 258.643 337.457 258.428 336.804 258.428C336.459 258.428 336.186 258.506 335.982 258.66C335.778 258.808 335.676 258.997 335.676 259.229C335.676 259.433 335.785 259.594 336.003 259.714C336.221 259.826 336.481 259.917 336.783 259.987C337.091 260.051 337.4 260.128 337.709 260.219C338.018 260.31 338.282 260.472 338.499 260.704C338.717 260.928 338.826 261.223 338.826 261.589C338.826 262.038 338.65 262.407 338.299 262.695C337.948 262.982 337.457 263.126 336.825 263.126ZM343.912 263H343.122V259.671C343.122 259.243 343.024 258.941 342.827 258.766C342.63 258.583 342.35 258.492 341.984 258.492C341.689 258.492 341.402 258.569 341.121 258.723C340.847 258.878 340.633 259.064 340.478 259.282V263H339.688V257.912H340.478V258.65C340.675 258.418 340.938 258.218 341.268 258.049C341.598 257.874 341.939 257.786 342.29 257.786C343.371 257.786 343.912 258.334 343.912 259.429V263ZM346.08 263H345.29V258.608H344.447V257.912H345.29V257.523C345.29 257.003 345.42 256.599 345.679 256.311C345.946 256.016 346.308 255.869 346.764 255.869C347.2 255.869 347.558 255.999 347.839 256.259L347.512 256.775C347.323 256.606 347.112 256.522 346.88 256.522C346.62 256.522 346.42 256.61 346.28 256.785C346.146 256.954 346.08 257.2 346.08 257.523V257.912H347.112V258.608H346.08V263ZM351.675 262.357C351.219 262.87 350.611 263.126 349.853 263.126C349.094 263.126 348.483 262.87 348.02 262.357C347.564 261.845 347.335 261.209 347.335 260.451C347.335 259.692 347.564 259.06 348.02 258.555C348.483 258.042 349.094 257.786 349.853 257.786C350.611 257.786 351.219 258.042 351.675 258.555C352.139 259.06 352.37 259.692 352.37 260.451C352.37 261.209 352.139 261.845 351.675 262.357ZM348.61 261.852C348.919 262.231 349.333 262.421 349.853 262.421C350.372 262.421 350.783 262.231 351.085 261.852C351.387 261.466 351.538 260.999 351.538 260.451C351.538 259.903 351.387 259.44 351.085 259.06C350.783 258.681 350.372 258.492 349.853 258.492C349.333 258.492 348.919 258.685 348.61 259.071C348.308 259.45 348.157 259.91 348.157 260.451C348.157 260.999 348.308 261.466 348.61 261.852ZM354.027 263H353.237V257.912H354.027V258.734C354.497 258.116 355.063 257.807 355.723 257.807V258.618C355.624 258.597 355.519 258.586 355.407 258.586C355.168 258.586 354.908 258.671 354.627 258.839C354.346 259.008 354.146 259.194 354.027 259.398V263ZM363.224 263H362.433V259.545C362.433 258.843 362.121 258.492 361.496 258.492C361.243 258.492 360.99 258.569 360.738 258.723C360.485 258.878 360.288 259.06 360.148 259.271V263H359.358V259.545C359.358 258.843 359.045 258.492 358.42 258.492C358.174 258.492 357.925 258.569 357.672 258.723C357.427 258.878 357.23 259.064 357.082 259.282V263H356.292V257.912H357.082V258.65C357.209 258.453 357.43 258.26 357.746 258.07C358.062 257.881 358.389 257.786 358.726 257.786C359.098 257.786 359.4 257.874 359.632 258.049C359.863 258.225 360.018 258.453 360.095 258.734C360.25 258.481 360.485 258.26 360.801 258.07C361.117 257.881 361.45 257.786 361.801 257.786C362.75 257.786 363.224 258.299 363.224 259.324V263ZM368.349 263H367.559V262.421C367.131 262.891 366.569 263.126 365.874 263.126C365.403 263.126 364.989 262.975 364.631 262.673C364.273 262.371 364.094 261.961 364.094 261.441C364.094 260.907 364.269 260.497 364.62 260.209C364.979 259.914 365.396 259.766 365.874 259.766C366.597 259.766 367.159 259.998 367.559 260.461V259.545C367.559 259.208 367.44 258.945 367.201 258.755C366.962 258.565 366.653 258.471 366.274 258.471C365.677 258.471 365.158 258.706 364.715 259.176L364.347 258.629C364.887 258.067 365.565 257.786 366.38 257.786C366.962 257.786 367.436 257.926 367.802 258.207C368.167 258.488 368.349 258.92 368.349 259.503V263ZM366.158 262.558C366.79 262.558 367.257 262.347 367.559 261.926V260.967C367.257 260.546 366.79 260.335 366.158 260.335C365.793 260.335 365.491 260.44 365.252 260.651C365.021 260.855 364.905 261.122 364.905 261.452C364.905 261.775 365.021 262.041 365.252 262.252C365.491 262.456 365.793 262.558 366.158 262.558ZM374.102 263.126C373.344 263.126 372.722 262.881 372.238 262.389C371.753 261.89 371.511 261.244 371.511 260.451C371.511 259.707 371.75 259.078 372.227 258.565C372.705 258.046 373.302 257.786 374.018 257.786C374.769 257.786 375.363 258.046 375.798 258.565C376.241 259.078 376.462 259.728 376.462 260.514V260.714H372.343C372.378 261.213 372.561 261.631 372.891 261.968C373.221 262.305 373.649 262.473 374.176 262.473C374.808 262.473 375.331 262.259 375.746 261.831L376.125 262.347C375.605 262.867 374.931 263.126 374.102 263.126ZM375.682 260.135C375.675 259.699 375.528 259.31 375.24 258.966C374.952 258.615 374.541 258.439 374.007 258.439C373.502 258.439 373.102 258.611 372.807 258.955C372.519 259.299 372.364 259.692 372.343 260.135H375.682ZM384.251 263H383.461V259.545C383.461 258.843 383.149 258.492 382.524 258.492C382.271 258.492 382.018 258.569 381.765 258.723C381.512 258.878 381.316 259.06 381.175 259.271V263H380.385V259.545C380.385 258.843 380.073 258.492 379.448 258.492C379.202 258.492 378.953 258.569 378.7 258.723C378.454 258.878 378.258 259.064 378.11 259.282V263H377.32V257.912H378.11V258.65C378.236 258.453 378.458 258.26 378.774 258.07C379.09 257.881 379.416 257.786 379.753 257.786C380.125 257.786 380.427 257.874 380.659 258.049C380.891 258.225 381.045 258.453 381.123 258.734C381.277 258.481 381.512 258.26 381.828 258.07C382.144 257.881 382.478 257.786 382.829 257.786C383.777 257.786 384.251 258.299 384.251 259.324V263Z" fill="#9D9C9C"/>
<path d="M310.469 353.2V356.398H308.819V347.729H310.469V348.522C310.95 347.911 311.639 347.573 312.406 347.573C314.017 347.573 315.187 348.769 315.187 350.861C315.187 352.954 314.017 354.162 312.406 354.162C311.665 354.162 310.976 353.85 310.469 353.2ZM313.471 350.861C313.471 349.782 312.835 349.042 311.886 349.042C311.353 349.042 310.742 349.354 310.469 349.756V351.979C310.742 352.369 311.353 352.694 311.886 352.694C312.835 352.694 313.471 351.953 313.471 350.861ZM318.812 354.162C316.746 354.162 315.498 352.655 315.498 350.861C315.498 349.081 316.746 347.573 318.812 347.573C320.892 347.573 322.139 349.081 322.139 350.861C322.139 352.655 320.892 354.162 318.812 354.162ZM318.812 352.694C319.839 352.694 320.424 351.849 320.424 350.861C320.424 349.886 319.839 349.042 318.812 349.042C317.786 349.042 317.214 349.886 317.214 350.861C317.214 351.849 317.786 352.694 318.812 352.694ZM324.495 354.006H322.844V345.338H324.495V354.006ZM331.499 354.006H329.848V353.213C329.419 353.694 328.666 354.162 327.639 354.162C326.261 354.162 325.611 353.408 325.611 352.187V347.729H327.262V351.537C327.262 352.408 327.717 352.694 328.419 352.694C329.055 352.694 329.562 352.343 329.848 351.979V347.729H331.499V354.006ZM332.215 350.861C332.215 349.042 333.553 347.573 335.464 347.573C337.335 347.573 338.609 348.977 338.609 351.03V351.394H333.943C334.047 352.187 334.684 352.85 335.75 352.85C336.335 352.85 337.024 352.616 337.426 352.226L338.154 353.291C337.517 353.876 336.543 354.162 335.568 354.162C333.657 354.162 332.215 352.876 332.215 350.861ZM335.464 348.886C334.437 348.886 333.995 349.652 333.917 350.276H337.011C336.972 349.678 336.556 348.886 335.464 348.886ZM345.169 354.006H343.518V350.211C343.518 349.341 343.063 349.042 342.362 349.042C341.712 349.042 341.205 349.406 340.932 349.782V354.006H339.281V347.729H340.932V348.548C341.335 348.067 342.102 347.573 343.128 347.573C344.506 347.573 345.169 348.353 345.169 349.574V354.006ZM348.393 354.162C347.236 354.162 346.613 353.564 346.613 352.447V349.172H345.573V347.729H346.613V346.013H348.276V347.729H349.55V349.172H348.276V352.005C348.276 352.395 348.484 352.694 348.848 352.694C349.095 352.694 349.329 352.603 349.42 352.512L349.771 353.759C349.524 353.98 349.082 354.162 348.393 354.162ZM349.756 350.861C349.756 349.042 351.095 347.573 353.005 347.573C354.877 347.573 356.151 348.977 356.151 351.03V351.394H351.485C351.589 352.187 352.226 352.85 353.291 352.85C353.876 352.85 354.565 352.616 354.968 352.226L355.696 353.291C355.059 353.876 354.084 354.162 353.109 354.162C351.199 354.162 349.756 352.876 349.756 350.861ZM353.005 348.886C351.979 348.886 351.537 349.652 351.459 350.276H354.552C354.513 349.678 354.097 348.886 353.005 348.886Z" fill="#9D9C9C"/>
<path d="M314.37 341H313.438L312.859 339.547H309.6L309.021 341H308.088L310.719 334.453H311.73L314.37 341ZM312.613 338.821L311.229 335.297L309.835 338.821H312.613ZM315.54 341H314.804V334.453H315.54V341ZM317.814 341.118C317.467 341.118 317.205 341.023 317.028 340.833C316.852 340.643 316.763 340.369 316.763 340.009V336.907H315.978V336.259H316.763V334.964H317.499V336.259H318.461V336.907H317.499V339.852C317.499 340.035 317.539 340.182 317.617 340.293C317.702 340.405 317.823 340.46 317.98 340.46C318.196 340.46 318.363 340.395 318.481 340.264L318.697 340.814C318.481 341.016 318.186 341.118 317.814 341.118ZM322.809 341H322.073V340.46C321.674 340.899 321.15 341.118 320.502 341.118C320.064 341.118 319.678 340.977 319.344 340.696C319.01 340.414 318.844 340.032 318.844 339.547C318.844 339.05 319.007 338.667 319.334 338.399C319.668 338.124 320.057 337.987 320.502 337.987C321.176 337.987 321.7 338.203 322.073 338.635V337.781C322.073 337.466 321.962 337.221 321.739 337.044C321.517 336.868 321.229 336.779 320.875 336.779C320.319 336.779 319.835 336.999 319.423 337.437L319.079 336.927C319.583 336.403 320.214 336.141 320.974 336.141C321.517 336.141 321.958 336.272 322.299 336.534C322.639 336.796 322.809 337.198 322.809 337.741V341ZM320.767 340.588C321.356 340.588 321.791 340.391 322.073 339.999V339.106C321.791 338.713 321.356 338.517 320.767 338.517C320.427 338.517 320.146 338.615 319.923 338.811C319.707 339.001 319.599 339.25 319.599 339.557C319.599 339.858 319.707 340.107 319.923 340.303C320.146 340.493 320.427 340.588 320.767 340.588ZM330.351 341H329.614V337.781C329.614 337.126 329.323 336.799 328.741 336.799C328.505 336.799 328.27 336.871 328.034 337.015C327.799 337.159 327.615 337.329 327.484 337.525V341H326.748V337.781C326.748 337.126 326.457 336.799 325.875 336.799C325.646 336.799 325.413 336.871 325.178 337.015C324.949 337.159 324.766 337.332 324.628 337.535V341H323.892V336.259H324.628V336.946C324.746 336.763 324.952 336.583 325.247 336.406C325.541 336.23 325.845 336.141 326.159 336.141C326.506 336.141 326.788 336.223 327.004 336.387C327.219 336.55 327.363 336.763 327.435 337.025C327.579 336.789 327.799 336.583 328.093 336.406C328.387 336.23 328.698 336.141 329.025 336.141C329.909 336.141 330.351 336.619 330.351 337.574V341ZM333.566 341.118C332.86 341.118 332.28 340.889 331.829 340.431C331.377 339.966 331.152 339.364 331.152 338.625C331.152 337.931 331.374 337.345 331.819 336.868C332.264 336.384 332.82 336.141 333.488 336.141C334.188 336.141 334.741 336.384 335.146 336.868C335.559 337.345 335.765 337.951 335.765 338.684V338.87H331.927C331.96 339.335 332.13 339.724 332.437 340.038C332.745 340.352 333.144 340.509 333.635 340.509C334.224 340.509 334.711 340.31 335.097 339.91L335.451 340.391C334.967 340.876 334.338 341.118 333.566 341.118ZM335.039 338.33C335.032 337.925 334.895 337.561 334.626 337.241C334.358 336.914 333.975 336.75 333.478 336.75C333.007 336.75 332.634 336.91 332.359 337.231C332.091 337.552 331.947 337.918 331.927 338.33H335.039ZM340.501 341H339.764V337.898C339.764 337.499 339.673 337.218 339.49 337.054C339.306 336.884 339.045 336.799 338.704 336.799C338.429 336.799 338.161 336.871 337.899 337.015C337.644 337.159 337.445 337.332 337.301 337.535V341H336.565V336.259H337.301V336.946C337.484 336.73 337.729 336.544 338.037 336.387C338.344 336.223 338.662 336.141 338.989 336.141C339.997 336.141 340.501 336.652 340.501 337.673V341ZM342.776 341.118C342.429 341.118 342.167 341.023 341.99 340.833C341.814 340.643 341.725 340.369 341.725 340.009V336.907H340.94V336.259H341.725V334.964H342.461V336.259H343.423V336.907H342.461V339.852C342.461 340.035 342.501 340.182 342.579 340.293C342.664 340.405 342.785 340.46 342.942 340.46C343.158 340.46 343.325 340.395 343.443 340.264L343.659 340.814C343.443 341.016 343.149 341.118 342.776 341.118ZM346.21 341.118C345.504 341.118 344.925 340.889 344.473 340.431C344.022 339.966 343.796 339.364 343.796 338.625C343.796 337.931 344.018 337.345 344.463 336.868C344.908 336.384 345.464 336.141 346.132 336.141C346.832 336.141 347.385 336.384 347.791 336.868C348.203 337.345 348.409 337.951 348.409 338.684V338.87H344.571C344.604 339.335 344.774 339.724 345.082 340.038C345.389 340.352 345.788 340.509 346.279 340.509C346.868 340.509 347.355 340.31 347.742 339.91L348.095 340.391C347.611 340.876 346.983 341.118 346.21 341.118ZM347.683 338.33C347.676 337.925 347.539 337.561 347.27 337.241C347.002 336.914 346.619 336.75 346.122 336.75C345.651 336.75 345.278 336.91 345.003 337.231C344.735 337.552 344.591 337.918 344.571 338.33H347.683Z" fill="#9D9C9C"/>
<path d="M308.297 72.1264C307.581 72.1264 307.008 71.828 306.58 71.2311V73.9382H305.79V66.9123H306.58V67.6707C306.77 67.4039 307.015 67.1897 307.317 67.0282C307.619 66.8667 307.946 66.7859 308.297 66.7859C308.971 66.7859 309.515 67.0282 309.93 67.5127C310.351 67.9902 310.562 68.6363 310.562 69.4509C310.562 70.2655 310.351 70.915 309.93 71.3996C309.515 71.8841 308.971 72.1264 308.297 72.1264ZM308.097 71.4207C308.595 71.4207 308.992 71.2381 309.287 70.8729C309.582 70.5007 309.73 70.0267 309.73 69.4509C309.73 68.875 309.582 68.4046 309.287 68.0394C308.992 67.6742 308.595 67.4916 308.097 67.4916C307.795 67.4916 307.5 67.5724 307.212 67.7339C306.931 67.8884 306.72 68.078 306.58 68.3027V70.599C306.72 70.8308 306.931 71.0274 307.212 71.1889C307.5 71.3434 307.795 71.4207 308.097 71.4207ZM315.368 72H314.578V71.4207C314.149 71.8912 313.588 72.1264 312.892 72.1264C312.422 72.1264 312.008 71.9754 311.649 71.6735C311.291 71.3715 311.112 70.9607 311.112 70.441C311.112 69.9073 311.288 69.4965 311.639 69.2086C311.997 68.9137 312.415 68.7662 312.892 68.7662C313.616 68.7662 314.178 68.9979 314.578 69.4614V68.545C314.578 68.2079 314.458 67.9446 314.22 67.755C313.981 67.5654 313.672 67.4706 313.293 67.4706C312.696 67.4706 312.176 67.7058 311.734 68.1763L311.365 67.6286C311.906 67.0668 312.583 66.7859 313.398 66.7859C313.981 66.7859 314.455 66.9263 314.82 67.2072C315.185 67.4881 315.368 67.92 315.368 68.5029V72ZM313.177 71.5576C313.809 71.5576 314.276 71.3469 314.578 70.9256V69.967C314.276 69.5457 313.809 69.335 313.177 69.335C312.812 69.335 312.51 69.4403 312.271 69.651C312.039 69.8547 311.923 70.1215 311.923 70.4516C311.923 70.7746 312.039 71.0414 312.271 71.2521C312.51 71.4558 312.812 71.5576 313.177 71.5576ZM317.32 72H316.53V66.9123H317.32V67.7339C317.791 67.1159 318.356 66.807 319.016 66.807V67.618C318.918 67.597 318.812 67.5864 318.7 67.5864C318.461 67.5864 318.201 67.6707 317.921 67.8393C317.64 68.0078 317.44 68.1939 317.32 68.3975V72ZM323.557 72H322.767V71.4207C322.338 71.8912 321.777 72.1264 321.081 72.1264C320.611 72.1264 320.197 71.9754 319.838 71.6735C319.48 71.3715 319.301 70.9607 319.301 70.441C319.301 69.9073 319.477 69.4965 319.828 69.2086C320.186 68.9137 320.604 68.7662 321.081 68.7662C321.805 68.7662 322.367 68.9979 322.767 69.4614V68.545C322.767 68.2079 322.647 67.9446 322.409 67.755C322.17 67.5654 321.861 67.4706 321.482 67.4706C320.885 67.4706 320.365 67.7058 319.923 68.1763L319.554 67.6286C320.095 67.0668 320.772 66.7859 321.587 66.7859C322.17 66.7859 322.644 66.9263 323.009 67.2072C323.374 67.4881 323.557 67.92 323.557 68.5029V72ZM321.366 71.5576C321.998 71.5576 322.465 71.3469 322.767 70.9256V69.967C322.465 69.5457 321.998 69.335 321.366 69.335C321.001 69.335 320.699 69.4403 320.46 69.651C320.228 69.8547 320.112 70.1215 320.112 70.4516C320.112 70.7746 320.228 71.0414 320.46 71.2521C320.699 71.4558 321.001 71.5576 321.366 71.5576ZM328.625 72.1264C327.761 72.1264 327.077 71.8596 326.571 71.3259L326.982 70.757C327.157 70.9607 327.396 71.1327 327.698 71.2732C328.007 71.4136 328.327 71.4839 328.657 71.4839C329.036 71.4839 329.331 71.4031 329.542 71.2416C329.752 71.0801 329.858 70.8694 329.858 70.6096C329.858 70.3849 329.749 70.2093 329.531 70.0829C329.313 69.9495 329.05 69.8512 328.741 69.788C328.439 69.7177 328.134 69.6405 327.825 69.5562C327.516 69.4649 327.252 69.3139 327.035 69.1033C326.817 68.8856 326.708 68.6012 326.708 68.2501C326.708 67.8357 326.877 67.4881 327.214 67.2072C327.558 66.9263 328.021 66.7859 328.604 66.7859C329.369 66.7859 329.998 67.0317 330.49 67.5232L330.121 68.071C329.763 67.6426 329.257 67.4284 328.604 67.4284C328.26 67.4284 327.986 67.5057 327.782 67.6602C327.579 67.8077 327.477 67.9973 327.477 68.229C327.477 68.4326 327.586 68.5942 327.803 68.7135C328.021 68.8259 328.281 68.9172 328.583 68.9874C328.892 69.0506 329.201 69.1279 329.51 69.2191C329.819 69.3104 330.082 69.472 330.3 69.7037C330.518 69.9284 330.626 70.2233 330.626 70.5885C330.626 71.0379 330.451 71.4066 330.1 71.6945C329.749 71.9824 329.257 72.1264 328.625 72.1264ZM333.785 72.1264C333.026 72.1264 332.405 71.8806 331.92 71.3891C331.436 70.8905 331.194 70.2444 331.194 69.4509C331.194 68.7065 331.432 68.078 331.91 67.5654C332.387 67.0457 332.984 66.7859 333.701 66.7859C334.452 66.7859 335.045 67.0457 335.481 67.5654C335.923 68.078 336.144 68.7276 336.144 69.5141V69.7142H332.026C332.061 70.2128 332.243 70.6306 332.574 70.9677C332.904 71.3048 333.332 71.4733 333.859 71.4733C334.491 71.4733 335.014 71.2591 335.428 70.8308L335.807 71.3469C335.288 71.8666 334.614 72.1264 333.785 72.1264ZM335.365 69.1349C335.358 68.6995 335.21 68.3097 334.922 67.9657C334.635 67.6145 334.224 67.439 333.69 67.439C333.184 67.439 332.784 67.611 332.489 67.9551C332.201 68.2992 332.047 68.6925 332.026 69.1349H335.365ZM343.774 72H342.984V71.2416C342.548 71.8315 341.976 72.1264 341.267 72.1264C340.593 72.1264 340.045 71.8876 339.624 71.4101C339.209 70.9256 339.002 70.276 339.002 69.4614C339.002 68.6538 339.209 68.0078 339.624 67.5232C340.045 67.0317 340.593 66.7859 341.267 66.7859C341.969 66.7859 342.541 67.0843 342.984 67.6812V64.9741H343.774V72ZM341.456 71.4207C341.765 71.4207 342.06 71.3434 342.341 71.1889C342.622 71.0344 342.836 70.8448 342.984 70.6201V68.3133C342.836 68.0815 342.619 67.8884 342.331 67.7339C342.05 67.5724 341.758 67.4916 341.456 67.4916C340.958 67.4916 340.561 67.6777 340.266 68.0499C339.971 68.4151 339.824 68.8856 339.824 69.4614C339.824 70.0373 339.971 70.5077 340.266 70.8729C340.561 71.2381 340.958 71.4207 341.456 71.4207ZM347.231 72.1264C346.472 72.1264 345.851 71.8806 345.366 71.3891C344.882 70.8905 344.64 70.2444 344.64 69.4509C344.64 68.7065 344.878 68.078 345.356 67.5654C345.833 67.0457 346.43 66.7859 347.147 66.7859C347.898 66.7859 348.491 67.0457 348.927 67.5654C349.369 68.078 349.59 68.7276 349.59 69.5141V69.7142H345.472C345.507 70.2128 345.689 70.6306 346.019 70.9677C346.349 71.3048 346.778 71.4733 347.305 71.4733C347.937 71.4733 348.46 71.2591 348.874 70.8308L349.253 71.3469C348.734 71.8666 348.059 72.1264 347.231 72.1264ZM348.811 69.1349C348.804 68.6995 348.656 68.3097 348.368 67.9657C348.08 67.6145 347.67 67.439 347.136 67.439C346.63 67.439 346.23 67.611 345.935 67.9551C345.647 68.2992 345.493 68.6925 345.472 69.1349H348.811ZM352.692 72.1264C351.941 72.1264 351.33 71.8736 350.859 71.368C350.389 70.8554 350.154 70.2163 350.154 69.4509C350.154 68.6854 350.389 68.0499 350.859 67.5443C351.33 67.0387 351.941 66.7859 352.692 66.7859C353.479 66.7859 354.1 67.0808 354.557 67.6707L354.03 68.1553C353.707 67.7128 353.275 67.4916 352.734 67.4916C352.201 67.4916 351.772 67.6742 351.449 68.0394C351.133 68.4046 350.975 68.875 350.975 69.4509C350.975 70.0267 351.133 70.5007 351.449 70.8729C351.772 71.2381 352.201 71.4207 352.734 71.4207C353.268 71.4207 353.7 71.1995 354.03 70.757L354.557 71.2416C354.1 71.8315 353.479 72.1264 352.692 72.1264ZM359.287 71.3575C358.831 71.8701 358.224 72.1264 357.465 72.1264C356.707 72.1264 356.096 71.8701 355.632 71.3575C355.176 70.8448 354.948 70.2093 354.948 69.4509C354.948 68.6925 355.176 68.0605 355.632 67.5548C356.096 67.0422 356.707 66.7859 357.465 66.7859C358.224 66.7859 358.831 67.0422 359.287 67.5548C359.751 68.0605 359.983 68.6925 359.983 69.4509C359.983 70.2093 359.751 70.8448 359.287 71.3575ZM356.222 70.8518C356.531 71.2311 356.945 71.4207 357.465 71.4207C357.985 71.4207 358.396 71.2311 358.698 70.8518C358.999 70.4656 359.15 69.9986 359.15 69.4509C359.15 68.9031 358.999 68.4397 358.698 68.0605C358.396 67.6812 357.985 67.4916 357.465 67.4916C356.945 67.4916 356.531 67.6848 356.222 68.071C355.92 68.4502 355.769 68.9102 355.769 69.4509C355.769 69.9986 355.92 70.4656 356.222 70.8518ZM367.78 72H366.99V68.545C366.99 67.8428 366.678 67.4916 366.053 67.4916C365.8 67.4916 365.547 67.5689 365.294 67.7234C365.042 67.8779 364.845 68.0605 364.704 68.2711V72H363.914V68.545C363.914 67.8428 363.602 67.4916 362.977 67.4916C362.731 67.4916 362.482 67.5689 362.229 67.7234C361.983 67.8779 361.787 68.064 361.639 68.2817V72H360.849V66.9123H361.639V67.6496C361.766 67.453 361.987 67.2599 362.303 67.0703C362.619 66.8807 362.945 66.7859 363.282 66.7859C363.655 66.7859 363.957 66.8737 364.188 67.0492C364.42 67.2248 364.575 67.453 364.652 67.7339C364.806 67.4811 365.042 67.2599 365.358 67.0703C365.674 66.8807 366.007 66.7859 366.358 66.7859C367.306 66.7859 367.78 67.2985 367.78 68.3238V72ZM371.442 72.1264C370.726 72.1264 370.153 71.828 369.725 71.2311V73.9382H368.935V66.9123H369.725V67.6707C369.915 67.4039 370.16 67.1897 370.462 67.0282C370.764 66.8667 371.091 66.7859 371.442 66.7859C372.116 66.7859 372.66 67.0282 373.075 67.5127C373.496 67.9902 373.707 68.6363 373.707 69.4509C373.707 70.2655 373.496 70.915 373.075 71.3996C372.66 71.8841 372.116 72.1264 371.442 72.1264ZM371.242 71.4207C371.74 71.4207 372.137 71.2381 372.432 70.8729C372.727 70.5007 372.874 70.0267 372.874 69.4509C372.874 68.875 372.727 68.4046 372.432 68.0394C372.137 67.6742 371.74 67.4916 371.242 67.4916C370.94 67.4916 370.645 67.5724 370.357 67.7339C370.076 67.8884 369.865 68.078 369.725 68.3027V70.599C369.865 70.8308 370.076 71.0274 370.357 71.1889C370.645 71.3434 370.94 71.4207 371.242 71.4207ZM378.586 71.3575C378.13 71.8701 377.523 72.1264 376.764 72.1264C376.006 72.1264 375.395 71.8701 374.931 71.3575C374.475 70.8448 374.247 70.2093 374.247 69.4509C374.247 68.6925 374.475 68.0605 374.931 67.5548C375.395 67.0422 376.006 66.7859 376.764 66.7859C377.523 66.7859 378.13 67.0422 378.586 67.5548C379.05 68.0605 379.282 68.6925 379.282 69.4509C379.282 70.2093 379.05 70.8448 378.586 71.3575ZM375.521 70.8518C375.83 71.2311 376.244 71.4207 376.764 71.4207C377.284 71.4207 377.695 71.2311 377.997 70.8518C378.298 70.4656 378.449 69.9986 378.449 69.4509C378.449 68.9031 378.298 68.4397 377.997 68.0605C377.695 67.6812 377.284 67.4916 376.764 67.4916C376.244 67.4916 375.83 67.6848 375.521 68.071C375.219 68.4502 375.068 68.9102 375.068 69.4509C375.068 69.9986 375.219 70.4656 375.521 70.8518ZM380.938 72H380.148V66.9123H380.938V67.7339C381.409 67.1159 381.974 66.807 382.634 66.807V67.618C382.536 67.597 382.43 67.5864 382.318 67.5864C382.079 67.5864 381.819 67.6707 381.539 67.8393C381.258 68.0078 381.058 68.1939 380.938 68.3975V72Z" fill="#9D9C9C"/>
<path d="M312.679 60H310.435V57.8196H305.395V56.0499L309.582 49.4612H312.679V55.8445H314.038V57.8196H312.679V60ZM310.435 55.8445V51.452L307.591 55.8445H310.435ZM314.333 54.7385C314.333 52.0208 315.676 49.3032 318.694 49.3032C321.696 49.3032 323.055 52.0208 323.055 54.7385C323.055 57.4561 321.696 60.1896 318.694 60.1896C315.676 60.1896 314.333 57.4561 314.333 54.7385ZM320.764 54.7385C320.764 52.7951 320.195 51.294 318.694 51.294C317.177 51.294 316.608 52.7951 316.608 54.7385C316.608 56.6819 317.177 58.1988 318.694 58.1988C320.195 58.1988 320.764 56.6819 320.764 54.7385ZM323.499 54.7385C323.499 52.0208 324.842 49.3032 327.86 49.3032C330.862 49.3032 332.221 52.0208 332.221 54.7385C332.221 57.4561 330.862 60.1896 327.86 60.1896C324.842 60.1896 323.499 57.4561 323.499 54.7385ZM329.93 54.7385C329.93 52.7951 329.361 51.294 327.86 51.294C326.343 51.294 325.774 52.7951 325.774 54.7385C325.774 56.6819 326.343 58.1988 327.86 58.1988C329.361 58.1988 329.93 56.6819 329.93 54.7385ZM343.123 60H341.116V59.21C340.595 59.8262 339.694 60.1896 338.698 60.1896C337.482 60.1896 336.044 59.368 336.044 57.6616C336.044 55.8761 337.482 55.2283 338.698 55.2283C339.71 55.2283 340.61 55.5443 341.116 56.1605V55.1019C341.116 54.3277 340.452 53.8221 339.441 53.8221C338.619 53.8221 337.861 54.1223 337.213 54.7227L336.455 53.3797C337.387 52.5581 338.588 52.1788 339.789 52.1788C341.527 52.1788 343.123 52.8741 343.123 55.0703V60ZM341.116 58.1672V57.2191C340.784 56.7767 340.152 56.5555 339.504 56.5555C338.714 56.5555 338.066 56.9821 338.066 57.709C338.066 58.42 338.714 58.8308 339.504 58.8308C340.152 58.8308 340.784 58.6096 341.116 58.1672ZM351.638 60H349.632V55.3863C349.632 54.3277 349.079 53.9643 348.226 53.9643C347.436 53.9643 346.819 54.4067 346.488 54.8649V60H344.481V52.3684H346.488V53.3639C346.977 52.7793 347.91 52.1788 349.158 52.1788C350.833 52.1788 351.638 53.1269 351.638 54.6121V60ZM356.538 60.1896C354.026 60.1896 352.509 58.3568 352.509 56.1763C352.509 54.0117 354.026 52.1788 356.538 52.1788C359.066 52.1788 360.583 54.0117 360.583 56.1763C360.583 58.3568 359.066 60.1896 356.538 60.1896ZM356.538 58.4042C357.786 58.4042 358.497 57.3771 358.497 56.1763C358.497 54.9913 357.786 53.9643 356.538 53.9643C355.29 53.9643 354.595 54.9913 354.595 56.1763C354.595 57.3771 355.29 58.4042 356.538 58.4042ZM360.776 59.0046L361.645 57.5984C362.198 58.1198 363.336 58.6412 364.284 58.6412C365.153 58.6412 365.564 58.341 365.564 57.867C365.564 57.3297 364.9 57.1401 364.031 56.9663C362.72 56.7135 361.029 56.3975 361.029 54.5805C361.029 53.3007 362.151 52.1788 364.157 52.1788C365.453 52.1788 366.48 52.6213 367.223 53.2217L366.433 54.5963C365.974 54.1065 365.105 53.7115 364.173 53.7115C363.446 53.7115 362.972 53.9801 362.972 54.4225C362.972 54.8965 363.573 55.0703 364.426 55.2441C365.737 55.4969 367.491 55.8445 367.491 57.7406C367.491 59.1468 366.306 60.1896 364.189 60.1896C362.862 60.1896 361.582 59.7472 360.776 59.0046Z" fill="#9D9C9C"/>
<path d="M32.5359 56.8831L34.6258 53.9894C35.8851 55.3023 37.841 56.4008 40.306 56.4008C42.3959 56.4008 43.4141 55.4095 43.4141 54.3913C43.4141 53.0516 41.8601 52.5961 39.797 52.1139C36.8764 51.444 33.1253 50.6402 33.1253 46.648C33.1253 43.6739 35.6975 41.2624 39.9041 41.2624C42.7443 41.2624 45.1021 42.1198 46.8705 43.7542L44.7538 46.5408C43.3069 45.2011 41.3778 44.5848 39.6362 44.5848C37.9214 44.5848 37.0104 45.3351 37.0104 46.4068C37.0104 47.6125 38.5109 47.9876 40.574 48.4699C43.5213 49.1398 47.2724 50.024 47.2724 53.9894C47.2724 57.2582 44.9413 59.7233 40.1185 59.7233C36.6889 59.7233 34.2239 58.5711 32.5359 56.8831ZM61.3554 59.4017H57.9526V57.7673C57.0684 58.7587 55.5144 59.7233 53.3977 59.7233C50.5575 59.7233 49.2178 58.1692 49.2178 55.6506V46.4604H52.6206V54.3109C52.6206 56.1061 53.5584 56.6956 55.0053 56.6956C56.3182 56.6956 57.3631 55.9721 57.9526 55.2219V46.4604H61.3554V59.4017ZM63.0729 57.7137L64.5465 55.3291C65.4843 56.2133 67.4135 57.0975 69.0211 57.0975C70.4947 57.0975 71.1914 56.5884 71.1914 55.7846C71.1914 54.8736 70.066 54.5521 68.5924 54.2574C66.3685 53.8287 63.5016 53.2928 63.5016 50.2115C63.5016 48.0412 65.4039 46.1389 68.8067 46.1389C71.0038 46.1389 72.7454 46.8891 74.0047 47.9073L72.665 50.2383C71.888 49.4077 70.4143 48.7379 68.8335 48.7379C67.601 48.7379 66.7972 49.1934 66.7972 49.9436C66.7972 50.7474 67.8154 51.0421 69.2622 51.3368C71.4861 51.7655 74.4602 52.355 74.4602 55.5702C74.4602 57.9549 72.4507 59.7233 68.8603 59.7233C66.6096 59.7233 64.4394 58.973 63.0729 57.7137ZM80.7718 59.7233C78.3871 59.7233 77.101 58.4907 77.101 56.1865V49.4345H74.9575V46.4604H77.101V42.9236H80.5306V46.4604H83.1564V49.4345H80.5306V55.2755C80.5306 56.0793 80.9593 56.6956 81.7095 56.6956C82.2186 56.6956 82.7009 56.508 82.8885 56.3205L83.6119 58.8927C83.1028 59.3481 82.1918 59.7233 80.7718 59.7233ZM84.118 52.9177C84.118 49.1666 86.8778 46.1389 90.8164 46.1389C94.6747 46.1389 97.3005 49.0326 97.3005 53.266V54.0162H87.6816C87.8959 55.6506 89.2088 57.0171 91.4059 57.0171C92.6116 57.0171 94.0317 56.5348 94.8623 55.731L96.3627 57.9281C95.0498 59.1338 93.0403 59.7233 91.0308 59.7233C87.0921 59.7233 84.118 57.0707 84.118 52.9177ZM90.8164 48.845C88.6997 48.845 87.7888 50.4259 87.628 51.712H94.0049C93.9245 50.4794 93.0671 48.845 90.8164 48.845ZM111.36 59.4017H107.957V51.578C107.957 49.7828 107.019 49.1666 105.573 49.1666C104.233 49.1666 103.188 49.9168 102.625 50.6938V59.4017H99.2225V46.4604H102.625V48.1484C103.456 47.157 105.037 46.1389 107.153 46.1389C109.994 46.1389 111.36 47.7465 111.36 50.2651V59.4017ZM118.543 59.7233C116.159 59.7233 114.873 58.4907 114.873 56.1865V49.4345H112.729V46.4604H114.873V42.9236H118.302V46.4604H120.928V49.4345H118.302V55.2755C118.302 56.0793 118.731 56.6956 119.481 56.6956C119.99 56.6956 120.473 56.508 120.66 56.3205L121.384 58.8927C120.875 59.3481 119.964 59.7233 118.543 59.7233ZM133.733 40.6462L129.392 44.5045H127.007L130.598 40.6462H133.733ZM133.893 59.4017H130.491V58.0621C129.606 59.107 128.079 59.7233 126.391 59.7233C124.328 59.7233 121.89 58.33 121.89 55.4363C121.89 52.4086 124.328 51.3101 126.391 51.3101C128.106 51.3101 129.633 51.8459 130.491 52.8909V51.0957C130.491 49.7828 129.365 48.9254 127.65 48.9254C126.257 48.9254 124.971 49.4345 123.872 50.4527L122.586 48.1752C124.167 46.7819 126.204 46.1389 128.24 46.1389C131.187 46.1389 133.893 47.3178 133.893 51.0421V59.4017ZM130.491 56.2937V54.6861C129.928 53.9358 128.856 53.5607 127.758 53.5607C126.418 53.5607 125.319 54.2841 125.319 55.5167C125.319 56.7224 126.418 57.419 127.758 57.419C128.856 57.419 129.928 57.0439 130.491 56.2937ZM143.753 59.4017H140.082L134.884 46.4604H138.528L141.904 55.4631L145.28 46.4604H148.95L143.753 59.4017ZM149.103 52.9177C149.103 49.1666 151.863 46.1389 155.802 46.1389C159.66 46.1389 162.286 49.0326 162.286 53.266V54.0162H152.667C152.881 55.6506 154.194 57.0171 156.391 57.0171C157.597 57.0171 159.017 56.5348 159.847 55.731L161.348 57.9281C160.035 59.1338 158.025 59.7233 156.016 59.7233C152.077 59.7233 149.103 57.0707 149.103 52.9177ZM155.802 48.845C153.685 48.845 152.774 50.4259 152.613 51.712H158.99C158.91 50.4794 158.052 48.845 155.802 48.845ZM167.61 59.4017H164.208V41.5304H167.61V59.4017Z" fill="#436D17"/>
<path d="M58.4859 372.962H53.7826L50.0027 366.065H47.0018V372.962H42.9044V353.715H51.9071C55.9179 353.715 58.3705 356.341 58.3705 359.919C58.3705 363.324 56.2353 365.142 54.1577 365.632L58.4859 372.962ZM54.1866 359.89C54.1866 358.275 52.9458 357.236 51.3011 357.236H47.0018V362.545H51.3011C52.9458 362.545 54.1866 361.506 54.1866 359.89ZM59.0141 365.979C59.0141 361.939 61.9862 358.678 66.2278 358.678C70.3829 358.678 73.2106 361.795 73.2106 366.354V367.162H62.8518C63.0826 368.922 64.4965 370.393 66.8626 370.393C68.1611 370.393 69.6904 369.874 70.5849 369.008L72.2007 371.375C70.7868 372.673 68.6227 373.308 66.4586 373.308C62.217 373.308 59.0141 370.451 59.0141 365.979ZM66.2278 361.593C63.9483 361.593 62.9672 363.295 62.7941 364.68H69.6615C69.5749 363.353 68.6516 361.593 66.2278 361.593ZM74.386 365.979C74.386 361.708 77.4735 358.678 81.7728 358.678C84.6294 358.678 86.3607 359.919 87.2841 361.218L84.8891 363.439C84.2255 362.487 83.2155 361.939 81.9459 361.939C79.7241 361.939 78.166 363.555 78.166 365.979C78.166 368.403 79.7241 370.047 81.9459 370.047C83.2155 370.047 84.2255 369.47 84.8891 368.547L87.2841 370.769C86.3607 372.067 84.6294 373.308 81.7728 373.308C77.4735 373.308 74.386 370.278 74.386 365.979ZM90.9204 356.976C89.7374 356.976 88.7275 355.995 88.7275 354.783C88.7275 353.571 89.7374 352.59 90.9204 352.59C92.1323 352.59 93.1134 353.571 93.1134 354.783C93.1134 355.995 92.1323 356.976 90.9204 356.976ZM92.7671 372.962H89.1026V359.025H92.7671V372.962ZM94.9292 365.979C94.9292 361.708 98.0167 358.678 102.316 358.678C105.173 358.678 106.904 359.919 107.827 361.218L105.432 363.439C104.769 362.487 103.759 361.939 102.489 361.939C100.267 361.939 98.7092 363.555 98.7092 365.979C98.7092 368.403 100.267 370.047 102.489 370.047C103.759 370.047 104.769 369.47 105.432 368.547L107.827 370.769C106.904 372.067 105.173 373.308 102.316 373.308C98.0167 373.308 94.9292 370.278 94.9292 365.979ZM113.31 372.962H109.646V353.715H113.31V372.962ZM128.226 352.763L123.552 356.918H120.984L124.85 352.763H128.226ZM128.399 372.962H124.735V371.519C123.783 372.644 122.138 373.308 120.32 373.308C118.098 373.308 115.472 371.807 115.472 368.691C115.472 365.43 118.098 364.247 120.32 364.247C122.167 364.247 123.811 364.825 124.735 365.95V364.017C124.735 362.603 123.523 361.679 121.676 361.679C120.176 361.679 118.791 362.228 117.608 363.324L116.223 360.871C117.925 359.371 120.118 358.678 122.311 358.678C125.485 358.678 128.399 359.948 128.399 363.959V372.962ZM124.735 369.614V367.883C124.129 367.075 122.975 366.671 121.792 366.671C120.349 366.671 119.166 367.45 119.166 368.778C119.166 370.076 120.349 370.826 121.792 370.826C122.975 370.826 124.129 370.422 124.735 369.614ZM139.017 372.962H135.064L129.466 359.025H133.39L137.026 368.72L140.662 359.025H144.615L139.017 372.962ZM144.779 365.979C144.779 361.939 147.751 358.678 151.993 358.678C156.148 358.678 158.976 361.795 158.976 366.354V367.162H148.617C148.848 368.922 150.261 370.393 152.628 370.393C153.926 370.393 155.455 369.874 156.35 369.008L157.966 371.375C156.552 372.673 154.388 373.308 152.224 373.308C147.982 373.308 144.779 370.451 144.779 365.979ZM151.993 361.593C149.713 361.593 148.732 363.295 148.559 364.68H155.426C155.34 363.353 154.417 361.593 151.993 361.593ZM164.71 372.962H161.045V353.715H164.71V372.962Z" fill="#436D17"/>
<path d="M30.4685 145H28.1501V136.183H30.4685V137.388C31.0892 136.603 32.1845 135.982 33.2798 135.982V138.246C33.1155 138.209 32.8965 138.191 32.6409 138.191C31.8742 138.191 30.8519 138.611 30.4685 139.177V145ZM33.4323 140.582C33.4323 138.026 35.3126 135.964 37.9961 135.964C40.6249 135.964 42.4139 137.935 42.4139 140.82V141.331H35.8602C36.0063 142.444 36.9008 143.375 38.3977 143.375C39.2192 143.375 40.1868 143.047 40.7527 142.499L41.775 143.996C40.8805 144.817 39.5113 145.219 38.1422 145.219C35.4586 145.219 33.4323 143.412 33.4323 140.582ZM37.9961 137.807C36.5539 137.807 35.9333 138.884 35.8237 139.761H40.1685C40.1137 138.921 39.5296 137.807 37.9961 137.807ZM51.628 145H49.3096V139.669C49.3096 138.446 48.6706 138.026 47.6848 138.026C46.7721 138.026 46.0601 138.538 45.6768 139.067V145H43.3583V136.183H45.6768V137.333C46.2427 136.657 47.3197 135.964 48.7619 135.964C50.697 135.964 51.628 137.059 51.628 138.775V145ZM57.289 145.219C54.3864 145.219 52.6339 143.101 52.6339 140.582C52.6339 138.081 54.3864 135.964 57.289 135.964C60.2098 135.964 61.9623 138.081 61.9623 140.582C61.9623 143.101 60.2098 145.219 57.289 145.219ZM57.289 143.156C58.7312 143.156 59.5526 141.97 59.5526 140.582C59.5526 139.213 58.7312 138.026 57.289 138.026C55.8468 138.026 55.0436 139.213 55.0436 140.582C55.0436 141.97 55.8468 143.156 57.289 143.156ZM67.735 145H65.234L61.6925 136.183H64.1752L66.4754 142.316L68.7756 136.183H71.2765L67.735 145ZM79.0843 132.221L76.1269 134.85H74.5022L76.9484 132.221H79.0843ZM79.1938 145H76.8754V144.087C76.2729 144.799 75.2324 145.219 74.0823 145.219C72.6766 145.219 71.0154 144.27 71.0154 142.298C71.0154 140.235 72.6766 139.487 74.0823 139.487C75.2506 139.487 76.2912 139.852 76.8754 140.564V139.341C76.8754 138.446 76.1086 137.862 74.9403 137.862C73.991 137.862 73.1148 138.209 72.3663 138.903L71.49 137.351C72.5671 136.402 73.9545 135.964 75.3419 135.964C77.35 135.964 79.1938 136.767 79.1938 139.304V145ZM76.8754 142.882V141.787C76.492 141.276 75.7618 141.02 75.0133 141.02C74.1006 141.02 73.3521 141.513 73.3521 142.353C73.3521 143.174 74.1006 143.649 75.0133 143.649C75.7618 143.649 76.492 143.394 76.8754 142.882ZM85.5461 145H83.0451L79.5036 136.183H81.9863L84.2865 142.316L86.5866 136.183H89.0876L85.5461 145ZM88.8265 140.582C88.8265 138.026 90.7068 135.964 93.3903 135.964C96.0191 135.964 97.8081 137.935 97.8081 140.82V141.331H91.2544C91.4005 142.444 92.295 143.375 93.7919 143.375C94.6134 143.375 95.5809 143.047 96.1468 142.499L97.1691 143.996C96.2746 144.817 94.9055 145.219 93.5363 145.219C90.8528 145.219 88.8265 143.412 88.8265 140.582ZM93.3903 137.807C91.9481 137.807 91.3274 138.884 91.2179 139.761H95.5627C95.5079 138.921 94.9237 137.807 93.3903 137.807ZM101.071 145H98.7525V132.824H101.071V145Z" fill="#436D17"/>
<path d="M36.2889 128H35.2342V121.024L32.3497 128H31.9177L29.0458 121.024V128H27.9912V119.524H29.5033L32.1337 125.903L34.7768 119.524H36.2889V128ZM42.5102 128H41.5572V127.301C41.0404 127.869 40.3627 128.152 39.5241 128.152C38.9565 128.152 38.4567 127.97 38.0246 127.606C37.5926 127.242 37.3766 126.746 37.3766 126.119C37.3766 125.476 37.5883 124.98 38.0119 124.633C38.444 124.277 38.948 124.099 39.5241 124.099C40.3966 124.099 41.0743 124.378 41.5572 124.938V123.832C41.5572 123.425 41.4132 123.108 41.1252 122.879C40.8371 122.65 40.4644 122.536 40.0069 122.536C39.2869 122.536 38.66 122.82 38.1263 123.387L37.6815 122.727C38.3338 122.049 39.1513 121.71 40.134 121.71C40.8371 121.71 41.409 121.879 41.8495 122.218C42.29 122.557 42.5102 123.078 42.5102 123.781V128ZM39.8672 127.466C40.6296 127.466 41.1929 127.212 41.5572 126.704V125.548C41.1929 125.039 40.6296 124.785 39.8672 124.785C39.4266 124.785 39.0624 124.912 38.7743 125.166C38.4948 125.412 38.355 125.734 38.355 126.132C38.355 126.522 38.4948 126.844 38.7743 127.098C39.0624 127.343 39.4266 127.466 39.8672 127.466ZM45.4627 128.152C45.0137 128.152 44.6748 128.03 44.4461 127.784C44.2174 127.538 44.103 127.183 44.103 126.717V122.701H43.0864V121.862H44.103V120.185H45.056V121.862H46.3013V122.701H45.056V126.513C45.056 126.75 45.1069 126.941 45.2085 127.085C45.3186 127.229 45.4754 127.301 45.6787 127.301C45.9582 127.301 46.1743 127.216 46.3267 127.047L46.6063 127.759C46.3267 128.021 45.9455 128.152 45.4627 128.152ZM51.9553 119.105L49.8078 120.935H49.0835L50.9642 119.105H51.9553ZM49.9095 128.152C48.9946 128.152 48.2448 127.856 47.6603 127.263C47.0758 126.662 46.7835 125.882 46.7835 124.925C46.7835 124.027 47.0715 123.269 47.6476 122.65C48.2237 122.023 48.9437 121.71 49.8078 121.71C50.7142 121.71 51.4301 122.023 51.9553 122.65C52.489 123.269 52.7559 124.052 52.7559 125.001V125.243H47.7874C47.8297 125.844 48.05 126.348 48.4481 126.755C48.8463 127.161 49.3631 127.365 49.9984 127.365C50.7608 127.365 51.392 127.106 51.8918 126.59L52.3492 127.212C51.7223 127.839 50.9091 128.152 49.9095 128.152ZM51.8155 124.544C51.8071 124.018 51.6292 123.548 51.2818 123.133C50.9345 122.71 50.4389 122.498 49.7951 122.498C49.1852 122.498 48.7023 122.705 48.3465 123.12C47.9992 123.536 47.8128 124.01 47.7874 124.544H51.8155ZM54.7442 128H53.7912V121.862H54.7442V122.854C55.3118 122.108 55.9938 121.735 56.7901 121.735V122.714C56.6715 122.688 56.5444 122.676 56.4089 122.676C56.1208 122.676 55.8074 122.777 55.4685 122.981C55.1297 123.184 54.8882 123.408 54.7442 123.654V128ZM57.9474 120.986C57.778 120.986 57.6297 120.926 57.5027 120.808C57.3756 120.681 57.3121 120.528 57.3121 120.35C57.3121 120.172 57.3756 120.02 57.5027 119.893C57.6297 119.766 57.778 119.702 57.9474 119.702C58.1253 119.702 58.2778 119.766 58.4049 119.893C58.5319 120.02 58.5955 120.172 58.5955 120.35C58.5955 120.528 58.5319 120.681 58.4049 120.808C58.2778 120.926 58.1253 120.986 57.9474 120.986ZM58.4303 128H57.4773V121.862H58.4303V128ZM64.6137 128H63.6607V127.301C63.1439 127.869 62.4662 128.152 61.6275 128.152C61.0599 128.152 60.5601 127.97 60.1281 127.606C59.696 127.242 59.48 126.746 59.48 126.119C59.48 125.476 59.6918 124.98 60.1154 124.633C60.5474 124.277 61.0515 124.099 61.6275 124.099C62.5001 124.099 63.1778 124.378 63.6607 124.938V123.832C63.6607 123.425 63.5166 123.108 63.2286 122.879C62.9406 122.65 62.5678 122.536 62.1104 122.536C61.3903 122.536 60.7634 122.82 60.2297 123.387L59.785 122.727C60.4373 122.049 61.2548 121.71 62.2375 121.71C62.9406 121.71 63.5124 121.879 63.9529 122.218C64.3934 122.557 64.6137 123.078 64.6137 123.781V128ZM61.9706 127.466C62.733 127.466 63.2964 127.212 63.6607 126.704V125.548C63.2964 125.039 62.733 124.785 61.9706 124.785C61.5301 124.785 61.1658 124.912 60.8778 125.166C60.5982 125.412 60.4585 125.734 60.4585 126.132C60.4585 126.522 60.5982 126.844 60.8778 127.098C61.1658 127.343 61.5301 127.466 61.9706 127.466ZM68.4937 125.344H65.444V124.506H68.4937V125.344ZM72.3415 128.152C71.4774 128.152 70.787 127.792 70.2703 127.072V130.338H69.3172V121.862H70.2703V122.777C70.499 122.455 70.7955 122.197 71.1598 122.002C71.524 121.807 71.9179 121.71 72.3415 121.71C73.1548 121.71 73.8113 122.002 74.3111 122.587C74.8194 123.163 75.0735 123.942 75.0735 124.925C75.0735 125.908 74.8194 126.691 74.3111 127.276C73.8113 127.86 73.1548 128.152 72.3415 128.152ZM72.1001 127.301C72.7016 127.301 73.1802 127.081 73.536 126.64C73.8918 126.191 74.0697 125.62 74.0697 124.925C74.0697 124.23 73.8918 123.663 73.536 123.222C73.1802 122.782 72.7016 122.561 72.1001 122.561C71.7358 122.561 71.38 122.659 71.0327 122.854C70.6938 123.04 70.4397 123.269 70.2703 123.54V126.31C70.4397 126.59 70.6938 126.827 71.0327 127.022C71.38 127.208 71.7358 127.301 72.1001 127.301ZM77.0338 128H76.0808V121.862H77.0338V122.854C77.6014 122.108 78.2834 121.735 79.0797 121.735V122.714C78.9611 122.688 78.834 122.676 78.6985 122.676C78.4104 122.676 78.097 122.777 77.7581 122.981C77.4193 123.184 77.1778 123.408 77.0338 123.654V128ZM80.237 120.986C80.0676 120.986 79.9193 120.926 79.7923 120.808C79.6652 120.681 79.6017 120.528 79.6017 120.35C79.6017 120.172 79.6652 120.02 79.7923 119.893C79.9193 119.766 80.0676 119.702 80.237 119.702C80.4149 119.702 80.5674 119.766 80.6945 119.893C80.8215 120.02 80.8851 120.172 80.8851 120.35C80.8851 120.528 80.8215 120.681 80.6945 120.808C80.5674 120.926 80.4149 120.986 80.237 120.986ZM80.7199 128H79.7668V121.862H80.7199V128ZM90.474 128H89.521V123.832C89.521 122.985 89.144 122.561 88.39 122.561C88.0851 122.561 87.7801 122.655 87.4751 122.841C87.1701 123.027 86.9329 123.248 86.7635 123.502V128H85.8105V123.832C85.8105 122.985 85.4335 122.561 84.6795 122.561C84.383 122.561 84.0823 122.655 83.7773 122.841C83.4808 123.027 83.2436 123.252 83.0657 123.514V128H82.1127V121.862H83.0657V122.752C83.2182 122.515 83.4851 122.282 83.8663 122.053C84.2475 121.824 84.6414 121.71 85.048 121.71C85.497 121.71 85.8613 121.816 86.1409 122.028C86.4204 122.239 86.6068 122.515 86.7 122.854C86.8863 122.549 87.1701 122.282 87.5514 122.053C87.9326 121.824 88.335 121.71 88.7585 121.71C89.9022 121.71 90.474 122.328 90.474 123.565V128ZM96.6575 128H95.7045V127.301C95.1877 127.869 94.51 128.152 93.6713 128.152C93.1037 128.152 92.6039 127.97 92.1719 127.606C91.7398 127.242 91.5238 126.746 91.5238 126.119C91.5238 125.476 91.7356 124.98 92.1592 124.633C92.5912 124.277 93.0953 124.099 93.6713 124.099C94.5439 124.099 95.2216 124.378 95.7045 124.938V123.832C95.7045 123.425 95.5605 123.108 95.2724 122.879C94.9844 122.65 94.6117 122.536 94.1542 122.536C93.4341 122.536 92.8072 122.82 92.2735 123.387L91.8288 122.727C92.4811 122.049 93.2986 121.71 94.2813 121.71C94.9844 121.71 95.5562 121.879 95.9967 122.218C96.4372 122.557 96.6575 123.078 96.6575 123.781V128ZM94.0144 127.466C94.7768 127.466 95.3402 127.212 95.7045 126.704V125.548C95.3402 125.039 94.7768 124.785 94.0144 124.785C93.5739 124.785 93.2096 124.912 92.9216 125.166C92.642 125.412 92.5023 125.734 92.5023 126.132C92.5023 126.522 92.642 126.844 92.9216 127.098C93.2096 127.343 93.5739 127.466 94.0144 127.466Z" fill="#436D17"/>
<path d="M34.5368 285H33.3493V279.997C33.3493 279.353 33.2015 278.899 32.906 278.635C32.6104 278.36 32.1882 278.223 31.6393 278.223C31.1959 278.223 30.7631 278.339 30.3409 278.572C29.9292 278.804 29.6073 279.083 29.3751 279.411V285H28.1875V277.352H29.3751V278.461C29.6706 278.112 30.0665 277.812 30.5626 277.558C31.0587 277.294 31.5707 277.162 32.0984 277.162C33.724 277.162 34.5368 277.986 34.5368 279.632V285ZM42.2444 285H41.0569V284.129C40.4129 284.836 39.5685 285.19 38.5235 285.19C37.8162 285.19 37.1934 284.963 36.6551 284.509C36.1167 284.055 35.8476 283.438 35.8476 282.657C35.8476 281.854 36.1115 281.237 36.6393 280.804C37.1776 280.361 37.8057 280.139 38.5235 280.139C39.6107 280.139 40.4552 280.487 41.0569 281.184V279.807C41.0569 279.3 40.8774 278.904 40.5185 278.619C40.1596 278.334 39.6952 278.192 39.1251 278.192C38.2279 278.192 37.4468 278.545 36.7818 279.252L36.2276 278.429C37.0404 277.585 38.059 277.162 39.2835 277.162C40.1596 277.162 40.8721 277.373 41.421 277.796C41.9699 278.218 42.2444 278.867 42.2444 279.743V285ZM38.951 284.335C39.901 284.335 40.603 284.018 41.0569 283.385V281.944C40.603 281.311 39.901 280.994 38.951 280.994C38.4021 280.994 37.9482 281.152 37.5893 281.469C37.2409 281.775 37.0668 282.176 37.0668 282.672C37.0668 283.158 37.2409 283.559 37.5893 283.876C37.9482 284.182 38.4021 284.335 38.951 284.335ZM45.9232 285.19C45.3638 285.19 44.9415 285.037 44.6565 284.731C44.3715 284.425 44.229 283.981 44.229 283.401V278.397H42.9623V277.352H44.229V275.262H45.4166V277.352H46.9683V278.397H45.4166V283.147C45.4166 283.443 45.4799 283.681 45.6066 283.86C45.7438 284.039 45.9391 284.129 46.1924 284.129C46.5408 284.129 46.8099 284.024 46.9999 283.812L47.3483 284.699C46.9999 285.026 46.5249 285.19 45.9232 285.19ZM54.3617 285H53.1742V283.923C52.8575 284.282 52.4564 284.583 51.9708 284.826C51.4958 285.069 50.9892 285.19 50.4508 285.19C48.8252 285.19 48.0124 284.377 48.0124 282.752V277.352H49.1999V282.387C49.1999 283.021 49.3424 283.469 49.6275 283.733C49.923 283.997 50.3505 284.129 50.91 284.129C51.3533 284.129 51.7808 284.018 52.1925 283.797C52.6147 283.575 52.942 283.301 53.1742 282.973V277.352H54.3617V285ZM57.2875 285H56.1V277.352H57.2875V278.587C57.9947 277.658 58.8445 277.194 59.8367 277.194V278.413C59.6889 278.382 59.5306 278.366 59.3617 278.366C59.0028 278.366 58.6122 278.492 58.19 278.746C57.7678 278.999 57.4669 279.279 57.2875 279.585V285ZM66.6623 285H65.4748V284.129C64.8308 284.836 63.9864 285.19 62.9414 285.19C62.2341 285.19 61.6113 284.963 61.073 284.509C60.5346 284.055 60.2655 283.438 60.2655 282.657C60.2655 281.854 60.5294 281.237 61.0572 280.804C61.5955 280.361 62.2236 280.139 62.9414 280.139C64.0286 280.139 64.8731 280.487 65.4748 281.184V279.807C65.4748 279.3 65.2953 278.904 64.9364 278.619C64.5775 278.334 64.1131 278.192 63.543 278.192C62.6458 278.192 61.8647 278.545 61.1997 279.252L60.6455 278.429C61.4583 277.585 62.4769 277.162 63.7014 277.162C64.5775 277.162 65.29 277.373 65.8389 277.796C66.3878 278.218 66.6623 278.867 66.6623 279.743V285ZM63.3689 284.335C64.3189 284.335 65.0209 284.018 65.4748 283.385V281.944C65.0209 281.311 64.3189 280.994 63.3689 280.994C62.82 280.994 62.3661 281.152 62.0072 281.469C61.6588 281.775 61.4847 282.176 61.4847 282.672C61.4847 283.158 61.6588 283.559 62.0072 283.876C62.3661 284.182 62.82 284.335 63.3689 284.335ZM69.597 285H68.4094V274.439H69.597V285ZM81.751 285H80.5635V279.807C80.5635 278.751 80.0938 278.223 79.1543 278.223C78.7743 278.223 78.3943 278.339 78.0143 278.572C77.6343 278.804 77.3387 279.078 77.1276 279.395V285H75.9401V279.807C75.9401 278.751 75.4703 278.223 74.5309 278.223C74.1614 278.223 73.7867 278.339 73.4067 278.572C73.0372 278.804 72.7417 279.083 72.52 279.411V285H71.3325V277.352H72.52V278.461C72.71 278.165 73.0425 277.875 73.5175 277.59C73.9925 277.305 74.4834 277.162 74.9901 277.162C75.5495 277.162 76.0034 277.294 76.3518 277.558C76.7001 277.822 76.9323 278.165 77.0484 278.587C77.2807 278.207 77.6343 277.875 78.1093 277.59C78.5843 277.305 79.0857 277.162 79.6135 277.162C81.0385 277.162 81.751 277.933 81.751 279.474V285ZM86.9384 285.19C85.7984 285.19 84.8642 284.821 84.1359 284.082C83.4075 283.332 83.0433 282.361 83.0433 281.168C83.0433 280.049 83.4022 279.105 84.12 278.334C84.8378 277.553 85.7351 277.162 86.8118 277.162C87.9412 277.162 88.8332 277.553 89.4877 278.334C90.1527 279.105 90.4852 280.081 90.4852 281.263V281.564H84.2942C84.347 282.314 84.6214 282.942 85.1176 283.448C85.6137 283.955 86.2576 284.208 87.0493 284.208C87.9993 284.208 88.7857 283.886 89.4085 283.242L89.9785 284.018C89.1974 284.799 88.184 285.19 86.9384 285.19ZM89.3135 280.693C89.3029 280.039 89.0813 279.453 88.6485 278.936C88.2157 278.408 87.5982 278.144 86.7959 278.144C86.0359 278.144 85.4342 278.403 84.9909 278.92C84.5581 279.437 84.3259 280.028 84.2942 280.693H89.3135ZM98.1246 285H96.937V279.997C96.937 279.353 96.7893 278.899 96.4937 278.635C96.1981 278.36 95.7759 278.223 95.227 278.223C94.7837 278.223 94.3509 278.339 93.9286 278.572C93.517 278.804 93.195 279.083 92.9628 279.411V285H91.7752V277.352H92.9628V278.461C93.2583 278.112 93.6542 277.812 94.1503 277.558C94.6464 277.294 95.1584 277.162 95.6862 277.162C97.3118 277.162 98.1246 277.986 98.1246 279.632V285ZM101.795 285.19C101.235 285.19 100.813 285.037 100.528 284.731C100.243 284.425 100.1 283.981 100.1 283.401V278.397H98.8336V277.352H100.1V275.262H101.288V277.352H102.84V278.397H101.288V283.147C101.288 283.443 101.351 283.681 101.478 283.86C101.615 284.039 101.81 284.129 102.064 284.129C102.412 284.129 102.681 284.024 102.871 283.812L103.22 284.699C102.871 285.026 102.396 285.19 101.795 285.19ZM107.335 285.19C106.195 285.19 105.261 284.821 104.533 284.082C103.805 283.332 103.44 282.361 103.44 281.168C103.44 280.049 103.799 279.105 104.517 278.334C105.235 277.553 106.132 277.162 107.209 277.162C108.338 277.162 109.23 277.553 109.885 278.334C110.55 279.105 110.882 280.081 110.882 281.263V281.564H104.691C104.744 282.314 105.018 282.942 105.515 283.448C106.011 283.955 106.655 284.208 107.446 284.208C108.396 284.208 109.183 283.886 109.805 283.242L110.376 284.018C109.594 284.799 108.581 285.19 107.335 285.19ZM109.71 280.693C109.7 280.039 109.478 279.453 109.045 278.936C108.613 278.408 107.995 278.144 107.193 278.144C106.433 278.144 105.831 278.403 105.388 278.92C104.955 279.437 104.723 280.028 104.691 280.693H109.71Z" fill="#436D17"/>
<path d="M31.6951 268.523C29.9704 268.523 28.6076 267.958 27.6069 266.83L28.3894 265.824C29.2943 266.835 30.4122 267.341 31.743 267.341C32.6054 267.341 33.2389 267.16 33.6434 266.798C34.048 266.425 34.2503 265.994 34.2503 265.504C34.2503 265.132 34.1332 264.818 33.8989 264.562C33.6647 264.307 33.3613 264.11 32.9887 263.971C32.6267 263.822 32.2168 263.689 31.759 263.572C31.3118 263.455 30.8647 263.327 30.4175 263.189C29.9704 263.04 29.5605 262.864 29.1879 262.662C28.8259 262.46 28.5278 262.172 28.2936 261.799C28.0593 261.427 27.9422 260.985 27.9422 260.474C27.9422 259.601 28.2882 258.893 28.9803 258.35C29.6723 257.796 30.5453 257.52 31.5993 257.52C33.1856 257.52 34.4472 258.015 35.3841 259.005L34.5856 259.979C33.8084 259.127 32.7811 258.701 31.5035 258.701C30.8647 258.701 30.3377 258.861 29.9225 259.18C29.5179 259.489 29.3156 259.894 29.3156 260.394C29.3156 260.767 29.47 261.075 29.7787 261.32C30.0981 261.565 30.4867 261.746 30.9445 261.863C31.413 261.98 31.9187 262.129 32.4617 262.31C33.0153 262.481 33.521 262.667 33.9788 262.869C34.4472 263.061 34.8358 263.375 35.1446 263.812C35.464 264.248 35.6237 264.775 35.6237 265.393C35.6237 266.266 35.299 267.006 34.6495 267.612C34.0107 268.219 33.0259 268.523 31.6951 268.523ZM40.3976 268.523C39.2478 268.523 38.3056 268.15 37.571 267.405C36.8364 266.649 36.4691 265.669 36.4691 264.466C36.4691 263.338 36.8311 262.385 37.555 261.608C38.279 260.82 39.1839 260.426 40.2699 260.426C41.4091 260.426 42.3087 260.82 42.9688 261.608C43.6395 262.385 43.9749 263.37 43.9749 264.562V264.866H37.7307C37.7839 265.622 38.0607 266.255 38.5611 266.766C39.0615 267.277 39.7109 267.533 40.5094 267.533C41.4676 267.533 42.2608 267.208 42.8889 266.558L43.4638 267.341C42.676 268.129 41.6539 268.523 40.3976 268.523ZM42.7931 263.987C42.7825 263.327 42.5589 262.736 42.1224 262.215C41.6859 261.682 41.063 261.416 40.2539 261.416C39.4874 261.416 38.8805 261.677 38.4334 262.199C37.9969 262.72 37.7626 263.317 37.7307 263.987H42.7931ZM55.9089 268.331H53.8648V267.357C53.2579 268.107 52.4115 268.523 51.4853 268.523C49.537 268.523 48.0677 267.053 48.0677 264.482C48.0677 261.959 49.521 260.426 51.4853 260.426C52.3956 260.426 53.2579 260.825 53.8648 261.608V257.679H55.9089V268.331ZM53.8648 265.84V263.109C53.5134 262.598 52.7948 262.231 52.1081 262.231C50.9583 262.231 50.1598 263.141 50.1598 264.482C50.1598 265.808 50.9583 266.718 52.1081 266.718C52.7948 266.718 53.5134 266.351 53.8648 265.84ZM56.7862 264.466C56.7862 262.231 58.4311 260.426 60.7787 260.426C63.0783 260.426 64.6434 262.151 64.6434 264.674V265.121H58.9102C59.038 266.095 59.8205 266.91 61.13 266.91C61.8487 266.91 62.6951 266.622 63.1901 266.143L64.0844 267.453C63.3019 268.171 62.1042 268.523 60.9064 268.523C58.5589 268.523 56.7862 266.942 56.7862 264.466ZM60.7787 262.039C59.5171 262.039 58.9741 262.981 58.8783 263.748H62.6791C62.6312 263.013 62.1201 262.039 60.7787 262.039ZM64.9745 264.466C64.9745 262.103 66.6833 260.426 69.0628 260.426C70.6438 260.426 71.6019 261.113 72.113 261.831L70.7875 263.061C70.4202 262.534 69.8612 262.231 69.1586 262.231C67.9289 262.231 67.0665 263.125 67.0665 264.466C67.0665 265.808 67.9289 266.718 69.1586 266.718C69.8612 266.718 70.4202 266.399 70.7875 265.888L72.113 267.117C71.6019 267.836 70.6438 268.523 69.0628 268.523C66.6833 268.523 64.9745 266.846 64.9745 264.466ZM76.3773 268.523C73.8381 268.523 72.305 266.67 72.305 264.466C72.305 262.279 73.8381 260.426 76.3773 260.426C78.9324 260.426 80.4655 262.279 80.4655 264.466C80.4655 266.67 78.9324 268.523 76.3773 268.523ZM76.3773 266.718C77.6389 266.718 78.3575 265.68 78.3575 264.466C78.3575 263.269 77.6389 262.231 76.3773 262.231C75.1157 262.231 74.413 263.269 74.413 264.466C74.413 265.68 75.1157 266.718 76.3773 266.718ZM92.9414 268.331H90.8973V263.46C90.8973 262.742 90.5779 262.231 89.7475 262.231C89.0288 262.231 88.438 262.71 88.1505 263.125V268.331H86.1064V263.46C86.1064 262.742 85.787 262.231 84.9565 262.231C84.2539 262.231 83.663 262.71 83.3596 263.141V268.331H81.3314V260.618H83.3596V261.624C83.679 261.161 84.701 260.426 85.8828 260.426C87.0166 260.426 87.7353 260.953 88.0227 261.831C88.4699 261.129 89.492 260.426 90.6737 260.426C92.095 260.426 92.9414 261.177 92.9414 262.758V268.331ZM96.32 267.341V271.269H94.2919V260.618H96.32V261.592C96.9109 260.841 97.7573 260.426 98.6995 260.426C100.68 260.426 102.117 261.895 102.117 264.466C102.117 267.038 100.68 268.523 98.6995 268.523C97.7892 268.523 96.9429 268.139 96.32 267.341ZM100.009 264.466C100.009 263.141 99.2265 262.231 98.0607 262.231C97.406 262.231 96.6554 262.614 96.32 263.109V265.84C96.6554 266.319 97.406 266.718 98.0607 266.718C99.2265 266.718 100.009 265.808 100.009 264.466ZM106.253 258.829C106.045 258.605 105.869 258.398 105.614 258.398C105.294 258.398 105.039 258.701 105.039 259.388H103.969C103.969 258.031 104.576 257.248 105.694 257.248C106.301 257.248 106.62 257.599 106.891 257.903C107.115 258.126 107.291 258.318 107.546 258.318C107.866 258.318 108.121 258.015 108.121 257.344H109.191C109.191 258.701 108.6 259.484 107.482 259.484C106.859 259.484 106.524 259.132 106.253 258.829ZM106.572 268.523C104.033 268.523 102.5 266.67 102.5 264.466C102.5 262.279 104.033 260.426 106.572 260.426C109.127 260.426 110.66 262.279 110.66 264.466C110.66 266.67 109.127 268.523 106.572 268.523ZM106.572 266.718C107.834 266.718 108.552 265.68 108.552 264.466C108.552 263.269 107.834 262.231 106.572 262.231C105.31 262.231 104.608 263.269 104.608 264.466C104.608 265.68 105.31 266.718 106.572 266.718ZM111.031 264.466C111.031 262.231 112.676 260.426 115.024 260.426C117.323 260.426 118.888 262.151 118.888 264.674V265.121H113.155C113.283 266.095 114.065 266.91 115.375 266.91C116.093 266.91 116.94 266.622 117.435 266.143L118.329 267.453C117.547 268.171 116.349 268.523 115.151 268.523C112.804 268.523 111.031 266.942 111.031 264.466ZM115.024 262.039C113.762 262.039 113.219 262.981 113.123 263.748H116.924C116.876 263.013 116.365 262.039 115.024 262.039Z" fill="#436D17"/>
</svg>
