<svg width="391" height="342" viewBox="0 0 391 342" fill="none" xmlns="http://www.w3.org/2000/svg">
<path d="M265.669 301.521C265.669 301.521 265.669 301.491 265.699 301.46L267.141 299.037C267.233 298.761 267.295 298.669 267.356 298.669C267.448 298.669 267.663 298.853 267.785 299.037L271.405 304.681C271.405 304.681 271.405 304.742 271.436 304.773C271.436 304.773 271.436 304.834 271.436 304.865C271.405 304.926 271.221 304.957 271.068 304.957L264.38 304.466C264.104 304.435 264.012 304.343 264.012 304.313C264.012 304.221 264.135 303.975 264.288 303.853V303.791L265.669 301.552V301.521ZM263.552 304.435C263.614 304.712 263.89 304.865 264.35 304.926L271.068 305.417C271.068 305.417 271.62 305.417 271.834 305.172C271.926 305.049 272.018 304.773 271.834 304.435L268.215 298.761C268.215 298.761 267.755 298.116 267.295 298.208C267.018 298.239 266.834 298.485 266.712 298.883L265.423 301.061C263.184 299.988 243.153 289.896 239.135 276.828C239.135 276.552 238.614 276.46 238.675 276.981C242.724 290.172 262.755 300.294 265.147 301.491L263.951 303.515C263.951 303.515 263.46 304.037 263.552 304.435Z" fill="#9D9C9C"/>
<path d="M148.522 18.6411L148.751 18.555L155.383 17.4928C155.641 17.4641 155.785 17.4928 155.813 17.5502C155.871 17.6363 155.756 17.9234 155.641 18.0957L153.919 20.3923L153.976 23.4354C153.976 23.6938 153.89 23.8086 153.861 23.8373C153.775 23.8947 153.517 23.7512 153.344 23.5789L148.493 18.9282C148.493 18.9282 148.407 18.756 148.407 18.7273C148.407 18.7273 148.435 18.6698 148.522 18.6124M154.005 24.2105C154.234 24.0957 154.349 23.8373 154.378 23.4067L154.321 20.6794C156.589 20.9091 173.699 23.0335 179.584 33.5407C182.713 39.1674 182.167 46.2296 177.919 54.6124C177.861 54.7273 177.919 54.8708 178.005 54.9282C178.062 54.9569 178.148 54.9569 178.206 54.9282C178.234 54.9282 178.292 54.8708 178.292 54.8421C182.598 46.3445 183.172 39.11 179.957 33.3684C174.129 22.8899 157.335 20.622 154.522 20.3062L155.986 18.3828C155.986 18.3828 156.416 17.7225 156.187 17.3493C156.043 17.1196 155.756 17.0335 155.325 17.0622L148.665 18.1244C148.665 18.1244 148.464 18.1531 148.321 18.2392C148.062 18.354 147.976 18.5263 147.947 18.6698C147.919 18.8421 147.976 19.043 148.148 19.244L152.971 23.9234C152.971 23.9234 153.574 24.4689 154.005 24.2392V24.2105Z" fill="#436D17"/>
<path d="M62.4791 119.641C62.4791 119.641 62.4482 119.641 62.4172 119.703L60.1884 121.219C60.1884 121.219 60.0646 121.374 59.9408 121.467C59.8169 121.529 59.755 121.56 59.7241 121.529C59.6931 121.529 59.6002 121.405 59.5693 121.158L58.6406 114.44C58.6406 114.44 58.6406 114.1 58.7025 114.069C58.7025 114.069 58.7954 114.069 58.9192 114.1L64.8008 117.381C64.9865 117.474 65.1723 117.69 65.1723 117.783C65.1723 117.814 65.1103 117.876 65.0794 117.907C65.0175 117.938 64.9246 118 64.8317 118.031L62.5101 119.61L62.4791 119.641ZM60.1884 121.869C60.3432 121.777 60.467 121.622 60.5289 121.56L62.5101 120.229C63.8412 122.581 75.2947 142.114 88.8533 145.365C93.4037 146.448 97.7375 145.612 101.762 142.888C101.886 142.826 101.886 142.672 101.824 142.548C101.762 142.424 101.607 142.393 101.483 142.486C97.5827 145.148 93.3728 145.953 88.9461 144.9C75.5424 141.65 64.1198 122.086 62.9125 119.95L65.0175 118.495C65.5437 118.31 65.6675 118 65.6675 117.783C65.6675 117.35 65.1413 117.04 65.0484 116.978L59.1359 113.697C58.8264 113.573 58.6097 113.573 58.4239 113.697C58.0834 113.914 58.1453 114.44 58.1453 114.533L59.043 121.25C59.105 121.653 59.2597 121.9 59.5074 121.993C59.6312 122.055 59.8788 122.086 60.1884 121.869Z" fill="#436D17"/>
<path d="M74.923 207.767C74.923 207.767 74.8935 207.767 74.864 207.738L72.6826 206.382C72.5352 206.234 72.3288 206.087 72.2404 206.087C72.2109 206.087 72.1225 206.175 72.093 206.47L71.4739 212.867C71.4739 212.867 71.4739 213.162 71.5329 213.221C71.5329 213.221 71.5918 213.221 71.6213 213.221C71.6508 213.221 71.7098 213.221 71.7392 213.162L77.2224 209.831C77.3992 209.713 77.5761 209.506 77.5761 209.418C77.5761 209.388 77.4877 209.3 77.2224 209.212H77.1634L74.923 207.767ZM72.093 205.615C72.4762 205.527 72.8594 205.88 72.9774 206.028L74.8935 207.236C76.0727 204.967 86.3019 185.952 99.0664 182.385C99.2433 182.327 99.4202 182.297 99.5676 182.238C103.665 181.236 107.674 181.914 111.418 184.272C111.536 184.331 111.566 184.479 111.477 184.596C111.418 184.714 111.271 184.744 111.153 184.655C107.35 182.268 103.311 181.649 99.1548 182.798C86.5673 186.365 76.3969 205.379 75.3062 207.472L77.3698 208.769C77.753 208.887 77.9593 209.094 78.0183 209.359C78.0773 209.801 77.5761 210.155 77.4582 210.214L71.9456 213.545C71.9456 213.545 71.7687 213.604 71.7098 213.633C71.4739 213.692 71.297 213.633 71.2086 213.545C70.9433 213.309 70.9728 212.896 70.9728 212.808L71.5918 206.382C71.6508 205.939 71.8277 205.674 72.093 205.615Z" fill="#436D17"/>
<path d="M89.239 300.239C89.239 300.239 89.2095 300.416 89.239 300.593L90.4779 307.348C90.4779 307.348 90.5959 307.672 90.6549 307.702C90.6549 307.702 90.7434 307.702 90.8614 307.584L95.5222 302.54C95.5222 302.54 95.6992 302.304 95.7582 302.156C95.7582 302.127 95.7877 302.038 95.7582 302.009C95.7287 301.95 95.5812 301.92 95.3452 301.891L92.3363 302.009H92.2478L89.829 300.268C89.6815 300.18 89.416 300.062 89.298 300.121C89.298 300.121 89.2685 300.121 89.239 300.209M96.2006 302.304C96.1121 302.599 95.9057 302.835 95.8762 302.864L91.1859 307.938C90.8909 308.203 90.6549 308.203 90.5074 308.174C90.1535 308.056 90.0355 307.554 90.006 307.466L88.767 300.681C88.6785 300.062 88.944 299.796 89.121 299.737C89.5045 299.59 89.9765 299.885 90.0945 299.944L92.1299 301.389C92.3658 298.498 94.2832 281.212 104.903 274.9C110.714 271.448 118.148 271.861 126.997 276.05C127.115 276.109 127.145 276.227 127.115 276.316C127.115 276.316 127.115 276.316 127.115 276.345C127.056 276.463 126.909 276.522 126.82 276.463C118.089 272.333 110.802 271.95 105.109 275.313C94.4897 281.625 92.7493 299.236 92.5723 301.566L95.3452 301.448C95.7582 301.448 95.9942 301.566 96.1416 301.743C96.2301 301.861 96.2891 302.038 96.2006 302.304Z" fill="#436D17"/>
<path d="M273.512 20.8L273.271 20.7097L266.316 19.5957C266.045 19.5957 265.895 19.5957 265.865 19.6559C265.805 19.7462 265.925 20.0473 266.045 20.2279L267.852 22.6365L267.792 25.8279C267.792 26.0989 267.882 26.2193 267.912 26.2494C268.002 26.3097 268.273 26.1591 268.454 25.9785L273.482 21.1011C273.482 21.1011 273.572 20.9204 273.572 20.8903C273.572 20.8903 273.542 20.8301 273.452 20.7699M267.701 26.6408C267.46 26.5204 267.34 26.2494 267.31 25.7978L267.37 22.9376C264.992 23.1785 247.048 25.4064 240.876 36.4258C237.594 42.2968 238.166 49.7333 242.622 58.4946C242.682 58.615 242.622 58.7656 242.531 58.8258C242.471 58.8559 242.381 58.8559 242.321 58.8258C242.291 58.8258 242.23 58.7656 242.23 58.7355C237.714 49.8537 237.142 42.2666 240.514 36.215C246.686 25.2258 264.269 22.8473 267.22 22.5161L265.684 20.4989C265.684 20.4989 265.232 19.8064 265.473 19.415C265.624 19.1742 265.925 19.0838 266.377 19.114L273.331 20.2279C273.331 20.2279 273.542 20.258 273.693 20.3484C273.964 20.4688 274.054 20.6494 274.084 20.8C274.114 20.9806 274.054 21.1914 273.873 21.4021L268.815 26.3097C268.815 26.3097 268.183 26.8817 267.731 26.6408H267.701Z" fill="#9D9C9C"/>
<path d="M288.595 123.514C288.595 123.514 288.595 123.484 288.595 123.454L287.271 121.016C287.091 120.806 287.061 120.685 287.061 120.655C287.091 120.565 287.361 120.475 287.572 120.475L294.133 120.234C294.133 120.234 294.193 120.234 294.253 120.234C294.253 120.234 294.313 120.234 294.343 120.264C294.343 120.324 294.313 120.505 294.223 120.595L290.461 126.012C290.281 126.223 290.19 126.283 290.16 126.253C290.07 126.253 289.95 125.982 289.889 125.771V125.711L288.625 123.454L288.595 123.514ZM289.98 126.764C290.251 126.825 290.521 126.704 290.792 126.343L294.554 120.926C294.554 120.926 294.855 120.475 294.735 120.144C294.675 119.993 294.494 119.782 294.103 119.782L287.512 120.023C287.512 120.023 286.76 120.083 286.579 120.505C286.489 120.746 286.579 121.016 286.85 121.347L288.054 123.544C286.037 124.869 267.499 136.726 254.468 133.596C254.227 133.476 253.896 133.837 254.347 134.078C267.499 137.268 286.067 125.41 288.264 123.966L289.378 126.012C289.408 126.193 289.589 126.704 289.95 126.825L289.98 126.764Z" fill="#9D9C9C"/>
<path d="M288.143 207.364C288.143 207.364 288.114 207.364 288.085 207.394L285.765 208.744C285.501 208.803 285.413 208.891 285.413 208.95C285.413 209.038 285.589 209.244 285.736 209.361L291.109 212.855C291.109 212.855 291.168 212.884 291.197 212.884C291.197 212.884 291.256 212.884 291.285 212.884C291.344 212.855 291.373 212.679 291.373 212.532L290.962 206.131C290.933 205.867 290.845 205.779 290.815 205.779C290.727 205.779 290.492 205.896 290.345 206.043H290.287L288.114 207.335L288.143 207.364ZM290.933 205.339C291.197 205.427 291.344 205.662 291.402 206.102L291.814 212.532C291.814 212.532 291.814 213.06 291.579 213.266C291.461 213.354 291.197 213.442 290.874 213.266L285.472 209.743C285.472 209.743 284.855 209.302 284.943 208.862C284.972 208.598 285.207 208.421 285.589 208.304L287.703 207.071C286.705 204.957 277.192 185.696 264.684 181.762C260.603 180.499 256.551 180.998 252.675 183.259C252.558 183.318 252.44 183.259 252.352 183.171C252.294 183.054 252.352 182.907 252.44 182.848C256.287 180.617 260.28 180.059 264.332 181.204C264.508 181.263 264.655 181.292 264.831 181.351C277.427 185.314 286.998 204.546 288.085 206.865L290.052 205.72C290.052 205.72 290.58 205.25 290.933 205.339Z" fill="#9D9C9C"/>
<path d="M307.808 124.947H305.887V120.529C305.887 119.515 305.357 119.167 304.54 119.167C303.783 119.167 303.193 119.59 302.875 120.029V124.947H300.953V117.638H302.875V118.592C303.344 118.032 304.237 117.457 305.433 117.457C307.037 117.457 307.808 118.365 307.808 119.787V124.947ZM311.956 115.943C311.76 115.732 311.593 115.535 311.351 115.535C311.048 115.535 310.806 115.822 310.806 116.473H309.792C309.792 115.187 310.367 114.445 311.427 114.445C312.002 114.445 312.304 114.778 312.562 115.066C312.774 115.278 312.94 115.459 313.182 115.459C313.485 115.459 313.727 115.172 313.727 114.536H314.741C314.741 115.822 314.181 116.564 313.122 116.564C312.531 116.564 312.214 116.231 311.956 115.943ZM315.422 124.947H313.5V124.191C313.001 124.781 312.138 125.129 311.185 125.129C310.019 125.129 308.642 124.342 308.642 122.708C308.642 120.998 310.019 120.377 311.185 120.377C312.153 120.377 313.016 120.68 313.5 121.27V120.256C313.5 119.515 312.864 119.031 311.896 119.031C311.109 119.031 310.383 119.318 309.762 119.893L309.036 118.607C309.929 117.82 311.079 117.457 312.229 117.457C313.893 117.457 315.422 118.123 315.422 120.226V124.947ZM313.5 123.192V122.284C313.182 121.86 312.577 121.648 311.956 121.648C311.2 121.648 310.579 122.057 310.579 122.753C310.579 123.434 311.2 123.828 311.956 123.828C312.577 123.828 313.182 123.616 313.5 123.192ZM320.112 125.129C317.706 125.129 316.254 123.374 316.254 121.285C316.254 119.212 317.706 117.457 320.112 117.457C322.534 117.457 323.986 119.212 323.986 121.285C323.986 123.374 322.534 125.129 320.112 125.129ZM320.112 123.419C321.308 123.419 321.989 122.435 321.989 121.285C321.989 120.15 321.308 119.167 320.112 119.167C318.917 119.167 318.251 120.15 318.251 121.285C318.251 122.435 318.917 123.419 320.112 123.419ZM327.939 122.102H324.307V120.468H327.939V122.102ZM330.66 124.947H328.738V117.638H330.66V118.637C331.175 117.986 332.083 117.472 332.991 117.472V119.348C332.854 119.318 332.673 119.303 332.461 119.303C331.825 119.303 330.978 119.651 330.66 120.12V124.947ZM333.117 121.285C333.117 119.167 334.676 117.457 336.9 117.457C339.079 117.457 340.562 119.091 340.562 121.482V121.906H335.13C335.251 122.829 335.992 123.601 337.233 123.601C337.914 123.601 338.716 123.328 339.185 122.874L340.033 124.115C339.291 124.796 338.156 125.129 337.021 125.129C334.797 125.129 333.117 123.631 333.117 121.285ZM336.9 118.985C335.705 118.985 335.19 119.878 335.099 120.604H338.701C338.656 119.908 338.171 118.985 336.9 118.985ZM348.2 124.947H346.278V120.529C346.278 119.515 345.749 119.167 344.932 119.167C344.175 119.167 343.585 119.59 343.267 120.029V124.947H341.345V117.638H343.267V118.592C343.736 118.032 344.629 117.457 345.825 117.457C347.429 117.457 348.2 118.365 348.2 119.787V124.947ZM352.893 125.129C350.487 125.129 349.034 123.374 349.034 121.285C349.034 119.212 350.487 117.457 352.893 117.457C355.314 117.457 356.767 119.212 356.767 121.285C356.767 123.374 355.314 125.129 352.893 125.129ZM352.893 123.419C354.089 123.419 354.769 122.435 354.769 121.285C354.769 120.15 354.089 119.167 352.893 119.167C351.698 119.167 351.032 120.15 351.032 121.285C351.032 122.435 351.698 123.419 352.893 123.419ZM361.552 124.947H359.479L356.543 117.638H358.601L360.508 122.723L362.415 117.638H364.488L361.552 124.947ZM370.96 114.355L368.509 116.534H367.162L369.19 114.355H370.96ZM371.051 124.947H369.129V124.191C368.63 124.781 367.767 125.129 366.814 125.129C365.649 125.129 364.272 124.342 364.272 122.708C364.272 120.998 365.649 120.377 366.814 120.377C367.782 120.377 368.645 120.68 369.129 121.27V120.256C369.129 119.515 368.494 119.031 367.525 119.031C366.738 119.031 366.012 119.318 365.391 119.893L364.665 118.607C365.558 117.82 366.708 117.457 367.858 117.457C369.523 117.457 371.051 118.123 371.051 120.226V124.947ZM369.129 123.192V122.284C368.811 121.86 368.206 121.648 367.586 121.648C366.829 121.648 366.208 122.057 366.208 122.753C366.208 123.434 366.829 123.828 367.586 123.828C368.206 123.828 368.811 123.616 369.129 123.192ZM376.317 124.947H374.243L371.308 117.638H373.366L375.272 122.723L377.179 117.638H379.252L376.317 124.947ZM379.036 121.285C379.036 119.167 380.595 117.457 382.819 117.457C384.998 117.457 386.481 119.091 386.481 121.482V121.906H381.049C381.17 122.829 381.911 123.601 383.152 123.601C383.833 123.601 384.635 123.328 385.104 122.874L385.952 124.115C385.21 124.796 384.075 125.129 382.94 125.129C380.716 125.129 379.036 123.631 379.036 121.285ZM382.819 118.985C381.624 118.985 381.109 119.878 381.018 120.604H384.62C384.574 119.908 384.09 118.985 382.819 118.985ZM389.186 124.947H387.264V114.854H389.186V124.947Z" fill="#9D9C9C"/>
<path d="M307.7 112H306.826V106.217L304.435 112H304.076L301.696 106.217V112H300.822V104.974H302.075L304.256 110.262L306.447 104.974H307.7V112ZM312.857 112H312.067V111.421C311.639 111.891 311.077 112.126 310.382 112.126C309.911 112.126 309.497 111.975 309.139 111.673C308.781 111.371 308.602 110.961 308.602 110.441C308.602 109.907 308.777 109.497 309.128 109.209C309.486 108.914 309.904 108.766 310.382 108.766C311.105 108.766 311.667 108.998 312.067 109.461V108.545C312.067 108.208 311.948 107.945 311.709 107.755C311.47 107.565 311.161 107.471 310.782 107.471C310.185 107.471 309.666 107.706 309.223 108.176L308.854 107.629C309.395 107.067 310.073 106.786 310.887 106.786C311.47 106.786 311.944 106.926 312.309 107.207C312.675 107.488 312.857 107.92 312.857 108.503V112ZM310.666 111.558C311.298 111.558 311.765 111.347 312.067 110.926V109.967C311.765 109.546 311.298 109.335 310.666 109.335C310.301 109.335 309.999 109.44 309.76 109.651C309.529 109.855 309.413 110.122 309.413 110.452C309.413 110.775 309.529 111.041 309.76 111.252C309.999 111.456 310.301 111.558 310.666 111.558ZM315.305 112.126C314.932 112.126 314.651 112.025 314.462 111.821C314.272 111.617 314.177 111.322 314.177 110.936V107.608H313.335V106.912H314.177V105.522H314.968V106.912H316V107.608H314.968V110.768C314.968 110.964 315.01 111.122 315.094 111.242C315.185 111.361 315.315 111.421 315.484 111.421C315.715 111.421 315.894 111.35 316.021 111.21L316.253 111.8C316.021 112.018 315.705 112.126 315.305 112.126ZM320.687 104.627L318.906 106.143H318.306L319.865 104.627H320.687ZM318.991 112.126C318.232 112.126 317.611 111.881 317.126 111.389C316.642 110.89 316.399 110.244 316.399 109.451C316.399 108.707 316.638 108.078 317.116 107.565C317.593 107.046 318.19 106.786 318.906 106.786C319.658 106.786 320.251 107.046 320.687 107.565C321.129 108.078 321.35 108.728 321.35 109.514V109.714H317.232C317.267 110.213 317.449 110.631 317.779 110.968C318.109 111.305 318.538 111.473 319.064 111.473C319.696 111.473 320.22 111.259 320.634 110.831L321.013 111.347C320.494 111.867 319.819 112.126 318.991 112.126ZM320.571 109.135C320.564 108.699 320.416 108.31 320.128 107.966C319.84 107.615 319.43 107.439 318.896 107.439C318.39 107.439 317.99 107.611 317.695 107.955C317.407 108.299 317.253 108.692 317.232 109.135H320.571ZM322.999 112H322.208V106.912H322.999V107.734C323.469 107.116 324.034 106.807 324.694 106.807V107.618C324.596 107.597 324.491 107.586 324.378 107.586C324.14 107.586 323.88 107.671 323.599 107.839C323.318 108.008 323.118 108.194 322.999 108.398V112ZM325.654 106.185C325.513 106.185 325.39 106.136 325.285 106.038C325.18 105.933 325.127 105.806 325.127 105.659C325.127 105.511 325.18 105.385 325.285 105.28C325.39 105.174 325.513 105.122 325.654 105.122C325.801 105.122 325.928 105.174 326.033 105.28C326.138 105.385 326.191 105.511 326.191 105.659C326.191 105.806 326.138 105.933 326.033 106.038C325.928 106.136 325.801 106.185 325.654 106.185ZM326.054 112H325.264V106.912H326.054V112ZM331.18 112H330.39V111.421C329.961 111.891 329.4 112.126 328.704 112.126C328.234 112.126 327.82 111.975 327.461 111.673C327.103 111.371 326.924 110.961 326.924 110.441C326.924 109.907 327.1 109.497 327.451 109.209C327.809 108.914 328.227 108.766 328.704 108.766C329.428 108.766 329.989 108.998 330.39 109.461V108.545C330.39 108.208 330.27 107.945 330.032 107.755C329.793 107.565 329.484 107.471 329.105 107.471C328.508 107.471 327.988 107.706 327.546 108.176L327.177 107.629C327.718 107.067 328.395 106.786 329.21 106.786C329.793 106.786 330.267 106.926 330.632 107.207C330.997 107.488 331.18 107.92 331.18 108.503V112ZM328.989 111.558C329.621 111.558 330.088 111.347 330.39 110.926V109.967C330.088 109.546 329.621 109.335 328.989 109.335C328.624 109.335 328.322 109.44 328.083 109.651C327.851 109.855 327.735 110.122 327.735 110.452C327.735 110.775 327.851 111.041 328.083 111.252C328.322 111.456 328.624 111.558 328.989 111.558ZM334.396 109.798H331.868V109.103H334.396V109.798ZM337.586 112.126C336.869 112.126 336.297 111.828 335.869 111.231V113.938H335.079V106.912H335.869V107.671C336.058 107.404 336.304 107.19 336.606 107.028C336.908 106.867 337.235 106.786 337.586 106.786C338.26 106.786 338.804 107.028 339.218 107.513C339.64 107.99 339.85 108.636 339.85 109.451C339.85 110.265 339.64 110.915 339.218 111.4C338.804 111.884 338.26 112.126 337.586 112.126ZM337.386 111.421C337.884 111.421 338.281 111.238 338.576 110.873C338.871 110.501 339.018 110.027 339.018 109.451C339.018 108.875 338.871 108.405 338.576 108.039C338.281 107.674 337.884 107.492 337.386 107.492C337.084 107.492 336.789 107.572 336.501 107.734C336.22 107.888 336.009 108.078 335.869 108.303V110.599C336.009 110.831 336.22 111.027 336.501 111.189C336.789 111.343 337.084 111.421 337.386 111.421ZM341.475 112H340.685V106.912H341.475V107.734C341.946 107.116 342.511 106.807 343.171 106.807V107.618C343.073 107.597 342.968 107.586 342.855 107.586C342.617 107.586 342.357 107.671 342.076 107.839C341.795 108.008 341.595 108.194 341.475 108.398V112ZM344.131 106.185C343.99 106.185 343.867 106.136 343.762 106.038C343.657 105.933 343.604 105.806 343.604 105.659C343.604 105.511 343.657 105.385 343.762 105.28C343.867 105.174 343.99 105.122 344.131 105.122C344.278 105.122 344.405 105.174 344.51 105.28C344.615 105.385 344.668 105.511 344.668 105.659C344.668 105.806 344.615 105.933 344.51 106.038C344.405 106.136 344.278 106.185 344.131 106.185ZM344.531 112H343.741V106.912H344.531V112ZM352.617 112H351.827V108.545C351.827 107.843 351.514 107.492 350.889 107.492C350.636 107.492 350.383 107.569 350.131 107.723C349.878 107.878 349.681 108.06 349.541 108.271V112H348.751V108.545C348.751 107.843 348.438 107.492 347.813 107.492C347.568 107.492 347.318 107.569 347.065 107.723C346.82 107.878 346.623 108.064 346.476 108.282V112H345.686V106.912H346.476V107.65C346.602 107.453 346.823 107.26 347.139 107.07C347.455 106.881 347.782 106.786 348.119 106.786C348.491 106.786 348.793 106.874 349.025 107.049C349.256 107.225 349.411 107.453 349.488 107.734C349.643 107.481 349.878 107.26 350.194 107.07C350.51 106.881 350.843 106.786 351.195 106.786C352.143 106.786 352.617 107.299 352.617 108.324V112ZM357.742 112H356.952V111.421C356.524 111.891 355.962 112.126 355.267 112.126C354.797 112.126 354.382 111.975 354.024 111.673C353.666 111.371 353.487 110.961 353.487 110.441C353.487 109.907 353.662 109.497 354.014 109.209C354.372 108.914 354.789 108.766 355.267 108.766C355.99 108.766 356.552 108.998 356.952 109.461V108.545C356.952 108.208 356.833 107.945 356.594 107.755C356.355 107.565 356.046 107.471 355.667 107.471C355.07 107.471 354.551 107.706 354.108 108.176L353.74 107.629C354.28 107.067 354.958 106.786 355.773 106.786C356.355 106.786 356.829 106.926 357.195 107.207C357.56 107.488 357.742 107.92 357.742 108.503V112ZM355.551 111.558C356.183 111.558 356.65 111.347 356.952 110.926V109.967C356.65 109.546 356.183 109.335 355.551 109.335C355.186 109.335 354.884 109.44 354.646 109.651C354.414 109.855 354.298 110.122 354.298 110.452C354.298 110.775 354.414 111.041 354.646 111.252C354.884 111.456 355.186 111.558 355.551 111.558Z" fill="#9D9C9C"/>
<path d="M293.267 239.006H291.604V235.042C291.604 234.458 291.344 234.042 290.668 234.042C290.083 234.042 289.602 234.432 289.368 234.769V239.006H287.705V235.042C287.705 234.458 287.445 234.042 286.769 234.042C286.197 234.042 285.716 234.432 285.469 234.782V239.006H283.819V232.729H285.469V233.548C285.729 233.171 286.561 232.573 287.523 232.573C288.445 232.573 289.03 233.002 289.264 233.717C289.628 233.145 290.46 232.573 291.422 232.573C292.578 232.573 293.267 233.184 293.267 234.471V239.006ZM295.185 231.806C294.652 231.806 294.197 231.364 294.197 230.819C294.197 230.273 294.652 229.831 295.185 229.831C295.731 229.831 296.173 230.273 296.173 230.819C296.173 231.364 295.731 231.806 295.185 231.806ZM296.017 239.006H294.366V232.729H296.017V239.006ZM296.731 235.861C296.731 233.938 298.121 232.573 300.058 232.573C301.344 232.573 302.124 233.132 302.54 233.717L301.461 234.717C301.162 234.289 300.707 234.042 300.136 234.042C299.135 234.042 298.433 234.769 298.433 235.861C298.433 236.953 299.135 237.694 300.136 237.694C300.707 237.694 301.162 237.434 301.461 237.018L302.54 238.019C302.124 238.603 301.344 239.162 300.058 239.162C298.121 239.162 296.731 237.798 296.731 235.861ZM304.75 239.006H303.099V232.729H304.75V233.587C305.191 233.028 305.971 232.586 306.751 232.586V234.198C306.634 234.172 306.478 234.159 306.296 234.159C305.75 234.159 305.022 234.458 304.75 234.86V239.006ZM310.174 239.162C308.107 239.162 306.86 237.655 306.86 235.861C306.86 234.081 308.107 232.573 310.174 232.573C312.253 232.573 313.501 234.081 313.501 235.861C313.501 237.655 312.253 239.162 310.174 239.162ZM310.174 237.694C311.2 237.694 311.785 236.849 311.785 235.861C311.785 234.886 311.2 234.042 310.174 234.042C309.147 234.042 308.575 234.886 308.575 235.861C308.575 236.849 309.147 237.694 310.174 237.694ZM315.856 238.2V241.398H314.205V232.729H315.856V233.522C316.337 232.911 317.025 232.573 317.792 232.573C319.404 232.573 320.573 233.769 320.573 235.861C320.573 237.954 319.404 239.162 317.792 239.162C317.051 239.162 316.363 238.85 315.856 238.2ZM318.858 235.861C318.858 234.782 318.221 234.042 317.272 234.042C316.74 234.042 316.129 234.354 315.856 234.756V236.979C316.129 237.369 316.74 237.694 317.272 237.694C318.221 237.694 318.858 236.953 318.858 235.861ZM322.938 239.006H321.288V230.338H322.938V239.006ZM329.397 229.909L327.291 231.78H326.134L327.876 229.909H329.397ZM329.475 239.006H327.824V238.356C327.395 238.863 326.654 239.162 325.836 239.162C324.835 239.162 323.652 238.486 323.652 237.083C323.652 235.614 324.835 235.081 325.836 235.081C326.667 235.081 327.408 235.341 327.824 235.848V234.977C327.824 234.341 327.278 233.925 326.446 233.925C325.771 233.925 325.147 234.172 324.614 234.665L323.99 233.561C324.757 232.885 325.745 232.573 326.732 232.573C328.162 232.573 329.475 233.145 329.475 234.951V239.006ZM327.824 237.499V236.719C327.551 236.355 327.031 236.173 326.498 236.173C325.849 236.173 325.316 236.524 325.316 237.122C325.316 237.707 325.849 238.044 326.498 238.044C327.031 238.044 327.551 237.863 327.824 237.499ZM330.046 238.187L330.761 237.031C331.216 237.46 332.151 237.889 332.931 237.889C333.646 237.889 333.984 237.642 333.984 237.252C333.984 236.81 333.438 236.654 332.723 236.511C331.644 236.303 330.254 236.043 330.254 234.548C330.254 233.496 331.177 232.573 332.827 232.573C333.893 232.573 334.738 232.937 335.348 233.431L334.699 234.561C334.322 234.159 333.607 233.834 332.84 233.834C332.242 233.834 331.852 234.055 331.852 234.419C331.852 234.808 332.346 234.951 333.048 235.094C334.127 235.302 335.569 235.588 335.569 237.148C335.569 238.304 334.595 239.162 332.853 239.162C331.761 239.162 330.709 238.798 330.046 238.187ZM338.371 239.162C337.214 239.162 336.59 238.564 336.59 237.447V234.172H335.551V232.729H336.59V231.013H338.254V232.729H339.528V234.172H338.254V237.005C338.254 237.395 338.462 237.694 338.826 237.694C339.073 237.694 339.307 237.603 339.398 237.512L339.748 238.759C339.502 238.98 339.06 239.162 338.371 239.162ZM340.956 231.806C340.423 231.806 339.968 231.364 339.968 230.819C339.968 230.273 340.423 229.831 340.956 229.831C341.502 229.831 341.943 230.273 341.943 230.819C341.943 231.364 341.502 231.806 340.956 231.806ZM341.787 239.006H340.137V232.729H341.787V239.006ZM342.501 235.861C342.501 233.938 343.892 232.573 345.828 232.573C347.115 232.573 347.895 233.132 348.311 233.717L347.232 234.717C346.933 234.289 346.478 234.042 345.906 234.042C344.906 234.042 344.204 234.769 344.204 235.861C344.204 236.953 344.906 237.694 345.906 237.694C346.478 237.694 346.933 237.434 347.232 237.018L348.311 238.019C347.895 238.603 347.115 239.162 345.828 239.162C343.892 239.162 342.501 237.798 342.501 235.861ZM351.781 239.162C349.715 239.162 348.467 237.655 348.467 235.861C348.467 234.081 349.715 232.573 351.781 232.573C353.86 232.573 355.108 234.081 355.108 235.861C355.108 237.655 353.86 239.162 351.781 239.162ZM351.781 237.694C352.808 237.694 353.393 236.849 353.393 235.861C353.393 234.886 352.808 234.042 351.781 234.042C350.754 234.042 350.183 234.886 350.183 235.861C350.183 236.849 350.754 237.694 351.781 237.694Z" fill="#9D9C9C"/>
<path d="M286.097 226.126C284.959 226.126 284.06 225.754 283.4 225.01L283.916 224.346C284.513 225.013 285.251 225.347 286.128 225.347C286.697 225.347 287.115 225.228 287.382 224.989C287.649 224.743 287.782 224.459 287.782 224.136C287.782 223.89 287.705 223.683 287.55 223.514C287.396 223.346 287.196 223.216 286.95 223.124C286.711 223.026 286.441 222.938 286.139 222.861C285.844 222.784 285.549 222.699 285.254 222.608C284.959 222.51 284.689 222.394 284.443 222.261C284.204 222.127 284.008 221.938 283.853 221.692C283.699 221.446 283.621 221.155 283.621 220.817C283.621 220.242 283.85 219.775 284.306 219.417C284.763 219.051 285.338 218.869 286.034 218.869C287.08 218.869 287.912 219.195 288.53 219.848L288.003 220.491C287.491 219.929 286.813 219.648 285.97 219.648C285.549 219.648 285.202 219.754 284.928 219.964C284.661 220.168 284.527 220.435 284.527 220.765C284.527 221.011 284.629 221.214 284.833 221.376C285.044 221.537 285.3 221.657 285.602 221.734C285.911 221.811 286.244 221.909 286.602 222.029C286.968 222.141 287.301 222.264 287.603 222.398C287.912 222.524 288.168 222.731 288.372 223.019C288.583 223.307 288.688 223.655 288.688 224.062C288.688 224.638 288.474 225.126 288.046 225.526C287.624 225.926 286.975 226.126 286.097 226.126ZM291.837 226.126C291.079 226.126 290.457 225.881 289.973 225.389C289.488 224.89 289.246 224.244 289.246 223.451C289.246 222.707 289.484 222.078 289.962 221.565C290.44 221.046 291.036 220.786 291.753 220.786C292.504 220.786 293.097 221.046 293.533 221.565C293.975 222.078 294.196 222.728 294.196 223.514V223.714H290.078C290.113 224.213 290.296 224.631 290.626 224.968C290.956 225.305 291.384 225.473 291.911 225.473C292.543 225.473 293.066 225.259 293.48 224.831L293.859 225.347C293.34 225.867 292.666 226.126 291.837 226.126ZM293.417 223.135C293.41 222.699 293.263 222.31 292.975 221.966C292.687 221.615 292.276 221.439 291.742 221.439C291.237 221.439 290.836 221.611 290.541 221.955C290.253 222.299 290.099 222.692 290.078 223.135H293.417ZM298.634 226.126C298.262 226.126 297.981 226.025 297.791 225.821C297.602 225.617 297.507 225.322 297.507 224.936V221.608H296.664V220.912H297.507V219.522H298.297V220.912H299.329V221.608H298.297V224.768C298.297 224.964 298.339 225.122 298.423 225.242C298.515 225.361 298.645 225.421 298.813 225.421C299.045 225.421 299.224 225.35 299.35 225.21L299.582 225.8C299.35 226.018 299.034 226.126 298.634 226.126ZM300.814 226H300.024V220.912H300.814V221.734C301.285 221.116 301.85 220.807 302.51 220.807V221.618C302.412 221.597 302.306 221.586 302.194 221.586C301.955 221.586 301.695 221.671 301.414 221.839C301.134 222.008 300.933 222.194 300.814 222.398V226ZM307.051 226H306.261V225.421C305.832 225.891 305.271 226.126 304.575 226.126C304.105 226.126 303.691 225.975 303.332 225.673C302.974 225.371 302.795 224.961 302.795 224.441C302.795 223.907 302.971 223.497 303.322 223.209C303.68 222.914 304.098 222.766 304.575 222.766C305.299 222.766 305.86 222.998 306.261 223.461V222.545C306.261 222.208 306.141 221.945 305.903 221.755C305.664 221.565 305.355 221.471 304.976 221.471C304.379 221.471 303.859 221.706 303.417 222.176L303.048 221.629C303.589 221.067 304.266 220.786 305.081 220.786C305.664 220.786 306.138 220.926 306.503 221.207C306.868 221.488 307.051 221.92 307.051 222.503V226ZM304.86 225.558C305.492 225.558 305.959 225.347 306.261 224.926V223.967C305.959 223.546 305.492 223.335 304.86 223.335C304.495 223.335 304.193 223.44 303.954 223.651C303.722 223.855 303.606 224.122 303.606 224.452C303.606 224.775 303.722 225.041 303.954 225.252C304.193 225.456 304.495 225.558 304.86 225.558ZM309.825 226.126C308.961 226.126 308.276 225.86 307.771 225.326L308.181 224.757C308.357 224.961 308.596 225.133 308.898 225.273C309.207 225.414 309.526 225.484 309.856 225.484C310.235 225.484 310.53 225.403 310.741 225.242C310.952 225.08 311.057 224.869 311.057 224.61C311.057 224.385 310.948 224.209 310.731 224.083C310.513 223.949 310.25 223.851 309.941 223.788C309.639 223.718 309.333 223.64 309.024 223.556C308.715 223.465 308.452 223.314 308.234 223.103C308.016 222.886 307.908 222.601 307.908 222.25C307.908 221.836 308.076 221.488 308.413 221.207C308.757 220.926 309.221 220.786 309.804 220.786C310.569 220.786 311.198 221.032 311.689 221.523L311.32 222.071C310.962 221.643 310.457 221.428 309.804 221.428C309.459 221.428 309.186 221.506 308.982 221.66C308.778 221.808 308.676 221.997 308.676 222.229C308.676 222.433 308.785 222.594 309.003 222.714C309.221 222.826 309.481 222.917 309.783 222.987C310.091 223.051 310.4 223.128 310.709 223.219C311.018 223.31 311.282 223.472 311.499 223.704C311.717 223.928 311.826 224.223 311.826 224.589C311.826 225.038 311.65 225.407 311.299 225.695C310.948 225.982 310.457 226.126 309.825 226.126ZM316.912 226H316.122V222.671C316.122 222.243 316.024 221.941 315.827 221.766C315.63 221.583 315.35 221.492 314.984 221.492C314.689 221.492 314.402 221.569 314.121 221.723C313.847 221.878 313.633 222.064 313.478 222.282V226H312.688V220.912H313.478V221.65C313.675 221.418 313.938 221.218 314.268 221.049C314.598 220.874 314.939 220.786 315.29 220.786C316.371 220.786 316.912 221.334 316.912 222.429V226ZM319.08 226H318.29V221.608H317.447V220.912H318.29V220.523C318.29 220.003 318.42 219.599 318.679 219.311C318.946 219.016 319.308 218.869 319.764 218.869C320.2 218.869 320.558 218.999 320.839 219.259L320.512 219.775C320.323 219.606 320.112 219.522 319.88 219.522C319.62 219.522 319.42 219.61 319.28 219.785C319.146 219.954 319.08 220.2 319.08 220.523V220.912H320.112V221.608H319.08V226ZM324.675 225.357C324.219 225.87 323.611 226.126 322.853 226.126C322.094 226.126 321.483 225.87 321.02 225.357C320.564 224.845 320.335 224.209 320.335 223.451C320.335 222.692 320.564 222.06 321.02 221.555C321.483 221.042 322.094 220.786 322.853 220.786C323.611 220.786 324.219 221.042 324.675 221.555C325.139 222.06 325.37 222.692 325.37 223.451C325.37 224.209 325.139 224.845 324.675 225.357ZM321.61 224.852C321.919 225.231 322.333 225.421 322.853 225.421C323.372 225.421 323.783 225.231 324.085 224.852C324.387 224.466 324.538 223.999 324.538 223.451C324.538 222.903 324.387 222.44 324.085 222.06C323.783 221.681 323.372 221.492 322.853 221.492C322.333 221.492 321.919 221.685 321.61 222.071C321.308 222.45 321.157 222.91 321.157 223.451C321.157 223.999 321.308 224.466 321.61 224.852ZM327.027 226H326.237V220.912H327.027V221.734C327.497 221.116 328.063 220.807 328.723 220.807V221.618C328.624 221.597 328.519 221.586 328.407 221.586C328.168 221.586 327.908 221.671 327.627 221.839C327.346 222.008 327.146 222.194 327.027 222.398V226ZM336.224 226H335.433V222.545C335.433 221.843 335.121 221.492 334.496 221.492C334.243 221.492 333.99 221.569 333.738 221.723C333.485 221.878 333.288 222.06 333.148 222.271V226H332.358V222.545C332.358 221.843 332.045 221.492 331.42 221.492C331.174 221.492 330.925 221.569 330.672 221.723C330.427 221.878 330.23 222.064 330.082 222.282V226H329.292V220.912H330.082V221.65C330.209 221.453 330.43 221.26 330.746 221.07C331.062 220.881 331.389 220.786 331.726 220.786C332.098 220.786 332.4 220.874 332.632 221.049C332.863 221.225 333.018 221.453 333.095 221.734C333.25 221.481 333.485 221.26 333.801 221.07C334.117 220.881 334.45 220.786 334.801 220.786C335.75 220.786 336.224 221.299 336.224 222.324V226ZM341.349 226H340.559V225.421C340.131 225.891 339.569 226.126 338.874 226.126C338.403 226.126 337.989 225.975 337.631 225.673C337.273 225.371 337.094 224.961 337.094 224.441C337.094 223.907 337.269 223.497 337.62 223.209C337.979 222.914 338.396 222.766 338.874 222.766C339.597 222.766 340.159 222.998 340.559 223.461V222.545C340.559 222.208 340.44 221.945 340.201 221.755C339.962 221.565 339.653 221.471 339.274 221.471C338.677 221.471 338.158 221.706 337.715 222.176L337.347 221.629C337.887 221.067 338.565 220.786 339.38 220.786C339.962 220.786 340.436 220.926 340.802 221.207C341.167 221.488 341.349 221.92 341.349 222.503V226ZM339.158 225.558C339.79 225.558 340.257 225.347 340.559 224.926V223.967C340.257 223.546 339.79 223.335 339.158 223.335C338.793 223.335 338.491 223.44 338.252 223.651C338.021 223.855 337.905 224.122 337.905 224.452C337.905 224.775 338.021 225.041 338.252 225.252C338.491 225.456 338.793 225.558 339.158 225.558ZM347.102 226.126C346.344 226.126 345.722 225.881 345.238 225.389C344.753 224.89 344.511 224.244 344.511 223.451C344.511 222.707 344.75 222.078 345.227 221.565C345.705 221.046 346.302 220.786 347.018 220.786C347.769 220.786 348.363 221.046 348.798 221.565C349.241 222.078 349.462 222.728 349.462 223.514V223.714H345.343C345.378 224.213 345.561 224.631 345.891 224.968C346.221 225.305 346.649 225.473 347.176 225.473C347.808 225.473 348.331 225.259 348.746 224.831L349.125 225.347C348.605 225.867 347.931 226.126 347.102 226.126ZM348.682 223.135C348.675 222.699 348.528 222.31 348.24 221.966C347.952 221.615 347.541 221.439 347.007 221.439C346.502 221.439 346.102 221.611 345.807 221.955C345.519 222.299 345.364 222.692 345.343 223.135H348.682ZM357.251 226H356.461V222.545C356.461 221.843 356.149 221.492 355.524 221.492C355.271 221.492 355.018 221.569 354.765 221.723C354.512 221.878 354.316 222.06 354.175 222.271V226H353.385V222.545C353.385 221.843 353.073 221.492 352.448 221.492C352.202 221.492 351.953 221.569 351.7 221.723C351.454 221.878 351.258 222.064 351.11 222.282V226H350.32V220.912H351.11V221.65C351.236 221.453 351.458 221.26 351.774 221.07C352.09 220.881 352.416 220.786 352.753 220.786C353.125 220.786 353.427 220.874 353.659 221.049C353.891 221.225 354.045 221.453 354.123 221.734C354.277 221.481 354.512 221.26 354.828 221.07C355.144 220.881 355.478 220.786 355.829 220.786C356.777 220.786 357.251 221.299 357.251 222.324V226Z" fill="#9D9C9C"/>
<path d="M283.469 316.2V319.398H281.819V310.729H283.469V311.522C283.95 310.911 284.639 310.573 285.406 310.573C287.017 310.573 288.187 311.769 288.187 313.861C288.187 315.954 287.017 317.162 285.406 317.162C284.665 317.162 283.976 316.85 283.469 316.2ZM286.471 313.861C286.471 312.782 285.835 312.042 284.886 312.042C284.353 312.042 283.742 312.354 283.469 312.756V314.979C283.742 315.369 284.353 315.694 284.886 315.694C285.835 315.694 286.471 314.953 286.471 313.861ZM291.812 317.162C289.746 317.162 288.498 315.655 288.498 313.861C288.498 312.081 289.746 310.573 291.812 310.573C293.892 310.573 295.139 312.081 295.139 313.861C295.139 315.655 293.892 317.162 291.812 317.162ZM291.812 315.694C292.839 315.694 293.424 314.849 293.424 313.861C293.424 312.886 292.839 312.042 291.812 312.042C290.786 312.042 290.214 312.886 290.214 313.861C290.214 314.849 290.786 315.694 291.812 315.694ZM297.495 317.006H295.844V308.338H297.495V317.006ZM304.499 317.006H302.848V316.213C302.419 316.694 301.666 317.162 300.639 317.162C299.261 317.162 298.611 316.408 298.611 315.187V310.729H300.262V314.537C300.262 315.408 300.717 315.694 301.419 315.694C302.055 315.694 302.562 315.343 302.848 314.979V310.729H304.499V317.006ZM305.215 313.861C305.215 312.042 306.553 310.573 308.464 310.573C310.335 310.573 311.609 311.977 311.609 314.03V314.394H306.943C307.047 315.187 307.684 315.85 308.75 315.85C309.335 315.85 310.024 315.616 310.426 315.226L311.154 316.291C310.517 316.876 309.543 317.162 308.568 317.162C306.657 317.162 305.215 315.876 305.215 313.861ZM308.464 311.886C307.437 311.886 306.995 312.652 306.917 313.276H310.011C309.972 312.678 309.556 311.886 308.464 311.886ZM318.169 317.006H316.518V313.211C316.518 312.341 316.063 312.042 315.362 312.042C314.712 312.042 314.205 312.406 313.932 312.782V317.006H312.281V310.729H313.932V311.548C314.335 311.067 315.102 310.573 316.128 310.573C317.506 310.573 318.169 311.353 318.169 312.574V317.006ZM321.393 317.162C320.236 317.162 319.613 316.564 319.613 315.447V312.172H318.573V310.729H319.613V309.013H321.276V310.729H322.55V312.172H321.276V315.005C321.276 315.395 321.484 315.694 321.848 315.694C322.095 315.694 322.329 315.603 322.42 315.512L322.771 316.759C322.524 316.98 322.082 317.162 321.393 317.162ZM322.756 313.861C322.756 312.042 324.095 310.573 326.005 310.573C327.877 310.573 329.151 311.977 329.151 314.03V314.394H324.485C324.589 315.187 325.226 315.85 326.291 315.85C326.876 315.85 327.565 315.616 327.968 315.226L328.696 316.291C328.059 316.876 327.084 317.162 326.109 317.162C324.199 317.162 322.756 315.876 322.756 313.861ZM326.005 311.886C324.979 311.886 324.537 312.652 324.459 313.276H327.552C327.513 312.678 327.097 311.886 326.005 311.886Z" fill="#9D9C9C"/>
<path d="M287.37 304H286.438L285.859 302.547H282.6L282.021 304H281.088L283.719 297.453H284.73L287.37 304ZM285.613 301.821L284.229 298.297L282.835 301.821H285.613ZM288.54 304H287.804V297.453H288.54V304ZM290.814 304.118C290.467 304.118 290.205 304.023 290.028 303.833C289.852 303.643 289.763 303.369 289.763 303.009V299.907H288.978V299.259H289.763V297.964H290.499V299.259H291.461V299.907H290.499V302.852C290.499 303.035 290.539 303.182 290.617 303.293C290.702 303.405 290.823 303.46 290.98 303.46C291.196 303.46 291.363 303.395 291.481 303.264L291.697 303.814C291.481 304.016 291.186 304.118 290.814 304.118ZM295.809 304H295.073V303.46C294.674 303.899 294.15 304.118 293.502 304.118C293.064 304.118 292.678 303.977 292.344 303.696C292.01 303.414 291.844 303.032 291.844 302.547C291.844 302.05 292.007 301.667 292.334 301.399C292.668 301.124 293.057 300.987 293.502 300.987C294.176 300.987 294.7 301.203 295.073 301.635V300.781C295.073 300.466 294.962 300.221 294.739 300.044C294.517 299.868 294.229 299.779 293.875 299.779C293.319 299.779 292.835 299.999 292.423 300.437L292.079 299.927C292.583 299.403 293.214 299.141 293.974 299.141C294.517 299.141 294.958 299.272 295.299 299.534C295.639 299.796 295.809 300.198 295.809 300.741V304ZM293.767 303.588C294.356 303.588 294.791 303.391 295.073 302.999V302.106C294.791 301.713 294.356 301.517 293.767 301.517C293.427 301.517 293.146 301.615 292.923 301.811C292.707 302.001 292.599 302.25 292.599 302.557C292.599 302.858 292.707 303.107 292.923 303.303C293.146 303.493 293.427 303.588 293.767 303.588ZM303.351 304H302.614V300.781C302.614 300.126 302.323 299.799 301.741 299.799C301.505 299.799 301.27 299.871 301.034 300.015C300.799 300.159 300.615 300.329 300.484 300.525V304H299.748V300.781C299.748 300.126 299.457 299.799 298.875 299.799C298.646 299.799 298.413 299.871 298.178 300.015C297.949 300.159 297.766 300.332 297.628 300.535V304H296.892V299.259H297.628V299.946C297.746 299.763 297.952 299.583 298.247 299.406C298.541 299.23 298.845 299.141 299.159 299.141C299.506 299.141 299.788 299.223 300.004 299.387C300.219 299.55 300.363 299.763 300.435 300.025C300.579 299.789 300.799 299.583 301.093 299.406C301.387 299.23 301.698 299.141 302.025 299.141C302.909 299.141 303.351 299.619 303.351 300.574V304ZM306.566 304.118C305.86 304.118 305.28 303.889 304.829 303.431C304.377 302.966 304.152 302.364 304.152 301.625C304.152 300.931 304.374 300.345 304.819 299.868C305.264 299.384 305.82 299.141 306.488 299.141C307.188 299.141 307.741 299.384 308.146 299.868C308.559 300.345 308.765 300.951 308.765 301.684V301.87H304.927C304.96 302.335 305.13 302.724 305.437 303.038C305.745 303.352 306.144 303.509 306.635 303.509C307.224 303.509 307.711 303.31 308.097 302.91L308.451 303.391C307.967 303.876 307.338 304.118 306.566 304.118ZM308.039 301.33C308.032 300.925 307.895 300.561 307.626 300.241C307.358 299.914 306.975 299.75 306.478 299.75C306.007 299.75 305.634 299.91 305.359 300.231C305.091 300.552 304.947 300.918 304.927 301.33H308.039ZM313.501 304H312.764V300.898C312.764 300.499 312.673 300.218 312.49 300.054C312.306 299.884 312.045 299.799 311.704 299.799C311.429 299.799 311.161 299.871 310.899 300.015C310.644 300.159 310.445 300.332 310.301 300.535V304H309.565V299.259H310.301V299.946C310.484 299.73 310.729 299.544 311.037 299.387C311.344 299.223 311.662 299.141 311.989 299.141C312.997 299.141 313.501 299.652 313.501 300.673V304ZM315.776 304.118C315.429 304.118 315.167 304.023 314.99 303.833C314.814 303.643 314.725 303.369 314.725 303.009V299.907H313.94V299.259H314.725V297.964H315.461V299.259H316.423V299.907H315.461V302.852C315.461 303.035 315.501 303.182 315.579 303.293C315.664 303.405 315.785 303.46 315.942 303.46C316.158 303.46 316.325 303.395 316.443 303.264L316.659 303.814C316.443 304.016 316.149 304.118 315.776 304.118ZM319.21 304.118C318.504 304.118 317.925 303.889 317.473 303.431C317.022 302.966 316.796 302.364 316.796 301.625C316.796 300.931 317.018 300.345 317.463 299.868C317.908 299.384 318.464 299.141 319.132 299.141C319.832 299.141 320.385 299.384 320.791 299.868C321.203 300.345 321.409 300.951 321.409 301.684V301.87H317.571C317.604 302.335 317.774 302.724 318.082 303.038C318.389 303.352 318.788 303.509 319.279 303.509C319.868 303.509 320.355 303.31 320.742 302.91L321.095 303.391C320.611 303.876 319.983 304.118 319.21 304.118ZM320.683 301.33C320.676 300.925 320.539 300.561 320.27 300.241C320.002 299.914 319.619 299.75 319.122 299.75C318.651 299.75 318.278 299.91 318.003 300.231C317.735 300.552 317.591 300.918 317.571 301.33H320.683Z" fill="#9D9C9C"/>
<path d="M281.297 35.1264C280.581 35.1264 280.008 34.828 279.58 34.2311V36.9382H278.79V29.9123H279.58V30.6707C279.77 30.4039 280.015 30.1897 280.317 30.0282C280.619 29.8667 280.946 29.7859 281.297 29.7859C281.971 29.7859 282.515 30.0282 282.93 30.5127C283.351 30.9902 283.562 31.6363 283.562 32.4509C283.562 33.2655 283.351 33.915 282.93 34.3996C282.515 34.8841 281.971 35.1264 281.297 35.1264ZM281.097 34.4207C281.595 34.4207 281.992 34.2381 282.287 33.8729C282.582 33.5007 282.73 33.0267 282.73 32.4509C282.73 31.875 282.582 31.4046 282.287 31.0394C281.992 30.6742 281.595 30.4916 281.097 30.4916C280.795 30.4916 280.5 30.5724 280.212 30.7339C279.931 30.8884 279.72 31.078 279.58 31.3027V33.599C279.72 33.8308 279.931 34.0274 280.212 34.1889C280.5 34.3434 280.795 34.4207 281.097 34.4207ZM288.368 35H287.578V34.4207C287.149 34.8912 286.588 35.1264 285.892 35.1264C285.422 35.1264 285.008 34.9754 284.649 34.6735C284.291 34.3715 284.112 33.9607 284.112 33.441C284.112 32.9073 284.288 32.4965 284.639 32.2086C284.997 31.9137 285.415 31.7662 285.892 31.7662C286.616 31.7662 287.178 31.9979 287.578 32.4614V31.545C287.578 31.2079 287.458 30.9446 287.22 30.755C286.981 30.5654 286.672 30.4706 286.293 30.4706C285.696 30.4706 285.176 30.7058 284.734 31.1763L284.365 30.6286C284.906 30.0668 285.583 29.7859 286.398 29.7859C286.981 29.7859 287.455 29.9263 287.82 30.2072C288.185 30.4881 288.368 30.92 288.368 31.5029V35ZM286.177 34.5576C286.809 34.5576 287.276 34.3469 287.578 33.9256V32.967C287.276 32.5457 286.809 32.335 286.177 32.335C285.812 32.335 285.51 32.4403 285.271 32.651C285.039 32.8547 284.923 33.1215 284.923 33.4516C284.923 33.7746 285.039 34.0414 285.271 34.2521C285.51 34.4558 285.812 34.5576 286.177 34.5576ZM290.32 35H289.53V29.9123H290.32V30.7339C290.791 30.1159 291.356 29.807 292.016 29.807V30.618C291.918 30.597 291.812 30.5864 291.7 30.5864C291.461 30.5864 291.201 30.6707 290.921 30.8393C290.64 31.0078 290.44 31.1939 290.32 31.3975V35ZM296.557 35H295.767V34.4207C295.338 34.8912 294.777 35.1264 294.081 35.1264C293.611 35.1264 293.197 34.9754 292.838 34.6735C292.48 34.3715 292.301 33.9607 292.301 33.441C292.301 32.9073 292.477 32.4965 292.828 32.2086C293.186 31.9137 293.604 31.7662 294.081 31.7662C294.805 31.7662 295.367 31.9979 295.767 32.4614V31.545C295.767 31.2079 295.647 30.9446 295.409 30.755C295.17 30.5654 294.861 30.4706 294.482 30.4706C293.885 30.4706 293.365 30.7058 292.923 31.1763L292.554 30.6286C293.095 30.0668 293.772 29.7859 294.587 29.7859C295.17 29.7859 295.644 29.9263 296.009 30.2072C296.374 30.4881 296.557 30.92 296.557 31.5029V35ZM294.366 34.5576C294.998 34.5576 295.465 34.3469 295.767 33.9256V32.967C295.465 32.5457 294.998 32.335 294.366 32.335C294.001 32.335 293.699 32.4403 293.46 32.651C293.228 32.8547 293.112 33.1215 293.112 33.4516C293.112 33.7746 293.228 34.0414 293.46 34.2521C293.699 34.4558 294.001 34.5576 294.366 34.5576ZM301.625 35.1264C300.761 35.1264 300.077 34.8596 299.571 34.3259L299.982 33.757C300.157 33.9607 300.396 34.1327 300.698 34.2732C301.007 34.4136 301.327 34.4839 301.657 34.4839C302.036 34.4839 302.331 34.4031 302.542 34.2416C302.752 34.0801 302.858 33.8694 302.858 33.6096C302.858 33.3849 302.749 33.2093 302.531 33.0829C302.313 32.9495 302.05 32.8512 301.741 32.788C301.439 32.7177 301.134 32.6405 300.825 32.5562C300.516 32.4649 300.252 32.3139 300.035 32.1033C299.817 31.8856 299.708 31.6012 299.708 31.2501C299.708 30.8357 299.877 30.4881 300.214 30.2072C300.558 29.9263 301.021 29.7859 301.604 29.7859C302.369 29.7859 302.998 30.0317 303.49 30.5232L303.121 31.071C302.763 30.6426 302.257 30.4284 301.604 30.4284C301.26 30.4284 300.986 30.5057 300.782 30.6602C300.579 30.8077 300.477 30.9973 300.477 31.229C300.477 31.4326 300.586 31.5942 300.803 31.7135C301.021 31.8259 301.281 31.9172 301.583 31.9874C301.892 32.0506 302.201 32.1279 302.51 32.2191C302.819 32.3104 303.082 32.472 303.3 32.7037C303.518 32.9284 303.626 33.2233 303.626 33.5885C303.626 34.0379 303.451 34.4066 303.1 34.6945C302.749 34.9824 302.257 35.1264 301.625 35.1264ZM306.785 35.1264C306.026 35.1264 305.405 34.8806 304.92 34.3891C304.436 33.8905 304.194 33.2444 304.194 32.4509C304.194 31.7065 304.432 31.078 304.91 30.5654C305.387 30.0457 305.984 29.7859 306.701 29.7859C307.452 29.7859 308.045 30.0457 308.481 30.5654C308.923 31.078 309.144 31.7276 309.144 32.5141V32.7142H305.026C305.061 33.2128 305.243 33.6306 305.574 33.9677C305.904 34.3048 306.332 34.4733 306.859 34.4733C307.491 34.4733 308.014 34.2591 308.428 33.8308L308.807 34.3469C308.288 34.8666 307.614 35.1264 306.785 35.1264ZM308.365 32.1349C308.358 31.6995 308.21 31.3097 307.922 30.9657C307.635 30.6145 307.224 30.439 306.69 30.439C306.184 30.439 305.784 30.611 305.489 30.9551C305.201 31.2992 305.047 31.6925 305.026 32.1349H308.365ZM316.774 35H315.984V34.2416C315.548 34.8315 314.976 35.1264 314.267 35.1264C313.593 35.1264 313.045 34.8876 312.624 34.4101C312.209 33.9256 312.002 33.276 312.002 32.4614C312.002 31.6538 312.209 31.0078 312.624 30.5232C313.045 30.0317 313.593 29.7859 314.267 29.7859C314.969 29.7859 315.541 30.0843 315.984 30.6812V27.9741H316.774V35ZM314.456 34.4207C314.765 34.4207 315.06 34.3434 315.341 34.1889C315.622 34.0344 315.836 33.8448 315.984 33.6201V31.3133C315.836 31.0815 315.619 30.8884 315.331 30.7339C315.05 30.5724 314.758 30.4916 314.456 30.4916C313.958 30.4916 313.561 30.6777 313.266 31.0499C312.971 31.4151 312.824 31.8856 312.824 32.4614C312.824 33.0373 312.971 33.5077 313.266 33.8729C313.561 34.2381 313.958 34.4207 314.456 34.4207ZM320.231 35.1264C319.472 35.1264 318.851 34.8806 318.366 34.3891C317.882 33.8905 317.64 33.2444 317.64 32.4509C317.64 31.7065 317.878 31.078 318.356 30.5654C318.833 30.0457 319.43 29.7859 320.147 29.7859C320.898 29.7859 321.491 30.0457 321.927 30.5654C322.369 31.078 322.59 31.7276 322.59 32.5141V32.7142H318.472C318.507 33.2128 318.689 33.6306 319.019 33.9677C319.349 34.3048 319.778 34.4733 320.305 34.4733C320.937 34.4733 321.46 34.2591 321.874 33.8308L322.253 34.3469C321.734 34.8666 321.059 35.1264 320.231 35.1264ZM321.811 32.1349C321.804 31.6995 321.656 31.3097 321.368 30.9657C321.08 30.6145 320.67 30.439 320.136 30.439C319.63 30.439 319.23 30.611 318.935 30.9551C318.647 31.2992 318.493 31.6925 318.472 32.1349H321.811ZM325.692 35.1264C324.941 35.1264 324.33 34.8736 323.859 34.368C323.389 33.8554 323.154 33.2163 323.154 32.4509C323.154 31.6854 323.389 31.0499 323.859 30.5443C324.33 30.0387 324.941 29.7859 325.692 29.7859C326.479 29.7859 327.1 30.0808 327.557 30.6707L327.03 31.1553C326.707 30.7128 326.275 30.4916 325.734 30.4916C325.201 30.4916 324.772 30.6742 324.449 31.0394C324.133 31.4046 323.975 31.875 323.975 32.4509C323.975 33.0267 324.133 33.5007 324.449 33.8729C324.772 34.2381 325.201 34.4207 325.734 34.4207C326.268 34.4207 326.7 34.1995 327.03 33.757L327.557 34.2416C327.1 34.8315 326.479 35.1264 325.692 35.1264ZM332.287 34.3575C331.831 34.8701 331.224 35.1264 330.465 35.1264C329.707 35.1264 329.096 34.8701 328.632 34.3575C328.176 33.8448 327.948 33.2093 327.948 32.4509C327.948 31.6925 328.176 31.0605 328.632 30.5548C329.096 30.0422 329.707 29.7859 330.465 29.7859C331.224 29.7859 331.831 30.0422 332.287 30.5548C332.751 31.0605 332.983 31.6925 332.983 32.4509C332.983 33.2093 332.751 33.8448 332.287 34.3575ZM329.222 33.8518C329.531 34.2311 329.945 34.4207 330.465 34.4207C330.985 34.4207 331.396 34.2311 331.698 33.8518C331.999 33.4656 332.15 32.9986 332.15 32.4509C332.15 31.9031 331.999 31.4397 331.698 31.0605C331.396 30.6812 330.985 30.4916 330.465 30.4916C329.945 30.4916 329.531 30.6848 329.222 31.071C328.92 31.4502 328.769 31.9102 328.769 32.4509C328.769 32.9986 328.92 33.4656 329.222 33.8518ZM340.78 35H339.99V31.545C339.99 30.8428 339.678 30.4916 339.053 30.4916C338.8 30.4916 338.547 30.5689 338.294 30.7234C338.042 30.8779 337.845 31.0605 337.704 31.2711V35H336.914V31.545C336.914 30.8428 336.602 30.4916 335.977 30.4916C335.731 30.4916 335.482 30.5689 335.229 30.7234C334.983 30.8779 334.787 31.064 334.639 31.2817V35H333.849V29.9123H334.639V30.6496C334.766 30.453 334.987 30.2599 335.303 30.0703C335.619 29.8807 335.945 29.7859 336.282 29.7859C336.655 29.7859 336.957 29.8737 337.188 30.0492C337.42 30.2248 337.575 30.453 337.652 30.7339C337.806 30.4811 338.042 30.2599 338.358 30.0703C338.674 29.8807 339.007 29.7859 339.358 29.7859C340.306 29.7859 340.78 30.2985 340.78 31.3238V35ZM344.442 35.1264C343.726 35.1264 343.153 34.828 342.725 34.2311V36.9382H341.935V29.9123H342.725V30.6707C342.915 30.4039 343.16 30.1897 343.462 30.0282C343.764 29.8667 344.091 29.7859 344.442 29.7859C345.116 29.7859 345.66 30.0282 346.075 30.5127C346.496 30.9902 346.707 31.6363 346.707 32.4509C346.707 33.2655 346.496 33.915 346.075 34.3996C345.66 34.8841 345.116 35.1264 344.442 35.1264ZM344.242 34.4207C344.74 34.4207 345.137 34.2381 345.432 33.8729C345.727 33.5007 345.874 33.0267 345.874 32.4509C345.874 31.875 345.727 31.4046 345.432 31.0394C345.137 30.6742 344.74 30.4916 344.242 30.4916C343.94 30.4916 343.645 30.5724 343.357 30.7339C343.076 30.8884 342.865 31.078 342.725 31.3027V33.599C342.865 33.8308 343.076 34.0274 343.357 34.1889C343.645 34.3434 343.94 34.4207 344.242 34.4207ZM351.586 34.3575C351.13 34.8701 350.523 35.1264 349.764 35.1264C349.006 35.1264 348.395 34.8701 347.931 34.3575C347.475 33.8448 347.247 33.2093 347.247 32.4509C347.247 31.6925 347.475 31.0605 347.931 30.5548C348.395 30.0422 349.006 29.7859 349.764 29.7859C350.523 29.7859 351.13 30.0422 351.586 30.5548C352.05 31.0605 352.282 31.6925 352.282 32.4509C352.282 33.2093 352.05 33.8448 351.586 34.3575ZM348.521 33.8518C348.83 34.2311 349.244 34.4207 349.764 34.4207C350.284 34.4207 350.695 34.2311 350.997 33.8518C351.298 33.4656 351.449 32.9986 351.449 32.4509C351.449 31.9031 351.298 31.4397 350.997 31.0605C350.695 30.6812 350.284 30.4916 349.764 30.4916C349.244 30.4916 348.83 30.6848 348.521 31.071C348.219 31.4502 348.068 31.9102 348.068 32.4509C348.068 32.9986 348.219 33.4656 348.521 33.8518ZM353.938 35H353.148V29.9123H353.938V30.7339C354.409 30.1159 354.974 29.807 355.634 29.807V30.618C355.536 30.597 355.43 30.5864 355.318 30.5864C355.079 30.5864 354.819 30.6707 354.539 30.8393C354.258 31.0078 354.058 31.1939 353.938 31.3975V35Z" fill="#9D9C9C"/>
<path d="M285.679 23H283.435V20.8196H278.395V19.0499L282.582 12.4612H285.679V18.8445H287.038V20.8196H285.679V23ZM283.435 18.8445V14.452L280.591 18.8445H283.435ZM287.333 17.7385C287.333 15.0208 288.676 12.3032 291.694 12.3032C294.696 12.3032 296.055 15.0208 296.055 17.7385C296.055 20.4561 294.696 23.1896 291.694 23.1896C288.676 23.1896 287.333 20.4561 287.333 17.7385ZM293.764 17.7385C293.764 15.7951 293.195 14.294 291.694 14.294C290.177 14.294 289.608 15.7951 289.608 17.7385C289.608 19.6819 290.177 21.1988 291.694 21.1988C293.195 21.1988 293.764 19.6819 293.764 17.7385ZM296.499 17.7385C296.499 15.0208 297.842 12.3032 300.86 12.3032C303.862 12.3032 305.221 15.0208 305.221 17.7385C305.221 20.4561 303.862 23.1896 300.86 23.1896C297.842 23.1896 296.499 20.4561 296.499 17.7385ZM302.93 17.7385C302.93 15.7951 302.361 14.294 300.86 14.294C299.343 14.294 298.774 15.7951 298.774 17.7385C298.774 19.6819 299.343 21.1988 300.86 21.1988C302.361 21.1988 302.93 19.6819 302.93 17.7385ZM316.123 23H314.116V22.21C313.595 22.8262 312.694 23.1896 311.698 23.1896C310.482 23.1896 309.044 22.368 309.044 20.6616C309.044 18.8761 310.482 18.2283 311.698 18.2283C312.71 18.2283 313.61 18.5443 314.116 19.1605V18.1019C314.116 17.3277 313.452 16.8221 312.441 16.8221C311.619 16.8221 310.861 17.1223 310.213 17.7227L309.455 16.3797C310.387 15.5581 311.588 15.1788 312.789 15.1788C314.527 15.1788 316.123 15.8741 316.123 18.0703V23ZM314.116 21.1672V20.2191C313.784 19.7767 313.152 19.5555 312.504 19.5555C311.714 19.5555 311.066 19.9821 311.066 20.709C311.066 21.42 311.714 21.8308 312.504 21.8308C313.152 21.8308 313.784 21.6096 314.116 21.1672ZM324.638 23H322.632V18.3863C322.632 17.3277 322.079 16.9643 321.226 16.9643C320.436 16.9643 319.819 17.4067 319.488 17.8649V23H317.481V15.3684H319.488V16.3639C319.977 15.7793 320.91 15.1788 322.158 15.1788C323.833 15.1788 324.638 16.1269 324.638 17.6121V23ZM329.538 23.1896C327.026 23.1896 325.509 21.3568 325.509 19.1763C325.509 17.0117 327.026 15.1788 329.538 15.1788C332.066 15.1788 333.583 17.0117 333.583 19.1763C333.583 21.3568 332.066 23.1896 329.538 23.1896ZM329.538 21.4042C330.786 21.4042 331.497 20.3771 331.497 19.1763C331.497 17.9913 330.786 16.9643 329.538 16.9643C328.29 16.9643 327.595 17.9913 327.595 19.1763C327.595 20.3771 328.29 21.4042 329.538 21.4042ZM333.776 22.0046L334.645 20.5984C335.198 21.1198 336.336 21.6412 337.284 21.6412C338.153 21.6412 338.564 21.341 338.564 20.867C338.564 20.3297 337.9 20.1401 337.031 19.9663C335.72 19.7135 334.029 19.3975 334.029 17.5805C334.029 16.3007 335.151 15.1788 337.157 15.1788C338.453 15.1788 339.48 15.6213 340.223 16.2217L339.433 17.5963C338.974 17.1065 338.105 16.7115 337.173 16.7115C336.446 16.7115 335.972 16.9801 335.972 17.4225C335.972 17.8965 336.573 18.0703 337.426 18.2441C338.737 18.4969 340.491 18.8445 340.491 20.7406C340.491 22.1468 339.306 23.1896 337.189 23.1896C335.862 23.1896 334.582 22.7472 333.776 22.0046Z" fill="#9D9C9C"/>
<path d="M5.53587 19.8831L7.62578 16.9894C8.88508 18.3023 10.841 19.4008 13.306 19.4008C15.3959 19.4008 16.4141 18.4095 16.4141 17.3913C16.4141 16.0516 14.8601 15.5961 12.797 15.1139C9.87644 14.444 6.12533 13.6402 6.12533 9.64796C6.12533 6.67386 8.69752 4.26243 12.9041 4.26243C15.7443 4.26243 18.1021 5.11983 19.8705 6.75424L17.7538 9.54078C16.3069 8.2011 14.3778 7.58485 12.6362 7.58485C10.9214 7.58485 10.0104 8.33507 10.0104 9.40681C10.0104 10.6125 11.5109 10.9876 13.574 11.4699C16.5213 12.1398 20.2724 13.024 20.2724 16.9894C20.2724 20.2582 17.9413 22.7233 13.1185 22.7233C9.68889 22.7233 7.22387 21.5711 5.53587 19.8831ZM34.3554 22.4017H30.9526V20.7673C30.0684 21.7587 28.5144 22.7233 26.3977 22.7233C23.5575 22.7233 22.2178 21.1692 22.2178 18.6506V9.4604H25.6206V17.3109C25.6206 19.1061 26.5584 19.6956 28.0053 19.6956C29.3182 19.6956 30.3631 18.9721 30.9526 18.2219V9.4604H34.3554V22.4017ZM36.0729 20.7137L37.5465 18.3291C38.4843 19.2133 40.4135 20.0975 42.0211 20.0975C43.4947 20.0975 44.1914 19.5884 44.1914 18.7846C44.1914 17.8736 43.066 17.5521 41.5924 17.2574C39.3685 16.8287 36.5016 16.2928 36.5016 13.2115C36.5016 11.0412 38.4039 9.13888 41.8067 9.13888C44.0038 9.13888 45.7454 9.8891 47.0047 10.9073L45.665 13.2383C44.888 12.4077 43.4143 11.7379 41.8335 11.7379C40.601 11.7379 39.7972 12.1934 39.7972 12.9436C39.7972 13.7474 40.8154 14.0421 42.2622 14.3368C44.4861 14.7655 47.4602 15.355 47.4602 18.5702C47.4602 20.9549 45.4507 22.7233 41.8603 22.7233C39.6096 22.7233 37.4394 21.973 36.0729 20.7137ZM53.7718 22.7233C51.3871 22.7233 50.101 21.4907 50.101 19.1865V12.4345H47.9575V9.4604H50.101V5.92364H53.5306V9.4604H56.1564V12.4345H53.5306V18.2755C53.5306 19.0793 53.9593 19.6956 54.7095 19.6956C55.2186 19.6956 55.7009 19.508 55.8885 19.3205L56.6119 21.8927C56.1028 22.3481 55.1918 22.7233 53.7718 22.7233ZM57.118 15.9177C57.118 12.1666 59.8778 9.13888 63.8164 9.13888C67.6747 9.13888 70.3005 12.0326 70.3005 16.266V17.0162H60.6816C60.8959 18.6506 62.2088 20.0171 64.4059 20.0171C65.6116 20.0171 67.0317 19.5348 67.8623 18.731L69.3627 20.9281C68.0498 22.1338 66.0403 22.7233 64.0308 22.7233C60.0921 22.7233 57.118 20.0707 57.118 15.9177ZM63.8164 11.845C61.6997 11.845 60.7888 13.4259 60.628 14.712H67.0049C66.9245 13.4794 66.0671 11.845 63.8164 11.845ZM84.3601 22.4017H80.9573V14.578C80.9573 12.7828 80.0195 12.1666 78.5726 12.1666C77.2329 12.1666 76.188 12.9168 75.6253 13.6938V22.4017H72.2225V9.4604H75.6253V11.1484C76.4559 10.157 78.0368 9.13888 80.1535 9.13888C82.9936 9.13888 84.3601 10.7465 84.3601 13.2651V22.4017ZM91.5435 22.7233C89.1588 22.7233 87.8727 21.4907 87.8727 19.1865V12.4345H85.7293V9.4604H87.8727V5.92364H91.3023V9.4604H93.9281V12.4345H91.3023V18.2755C91.3023 19.0793 91.731 19.6956 92.4813 19.6956C92.9903 19.6956 93.4726 19.508 93.6602 19.3205L94.3836 21.8927C93.8745 22.3481 92.9635 22.7233 91.5435 22.7233ZM106.733 3.64618L102.392 7.50446H100.007L103.598 3.64618H106.733ZM106.893 22.4017H103.491V21.0621C102.606 22.107 101.079 22.7233 99.3911 22.7233C97.328 22.7233 94.8898 21.33 94.8898 18.4363C94.8898 15.4086 97.328 14.3101 99.3911 14.3101C101.106 14.3101 102.633 14.8459 103.491 15.8909V14.0957C103.491 12.7828 102.365 11.9254 100.65 11.9254C99.2571 11.9254 97.971 12.4345 96.8725 13.4527L95.5864 11.1752C97.1672 9.78193 99.2035 9.13888 101.24 9.13888C104.187 9.13888 106.893 10.3178 106.893 14.0421V22.4017ZM103.491 19.2937V17.6861C102.928 16.9358 101.856 16.5607 100.758 16.5607C99.4179 16.5607 98.3193 17.2841 98.3193 18.5167C98.3193 19.7224 99.4179 20.419 100.758 20.419C101.856 20.419 102.928 20.0439 103.491 19.2937ZM116.753 22.4017H113.082L107.884 9.4604H111.528L114.904 18.4631L118.28 9.4604H121.95L116.753 22.4017ZM122.103 15.9177C122.103 12.1666 124.863 9.13888 128.802 9.13888C132.66 9.13888 135.286 12.0326 135.286 16.266V17.0162H125.667C125.881 18.6506 127.194 20.0171 129.391 20.0171C130.597 20.0171 132.017 19.5348 132.847 18.731L134.348 20.9281C133.035 22.1338 131.025 22.7233 129.016 22.7233C125.077 22.7233 122.103 20.0707 122.103 15.9177ZM128.802 11.845C126.685 11.845 125.774 13.4259 125.613 14.712H131.99C131.91 13.4794 131.052 11.845 128.802 11.845ZM140.61 22.4017H137.208V4.53037H140.61V22.4017Z" fill="#436D17"/>
<path d="M31.4859 335.962H26.7826L23.0027 329.065H20.0018V335.962H15.9044V316.715H24.9071C28.9179 316.715 31.3705 319.341 31.3705 322.919C31.3705 326.324 29.2353 328.142 27.1577 328.632L31.4859 335.962ZM27.1866 322.89C27.1866 321.275 25.9458 320.236 24.3011 320.236H20.0018V325.545H24.3011C25.9458 325.545 27.1866 324.506 27.1866 322.89ZM32.0141 328.979C32.0141 324.939 34.9862 321.678 39.2278 321.678C43.3829 321.678 46.2106 324.795 46.2106 329.354V330.162H35.8518C36.0826 331.922 37.4965 333.393 39.8626 333.393C41.1611 333.393 42.6904 332.874 43.5849 332.008L45.2007 334.375C43.7868 335.673 41.6227 336.308 39.4586 336.308C35.217 336.308 32.0141 333.451 32.0141 328.979ZM39.2278 324.593C36.9483 324.593 35.9672 326.295 35.7941 327.68H42.6615C42.5749 326.353 41.6516 324.593 39.2278 324.593ZM47.386 328.979C47.386 324.708 50.4735 321.678 54.7728 321.678C57.6294 321.678 59.3607 322.919 60.2841 324.218L57.8891 326.439C57.2255 325.487 56.2155 324.939 54.9459 324.939C52.7241 324.939 51.166 326.555 51.166 328.979C51.166 331.403 52.7241 333.047 54.9459 333.047C56.2155 333.047 57.2255 332.47 57.8891 331.547L60.2841 333.769C59.3607 335.067 57.6294 336.308 54.7728 336.308C50.4735 336.308 47.386 333.278 47.386 328.979ZM63.9204 319.976C62.7374 319.976 61.7275 318.995 61.7275 317.783C61.7275 316.571 62.7374 315.59 63.9204 315.59C65.1323 315.59 66.1134 316.571 66.1134 317.783C66.1134 318.995 65.1323 319.976 63.9204 319.976ZM65.7671 335.962H62.1026V322.025H65.7671V335.962ZM67.9292 328.979C67.9292 324.708 71.0167 321.678 75.316 321.678C78.1726 321.678 79.9039 322.919 80.8273 324.218L78.4323 326.439C77.7687 325.487 76.7587 324.939 75.4891 324.939C73.2673 324.939 71.7092 326.555 71.7092 328.979C71.7092 331.403 73.2673 333.047 75.4891 333.047C76.7587 333.047 77.7687 332.47 78.4323 331.547L80.8273 333.769C79.9039 335.067 78.1726 336.308 75.316 336.308C71.0167 336.308 67.9292 333.278 67.9292 328.979ZM86.3103 335.962H82.6458V316.715H86.3103V335.962ZM101.226 315.763L96.5517 319.918H93.9836L97.8502 315.763H101.226ZM101.399 335.962H97.7347V334.519C96.7825 335.644 95.1378 336.308 93.32 336.308C91.0982 336.308 88.4724 334.807 88.4724 331.691C88.4724 328.43 91.0982 327.247 93.32 327.247C95.1667 327.247 96.8114 327.825 97.7347 328.95V327.017C97.7347 325.603 96.5229 324.679 94.6762 324.679C93.1757 324.679 91.7907 325.228 90.6076 326.324L89.2226 323.871C90.925 322.371 93.118 321.678 95.311 321.678C98.485 321.678 101.399 322.948 101.399 326.959V335.962ZM97.7347 332.614V330.883C97.1288 330.075 95.9746 329.671 94.7916 329.671C93.3488 329.671 92.1658 330.45 92.1658 331.778C92.1658 333.076 93.3488 333.826 94.7916 333.826C95.9746 333.826 97.1288 333.422 97.7347 332.614ZM112.017 335.962H108.064L102.466 322.025H106.39L110.026 331.72L113.662 322.025H117.615L112.017 335.962ZM117.779 328.979C117.779 324.939 120.751 321.678 124.993 321.678C129.148 321.678 131.976 324.795 131.976 329.354V330.162H121.617C121.848 331.922 123.261 333.393 125.628 333.393C126.926 333.393 128.455 332.874 129.35 332.008L130.966 334.375C129.552 335.673 127.388 336.308 125.224 336.308C120.982 336.308 117.779 333.451 117.779 328.979ZM124.993 324.593C122.713 324.593 121.732 326.295 121.559 327.68H128.426C128.34 326.353 127.417 324.593 124.993 324.593ZM137.71 335.962H134.045V316.715H137.71V335.962Z" fill="#436D17"/>
<path d="M3.46851 108H1.15008V99.1827H3.46851V100.388C4.08919 99.6026 5.18451 98.9819 6.27983 98.9819V101.246C6.11553 101.209 5.89647 101.191 5.64089 101.191C4.87417 101.191 3.85187 101.611 3.46851 102.177V108ZM6.43229 103.582C6.43229 101.026 8.31259 98.9636 10.9961 98.9636C13.6249 98.9636 15.4139 100.935 15.4139 103.82V104.331H8.86024C9.00629 105.444 9.9008 106.375 11.3977 106.375C12.2192 106.375 13.1868 106.047 13.7527 105.499L14.775 106.996C13.8805 107.817 12.5113 108.219 11.1422 108.219C8.45863 108.219 6.43229 106.412 6.43229 103.582ZM10.9961 100.807C9.55395 100.807 8.93327 101.884 8.82373 102.761H13.1685C13.1137 101.921 12.5296 100.807 10.9961 100.807ZM24.628 108H22.3096V102.669C22.3096 101.446 21.6706 101.026 20.6848 101.026C19.7721 101.026 19.0601 101.538 18.6768 102.067V108H16.3583V99.1827H18.6768V100.333C19.2427 99.6573 20.3197 98.9636 21.7619 98.9636C23.697 98.9636 24.628 100.059 24.628 101.775V108ZM30.289 108.219C27.3864 108.219 25.6339 106.101 25.6339 103.582C25.6339 101.081 27.3864 98.9636 30.289 98.9636C33.2098 98.9636 34.9623 101.081 34.9623 103.582C34.9623 106.101 33.2098 108.219 30.289 108.219ZM30.289 106.156C31.7312 106.156 32.5526 104.97 32.5526 103.582C32.5526 102.213 31.7312 101.026 30.289 101.026C28.8468 101.026 28.0436 102.213 28.0436 103.582C28.0436 104.97 28.8468 106.156 30.289 106.156ZM40.735 108H38.234L34.6925 99.1827H37.1752L39.4754 105.316L41.7756 99.1827H44.2765L40.735 108ZM52.0843 95.2213L49.1269 97.85H47.5022L49.9484 95.2213H52.0843ZM52.1938 108H49.8754V107.087C49.2729 107.799 48.2324 108.219 47.0823 108.219C45.6766 108.219 44.0154 107.27 44.0154 105.298C44.0154 103.235 45.6766 102.487 47.0823 102.487C48.2506 102.487 49.2912 102.852 49.8754 103.564V102.341C49.8754 101.446 49.1086 100.862 47.9403 100.862C46.991 100.862 46.1148 101.209 45.3663 101.903L44.49 100.351C45.5671 99.4017 46.9545 98.9636 48.3419 98.9636C50.35 98.9636 52.1938 99.7669 52.1938 102.304V108ZM49.8754 105.882V104.787C49.492 104.276 48.7618 104.02 48.0133 104.02C47.1006 104.02 46.3521 104.513 46.3521 105.353C46.3521 106.174 47.1006 106.649 48.0133 106.649C48.7618 106.649 49.492 106.394 49.8754 105.882ZM58.5461 108H56.0451L52.5036 99.1827H54.9863L57.2865 105.316L59.5866 99.1827H62.0876L58.5461 108ZM61.8265 103.582C61.8265 101.026 63.7068 98.9636 66.3903 98.9636C69.0191 98.9636 70.8081 100.935 70.8081 103.82V104.331H64.2544C64.4005 105.444 65.295 106.375 66.7919 106.375C67.6134 106.375 68.5809 106.047 69.1468 105.499L70.1691 106.996C69.2746 107.817 67.9055 108.219 66.5363 108.219C63.8528 108.219 61.8265 106.412 61.8265 103.582ZM66.3903 100.807C64.9481 100.807 64.3274 101.884 64.2179 102.761H68.5627C68.5079 101.921 67.9237 100.807 66.3903 100.807ZM74.0709 108H71.7525V95.8237H74.0709V108Z" fill="#436D17"/>
<path d="M9.28891 91H8.23422V84.0238L5.3497 91H4.91766L2.04585 84.0238V91H0.991156V82.5243H2.5033L5.13368 88.9033L7.77676 82.5243H9.28891V91ZM15.5102 91H14.5572V90.3011C14.0404 90.8687 13.3627 91.1525 12.5241 91.1525C11.9565 91.1525 11.4567 90.9704 11.0246 90.6061C10.5926 90.2418 10.3766 89.7462 10.3766 89.1193C10.3766 88.4755 10.5883 87.9799 11.0119 87.6326C11.444 87.2768 11.948 87.0989 12.5241 87.0989C13.3966 87.0989 14.0743 87.3785 14.5572 87.9376V86.8321C14.5572 86.4254 14.4132 86.1078 14.1252 85.879C13.8371 85.6503 13.4644 85.5359 13.0069 85.5359C12.2869 85.5359 11.66 85.8197 11.1263 86.3873L10.6815 85.7265C11.3338 85.0488 12.1513 84.71 13.134 84.71C13.8371 84.71 14.409 84.8794 14.8495 85.2183C15.29 85.5571 15.5102 86.0781 15.5102 86.7812V91ZM12.8672 90.4663C13.6296 90.4663 14.1929 90.2122 14.5572 89.7039V88.5475C14.1929 88.0392 13.6296 87.7851 12.8672 87.7851C12.4266 87.7851 12.0624 87.9122 11.7743 88.1663C11.4948 88.412 11.355 88.7339 11.355 89.1321C11.355 89.5217 11.4948 89.8437 11.7743 90.0978C12.0624 90.3435 12.4266 90.4663 12.8672 90.4663ZM18.4627 91.1525C18.0137 91.1525 17.6748 91.0296 17.4461 90.784C17.2174 90.5383 17.103 90.1825 17.103 89.7166V85.7011H16.0864V84.8625H17.103V83.1851H18.056V84.8625H19.3013V85.7011H18.056V89.5133C18.056 89.7505 18.1069 89.9411 18.2085 90.0851C18.3186 90.2291 18.4754 90.3011 18.6787 90.3011C18.9582 90.3011 19.1743 90.2164 19.3267 90.047L19.6063 90.7586C19.3267 91.0212 18.9455 91.1525 18.4627 91.1525ZM24.9553 82.105L22.8078 83.9348H22.0835L23.9642 82.105H24.9553ZM22.9095 91.1525C21.9946 91.1525 21.2448 90.856 20.6603 90.263C20.0758 89.6615 19.7835 88.8821 19.7835 87.9249C19.7835 87.0269 20.0715 86.2687 20.6476 85.6503C21.2237 85.0234 21.9437 84.71 22.8078 84.71C23.7142 84.71 24.4301 85.0234 24.9553 85.6503C25.489 86.2687 25.7559 87.0523 25.7559 88.0011V88.2426H20.7874C20.8297 88.844 21.05 89.3481 21.4481 89.7547C21.8463 90.1613 22.3631 90.3646 22.9984 90.3646C23.7608 90.3646 24.392 90.1063 24.8918 89.5895L25.3492 90.2122C24.7223 90.839 23.9091 91.1525 22.9095 91.1525ZM24.8155 87.5437C24.8071 87.0184 24.6292 86.5483 24.2818 86.1332C23.9345 85.7096 23.4389 85.4978 22.7951 85.4978C22.1852 85.4978 21.7023 85.7054 21.3465 86.1205C20.9992 86.5356 20.8128 87.01 20.7874 87.5437H24.8155ZM27.7442 91H26.7912V84.8625H27.7442V85.8536C28.3118 85.1081 28.9938 84.7354 29.7901 84.7354V85.7138C29.6715 85.6884 29.5444 85.6757 29.4089 85.6757C29.1208 85.6757 28.8074 85.7774 28.4685 85.9807C28.1297 86.184 27.8882 86.4085 27.7442 86.6542V91ZM30.9474 83.9857C30.778 83.9857 30.6297 83.9264 30.5027 83.8078C30.3756 83.6807 30.3121 83.5282 30.3121 83.3503C30.3121 83.1724 30.3756 83.0199 30.5027 82.8929C30.6297 82.7658 30.778 82.7022 30.9474 82.7022C31.1253 82.7022 31.2778 82.7658 31.4049 82.8929C31.5319 83.0199 31.5955 83.1724 31.5955 83.3503C31.5955 83.5282 31.5319 83.6807 31.4049 83.8078C31.2778 83.9264 31.1253 83.9857 30.9474 83.9857ZM31.4303 91H30.4773V84.8625H31.4303V91ZM37.6137 91H36.6607V90.3011C36.1439 90.8687 35.4662 91.1525 34.6275 91.1525C34.0599 91.1525 33.5601 90.9704 33.1281 90.6061C32.696 90.2418 32.48 89.7462 32.48 89.1193C32.48 88.4755 32.6918 87.9799 33.1154 87.6326C33.5474 87.2768 34.0515 87.0989 34.6275 87.0989C35.5001 87.0989 36.1778 87.3785 36.6607 87.9376V86.8321C36.6607 86.4254 36.5166 86.1078 36.2286 85.879C35.9406 85.6503 35.5678 85.5359 35.1104 85.5359C34.3903 85.5359 33.7634 85.8197 33.2297 86.3873L32.785 85.7265C33.4373 85.0488 34.2548 84.71 35.2375 84.71C35.9406 84.71 36.5124 84.8794 36.9529 85.2183C37.3934 85.5571 37.6137 86.0781 37.6137 86.7812V91ZM34.9706 90.4663C35.733 90.4663 36.2964 90.2122 36.6607 89.7039V88.5475C36.2964 88.0392 35.733 87.7851 34.9706 87.7851C34.5301 87.7851 34.1658 87.9122 33.8778 88.1663C33.5982 88.412 33.4585 88.7339 33.4585 89.1321C33.4585 89.5217 33.5982 89.8437 33.8778 90.0978C34.1658 90.3435 34.5301 90.4663 34.9706 90.4663ZM41.4937 88.3442H38.444V87.5055H41.4937V88.3442ZM45.3415 91.1525C44.4774 91.1525 43.787 90.7925 43.2703 90.0724V93.3381H42.3172V84.8625H43.2703V85.7774C43.499 85.4555 43.7955 85.1971 44.1598 85.0022C44.524 84.8074 44.9179 84.71 45.3415 84.71C46.1548 84.71 46.8113 85.0022 47.3111 85.5868C47.8194 86.1628 48.0735 86.9422 48.0735 87.9249C48.0735 88.9076 47.8194 89.6912 47.3111 90.2757C46.8113 90.8602 46.1548 91.1525 45.3415 91.1525ZM45.1001 90.3011C45.7016 90.3011 46.1802 90.0809 46.536 89.6403C46.8918 89.1914 47.0697 88.6195 47.0697 87.9249C47.0697 87.2302 46.8918 86.6626 46.536 86.2221C46.1802 85.7816 45.7016 85.5613 45.1001 85.5613C44.7358 85.5613 44.38 85.6588 44.0327 85.8536C43.6938 86.04 43.4397 86.2687 43.2703 86.5398V89.31C43.4397 89.5895 43.6938 89.8267 44.0327 90.0216C44.38 90.2079 44.7358 90.3011 45.1001 90.3011ZM50.0338 91H49.0808V84.8625H50.0338V85.8536C50.6014 85.1081 51.2834 84.7354 52.0797 84.7354V85.7138C51.9611 85.6884 51.834 85.6757 51.6985 85.6757C51.4104 85.6757 51.097 85.7774 50.7581 85.9807C50.4193 86.184 50.1778 86.4085 50.0338 86.6542V91ZM53.237 83.9857C53.0676 83.9857 52.9193 83.9264 52.7923 83.8078C52.6652 83.6807 52.6017 83.5282 52.6017 83.3503C52.6017 83.1724 52.6652 83.0199 52.7923 82.8929C52.9193 82.7658 53.0676 82.7022 53.237 82.7022C53.4149 82.7022 53.5674 82.7658 53.6945 82.8929C53.8215 83.0199 53.8851 83.1724 53.8851 83.3503C53.8851 83.5282 53.8215 83.6807 53.6945 83.8078C53.5674 83.9264 53.4149 83.9857 53.237 83.9857ZM53.7199 91H52.7668V84.8625H53.7199V91ZM63.474 91H62.521V86.8321C62.521 85.9849 62.144 85.5613 61.39 85.5613C61.0851 85.5613 60.7801 85.6545 60.4751 85.8409C60.1701 86.0273 59.9329 86.2475 59.7635 86.5017V91H58.8105V86.8321C58.8105 85.9849 58.4335 85.5613 57.6795 85.5613C57.383 85.5613 57.0823 85.6545 56.7773 85.8409C56.4808 86.0273 56.2436 86.2518 56.0657 86.5144V91H55.1127V84.8625H56.0657V85.752C56.2182 85.5148 56.4851 85.2818 56.8663 85.0531C57.2475 84.8243 57.6414 84.71 58.048 84.71C58.497 84.71 58.8613 84.8159 59.1409 85.0276C59.4204 85.2394 59.6068 85.5148 59.7 85.8536C59.8863 85.5486 60.1701 85.2818 60.5514 85.0531C60.9326 84.8243 61.335 84.71 61.7585 84.71C62.9022 84.71 63.474 85.3284 63.474 86.5652V91ZM69.6575 91H68.7045V90.3011C68.1877 90.8687 67.51 91.1525 66.6713 91.1525C66.1037 91.1525 65.6039 90.9704 65.1719 90.6061C64.7398 90.2418 64.5238 89.7462 64.5238 89.1193C64.5238 88.4755 64.7356 87.9799 65.1592 87.6326C65.5912 87.2768 66.0953 87.0989 66.6713 87.0989C67.5439 87.0989 68.2216 87.3785 68.7045 87.9376V86.8321C68.7045 86.4254 68.5605 86.1078 68.2724 85.879C67.9844 85.6503 67.6117 85.5359 67.1542 85.5359C66.4341 85.5359 65.8072 85.8197 65.2735 86.3873L64.8288 85.7265C65.4811 85.0488 66.2986 84.71 67.2813 84.71C67.9844 84.71 68.5562 84.8794 68.9967 85.2183C69.4372 85.5571 69.6575 86.0781 69.6575 86.7812V91ZM67.0144 90.4663C67.7768 90.4663 68.3402 90.2122 68.7045 89.7039V88.5475C68.3402 88.0392 67.7768 87.7851 67.0144 87.7851C66.5739 87.7851 66.2096 87.9122 65.9216 88.1663C65.642 88.412 65.5023 88.7339 65.5023 89.1321C65.5023 89.5217 65.642 89.8437 65.9216 90.0978C66.2096 90.3435 66.5739 90.4663 67.0144 90.4663Z" fill="#436D17"/>
<path d="M7.53684 248H6.34931V242.997C6.34931 242.353 6.20153 241.899 5.90597 241.635C5.6104 241.36 5.18817 241.223 4.63927 241.223C4.19593 241.223 3.76314 241.339 3.34091 241.572C2.92923 241.804 2.60728 242.083 2.37505 242.411V248H1.18753V240.352H2.37505V241.461C2.67062 241.112 3.06646 240.812 3.56258 240.558C4.0587 240.294 4.57066 240.162 5.09845 240.162C6.72404 240.162 7.53684 240.986 7.53684 242.632V248ZM15.2444 248H14.0569V247.129C13.4129 247.836 12.5685 248.19 11.5235 248.19C10.8162 248.19 10.1934 247.963 9.65509 247.509C9.11674 247.055 8.84757 246.438 8.84757 245.657C8.84757 244.854 9.11146 244.237 9.63925 243.804C10.1776 243.361 10.8057 243.139 11.5235 243.139C12.6107 243.139 13.4552 243.487 14.0569 244.184V242.807C14.0569 242.3 13.8774 241.904 13.5185 241.619C13.1596 241.334 12.6952 241.192 12.1251 241.192C11.2279 241.192 10.4468 241.545 9.78176 242.252L9.22758 241.429C10.0404 240.585 11.059 240.162 12.2835 240.162C13.1596 240.162 13.8721 240.373 14.421 240.796C14.9699 241.218 15.2444 241.867 15.2444 242.743V248ZM11.951 247.335C12.901 247.335 13.603 247.018 14.0569 246.385V244.944C13.603 244.311 12.901 243.994 11.951 243.994C11.4021 243.994 10.9482 244.152 10.5893 244.469C10.2409 244.775 10.0668 245.176 10.0668 245.672C10.0668 246.158 10.2409 246.559 10.5893 246.876C10.9482 247.182 11.4021 247.335 11.951 247.335ZM18.9232 248.19C18.3638 248.19 17.9415 248.037 17.6565 247.731C17.3715 247.425 17.229 246.981 17.229 246.401V241.397H15.9623V240.352H17.229V238.262H18.4166V240.352H19.9683V241.397H18.4166V246.147C18.4166 246.443 18.4799 246.681 18.6066 246.86C18.7438 247.039 18.9391 247.129 19.1924 247.129C19.5408 247.129 19.8099 247.024 19.9999 246.812L20.3483 247.699C19.9999 248.026 19.5249 248.19 18.9232 248.19ZM27.3617 248H26.1742V246.923C25.8575 247.282 25.4564 247.583 24.9708 247.826C24.4958 248.069 23.9892 248.19 23.4508 248.19C21.8252 248.19 21.0124 247.377 21.0124 245.752V240.352H22.1999V245.387C22.1999 246.021 22.3424 246.469 22.6275 246.733C22.923 246.997 23.3505 247.129 23.91 247.129C24.3533 247.129 24.7808 247.018 25.1925 246.797C25.6147 246.575 25.942 246.301 26.1742 245.973V240.352H27.3617V248ZM30.2875 248H29.1V240.352H30.2875V241.587C30.9947 240.658 31.8445 240.194 32.8367 240.194V241.413C32.6889 241.382 32.5306 241.366 32.3617 241.366C32.0028 241.366 31.6122 241.492 31.19 241.746C30.7678 241.999 30.4669 242.279 30.2875 242.585V248ZM39.6623 248H38.4748V247.129C37.8308 247.836 36.9864 248.19 35.9414 248.19C35.2341 248.19 34.6113 247.963 34.073 247.509C33.5346 247.055 33.2655 246.438 33.2655 245.657C33.2655 244.854 33.5294 244.237 34.0572 243.804C34.5955 243.361 35.2236 243.139 35.9414 243.139C37.0286 243.139 37.8731 243.487 38.4748 244.184V242.807C38.4748 242.3 38.2953 241.904 37.9364 241.619C37.5775 241.334 37.1131 241.192 36.543 241.192C35.6458 241.192 34.8647 241.545 34.1997 242.252L33.6455 241.429C34.4583 240.585 35.4769 240.162 36.7014 240.162C37.5775 240.162 38.29 240.373 38.8389 240.796C39.3878 241.218 39.6623 241.867 39.6623 242.743V248ZM36.3689 247.335C37.3189 247.335 38.0209 247.018 38.4748 246.385V244.944C38.0209 244.311 37.3189 243.994 36.3689 243.994C35.82 243.994 35.3661 244.152 35.0072 244.469C34.6588 244.775 34.4847 245.176 34.4847 245.672C34.4847 246.158 34.6588 246.559 35.0072 246.876C35.3661 247.182 35.82 247.335 36.3689 247.335ZM42.597 248H41.4094V237.439H42.597V248ZM54.751 248H53.5635V242.807C53.5635 241.751 53.0938 241.223 52.1543 241.223C51.7743 241.223 51.3943 241.339 51.0143 241.572C50.6343 241.804 50.3387 242.078 50.1276 242.395V248H48.9401V242.807C48.9401 241.751 48.4703 241.223 47.5309 241.223C47.1614 241.223 46.7867 241.339 46.4067 241.572C46.0372 241.804 45.7417 242.083 45.52 242.411V248H44.3325V240.352H45.52V241.461C45.71 241.165 46.0425 240.875 46.5175 240.59C46.9925 240.305 47.4834 240.162 47.9901 240.162C48.5495 240.162 49.0034 240.294 49.3518 240.558C49.7001 240.822 49.9323 241.165 50.0484 241.587C50.2807 241.207 50.6343 240.875 51.1093 240.59C51.5843 240.305 52.0857 240.162 52.6135 240.162C54.0385 240.162 54.751 240.933 54.751 242.474V248ZM59.9384 248.19C58.7984 248.19 57.8642 247.821 57.1359 247.082C56.4075 246.332 56.0433 245.361 56.0433 244.168C56.0433 243.049 56.4022 242.105 57.12 241.334C57.8378 240.553 58.7351 240.162 59.8118 240.162C60.9412 240.162 61.8332 240.553 62.4877 241.334C63.1527 242.105 63.4852 243.081 63.4852 244.263V244.564H57.2942C57.347 245.314 57.6214 245.942 58.1176 246.448C58.6137 246.955 59.2576 247.208 60.0493 247.208C60.9993 247.208 61.7857 246.886 62.4085 246.242L62.9785 247.018C62.1974 247.799 61.184 248.19 59.9384 248.19ZM62.3135 243.693C62.3029 243.039 62.0813 242.453 61.6485 241.936C61.2157 241.408 60.5982 241.144 59.7959 241.144C59.0359 241.144 58.4342 241.403 57.9909 241.92C57.5581 242.437 57.3259 243.028 57.2942 243.693H62.3135ZM71.1246 248H69.937V242.997C69.937 242.353 69.7893 241.899 69.4937 241.635C69.1981 241.36 68.7759 241.223 68.227 241.223C67.7837 241.223 67.3509 241.339 66.9286 241.572C66.517 241.804 66.195 242.083 65.9628 242.411V248H64.7752V240.352H65.9628V241.461C66.2583 241.112 66.6542 240.812 67.1503 240.558C67.6464 240.294 68.1584 240.162 68.6862 240.162C70.3118 240.162 71.1246 240.986 71.1246 242.632V248ZM74.7945 248.19C74.2351 248.19 73.8128 248.037 73.5278 247.731C73.2428 247.425 73.1003 246.981 73.1003 246.401V241.397H71.8336V240.352H73.1003V238.262H74.2878V240.352H75.8395V241.397H74.2878V246.147C74.2878 246.443 74.3512 246.681 74.4778 246.86C74.6151 247.039 74.8103 247.129 75.0637 247.129C75.412 247.129 75.6812 247.024 75.8712 246.812L76.2195 247.699C75.8712 248.026 75.3962 248.19 74.7945 248.19ZM80.3354 248.19C79.1954 248.19 78.2612 247.821 77.5329 247.082C76.8045 246.332 76.4404 245.361 76.4404 244.168C76.4404 243.049 76.7992 242.105 77.517 241.334C78.2348 240.553 79.1321 240.162 80.2088 240.162C81.3382 240.162 82.2302 240.553 82.8847 241.334C83.5497 242.105 83.8822 243.081 83.8822 244.263V244.564H77.6912C77.744 245.314 78.0184 245.942 78.5146 246.448C79.0107 246.955 79.6546 247.208 80.4463 247.208C81.3963 247.208 82.1827 246.886 82.8055 246.242L83.3755 247.018C82.5944 247.799 81.581 248.19 80.3354 248.19ZM82.7105 243.693C82.6999 243.039 82.4783 242.453 82.0455 241.936C81.6127 241.408 80.9952 241.144 80.1929 241.144C79.4329 241.144 78.8312 241.403 78.3879 241.92C77.9551 242.437 77.7229 243.028 77.6912 243.693H82.7105Z" fill="#436D17"/>
<path d="M4.69511 231.523C2.97038 231.523 1.60762 230.958 0.606851 229.83L1.38937 228.824C2.29432 229.835 3.41221 230.341 4.74302 230.341C5.60539 230.341 6.23886 230.16 6.64342 229.798C7.04799 229.425 7.25028 228.994 7.25028 228.504C7.25028 228.132 7.13316 227.818 6.89894 227.562C6.66472 227.307 6.36129 227.11 5.98866 226.971C5.62668 226.822 5.21679 226.689 4.75899 226.572C4.31184 226.455 3.86468 226.327 3.41753 226.189C2.97038 226.04 2.56049 225.864 2.18786 225.662C1.82588 225.46 1.52777 225.172 1.29355 224.799C1.05933 224.427 0.942217 223.985 0.942217 223.474C0.942217 222.601 1.28823 221.893 1.98025 221.35C2.67228 220.796 3.54529 220.52 4.59929 220.52C6.18562 220.52 7.44724 221.015 8.38413 222.005L7.58564 222.979C6.80845 222.127 5.78106 221.701 4.50348 221.701C3.86468 221.701 3.33768 221.861 2.92247 222.18C2.5179 222.489 2.31562 222.894 2.31562 223.394C2.31562 223.767 2.46999 224.075 2.77874 224.32C3.09814 224.565 3.48673 224.746 3.94453 224.863C4.41298 224.98 4.91869 225.129 5.46166 225.31C6.01528 225.481 6.52099 225.667 6.97879 225.869C7.44724 226.061 7.83583 226.375 8.14458 226.812C8.46398 227.248 8.62368 227.775 8.62368 228.393C8.62368 229.266 8.29896 230.006 7.64952 230.612C7.01073 231.219 6.02593 231.523 4.69511 231.523ZM13.3976 231.523C12.2478 231.523 11.3056 231.15 10.571 230.405C9.83638 229.649 9.46908 228.669 9.46908 227.466C9.46908 226.338 9.83106 225.385 10.555 224.608C11.279 223.82 12.1839 223.426 13.2699 223.426C14.4091 223.426 15.3087 223.82 15.9688 224.608C16.6395 225.385 16.9749 226.37 16.9749 227.562V227.866H10.7307C10.7839 228.622 11.0607 229.255 11.5611 229.766C12.0615 230.277 12.7109 230.533 13.5094 230.533C14.4676 230.533 15.2608 230.208 15.8889 229.558L16.4638 230.341C15.676 231.129 14.6539 231.523 13.3976 231.523ZM15.7931 226.987C15.7825 226.327 15.5589 225.736 15.1224 225.215C14.6859 224.682 14.063 224.416 13.2539 224.416C12.4874 224.416 11.8805 224.677 11.4334 225.199C10.9969 225.72 10.7626 226.317 10.7307 226.987H15.7931ZM28.9089 231.331H26.8648V230.357C26.2579 231.107 25.4115 231.523 24.4853 231.523C22.537 231.523 21.0677 230.053 21.0677 227.482C21.0677 224.959 22.521 223.426 24.4853 223.426C25.3956 223.426 26.2579 223.825 26.8648 224.608V220.679H28.9089V231.331ZM26.8648 228.84V226.109C26.5134 225.598 25.7948 225.231 25.1081 225.231C23.9583 225.231 23.1598 226.141 23.1598 227.482C23.1598 228.808 23.9583 229.718 25.1081 229.718C25.7948 229.718 26.5134 229.351 26.8648 228.84ZM29.7862 227.466C29.7862 225.231 31.4311 223.426 33.7787 223.426C36.0783 223.426 37.6434 225.151 37.6434 227.674V228.121H31.9102C32.038 229.095 32.8205 229.91 34.13 229.91C34.8487 229.91 35.6951 229.622 36.1901 229.143L37.0844 230.453C36.3019 231.171 35.1042 231.523 33.9064 231.523C31.5589 231.523 29.7862 229.942 29.7862 227.466ZM33.7787 225.039C32.5171 225.039 31.9741 225.981 31.8783 226.748H35.6791C35.6312 226.013 35.1201 225.039 33.7787 225.039ZM37.9745 227.466C37.9745 225.103 39.6833 223.426 42.0628 223.426C43.6438 223.426 44.6019 224.113 45.113 224.831L43.7875 226.061C43.4202 225.534 42.8612 225.231 42.1586 225.231C40.9289 225.231 40.0665 226.125 40.0665 227.466C40.0665 228.808 40.9289 229.718 42.1586 229.718C42.8612 229.718 43.4202 229.399 43.7875 228.888L45.113 230.117C44.6019 230.836 43.6438 231.523 42.0628 231.523C39.6833 231.523 37.9745 229.846 37.9745 227.466ZM49.3773 231.523C46.8381 231.523 45.305 229.67 45.305 227.466C45.305 225.279 46.8381 223.426 49.3773 223.426C51.9324 223.426 53.4655 225.279 53.4655 227.466C53.4655 229.67 51.9324 231.523 49.3773 231.523ZM49.3773 229.718C50.6389 229.718 51.3575 228.68 51.3575 227.466C51.3575 226.269 50.6389 225.231 49.3773 225.231C48.1157 225.231 47.413 226.269 47.413 227.466C47.413 228.68 48.1157 229.718 49.3773 229.718ZM65.9414 231.331H63.8973V226.46C63.8973 225.742 63.5779 225.231 62.7475 225.231C62.0288 225.231 61.438 225.71 61.1505 226.125V231.331H59.1064V226.46C59.1064 225.742 58.787 225.231 57.9565 225.231C57.2539 225.231 56.663 225.71 56.3596 226.141V231.331H54.3314V223.618H56.3596V224.624C56.679 224.161 57.701 223.426 58.8828 223.426C60.0166 223.426 60.7353 223.953 61.0227 224.831C61.4699 224.129 62.492 223.426 63.6737 223.426C65.095 223.426 65.9414 224.177 65.9414 225.758V231.331ZM69.32 230.341V234.269H67.2919V223.618H69.32V224.592C69.9109 223.841 70.7573 223.426 71.6995 223.426C73.6798 223.426 75.1171 224.895 75.1171 227.466C75.1171 230.038 73.6798 231.523 71.6995 231.523C70.7892 231.523 69.9429 231.139 69.32 230.341ZM73.009 227.466C73.009 226.141 72.2265 225.231 71.0607 225.231C70.406 225.231 69.6554 225.614 69.32 226.109V228.84C69.6554 229.319 70.406 229.718 71.0607 229.718C72.2265 229.718 73.009 228.808 73.009 227.466ZM79.2526 221.829C79.045 221.605 78.8693 221.398 78.6138 221.398C78.2944 221.398 78.0389 221.701 78.0389 222.388H76.9689C76.9689 221.031 77.5758 220.248 78.6937 220.248C79.3005 220.248 79.6199 220.599 79.8914 220.903C80.115 221.126 80.2906 221.318 80.5462 221.318C80.8656 221.318 81.1211 221.015 81.1211 220.344H82.191C82.191 221.701 81.6002 222.484 80.4823 222.484C79.8595 222.484 79.5241 222.132 79.2526 221.829ZM79.572 231.523C77.0328 231.523 75.4997 229.67 75.4997 227.466C75.4997 225.279 77.0328 223.426 79.572 223.426C82.1272 223.426 83.6603 225.279 83.6603 227.466C83.6603 229.67 82.1272 231.523 79.572 231.523ZM79.572 229.718C80.8336 229.718 81.5523 228.68 81.5523 227.466C81.5523 226.269 80.8336 225.231 79.572 225.231C78.3104 225.231 77.6077 226.269 77.6077 227.466C77.6077 228.68 78.3104 229.718 79.572 229.718ZM84.0311 227.466C84.0311 225.231 85.6759 223.426 88.0235 223.426C90.3231 223.426 91.8882 225.151 91.8882 227.674V228.121H86.155C86.2828 229.095 87.0653 229.91 88.3748 229.91C89.0935 229.91 89.9399 229.622 90.4349 229.143L91.3292 230.453C90.5467 231.171 89.349 231.523 88.1513 231.523C85.8037 231.523 84.0311 229.942 84.0311 227.466ZM88.0235 225.039C86.7619 225.039 86.2189 225.981 86.1231 226.748H89.9239C89.876 226.013 89.365 225.039 88.0235 225.039Z" fill="#436D17"/>
</svg>
