<svg width="274" height="130" viewBox="0 0 274 130" fill="none" xmlns="http://www.w3.org/2000/svg">
<path d="M111.531 121.26C111.531 125.346 108.093 128.658 103.848 128.658H8.73605C4.49105 128.658 1.05005 125.346 1.05005 121.26V8.448C1.05005 4.362 4.49105 1.05 8.73605 1.05H103.848C108.093 1.05 111.531 4.362 111.531 8.448V121.26Z" fill="white" stroke="#285C4D" stroke-width="1.26"/>
<path d="M57.0511 14.196C39.8191 14.196 33.7291 40.998 28.0531 62.55C26.0131 60.477 19.6921 54.192 19.6921 54.192C18.4261 52.938 16.9681 53.343 16.0711 54.219C15.1801 55.119 15.0451 56.781 16.0711 57.786C16.1251 57.837 24.6241 66.309 27.5611 69.24C28.3741 70.038 29.5411 70.497 30.7081 69.81C31.9261 69.066 32.0941 67.746 32.1211 67.746C42.1861 22.626 51.1891 19.26 57.0331 19.26C61.9441 19.26 67.5991 22.893 67.5991 30.156C74.9371 30.156 79.5271 39.78 73.6261 45.708C78.5161 48.072 80.6941 50.985 80.6941 54.657C80.6941 58.347 77.6071 62.106 73.1101 62.094C68.6461 62.094 66.3781 59.223 62.8951 59.22C61.3201 59.22 60.3601 60.486 60.3601 61.743V70.86H53.7931V61.779C53.7781 60.357 52.7311 59.241 51.4261 59.241C51.4051 59.241 50.8621 59.25 50.8801 59.271L42.0811 60.366C41.0131 60.51 40.0351 61.671 40.0351 62.865C40.0351 64.263 41.1751 65.415 42.7381 65.394C42.9271 65.394 43.1941 65.394 43.1761 65.367C43.1551 65.367 48.7381 64.659 48.7381 64.659C48.7381 64.659 48.7381 73.617 48.7381 73.647C48.7381 74.796 50.0371 75.903 51.1891 75.909H62.8771C64.2361 75.909 65.4151 74.73 65.4151 73.35V65.142C67.8601 66.639 71.2591 67.218 73.0111 67.218C79.5661 67.218 85.8241 62.061 85.7941 54.507C85.7641 47.64 80.5291 44.226 80.5291 44.226C83.6101 36.033 78.6331 28.122 72.1831 25.914C69.8551 17.466 62.6311 14.196 57.0511 14.196Z" fill="#285C4D"/>
<path d="M57.0511 14.196C39.8191 14.196 33.7291 40.998 28.0531 62.55C26.0131 60.477 19.6921 54.192 19.6921 54.192C18.4261 52.938 16.9681 53.343 16.0711 54.219C15.1801 55.119 15.0451 56.781 16.0711 57.786C16.1251 57.837 24.6241 66.309 27.5611 69.24C28.3741 70.038 29.5411 70.497 30.7081 69.81C31.9261 69.066 32.0941 67.746 32.1211 67.746C42.1861 22.626 51.1891 19.26 57.0331 19.26C61.9441 19.26 67.5991 22.893 67.5991 30.156C74.9371 30.156 79.5271 39.78 73.6261 45.708C78.5161 48.072 80.6941 50.985 80.6941 54.657C80.6941 58.347 77.6071 62.106 73.1101 62.094C68.6461 62.094 66.3781 59.223 62.8951 59.22C61.3201 59.22 60.3601 60.486 60.3601 61.743V70.86H53.7931V61.779C53.7781 60.357 52.7311 59.241 51.4261 59.241C51.4051 59.241 50.8621 59.25 50.8801 59.271L42.0811 60.366C41.0131 60.51 40.0351 61.671 40.0351 62.865C40.0351 64.263 41.1751 65.415 42.7381 65.394C42.9271 65.394 43.1941 65.394 43.1761 65.367C43.1551 65.367 48.7381 64.659 48.7381 64.659C48.7381 64.659 48.7381 73.617 48.7381 73.647C48.7381 74.796 50.0371 75.903 51.1891 75.909H62.8771C64.2361 75.909 65.4151 74.73 65.4151 73.35V65.142C67.8601 66.639 71.2591 67.218 73.0111 67.218C79.5661 67.218 85.8241 62.061 85.7941 54.507C85.7641 47.64 80.5291 44.226 80.5291 44.226C83.6101 36.033 78.6331 28.122 72.1831 25.914C69.8551 17.466 62.6311 14.196 57.0511 14.196Z" fill="#285C4D"/>
<path d="M49.6921 85.941C49.6921 88.065 52.0591 89.334 55.9531 91.185C59.0371 92.631 60.8161 94.164 60.8161 95.391C60.8161 97.377 58.6801 98.085 56.6731 98.085C53.5741 98.085 51.7351 96.849 50.7241 94.071L50.6371 93.831H50.3911C49.8361 93.831 49.3981 93.858 49.1611 94.158C48.9511 94.434 49.0051 94.806 49.1011 95.169C49.0921 95.16 49.7821 98.016 49.7821 98.016C49.9651 98.712 50.2141 98.826 51.3211 99.045C51.8071 99.126 54.3121 99.561 56.4361 99.561C62.3671 99.561 65.0191 97.152 65.0191 94.761C65.0191 93.024 63.2911 91.353 59.5771 89.511L57.8851 88.698C55.3441 87.486 53.8201 86.757 53.8201 85.485C53.8201 84.252 55.4041 83.388 57.6811 83.388C60.6451 83.388 61.4401 85.047 61.8031 86.49L61.8691 86.763H62.1571C62.8231 86.763 63.2341 86.709 63.4741 86.445C63.6211 86.298 63.6721 86.091 63.6451 85.839L63.4051 83.367C63.3421 82.584 62.7391 82.467 61.9051 82.302C60.9091 82.122 59.7151 81.906 57.9241 81.906C52.7671 81.912 49.6921 83.421 49.6921 85.941Z" fill="#285C4D"/>
<path d="M66.7651 90.936C66.7651 95.22 70.4881 99.567 77.6071 99.567C81.1981 99.567 83.2201 98.754 84.7291 97.944L85.1431 97.731L84.4741 96.999L84.5131 97.035C84.3541 96.813 84.2191 96.774 83.9881 96.774L83.6461 96.888C83.1031 97.14 81.4561 97.905 78.4621 97.905C74.7751 97.905 70.8121 95.502 70.8121 90.216C70.8121 85.185 75.1021 83.4 78.7801 83.4C81.4231 83.4 82.8331 84.342 83.0881 86.301L83.1241 86.619H83.4571C83.7661 86.619 84.6031 86.619 84.6031 85.989V83.055C84.6031 82.335 83.7751 82.23 83.4211 82.182L83.0761 82.137C82.2361 82.014 81.4141 81.918 79.2751 81.918C72.0301 81.912 66.7651 85.707 66.7651 90.936Z" fill="#285C4D"/>
<path d="M39.9181 82.125L33.5011 82.182L29.2171 82.11L28.5661 82.089C28.1911 82.089 27.9181 82.365 27.9181 82.764C27.9181 82.947 27.9181 83.517 28.6201 83.517C31.2061 83.517 31.2991 83.733 31.3261 84.72L31.3471 85.344L31.3861 87.984V93.675C31.3861 94.617 31.3561 96.114 31.2961 97.329C31.2751 97.677 31.2571 98.007 28.9771 98.007C28.3381 98.007 27.9511 98.133 27.9511 98.769C27.9511 98.955 27.9511 99.444 28.5661 99.444L28.7131 99.435C28.9861 99.42 29.7121 99.384 33.2821 99.384C37.0831 99.384 37.8541 99.429 38.1031 99.435L38.2441 99.444C38.7451 99.444 39.1741 99.381 39.1741 98.769C39.1741 98.064 38.5951 98.007 37.6291 98.007C35.3311 98.007 35.3221 97.683 35.3101 97.335C35.2561 96.222 35.2081 94.716 35.2081 93.675C35.2081 93.675 35.2081 92.151 35.2081 91.623C35.7211 91.623 37.1251 91.623 37.1251 91.623C40.0681 91.623 40.3981 91.704 40.8151 93.972C40.9381 94.467 41.3311 94.527 41.6581 94.527C42.3481 94.527 42.4231 94.149 42.4231 93.975L42.3721 93.132C42.3211 92.646 42.2731 92.043 42.2731 91.212V87.723C42.2731 87.198 41.6491 87.198 41.3161 87.198C40.7521 87.198 40.6231 87.555 40.2661 89.202C40.1101 89.829 38.8951 90.192 36.9361 90.192C36.9361 90.192 35.7121 90.192 35.2081 90.192C35.2081 89.55 35.2081 85.068 35.2081 85.068C35.2081 83.676 35.4541 83.664 35.7661 83.646C36.8851 83.601 39.6181 83.505 40.4371 83.505C41.2111 83.505 41.9221 83.685 42.3961 83.988C43.8451 84.897 44.5921 85.506 45.0451 85.872C45.4831 86.232 45.7321 86.442 46.0951 86.442C46.3051 86.442 46.9231 86.442 46.9231 85.908C46.9231 85.77 46.8751 85.65 46.6681 85.212C46.4311 84.69 46.0261 83.823 45.5281 82.494C45.3841 82.077 44.9041 82.077 43.9981 82.077L39.9181 82.125Z" fill="#285C4D"/>
<path d="M29.6581 115.065L27.9211 109.413H28.9171L29.8321 112.671L30.1501 113.88C30.1651 113.823 30.2671 113.442 30.4531 112.728L31.3531 109.413H32.3311L33.1681 112.689L33.4411 113.769L33.7681 112.686L34.7581 109.413H35.6881L33.8761 115.065H32.9101L32.0311 111.681L31.8091 110.721L30.6451 115.068L29.6581 115.065Z" fill="#285C4D"/>
<path d="M37.7191 115.065L35.9851 109.413H36.9871L37.8931 112.671L38.2171 113.88C38.2261 113.823 38.3281 113.442 38.5201 112.728L39.4141 109.413H40.3891L41.2261 112.689L41.5021 113.769L41.8261 112.686L42.8281 109.413H43.7581L41.9431 115.065H40.9801L40.0951 111.681L39.8731 110.721L38.7151 115.068L37.7191 115.065Z" fill="#285C4D"/>
<path d="M45.7891 115.065L44.0521 109.413H45.0511L45.9631 112.671L46.2841 113.88C46.2961 113.823 46.3951 113.442 46.5871 112.728L47.4811 109.413H48.4591L49.2991 112.689L49.5721 113.769L49.8991 112.686L50.8891 109.413H51.8251L50.0131 115.065H49.0441L48.1621 111.681L47.9401 110.721L46.7731 115.068L45.7891 115.065Z" fill="#285C4D"/>
<path d="M52.0292 115.065V113.976H53.1122V115.065H52.0292Z" fill="#285C4D"/>
<path d="M54.7442 115.065V110.154H53.9192V109.407H54.7442V108.816C54.7442 108.435 54.7832 108.153 54.8462 107.973C54.9362 107.727 55.1012 107.526 55.3322 107.373C55.5632 107.214 55.8932 107.142 56.3072 107.142C56.5772 107.142 56.8712 107.178 57.1952 107.235L57.0572 108.063C56.8532 108.027 56.6732 108.006 56.4932 108.006C56.2022 108.006 55.9952 108.069 55.8752 108.195C55.7582 108.321 55.6952 108.552 55.6952 108.885V109.404H56.7992V110.151H55.6952V115.062L54.7442 115.065Z" fill="#285C4D"/>
<path d="M57.2881 113.358L58.2481 113.235C58.2961 113.613 58.4401 113.901 58.6861 114.108C58.9291 114.303 59.2621 114.405 59.6971 114.405C60.1321 114.405 60.4561 114.315 60.6631 114.138C60.8791 113.952 60.9781 113.745 60.9781 113.505C60.9781 113.292 60.8911 113.115 60.7051 112.992C60.5641 112.905 60.2491 112.803 59.7271 112.674C59.0401 112.491 58.5601 112.341 58.2901 112.212C58.0171 112.077 57.8071 111.9 57.6661 111.678C57.5251 111.441 57.4531 111.192 57.4531 110.922C57.4531 110.664 57.5101 110.43 57.6301 110.223C57.7411 110.004 57.9061 109.827 58.0981 109.683C58.2511 109.581 58.4431 109.488 58.7011 109.401C58.9561 109.329 59.2321 109.293 59.5231 109.293C59.9611 109.293 60.3421 109.356 60.6841 109.485C61.0111 109.614 61.2571 109.791 61.4221 110.001C61.5751 110.22 61.6861 110.517 61.7431 110.88L60.8101 111.006C60.7651 110.712 60.6391 110.484 60.4441 110.319C60.2461 110.154 59.9581 110.07 59.5951 110.07C59.1601 110.07 58.8571 110.142 58.6651 110.289C58.4731 110.433 58.3861 110.601 58.3861 110.799C58.3861 110.922 58.4221 111.036 58.4971 111.129C58.5781 111.231 58.6981 111.315 58.8691 111.384C58.9591 111.423 59.2321 111.507 59.6941 111.627C60.3601 111.813 60.8311 111.957 61.0921 112.065C61.3621 112.188 61.5751 112.356 61.7281 112.572C61.8721 112.791 61.9471 113.067 61.9471 113.388C61.9471 113.709 61.8571 114.003 61.6711 114.291C61.4881 114.57 61.2181 114.789 60.8701 114.936C60.5221 115.098 60.1261 115.176 59.6821 115.176C58.9591 115.176 58.3951 115.023 58.0171 114.717C57.6391 114.423 57.3961 113.964 57.2881 113.358Z" fill="#285C4D"/>
<path d="M66.6991 113.001L67.6381 113.13C67.5301 113.778 67.2691 114.279 66.8491 114.636C66.4261 115.008 65.9131 115.194 65.3011 115.194C64.5301 115.194 63.9091 114.939 63.4561 114.444C62.9881 113.931 62.7511 113.208 62.7511 112.269C62.7511 111.654 62.8561 111.117 63.0511 110.658C63.2491 110.211 63.5611 109.863 63.9691 109.632C64.3861 109.401 64.8331 109.293 65.3131 109.293C65.9191 109.293 66.4141 109.446 66.8071 109.758C67.1941 110.07 67.4431 110.517 67.5511 111.093L66.6151 111.219C66.5341 110.841 66.3721 110.553 66.1471 110.361C65.9311 110.172 65.6611 110.073 65.3401 110.073C64.8691 110.073 64.4761 110.247 64.1821 110.592C63.8761 110.94 63.7291 111.486 63.7291 112.236C63.7291 112.992 63.8731 113.55 64.1701 113.88C64.4521 114.231 64.8331 114.402 65.2951 114.402C65.6671 114.402 65.9791 114.285 66.2311 114.063C66.4741 113.832 66.6361 113.478 66.6991 113.001Z" fill="#285C4D"/>
<path d="M68.6611 115.065V113.976H69.7531V115.065H68.6611Z" fill="#285C4D"/>
<path d="M70.6292 112.242C70.6292 111.189 70.9202 110.421 71.4992 109.914C71.9852 109.497 72.5822 109.29 73.2782 109.29C74.0582 109.29 74.6882 109.548 75.1802 110.046C75.6692 110.559 75.9152 111.258 75.9152 112.155C75.9152 112.884 75.8102 113.46 75.5912 113.871C75.3752 114.291 75.0572 114.612 74.6402 114.843C74.2292 115.074 73.7702 115.188 73.2812 115.188C72.4922 115.188 71.8532 114.933 71.3642 114.432C70.8782 113.919 70.6292 113.193 70.6292 112.242ZM71.6042 112.236C71.6042 112.959 71.7692 113.505 72.0872 113.862C72.3962 114.222 72.7952 114.405 73.2752 114.405C73.7492 114.405 74.1512 114.222 74.4602 113.859C74.7812 113.502 74.9432 112.95 74.9432 112.206C74.9432 111.504 74.7812 110.976 74.4602 110.616C74.1482 110.259 73.7462 110.076 73.2752 110.076C72.7952 110.076 72.3932 110.259 72.0872 110.613C71.7692 110.967 71.6042 111.516 71.6042 112.236Z" fill="#285C4D"/>
<path d="M77.0192 115.065V109.413H77.8622V110.286C78.0902 109.878 78.2882 109.611 78.4712 109.482C78.6602 109.35 78.8642 109.29 79.0862 109.29C79.4162 109.29 79.7402 109.389 80.0702 109.602L79.7342 110.475C79.5062 110.349 79.2782 110.289 79.0412 110.289C78.8402 110.289 78.6542 110.349 78.4802 110.475C78.3242 110.601 78.1982 110.775 78.1292 111C78.0302 111.342 77.9732 111.708 77.9732 112.113V115.068L77.0192 115.065Z" fill="#285C4D"/>
<path d="M80.3672 115.524L81.3212 115.653C81.3602 115.953 81.4712 116.166 81.6422 116.301C81.8762 116.481 82.2062 116.571 82.6082 116.571C83.0462 116.571 83.3912 116.478 83.6342 116.301C83.8652 116.124 84.0332 115.866 84.1142 115.551C84.1682 115.353 84.1832 114.942 84.1832 114.315C83.7632 114.816 83.2412 115.065 82.6172 115.065C81.8372 115.065 81.2372 114.783 80.8142 114.222C80.3852 113.658 80.1752 112.992 80.1752 112.206C80.1752 111.672 80.2682 111.174 80.4662 110.715C80.6612 110.262 80.9372 109.905 81.3152 109.656C81.6842 109.404 82.1222 109.284 82.6172 109.284C83.2892 109.284 83.8382 109.569 84.2762 110.112V109.41H85.1402V114.294C85.1402 115.17 85.0592 115.797 84.8672 116.169C84.6962 116.529 84.4112 116.826 84.0242 117.03C83.6372 117.246 83.1602 117.351 82.5932 117.351C81.9212 117.351 81.3752 117.204 80.9612 116.901C80.5472 116.598 80.3522 116.139 80.3672 115.524ZM81.1502 112.137C81.1502 112.881 81.3002 113.427 81.5972 113.763C81.8912 114.108 82.2662 114.273 82.7072 114.273C83.1482 114.273 83.5202 114.108 83.8202 113.772C84.1232 113.43 84.2762 112.896 84.2762 112.17C84.2762 111.48 84.1142 110.958 83.8052 110.607C83.4962 110.256 83.1242 110.079 82.6892 110.079C82.2632 110.079 81.9032 110.253 81.6032 110.601C81.3002 110.943 81.1502 111.453 81.1502 112.137Z" fill="#285C4D"/>
<path d="M80.0753 15.7626C81.1857 15.7626 82.1399 16.1597 82.9377 16.954C83.7355 17.7482 84.1344 18.7059 84.1344 19.8271C84.1344 20.9448 83.7373 21.9025 82.9431 22.7003C82.1489 23.4981 81.1929 23.897 80.0753 23.897C78.954 23.897 77.9945 23.4999 77.1967 22.7057C76.3989 21.9115 76 20.952 76 19.8271C76 18.7095 76.3989 17.7536 77.1967 16.9593C77.9945 16.1651 78.954 15.7662 80.0753 15.7626ZM80.0645 23.2286C80.9953 23.2286 81.7931 22.8962 82.4579 22.2313C83.1228 21.5665 83.457 20.7651 83.4606 19.8271C83.4606 18.8928 83.1282 18.095 82.4633 17.4337C81.7985 16.7725 80.9989 16.4401 80.0645 16.4365C79.1301 16.4365 78.3323 16.7671 77.6711 17.4283C77.0098 18.0896 76.6774 18.8892 76.6738 19.8271C76.6738 20.7615 77.0044 21.5611 77.6657 22.226C78.3269 22.8908 79.1265 23.225 80.0645 23.2286ZM81.962 22.0804H81.0995C80.5568 21.0921 80.2029 20.5351 80.0376 20.4093C79.8722 20.2835 79.6638 20.2207 79.4122 20.2207H78.9918V22.0804H78.2856V17.7086H79.8004C80.2532 17.7086 80.6018 17.741 80.8461 17.8057C81.0905 17.8704 81.2882 18.0069 81.4391 18.2154C81.59 18.4238 81.6655 18.6484 81.6655 18.8892C81.6655 19.1875 81.5577 19.4588 81.3421 19.7032C81.1265 19.9475 80.8174 20.0841 80.4149 20.1128V20.1344C80.6772 20.1955 81.0168 20.5603 81.4337 21.2287L81.962 22.0804ZM78.9918 19.6169H79.8543C80.2496 19.6169 80.5245 19.5594 80.679 19.4444C80.8336 19.3294 80.9108 19.1659 80.9108 18.9539C80.9108 18.749 80.8372 18.5891 80.6898 18.4741C80.5425 18.3591 80.246 18.3016 79.8004 18.3016H78.9918V19.6169Z" fill="#285C4D" stroke="#285C4D" stroke-width="0.431247"/>
<path d="M141.05 74H139.65L138.55 71.1476H134.635L133.599 74H132.288L135.889 64.624H137.226L141.05 74ZM138.172 70.1626C137.405 68.1331 136.972 66.9819 136.874 66.709C136.776 66.4361 136.667 66.0673 136.548 65.6026H136.516C136.396 66.2336 136.236 66.8177 136.036 67.355L134.987 70.1626H138.172Z" fill="white" stroke="white" stroke-width="0.511649"/>
<path d="M155.773 74H154.622V69.7149C154.622 69.3994 154.6 69.1308 154.558 68.9091C154.515 68.6874 154.406 68.4891 154.232 68.3143C154.057 68.1395 153.78 68.0521 153.4 68.0521C152.948 68.0521 152.558 68.2098 152.23 68.5254C151.901 68.8409 151.737 69.3525 151.737 70.0603V74H150.586V69.587C150.586 68.9986 150.484 68.5957 150.279 68.3783C150.074 68.1608 149.78 68.0521 149.396 68.0521C148.902 68.0521 148.497 68.2226 148.181 68.5637C147.866 68.9048 147.706 69.5423 147.702 70.476V74H146.55V67.2143H147.587V68.1608H147.612C148.073 67.4274 148.748 67.0608 149.639 67.0608C150.138 67.0608 150.548 67.1588 150.867 67.355C151.187 67.5511 151.422 67.8496 151.571 68.2503C152.074 67.4573 152.771 67.0608 153.662 67.0608C154.366 67.0608 154.892 67.2505 155.242 67.63C155.592 68.0094 155.769 68.5787 155.773 69.3376V74Z" fill="white" stroke="white" stroke-width="0.511649"/>
<path d="M163.883 74H162.674C162.563 73.7868 162.484 73.5075 162.437 73.1622C161.665 73.8273 160.832 74.1599 159.936 74.1599C159.22 74.1599 158.655 73.9808 158.242 73.6227C157.828 73.2645 157.621 72.7912 157.621 72.2028C157.621 71.64 157.819 71.1774 158.216 70.815C158.613 70.4526 159.305 70.2095 160.295 70.0859L161.369 69.926C161.77 69.862 162.1 69.7831 162.36 69.6893C162.36 69.344 162.35 69.101 162.328 68.9602C162.307 68.8195 162.245 68.6703 162.143 68.5126C162.041 68.3548 161.872 68.2311 161.638 68.1416C161.403 68.0521 161.094 68.0052 160.71 68.0009C160.216 68.0009 159.826 68.0926 159.54 68.2759C159.254 68.4593 159.056 68.8004 158.945 69.2992L157.819 69.1521C157.943 68.4571 158.261 67.9348 158.772 67.5852C159.284 67.2356 159.988 67.0608 160.883 67.0607C161.697 67.0607 162.294 67.1801 162.674 67.4189C163.053 67.6577 163.288 67.9497 163.377 68.2951C163.467 68.6405 163.512 69.0796 163.512 69.6126V71.1603C163.512 72.1026 163.529 72.7337 163.563 73.0534C163.597 73.3732 163.703 73.6887 163.883 74ZM162.36 71.0132V70.5975C161.759 70.7979 161.024 70.9557 160.154 71.0708C159.284 71.1859 158.849 71.5547 158.849 72.1772C158.849 72.4885 158.966 72.7443 159.201 72.9447C159.435 73.1451 159.772 73.2474 160.211 73.2517C160.779 73.2517 161.277 73.0833 161.708 72.7465C162.139 72.4096 162.356 71.8319 162.36 71.0132Z" fill="white" stroke="white" stroke-width="0.511649"/>
<path d="M169.453 67.4253L169.057 68.487C168.771 68.3207 168.492 68.2376 168.219 68.2376C167.788 68.2376 167.462 68.4294 167.24 68.8132C167.019 69.1969 166.908 69.7384 166.908 70.4376V74H165.756V67.2143H166.805V68.2376H166.831C167.198 67.453 167.677 67.0608 168.27 67.0608C168.662 67.0608 169.057 67.1823 169.453 67.4253Z" fill="white" stroke="white" stroke-width="0.511649"/>
<path d="M176.226 71.6528C176.077 72.5183 175.736 73.1515 175.203 73.5523C174.67 73.9531 174.066 74.1556 173.393 74.1599C172.408 74.1599 171.647 73.838 171.11 73.1941C170.572 72.5503 170.304 71.6933 170.304 70.6231C170.304 69.7405 170.457 69.0349 170.764 68.5062C171.071 67.9775 171.459 67.6044 171.928 67.3869C172.397 67.1695 172.885 67.0608 173.393 67.0607C174.092 67.0607 174.689 67.242 175.184 67.6044C175.678 67.9668 175.985 68.4998 176.105 69.2033L174.992 69.376C174.877 68.9197 174.691 68.5765 174.435 68.3463C174.179 68.116 173.849 68.0009 173.444 68.0009C172.8 68.0009 172.312 68.229 171.979 68.6852C171.647 69.1415 171.481 69.7789 171.481 70.5975C171.481 71.4332 171.643 72.077 171.967 72.529C172.291 72.981 172.762 73.2091 173.38 73.2133C173.875 73.2133 174.263 73.0726 174.544 72.7912C174.825 72.5098 175.004 72.0834 175.081 71.5121L176.226 71.6528Z" fill="white" stroke="white" stroke-width="0.511649"/>
<path d="M183.613 74H182.404C182.293 73.7868 182.214 73.5075 182.168 73.1622C181.396 73.8273 180.562 74.1599 179.667 74.1599C178.951 74.1599 178.386 73.9808 177.972 73.6227C177.558 73.2645 177.352 72.7912 177.352 72.2028C177.352 71.64 177.55 71.1774 177.946 70.815C178.343 70.4526 179.036 70.2095 180.025 70.0859L181.1 69.926C181.5 69.862 181.831 69.7831 182.091 69.6893C182.091 69.344 182.08 69.101 182.059 68.9602C182.038 68.8195 181.976 68.6703 181.873 68.5126C181.771 68.3548 181.603 68.2311 181.368 68.1416C181.134 68.0521 180.825 68.0052 180.441 68.0009C179.946 68.0009 179.556 68.0926 179.27 68.2759C178.985 68.4593 178.786 68.8004 178.676 69.2992L177.55 69.1521C177.674 68.4571 177.991 67.9348 178.503 67.5852C179.015 67.2356 179.718 67.0608 180.613 67.0607C181.428 67.0607 182.025 67.1801 182.404 67.4189C182.784 67.6577 183.018 67.9497 183.108 68.2951C183.197 68.6405 183.242 69.0796 183.242 69.6126V71.1603C183.242 72.1026 183.259 72.7337 183.293 73.0534C183.327 73.3732 183.434 73.6887 183.613 74ZM182.091 71.0132V70.5975C181.49 70.7979 180.754 70.9557 179.884 71.0708C179.015 71.1859 178.58 71.5547 178.58 72.1772C178.58 72.4885 178.697 72.7443 178.931 72.9447C179.166 73.1451 179.503 73.2474 179.942 73.2517C180.509 73.2517 181.008 73.0833 181.438 72.7465C181.869 72.4096 182.087 71.8319 182.091 71.0132Z" fill="white" stroke="white" stroke-width="0.511649"/>
<path d="M195.163 74H194.089V73.1366H194.063C193.65 73.8188 193.025 74.1599 192.19 74.1599C191.358 74.1599 190.665 73.8316 190.111 73.175C189.557 72.5183 189.277 71.6635 189.273 70.6103C189.273 69.5145 189.535 68.649 190.06 68.0137C190.584 67.3784 191.277 67.0608 192.138 67.0607C192.948 67.0607 193.565 67.3699 193.987 67.9881H194.012V64.624H195.163V74ZM192.311 73.2133C192.814 73.2133 193.241 73.0065 193.59 72.593C193.94 72.1794 194.115 71.5526 194.115 70.7126C194.115 69.8855 193.955 69.2267 193.635 68.7364C193.315 68.2461 192.857 68.0009 192.26 68.0009C191.663 68.0009 191.213 68.2397 190.91 68.7172C190.608 69.1948 190.454 69.8258 190.45 70.6103C190.45 71.1731 190.531 71.6485 190.693 72.0365C190.855 72.4245 191.085 72.7187 191.384 72.9191C191.682 73.1195 191.991 73.2176 192.311 73.2133Z" fill="white" stroke="white" stroke-width="0.511649"/>
<path d="M200.235 67.0607C201.152 67.0607 201.911 67.3592 202.512 67.9561C203.113 68.5531 203.416 69.4015 203.42 70.5016C203.42 71.8361 203.094 72.7784 202.442 73.3285C201.789 73.8785 201.054 74.1556 200.235 74.1599C199.378 74.1599 198.634 73.8763 198.003 73.3093C197.372 72.7422 197.057 71.8425 197.057 70.6103C197.057 69.4165 197.361 68.5275 197.971 67.9433C198.581 67.3592 199.336 67.065 200.235 67.0607ZM200.235 73.2133C200.892 73.2133 201.391 72.9703 201.732 72.4842C202.073 71.9982 202.243 71.3586 202.243 70.5655C202.243 69.7171 202.052 69.0775 201.668 68.6469C201.284 68.2162 200.807 68.0009 200.235 68.0009C199.651 68.0009 199.171 68.2184 198.796 68.6533C198.421 69.0882 198.233 69.7405 198.233 70.6103C198.233 71.4716 198.423 72.1197 198.803 72.5546C199.182 72.9895 199.66 73.2091 200.235 73.2133Z" fill="white" stroke="white" stroke-width="0.511649"/>
<path d="M218.616 74H217.465V69.7149C217.465 69.3994 217.444 69.1308 217.401 68.9091C217.358 68.6874 217.25 68.4891 217.075 68.3143C216.9 68.1395 216.623 68.0521 216.243 68.0521C215.791 68.0521 215.401 68.2098 215.073 68.5254C214.745 68.8409 214.581 69.3525 214.581 70.0603V74H213.429V69.587C213.429 68.9986 213.327 68.5957 213.122 68.3783C212.918 68.1608 212.624 68.0521 212.24 68.0521C211.745 68.0521 211.34 68.2226 211.025 68.5637C210.709 68.9048 210.549 69.5423 210.545 70.476V74H209.394V67.2143H210.43V68.1608H210.455C210.916 67.4274 211.592 67.0608 212.483 67.0608C212.982 67.0608 213.391 67.1588 213.711 67.355C214.031 67.5511 214.265 67.8496 214.414 68.2503C214.917 67.4573 215.615 67.0608 216.506 67.0608C217.209 67.0608 217.736 67.2505 218.085 67.63C218.435 68.0094 218.612 68.5787 218.616 69.3376V74Z" fill="white" stroke="white" stroke-width="0.511649"/>
<path d="M226.726 74H225.517C225.406 73.7868 225.327 73.5075 225.28 73.1622C224.509 73.8273 223.675 74.1599 222.78 74.1599C222.063 74.1599 221.498 73.9808 221.085 73.6227C220.671 73.2645 220.465 72.7912 220.465 72.2028C220.465 71.64 220.663 71.1774 221.059 70.815C221.456 70.4526 222.149 70.2095 223.138 70.0859L224.212 69.926C224.613 69.862 224.944 69.7831 225.204 69.6893C225.204 69.344 225.193 69.101 225.172 68.9602C225.15 68.8195 225.089 68.6703 224.986 68.5126C224.884 68.3548 224.715 68.2311 224.481 68.1416C224.246 68.0521 223.937 68.0052 223.554 68.0009C223.059 68.0009 222.669 68.0926 222.383 68.2759C222.098 68.4593 221.899 68.8004 221.788 69.2992L220.663 69.1521C220.786 68.4571 221.104 67.9348 221.616 67.5852C222.127 67.2356 222.831 67.0608 223.726 67.0607C224.541 67.0607 225.138 67.1801 225.517 67.4189C225.897 67.6577 226.131 67.9497 226.221 68.2951C226.31 68.6405 226.355 69.0796 226.355 69.6126V71.1603C226.355 72.1026 226.372 72.7337 226.406 73.0534C226.44 73.3732 226.547 73.6887 226.726 74ZM225.204 71.0132V70.5975C224.603 70.7979 223.867 70.9557 222.997 71.0708C222.127 71.1859 221.692 71.5547 221.692 72.1772C221.692 72.4885 221.81 72.7443 222.044 72.9447C222.279 73.1451 222.616 73.2474 223.055 73.2517C223.622 73.2517 224.121 73.0833 224.551 72.7465C224.982 72.4096 225.199 71.8319 225.204 71.0132Z" fill="white" stroke="white" stroke-width="0.511649"/>
<path d="M234.183 74H233.026V69.8748C233.026 69.1798 232.902 68.7023 232.655 68.4422C232.407 68.1821 232.06 68.0521 231.612 68.0521C231.271 68.0521 230.949 68.1352 230.646 68.3015C230.344 68.4678 230.126 68.7023 229.994 69.005C229.862 69.3078 229.798 69.7363 229.802 70.2905V74H228.651V67.2143H229.687V68.1736H229.713C229.956 67.8026 230.254 67.5255 230.608 67.3422C230.962 67.1588 231.375 67.065 231.849 67.0608C232.207 67.0608 232.561 67.1247 232.91 67.2526C233.26 67.3805 233.533 67.5724 233.729 67.8282C233.925 68.0841 234.051 68.3569 234.106 68.6469C234.162 68.9368 234.187 69.3291 234.183 69.8237V74Z" fill="white" stroke="white" stroke-width="0.511649"/>
<path d="M242.331 70.8981H237.247C237.294 71.6485 237.507 72.222 237.886 72.6185C238.266 73.0151 238.743 73.2133 239.319 73.2133C239.758 73.2133 240.127 73.0982 240.425 72.868C240.724 72.6377 240.952 72.286 241.11 71.8127L242.293 71.9598C242.101 72.6676 241.749 73.2112 241.237 73.5907C240.726 73.9701 240.086 74.1599 239.319 74.1599C238.3 74.1599 237.505 73.8486 236.933 73.2261C236.362 72.6036 236.074 71.7487 236.07 70.6615C236.07 69.5913 236.347 68.7236 236.901 68.0585C237.456 67.3933 238.24 67.0607 239.255 67.0607C239.749 67.0607 240.225 67.1695 240.681 67.3869C241.137 67.6044 241.527 67.9732 241.851 68.4934C242.176 69.0135 242.335 69.8151 242.331 70.8981ZM241.148 69.9516C241.101 69.2608 240.888 68.7641 240.508 68.4614C240.129 68.1587 239.711 68.0052 239.255 68.0009C238.713 68.0009 238.268 68.1821 237.918 68.5445C237.569 68.907 237.366 69.376 237.311 69.9516H241.148Z" fill="white" stroke="white" stroke-width="0.511649"/>
<path d="M245.382 74.3645C245.382 74.8122 245.352 75.196 245.292 75.5157C245.233 75.8355 245.079 76.1191 244.832 76.3664C244.585 76.6137 244.197 76.7373 243.668 76.7373C243.365 76.7373 243.065 76.6989 242.766 76.6222L242.99 75.6501C243.203 75.7097 243.382 75.7396 243.527 75.7396C243.774 75.7396 243.954 75.6564 244.064 75.4902C244.175 75.3239 244.231 74.9401 244.231 74.3389V67.2142H245.382V74.3645ZM245.382 65.9287H244.231V64.624H245.382V65.9287Z" fill="white" stroke="white" stroke-width="0.511649"/>
<path d="M250.415 67.0607C251.332 67.0607 252.091 67.3592 252.692 67.9561C253.293 68.5531 253.596 69.4015 253.6 70.5016C253.6 71.8361 253.274 72.7784 252.622 73.3285C251.969 73.8785 251.234 74.1556 250.415 74.1599C249.558 74.1599 248.814 73.8763 248.183 73.3093C247.552 72.7422 247.237 71.8425 247.237 70.6103C247.237 69.4165 247.541 68.5275 248.151 67.9433C248.761 67.3592 249.516 67.065 250.415 67.0607ZM250.415 73.2133C251.072 73.2133 251.571 72.9703 251.912 72.4842C252.253 71.9982 252.423 71.3586 252.423 70.5655C252.423 69.7171 252.232 69.0775 251.848 68.6469C251.464 68.2162 250.987 68.0009 250.415 68.0009C249.831 68.0009 249.351 68.2184 248.976 68.6533C248.601 69.0882 248.413 69.7405 248.413 70.6103C248.413 71.4716 248.603 72.1197 248.983 72.5546C249.362 72.9895 249.84 73.2091 250.415 73.2133Z" fill="white" stroke="white" stroke-width="0.511649"/>
<path d="M132.074 79.5793L131.901 80.5898C131.671 80.5471 131.445 80.5258 131.223 80.5258C130.946 80.5258 130.72 80.5834 130.545 80.6985C130.371 80.8136 130.281 81.1057 130.277 81.5747V82.2143H131.588V83.1032H130.277V89H129.126V83.1032H128.102V82.2143H129.126V81.4788C129.126 81.1377 129.158 80.8285 129.222 80.5514C129.285 80.2742 129.454 80.0248 129.727 79.8031C130 79.5814 130.424 79.4684 131 79.4641C131.341 79.4641 131.699 79.5025 132.074 79.5793Z" fill="white" stroke="white" stroke-width="0.511649"/>
<path d="M134.178 89H133.027V79.624H134.178V89Z" fill="white" stroke="white" stroke-width="0.511649"/>
<path d="M139.211 82.0607C140.128 82.0607 140.887 82.3592 141.488 82.9561C142.089 83.5531 142.392 84.4015 142.396 85.5016C142.396 86.8361 142.07 87.7784 141.418 88.3285C140.766 88.8785 140.03 89.1556 139.211 89.1599C138.354 89.1599 137.61 88.8763 136.979 88.3093C136.348 87.7422 136.033 86.8425 136.033 85.6103C136.033 84.4165 136.338 83.5275 136.947 82.9433C137.557 82.3592 138.312 82.065 139.211 82.0607ZM139.211 88.2133C139.868 88.2133 140.367 87.9703 140.708 87.4842C141.049 86.9982 141.22 86.3586 141.22 85.5655C141.22 84.7171 141.028 84.0775 140.644 83.6469C140.26 83.2162 139.783 83.0009 139.211 83.0009C138.627 83.0009 138.148 83.2184 137.772 83.6533C137.397 84.0882 137.21 84.7405 137.21 85.6103C137.21 86.4716 137.399 87.1197 137.779 87.5546C138.158 87.9895 138.636 88.2091 139.211 88.2133Z" fill="white" stroke="white" stroke-width="0.511649"/>
<path d="M147.903 82.4253L147.507 83.487C147.221 83.3207 146.942 83.2376 146.669 83.2376C146.238 83.2376 145.912 83.4294 145.69 83.8132C145.468 84.1969 145.358 84.7384 145.358 85.4376V89H144.206V82.2143H145.255V83.2376H145.281C145.648 82.453 146.127 82.0608 146.72 82.0608C147.112 82.0608 147.507 82.1823 147.903 82.4253Z" fill="white" stroke="white" stroke-width="0.511649"/>
<path d="M155.015 85.8981H149.931C149.977 86.6485 150.191 87.222 150.57 87.6185C150.95 88.0151 151.427 88.2133 152.003 88.2133C152.442 88.2133 152.811 88.0982 153.109 87.868C153.408 87.6377 153.636 87.286 153.793 86.8127L154.977 86.9598C154.785 87.6676 154.433 88.2112 153.921 88.5907C153.41 88.9701 152.77 89.1599 152.003 89.1599C150.984 89.1599 150.188 88.8486 149.617 88.2261C149.046 87.6036 148.758 86.7487 148.754 85.6615C148.754 84.5913 149.031 83.7236 149.585 83.0585C150.139 82.3933 150.924 82.0607 151.939 82.0607C152.433 82.0607 152.909 82.1695 153.365 82.3869C153.821 82.6044 154.211 82.9732 154.535 83.4934C154.859 84.0135 155.019 84.8151 155.015 85.8981ZM153.832 84.9516C153.785 84.2608 153.572 83.7641 153.192 83.4614C152.813 83.1587 152.395 83.0052 151.939 83.0009C151.397 83.0009 150.952 83.1821 150.602 83.5445C150.252 83.907 150.05 84.376 149.994 84.9516H153.832Z" fill="white" stroke="white" stroke-width="0.511649"/>
<path d="M160.701 84.1137C160.65 83.7428 160.5 83.4657 160.253 83.2823C160.006 83.099 159.658 83.0052 159.211 83.0009C158.771 83.0009 158.418 83.0755 158.149 83.2248C157.88 83.374 157.744 83.5914 157.74 83.8771C157.74 84.1457 157.846 84.3376 158.059 84.4527C158.273 84.5678 158.699 84.7085 159.338 84.8748C160.055 85.0582 160.59 85.2202 160.944 85.3609C161.298 85.5016 161.575 85.6977 161.775 85.9493C161.976 86.2008 162.076 86.5547 162.076 87.011C162.076 87.6164 161.829 88.1259 161.334 88.5395C160.839 88.9531 160.178 89.1599 159.351 89.1599C158.49 89.1599 157.818 88.9787 157.337 88.6163C156.855 88.2538 156.556 87.7059 156.441 86.9726L157.586 86.7999C157.646 87.2732 157.821 87.6271 158.111 87.8616C158.4 88.0961 158.81 88.2133 159.338 88.2133C159.842 88.2133 160.227 88.1089 160.496 87.8999C160.765 87.691 160.899 87.4331 160.899 87.1261C160.899 86.9214 160.837 86.7573 160.714 86.6336C160.59 86.51 160.436 86.4183 160.253 86.3586C160.07 86.2989 159.652 86.1881 159 86.026C158.036 85.7958 157.401 85.5165 157.094 85.1882C156.787 84.8599 156.631 84.4676 156.627 84.0114C156.627 83.4443 156.853 82.9775 157.305 82.6108C157.757 82.2441 158.364 82.0607 159.127 82.0607C159.938 82.0607 160.566 82.2185 161.014 82.534C161.462 82.8495 161.733 83.325 161.826 83.9602L160.701 84.1137Z" fill="white" stroke="white" stroke-width="0.511649"/>
<path d="M166.623 88.9872C166.282 89.0554 165.994 89.0895 165.76 89.0895C165.257 89.0895 164.89 89.0021 164.66 88.8273C164.429 88.6525 164.289 88.4265 164.238 88.1494C164.186 87.8722 164.161 87.4928 164.161 87.011V83.1032H163.323V82.2143H164.161V80.5258L165.312 79.8287V82.2143H166.463V83.1032H165.312V87.0749C165.312 87.416 165.346 87.6569 165.414 87.7976C165.483 87.9383 165.662 88.0108 165.952 88.0151C166.118 88.0151 166.288 87.998 166.463 87.9639L166.623 88.9872Z" fill="white" stroke="white" stroke-width="0.511649"/>
<path d="M174.01 89H172.801C172.69 88.7868 172.612 88.5075 172.565 88.1622C171.793 88.8273 170.959 89.1599 170.064 89.1599C169.348 89.1599 168.783 88.9808 168.369 88.6227C167.956 88.2645 167.749 87.7912 167.749 87.2028C167.749 86.64 167.947 86.1774 168.344 85.815C168.74 85.4526 169.433 85.2095 170.422 85.0859L171.497 84.926C171.897 84.862 172.228 84.7831 172.488 84.6893C172.488 84.344 172.477 84.101 172.456 83.9602C172.435 83.8195 172.373 83.6703 172.27 83.5126C172.168 83.3548 172 83.2311 171.765 83.1416C171.531 83.0521 171.222 83.0052 170.838 83.0009C170.343 83.0009 169.953 83.0926 169.667 83.2759C169.382 83.4593 169.183 83.8004 169.073 84.2992L167.947 84.1521C168.071 83.4571 168.388 82.9348 168.9 82.5852C169.412 82.2356 170.115 82.0608 171.01 82.0607C171.825 82.0607 172.422 82.1801 172.801 82.4189C173.181 82.6577 173.415 82.9497 173.505 83.2951C173.594 83.6405 173.639 84.0796 173.639 84.6126V86.1603C173.639 87.1026 173.656 87.7337 173.69 88.0534C173.724 88.3732 173.831 88.6887 174.01 89ZM172.488 86.0132V85.5975C171.887 85.7979 171.151 85.9557 170.281 86.0708C169.412 86.1859 168.977 86.5547 168.977 87.1772C168.977 87.4885 169.094 87.7443 169.328 87.9447C169.563 88.1451 169.9 88.2474 170.339 88.2517C170.906 88.2517 171.405 88.0833 171.836 87.7465C172.266 87.4096 172.484 86.8319 172.488 86.0132Z" fill="white" stroke="white" stroke-width="0.511649"/>
<path d="M177.074 89H175.922V79.624H177.074V89Z" fill="white" stroke="white" stroke-width="0.511649"/>
<path d="M187.153 82.4253L186.756 83.487C186.471 83.3207 186.192 83.2376 185.919 83.2376C185.488 83.2376 185.162 83.4294 184.94 83.8132C184.718 84.1969 184.608 84.7384 184.608 85.4376V89H183.456V82.2143H184.505V83.2376H184.531C184.898 82.453 185.377 82.0608 185.97 82.0608C186.362 82.0608 186.756 82.1823 187.153 82.4253Z" fill="white" stroke="white" stroke-width="0.511649"/>
<path d="M194.265 85.8981H189.18C189.227 86.6485 189.44 87.222 189.82 87.6185C190.199 88.0151 190.677 88.2133 191.253 88.2133C191.692 88.2133 192.061 88.0982 192.359 87.868C192.657 87.6377 192.886 87.286 193.043 86.8127L194.227 86.9598C194.035 87.6676 193.683 88.2112 193.171 88.5907C192.66 88.9701 192.02 89.1599 191.253 89.1599C190.234 89.1599 189.438 88.8486 188.867 88.2261C188.296 87.6036 188.008 86.7487 188.004 85.6615C188.004 84.5913 188.281 83.7236 188.835 83.0585C189.389 82.3933 190.174 82.0607 191.189 82.0607C191.683 82.0607 192.159 82.1695 192.615 82.3869C193.071 82.6044 193.461 82.9732 193.785 83.4934C194.109 84.0135 194.269 84.8151 194.265 85.8981ZM193.082 84.9516C193.035 84.2608 192.822 83.7641 192.442 83.4614C192.063 83.1587 191.645 83.0052 191.189 83.0009C190.647 83.0009 190.202 83.1821 189.852 83.5445C189.502 83.907 189.3 84.376 189.244 84.9516H193.082Z" fill="white" stroke="white" stroke-width="0.511649"/>
<path d="M199.951 84.1137C199.899 83.7428 199.75 83.4657 199.503 83.2823C199.256 83.099 198.908 83.0052 198.46 83.0009C198.021 83.0009 197.667 83.0755 197.399 83.2248C197.13 83.374 196.994 83.5914 196.989 83.8771C196.989 84.1457 197.096 84.3376 197.309 84.4527C197.522 84.5678 197.949 84.7085 198.588 84.8748C199.305 85.0582 199.84 85.2202 200.194 85.3609C200.548 85.5016 200.825 85.6977 201.025 85.9493C201.226 86.2008 201.326 86.5547 201.326 87.011C201.326 87.6164 201.078 88.1259 200.584 88.5395C200.089 88.9531 199.428 89.1599 198.601 89.1599C197.74 89.1599 197.068 88.9787 196.587 88.6163C196.105 88.2538 195.806 87.7059 195.691 86.9726L196.836 86.7999C196.896 87.2732 197.07 87.6271 197.36 87.8616C197.65 88.0961 198.06 88.2133 198.588 88.2133C199.091 88.2133 199.477 88.1089 199.746 87.8999C200.015 87.691 200.149 87.4331 200.149 87.1261C200.149 86.9214 200.087 86.7573 199.963 86.6336C199.84 86.51 199.686 86.4183 199.503 86.3586C199.32 86.2989 198.902 86.1881 198.249 86.026C197.286 85.7958 196.651 85.5165 196.344 85.1882C196.037 84.8599 195.881 84.4676 195.877 84.0114C195.877 83.4443 196.103 82.9775 196.555 82.6108C197.007 82.2441 197.614 82.0607 198.377 82.0607C199.187 82.0607 199.816 82.2185 200.264 82.534C200.712 82.8495 200.982 83.325 201.076 83.9602L199.951 84.1137Z" fill="white" stroke="white" stroke-width="0.511649"/>
<path d="M204.312 83.0904C204.743 82.404 205.389 82.0608 206.25 82.0608C207.141 82.0608 207.845 82.3827 208.361 83.0265C208.877 83.6703 209.135 84.5124 209.135 85.5528C209.135 86.6571 208.849 87.5333 208.278 88.1814C207.706 88.8294 207.005 89.1556 206.174 89.1599C205.444 89.1599 204.86 88.87 204.421 88.2901H204.389V91.6094H203.238V82.2142H204.287V83.0904H204.312ZM206.097 88.2133C206.634 88.2133 207.077 87.9916 207.427 87.5482C207.777 87.1048 207.954 86.4396 207.958 85.5528C207.958 84.7213 207.79 84.0818 207.453 83.6341C207.116 83.1864 206.681 82.9625 206.148 82.9625C205.602 82.9625 205.155 83.212 204.805 83.7108C204.455 84.2097 204.278 84.8556 204.274 85.6487C204.274 86.4886 204.442 87.1261 204.779 87.561C205.116 87.9959 205.555 88.2133 206.097 88.2133Z" fill="white" stroke="white" stroke-width="0.511649"/>
<path d="M213.784 82.0607C214.701 82.0607 215.46 82.3592 216.061 82.9561C216.662 83.5531 216.965 84.4015 216.969 85.5016C216.969 86.8361 216.643 87.7784 215.991 88.3285C215.338 88.8785 214.603 89.1556 213.784 89.1599C212.927 89.1599 212.183 88.8763 211.552 88.3093C210.921 87.7422 210.606 86.8425 210.606 85.6103C210.606 84.4165 210.911 83.5275 211.52 82.9433C212.13 82.3592 212.885 82.065 213.784 82.0607ZM213.784 88.2133C214.441 88.2133 214.94 87.9703 215.281 87.4842C215.622 86.9982 215.793 86.3586 215.793 85.5655C215.793 84.7171 215.601 84.0775 215.217 83.6469C214.833 83.2162 214.356 83.0009 213.784 83.0009C213.2 83.0009 212.721 83.2184 212.345 83.6533C211.97 84.0882 211.783 84.7405 211.783 85.6103C211.783 86.4716 211.972 87.1197 212.352 87.5546C212.731 87.9895 213.209 88.2091 213.784 88.2133Z" fill="white" stroke="white" stroke-width="0.511649"/>
<path d="M224.363 89H223.205V84.8748C223.205 84.1798 223.081 83.7023 222.834 83.4422C222.587 83.1821 222.239 83.0521 221.792 83.0521C221.451 83.0521 221.129 83.1352 220.826 83.3015C220.523 83.4678 220.306 83.7023 220.174 84.005C220.041 84.3078 219.977 84.7363 219.982 85.2905V89H218.831V82.2143H219.867V83.1736H219.892C220.135 82.8026 220.434 82.5255 220.788 82.3422C221.141 82.1588 221.555 82.065 222.028 82.0608C222.386 82.0608 222.74 82.1247 223.09 82.2526C223.44 82.3805 223.712 82.5724 223.909 82.8282C224.105 83.0841 224.231 83.3569 224.286 83.6469C224.341 83.9368 224.367 84.3291 224.363 84.8237V89Z" fill="white" stroke="white" stroke-width="0.511649"/>
<path d="M230.4 84.1137C230.349 83.7428 230.2 83.4657 229.952 83.2823C229.705 83.099 229.358 83.0052 228.91 83.0009C228.471 83.0009 228.117 83.0755 227.848 83.2248C227.58 83.374 227.443 83.5914 227.439 83.8771C227.439 84.1457 227.546 84.3376 227.759 84.4527C227.972 84.5678 228.398 84.7085 229.038 84.8748C229.754 85.0582 230.289 85.2202 230.643 85.3609C230.997 85.5016 231.274 85.6977 231.475 85.9493C231.675 86.2008 231.775 86.5547 231.775 87.011C231.775 87.6164 231.528 88.1259 231.033 88.5395C230.539 88.9531 229.878 89.1599 229.051 89.1599C228.189 89.1599 227.518 88.9787 227.036 88.6163C226.554 88.2538 226.256 87.7059 226.141 86.9726L227.286 86.7999C227.345 87.2732 227.52 87.6271 227.81 87.8616C228.1 88.0961 228.509 88.2133 229.038 88.2133C229.541 88.2133 229.927 88.1089 230.196 87.8999C230.464 87.691 230.598 87.4331 230.598 87.1261C230.598 86.9214 230.537 86.7573 230.413 86.6336C230.289 86.51 230.136 86.4183 229.952 86.3586C229.769 86.2989 229.351 86.1881 228.699 86.026C227.735 85.7958 227.1 85.5165 226.793 85.1882C226.486 84.8599 226.33 84.4676 226.326 84.0114C226.326 83.4443 226.552 82.9775 227.004 82.6108C227.456 82.2441 228.064 82.0607 228.827 82.0607C229.637 82.0607 230.266 82.2185 230.714 82.534C231.161 82.8495 231.432 83.325 231.526 83.9602L230.4 84.1137Z" fill="white" stroke="white" stroke-width="0.511649"/>
<path d="M239.559 89H238.35C238.239 88.7868 238.16 88.5075 238.113 88.1622C237.342 88.8273 236.508 89.1599 235.613 89.1599C234.896 89.1599 234.331 88.9808 233.918 88.6227C233.504 88.2645 233.297 87.7912 233.297 87.2028C233.297 86.64 233.496 86.1774 233.892 85.815C234.289 85.4526 234.982 85.2095 235.971 85.0859L237.045 84.926C237.446 84.862 237.776 84.7831 238.037 84.6893C238.037 84.344 238.026 84.101 238.005 83.9602C237.983 83.8195 237.921 83.6703 237.819 83.5126C237.717 83.3548 237.548 83.2311 237.314 83.1416C237.079 83.0521 236.77 83.0052 236.386 83.0009C235.892 83.0009 235.502 83.0926 235.216 83.2759C234.93 83.4593 234.732 83.8004 234.621 84.2992L233.496 84.1521C233.619 83.4571 233.937 82.9348 234.449 82.5852C234.96 82.2356 235.664 82.0608 236.559 82.0607C237.374 82.0607 237.97 82.1801 238.35 82.4189C238.729 82.6577 238.964 82.9497 239.053 83.2951C239.143 83.6405 239.188 84.0796 239.188 84.6126V86.1603C239.188 87.1026 239.205 87.7337 239.239 88.0534C239.273 88.3732 239.38 88.6887 239.559 89ZM238.037 86.0132V85.5975C237.435 85.7979 236.7 85.9557 235.83 86.0708C234.96 86.1859 234.525 86.5547 234.525 87.1772C234.525 87.4885 234.643 87.7443 234.877 87.9447C235.112 88.1451 235.448 88.2474 235.888 88.2517C236.455 88.2517 236.954 88.0833 237.384 87.7465C237.815 87.4096 238.032 86.8319 238.037 86.0132ZM238.094 79.4641L236.681 81.2613H235.734L236.585 79.4641H238.094Z" fill="white" stroke="white" stroke-width="0.511649"/>
<path d="M246.984 82.2143L244.419 89H243.345L240.767 82.2143H241.983L243.383 86.1412C243.648 86.8831 243.805 87.3862 243.857 87.6505H243.882C243.95 87.3776 244.068 87.011 244.234 86.5505L245.807 82.2143H246.984Z" fill="white" stroke="white" stroke-width="0.511649"/>
<path d="M254.428 85.8981H249.344C249.391 86.6485 249.604 87.222 249.984 87.6185C250.363 88.0151 250.841 88.2133 251.416 88.2133C251.855 88.2133 252.224 88.0982 252.523 87.868C252.821 87.6377 253.049 87.286 253.207 86.8127L254.39 86.9598C254.198 87.6676 253.846 88.2112 253.335 88.5907C252.823 88.9701 252.184 89.1599 251.416 89.1599C250.397 89.1599 249.602 88.8486 249.031 88.2261C248.459 87.6036 248.171 86.7487 248.167 85.6615C248.167 84.5913 248.444 83.7236 248.999 83.0585C249.553 82.3933 250.337 82.0607 251.352 82.0607C251.847 82.0607 252.322 82.1695 252.778 82.3869C253.235 82.6044 253.625 82.9732 253.949 83.4934C254.273 84.0135 254.433 84.8151 254.428 85.8981ZM253.245 84.9516C253.198 84.2608 252.985 83.7641 252.606 83.4614C252.226 83.1587 251.808 83.0052 251.352 83.0009C250.811 83.0009 250.365 83.1821 250.016 83.5445C249.666 83.907 249.463 84.376 249.408 84.9516H253.245Z" fill="white" stroke="white" stroke-width="0.511649"/>
<path d="M257.479 89H256.328V79.624H257.479V89Z" fill="white" stroke="white" stroke-width="0.511649"/>
<path d="M151.632 106.737H146.548V109.64H150.955V110.753H146.548V115H145.307V105.624H151.632V106.737Z" fill="white" stroke="white" stroke-width="0.511649"/>
<path d="M159.346 108.374C159.294 107.777 159.079 107.33 158.7 107.031C158.32 106.733 157.776 106.581 157.069 106.577C156.429 106.577 155.909 106.696 155.508 106.935C155.107 107.174 154.907 107.521 154.907 107.978C154.907 108.383 155.06 108.683 155.367 108.879C155.674 109.076 156.267 109.274 157.145 109.474C157.921 109.645 158.555 109.82 159.045 109.999C159.535 110.178 159.955 110.455 160.305 110.83C160.655 111.205 160.829 111.713 160.829 112.352C160.829 113.158 160.51 113.827 159.87 114.36C159.23 114.893 158.393 115.16 157.357 115.16C156.039 115.16 155.054 114.866 154.402 114.277C153.749 113.689 153.402 112.926 153.359 111.988L154.536 111.885C154.591 112.636 154.881 113.182 155.406 113.523C155.93 113.864 156.563 114.036 157.305 114.041C158 114.041 158.561 113.898 158.987 113.612C159.414 113.326 159.629 112.938 159.633 112.448C159.633 111.936 159.41 111.563 158.962 111.329C158.514 111.094 157.764 110.864 156.711 110.638C155.657 110.412 154.896 110.09 154.427 109.672C153.958 109.255 153.726 108.717 153.73 108.061C153.73 107.31 154.024 106.69 154.613 106.2C155.201 105.709 156.003 105.464 157.018 105.464C158.058 105.464 158.894 105.707 159.525 106.193C160.156 106.679 160.492 107.374 160.535 108.278L159.346 108.374Z" fill="white" stroke="white" stroke-width="0.511649"/>
<path d="M170.966 112.026C170.694 113.079 170.218 113.864 169.54 114.38C168.862 114.896 168.046 115.156 167.091 115.16C165.556 115.16 164.439 114.68 163.739 113.721C163.04 112.762 162.688 111.604 162.684 110.248C162.684 108.751 163.096 107.581 163.918 106.737C164.741 105.893 165.803 105.468 167.103 105.464C168.016 105.464 168.796 105.697 169.444 106.161C170.092 106.626 170.546 107.306 170.807 108.201L169.591 108.489C169.387 107.837 169.075 107.347 168.658 107.018C168.24 106.69 167.717 106.526 167.091 106.526C166.067 106.526 165.291 106.861 164.763 107.53C164.234 108.199 163.97 109.101 163.97 110.235C163.97 111.54 164.247 112.51 164.801 113.145C165.355 113.781 166.082 114.098 166.982 114.098C167.715 114.098 168.31 113.9 168.766 113.503C169.223 113.107 169.544 112.51 169.732 111.713L170.966 112.026Z" fill="white" stroke="white" stroke-width="0.511649"/>
<path d="M176.526 105.565C177.185 105.565 177.751 105.801 178.224 106.272C178.698 106.743 178.934 107.311 178.934 107.977C178.934 108.64 178.699 109.208 178.228 109.681C177.756 110.154 177.189 110.391 176.526 110.391C175.861 110.391 175.292 110.155 174.819 109.684C174.345 109.213 174.109 108.644 174.109 107.977C174.109 107.314 174.345 106.746 174.819 106.275C175.292 105.804 175.861 105.568 176.526 105.565ZM176.52 109.994C177.072 109.994 177.545 109.797 177.94 109.403C178.334 109.008 178.532 108.533 178.535 107.977C178.535 107.422 178.337 106.949 177.943 106.557C177.549 106.164 177.074 105.967 176.52 105.965C175.966 105.965 175.492 106.161 175.1 106.554C174.708 106.946 174.511 107.42 174.509 107.977C174.509 108.531 174.705 109.005 175.097 109.4C175.489 109.794 175.964 109.992 176.52 109.994ZM177.646 109.313H177.134C176.812 108.727 176.602 108.397 176.504 108.322C176.406 108.247 176.282 108.21 176.133 108.21H175.884V109.313H175.465V106.72H176.363C176.632 106.72 176.839 106.739 176.984 106.777C177.129 106.816 177.246 106.897 177.335 107.02C177.425 107.144 177.47 107.277 177.47 107.42C177.47 107.597 177.406 107.758 177.278 107.903C177.15 108.048 176.967 108.129 176.728 108.146V108.159C176.883 108.195 177.085 108.411 177.332 108.808L177.646 109.313ZM175.884 107.852H176.395C176.63 107.852 176.793 107.818 176.885 107.75C176.976 107.681 177.022 107.584 177.022 107.459C177.022 107.337 176.978 107.242 176.891 107.174C176.804 107.106 176.628 107.072 176.363 107.072H175.884V107.852Z" fill="white" stroke="white" stroke-width="0.255825"/>
<path d="M194.814 112.026C194.541 113.079 194.066 113.864 193.388 114.38C192.71 114.896 191.894 115.156 190.939 115.16C189.404 115.16 188.287 114.68 187.587 113.721C186.888 112.762 186.536 111.604 186.532 110.248C186.532 108.751 186.943 107.581 187.766 106.737C188.589 105.893 189.651 105.468 190.951 105.464C191.864 105.464 192.644 105.697 193.292 106.161C193.94 106.626 194.394 107.306 194.654 108.201L193.439 108.489C193.235 107.837 192.923 107.347 192.505 107.018C192.088 106.69 191.565 106.526 190.939 106.526C189.915 106.526 189.139 106.861 188.611 107.53C188.082 108.199 187.818 109.101 187.818 110.235C187.818 111.54 188.095 112.51 188.649 113.145C189.203 113.781 189.93 114.098 190.83 114.098C191.563 114.098 192.158 113.9 192.614 113.503C193.07 113.107 193.392 112.51 193.58 111.713L194.814 112.026Z" fill="white" stroke="white" stroke-width="0.511649"/>
<path d="M200.749 115H199.598V107.664C199.023 108.21 198.253 108.673 197.289 109.052V107.939C198.615 107.304 199.519 106.517 200.001 105.579H200.749V115Z" fill="white" stroke="white" stroke-width="0.511649"/>
<path d="M208.597 109.928C209.177 110.039 209.614 110.318 209.908 110.766C210.202 111.214 210.351 111.704 210.356 112.237C210.356 113.09 210.047 113.789 209.428 114.335C208.81 114.881 208.066 115.156 207.196 115.16C206.369 115.16 205.687 114.919 205.15 114.437C204.612 113.955 204.299 113.318 204.209 112.525L205.361 112.365C205.476 112.983 205.685 113.446 205.987 113.753C206.29 114.06 206.693 114.213 207.196 114.213C207.733 114.213 208.188 114.026 208.558 113.651C208.929 113.275 209.117 112.813 209.121 112.263C209.121 111.738 208.953 111.303 208.616 110.958C208.279 110.613 207.836 110.44 207.286 110.44C207.064 110.44 206.793 110.48 206.474 110.561L206.608 109.551C206.915 109.551 207.158 109.536 207.337 109.506C207.516 109.476 207.716 109.404 207.938 109.289C208.16 109.174 208.343 109.009 208.488 108.796C208.633 108.583 208.706 108.314 208.706 107.99C208.706 107.526 208.552 107.165 208.245 106.91C207.938 106.654 207.58 106.526 207.171 106.526C206.706 106.526 206.329 106.673 206.039 106.967C205.749 107.261 205.563 107.681 205.482 108.227L204.331 108.016C204.48 107.202 204.809 106.592 205.316 106.187C205.823 105.782 206.433 105.579 207.145 105.579C207.925 105.579 208.576 105.814 209.096 106.283C209.616 106.752 209.878 107.33 209.882 108.016C209.882 108.89 209.454 109.519 208.597 109.903V109.928Z" fill="white" stroke="white" stroke-width="0.511649"/>
<path d="M216.393 109.928C217.566 110.303 218.152 111.103 218.152 112.327C218.152 113.132 217.864 113.806 217.288 114.348C216.713 114.889 215.973 115.16 215.069 115.16C214.157 115.16 213.415 114.887 212.844 114.341C212.272 113.795 211.984 113.111 211.98 112.288C211.98 111.696 212.14 111.178 212.46 110.734C212.78 110.291 213.214 110.022 213.764 109.928V109.903C212.826 109.613 212.357 108.98 212.357 108.003C212.357 107.312 212.605 106.737 213.099 106.276C213.594 105.816 214.242 105.584 215.044 105.579C215.858 105.579 216.515 105.818 217.013 106.296C217.512 106.773 217.764 107.351 217.768 108.029C217.768 108.95 217.31 109.574 216.393 109.903V109.928ZM215.069 109.474C215.5 109.474 215.86 109.338 216.15 109.065C216.44 108.792 216.587 108.447 216.591 108.029C216.591 107.607 216.444 107.251 216.15 106.961C215.856 106.671 215.491 106.526 215.056 106.526C214.617 106.526 214.255 106.669 213.969 106.954C213.683 107.24 213.541 107.577 213.541 107.965C213.541 108.43 213.688 108.796 213.982 109.065C214.276 109.333 214.639 109.47 215.069 109.474ZM215.069 114.213C215.611 114.213 216.063 114.039 216.425 113.689C216.787 113.339 216.969 112.885 216.969 112.327C216.969 111.768 216.783 111.31 216.412 110.952C216.041 110.593 215.585 110.414 215.044 110.414C214.485 110.414 214.031 110.598 213.681 110.964C213.332 111.331 213.157 111.777 213.157 112.301C213.157 112.843 213.336 113.297 213.694 113.663C214.052 114.03 214.511 114.213 215.069 114.213Z" fill="white" stroke="white" stroke-width="0.511649"/>
<path d="M225.903 112.762H224.637V115H223.486V112.762H219.425V111.7L223.69 105.624H224.637V111.7H225.903V112.762ZM223.486 111.7V107.466H223.46L220.55 111.7H223.486Z" fill="white" stroke="white" stroke-width="0.511649"/>
<path d="M232.574 110.587C232.348 110.954 232.039 111.25 231.647 111.476C231.254 111.702 230.826 111.815 230.361 111.815C229.589 111.815 228.935 111.534 228.398 110.971C227.86 110.408 227.59 109.668 227.585 108.751C227.585 107.822 227.86 107.061 228.41 106.468C228.961 105.876 229.668 105.579 230.534 105.579C231.404 105.579 232.156 105.918 232.791 106.596C233.427 107.274 233.744 108.447 233.744 110.114C233.744 111.806 233.454 113.071 232.875 113.906C232.295 114.742 231.465 115.16 230.387 115.16C229.683 115.16 229.095 114.968 228.622 114.584C228.148 114.201 227.86 113.614 227.758 112.825L228.858 112.736C229.033 113.721 229.551 114.213 230.412 114.213C231.12 114.213 231.662 113.891 232.037 113.248C232.412 112.604 232.6 111.717 232.6 110.587H232.574ZM230.636 110.811C231.199 110.811 231.645 110.613 231.973 110.216C232.301 109.82 232.467 109.314 232.472 108.7C232.472 108.082 232.303 107.566 231.966 107.153C231.63 106.739 231.195 106.53 230.662 106.526C230.129 106.526 229.679 106.745 229.312 107.185C228.946 107.624 228.762 108.159 228.762 108.79C228.762 109.383 228.941 109.866 229.299 110.242C229.658 110.617 230.103 110.807 230.636 110.811Z" fill="white" stroke="white" stroke-width="0.511649"/>
<path d="M241.496 112.762H240.23V115H239.078V112.762H235.017V111.7L239.283 105.624H240.23V111.7H241.496V112.762ZM239.078 111.7V107.466H239.053L236.143 111.7H239.078Z" fill="white" stroke="white" stroke-width="0.511649"/>
</svg>
