<svg width="258" height="130" viewBox="0 0 258 130" fill="none" xmlns="http://www.w3.org/2000/svg">
<g clip-path="url(#clip0_230_73)">
<path d="M112.481 121.21C112.481 123.534 111.503 125.639 109.922 127.161C108.352 128.673 106.186 129.608 103.798 129.608L8.68556 129.604C6.29721 129.608 4.13034 128.672 2.55957 127.16C0.978589 125.638 0 123.534 0 121.21V8.39811C0 6.07416 0.978589 3.97012 2.55957 2.44804C4.13034 0.936178 6.29721 0 8.68556 0H103.798C106.186 0 108.352 0.935392 109.922 2.44726C111.503 3.96933 112.481 6.07338 112.481 8.39811V121.21ZM108.54 125.723C109.739 124.568 110.482 122.972 110.482 121.21V8.39811C110.482 6.63571 109.739 5.03981 108.54 3.8853C107.331 2.72057 105.655 2.00037 103.798 2.00037H8.68556C6.8297 2.00037 5.15133 2.72136 3.94184 3.88608C2.74178 5.04138 1.99959 6.6365 1.99959 8.39811V121.21C1.99959 122.972 2.74178 124.567 3.94184 125.722C5.15133 126.887 6.8297 127.608 8.68556 127.608L103.798 127.612C105.654 127.608 107.331 126.887 108.54 125.723Z" fill="#FEFEFE"/>
<path d="M57.0017 14.1465C39.7695 14.1465 33.6797 40.9485 28.0037 62.501C25.9633 60.4276 19.6456 54.1398 19.6425 54.143C18.3765 52.8887 16.9188 53.294 16.0211 54.1697C15.1305 55.0697 14.9946 56.7316 16.0211 57.7369C16.0753 57.7879 24.5739 66.2599 27.5113 69.1909C28.3241 69.9889 29.4912 70.4483 30.6583 69.7611C31.8764 69.0166 32.0445 67.6971 32.0712 67.6971C42.1359 22.5768 51.1395 19.2114 56.9836 19.2114C61.8946 19.2114 67.5494 22.8446 67.5494 30.1071C74.8872 30.1071 79.4778 39.7312 73.5764 45.6592C78.4662 48.0232 80.6449 50.9362 80.6449 54.6087C80.6449 58.2984 77.5575 62.0581 73.0612 62.0455C68.5971 62.0455 66.3289 59.1749 62.8465 59.1718C61.2718 59.1718 60.3113 60.4378 60.3113 61.6944V70.8112H53.7439V61.7298C53.729 60.3082 52.682 59.1922 51.3767 59.1922C51.3555 59.1922 50.8128 59.2016 50.8309 59.222L42.0314 60.3169C40.9633 60.4606 39.9855 61.6222 39.9855 62.816C39.9855 64.2139 41.1251 65.3661 42.6888 65.3449C42.8781 65.3449 43.1451 65.3449 43.1271 65.3182C43.1058 65.3182 48.6891 64.6106 48.6891 64.6106C48.6891 64.6106 48.6891 73.5686 48.6891 73.5985C48.6891 74.7475 49.9882 75.8541 51.1403 75.8604H62.8284C64.1879 75.8604 65.366 74.6815 65.366 73.3016V65.0936C67.8109 66.5905 71.21 67.1693 72.9622 67.1693C79.517 67.1693 85.775 62.0125 85.7451 54.4587C85.7153 47.5913 80.4799 44.178 80.4799 44.178C83.561 35.9849 78.584 28.0737 72.1337 25.866C69.8058 17.4184 62.581 14.1481 57.0017 14.1481V14.1465Z" fill="#FEFEFE"/>
<path d="M57.0017 14.1465C39.7695 14.1465 33.6797 40.9485 28.0037 62.501C25.9633 60.4276 19.6456 54.1398 19.6425 54.143C18.3765 52.8887 16.9188 53.294 16.0211 54.1697C15.1305 55.0697 14.9946 56.7316 16.0211 57.7369C16.0753 57.7879 24.5739 66.2599 27.5113 69.1909C28.3241 69.9889 29.4912 70.4483 30.6583 69.7611C31.8764 69.0166 32.0445 67.6971 32.0712 67.6971C42.1359 22.5768 51.1395 19.2114 56.9836 19.2114C61.8946 19.2114 67.5494 22.8446 67.5494 30.1071C74.8872 30.1071 79.4778 39.7312 73.5764 45.6592C78.4662 48.0232 80.6449 50.9362 80.6449 54.6087C80.6449 58.2984 77.5575 62.0581 73.0612 62.0455C68.5971 62.0455 66.3289 59.1749 62.8465 59.1718C61.2718 59.1718 60.3113 60.4378 60.3113 61.6944V70.8112H53.7439V61.7298C53.729 60.3082 52.682 59.1922 51.3767 59.1922C51.3555 59.1922 50.8128 59.2016 50.8309 59.222L42.0314 60.3169C40.9633 60.4606 39.9855 61.6222 39.9855 62.816C39.9855 64.2139 41.1251 65.3661 42.6888 65.3449C42.8781 65.3449 43.1451 65.3449 43.1271 65.3182C43.1058 65.3182 48.6891 64.6106 48.6891 64.6106C48.6891 64.6106 48.6891 73.5686 48.6891 73.5985C48.6891 74.7475 49.9882 75.8541 51.1403 75.8604H62.8284C64.1879 75.8604 65.366 74.6815 65.366 73.3016V65.0936C67.8109 66.5905 71.21 67.1693 72.9622 67.1693C79.517 67.1693 85.775 62.0125 85.7451 54.4587C85.7153 47.5913 80.4799 44.178 80.4799 44.178C83.561 35.9849 78.584 28.0737 72.1337 25.866C69.8058 17.4184 62.581 14.1481 57.0017 14.1481V14.1465Z" fill="#FEFEFE"/>
<path d="M49.6425 85.8913C49.6425 88.0158 52.0097 89.2842 55.9036 91.1353C58.9878 92.5812 60.7667 94.1143 60.7667 95.3411C60.7667 97.3273 58.6305 98.0349 56.6238 98.0349C53.5247 98.0349 51.6861 96.7987 50.6745 94.0208L50.5873 93.7805H50.3407C49.7862 93.7805 49.348 93.8072 49.1108 94.1072C48.9003 94.3829 48.9545 94.7552 49.0503 95.118C49.0409 95.1086 49.7313 97.965 49.7313 97.965C49.9143 98.6609 50.1632 98.7748 51.2706 98.9939C51.7568 99.0748 54.2614 99.5099 56.3858 99.5099C62.317 99.5099 64.9685 97.1011 64.9685 94.7096C64.9685 92.9724 63.2407 91.3018 59.5266 89.4593L57.8349 88.6465C55.2941 87.4346 53.7697 86.705 53.7697 85.4335C53.7697 84.2004 55.3538 83.3365 57.6307 83.3365C60.5947 83.3365 61.3895 84.9952 61.7524 86.438L61.8183 86.7105H62.1066C62.7726 86.7105 63.1841 86.6563 63.4237 86.3924C63.5705 86.2455 63.6216 86.0382 63.5949 85.7869L63.3545 83.3145C63.2917 82.5315 62.6885 82.4144 61.8545 82.2495C60.8586 82.0697 59.6648 81.8537 57.8733 81.8537C52.7165 81.86 49.6417 83.3687 49.6417 85.889L49.6425 85.8913Z" fill="#FEFEFE"/>
<path d="M66.7153 90.8864C66.7153 95.1706 70.438 99.517 77.5575 99.517C81.1483 99.517 83.1706 98.7041 84.6793 97.8943L85.0932 97.6815L84.4241 96.9495L84.4634 96.9857C84.3039 96.7642 84.1696 96.7241 83.9387 96.7241L83.5963 96.838C83.0528 97.0901 81.4067 97.8551 78.412 97.8551C74.7254 97.8551 70.7616 95.4518 70.7616 90.1662C70.7616 85.135 75.0513 83.3498 78.7293 83.3498C81.3721 83.3498 82.7827 84.2915 83.0371 86.251L83.0732 86.5691H83.4062C83.7157 86.5691 84.5521 86.5691 84.5521 85.9392V83.005C84.5521 82.2848 83.7243 82.1796 83.3701 82.1317L83.0253 82.0869C82.185 81.9644 81.3635 81.8678 79.2241 81.8678C71.9789 81.8615 66.7145 85.6565 66.7145 90.8856L66.7153 90.8864Z" fill="#FEFEFE"/>
<path d="M39.8677 82.0752L33.4511 82.1325L29.1668 82.0602L28.5157 82.039C28.1411 82.039 27.8678 82.3147 27.8678 82.7137C27.8678 82.8967 27.8678 83.4669 28.5699 83.4669C31.1562 83.4669 31.2489 83.6828 31.2764 84.6701L31.2976 85.2944L31.3368 87.9341V93.625C31.3368 94.5667 31.307 96.0636 31.2465 97.2794C31.2253 97.6273 31.2073 97.9572 28.9273 97.9572C28.288 97.9572 27.9008 98.0829 27.9008 98.719C27.9008 98.9052 27.9008 99.3937 28.5157 99.3937L28.6626 99.3842C28.9351 99.3693 29.6616 99.3332 33.232 99.3332C37.0332 99.3332 37.8037 99.378 38.0534 99.3842L38.194 99.3937C38.6951 99.3937 39.1239 99.3308 39.1239 98.719C39.1239 98.0145 38.5451 97.9572 37.5791 97.9572C35.281 97.9572 35.2724 97.6336 35.2598 97.2849C35.2056 96.172 35.1577 94.6664 35.1577 93.625C35.1577 93.625 35.1577 92.1014 35.1577 91.5728C35.6706 91.5728 37.0749 91.5728 37.0749 91.5728C40.0177 91.5728 40.3476 91.6537 40.7646 93.9219C40.8871 94.4167 41.2806 94.4764 41.6073 94.4764C42.2977 94.4764 42.3723 94.0986 42.3723 93.9243L42.3212 93.0815C42.2702 92.5954 42.2223 91.993 42.2223 91.1613V87.6726C42.2223 87.148 41.5979 87.148 41.2657 87.148C40.7018 87.148 40.5722 87.5053 40.2156 89.1515C40.0593 89.7782 38.8451 90.1411 36.8856 90.1411C36.8856 90.1411 35.6612 90.1411 35.1577 90.1411C35.1577 89.4986 35.1577 85.0172 35.1577 85.0172C35.1577 83.6255 35.4036 83.6129 35.7154 83.5957C36.8345 83.5509 39.5677 83.4551 40.3868 83.4551C41.1612 83.4551 41.872 83.6349 42.3456 83.9381C43.7946 84.8468 44.5415 85.4562 44.9947 85.8222C45.4329 86.1827 45.6819 86.3924 46.0447 86.3924C46.2552 86.3924 46.8725 86.3924 46.8725 85.8583C46.8725 85.7201 46.8246 85.6 46.6173 85.1625C46.3801 84.6402 45.9748 83.7732 45.4777 82.4443C45.334 82.0272 44.8533 82.0273 43.9478 82.0273L39.8685 82.0759L39.8677 82.0752Z" fill="#FEFEFE"/>
<path d="M29.6082 115.015L27.871 109.363H28.8676L29.7826 112.621L30.1007 113.83C30.1156 113.772 30.2177 113.392 30.4038 112.678L31.3039 109.363H32.2817L33.1189 112.638L33.3914 113.718L33.7182 112.635L34.7077 109.363H35.6376L33.8258 115.014H32.8589L31.9801 111.63L31.7586 110.67L30.5947 115.017L29.6082 115.015Z" fill="#FEFEFE"/>
<path d="M37.6694 115.015L35.9353 109.363H36.9375L37.8438 112.621L38.1674 113.83C38.1768 113.772 38.2781 113.392 38.4705 112.678L39.3643 109.363H40.3397L41.177 112.638L41.4526 113.718L41.7762 112.635L42.7784 109.363H43.7083L41.8932 115.014H40.9303L40.0452 111.63L39.8237 110.67L38.6661 115.017L37.6702 115.015H37.6694Z" fill="#FEFEFE"/>
<path d="M45.7392 115.015L44.002 109.363H45.001L45.9128 112.621L46.234 113.83C46.2458 113.772 46.3448 113.392 46.5372 112.678L47.4309 109.363H48.4087L49.2491 112.638L49.5216 113.718L49.8484 112.635L50.8379 109.363H51.7741L49.9622 115.014H48.9931L48.1111 111.63L47.8896 110.67L46.7225 115.017L45.7384 115.015H45.7392Z" fill="#FEFEFE"/>
<path d="M51.9791 115.015V113.926H53.0622V115.015H51.9791Z" fill="#FEFEFE"/>
<path d="M54.6941 115.015V110.104H53.8687V109.357H54.6941V108.766C54.6941 108.385 54.7334 108.103 54.7962 107.923C54.8865 107.677 55.0514 107.476 55.2823 107.323C55.5132 107.163 55.8431 107.092 56.2578 107.092C56.528 107.092 56.8217 107.128 57.1461 107.185L57.0078 108.012C56.8036 107.976 56.6238 107.955 56.4439 107.955C56.1525 107.955 55.946 108.018 55.8258 108.144C55.7088 108.27 55.646 108.502 55.646 108.835V109.354H56.7494V110.101H55.6452V115.012H54.6941V115.015Z" fill="#FEFEFE"/>
<path d="M57.238 113.308L58.1978 113.186C58.2457 113.564 58.3894 113.852 58.636 114.059C58.8787 114.254 59.2117 114.356 59.6468 114.356C60.0819 114.356 60.4055 114.266 60.6128 114.089C60.8288 113.903 60.9278 113.696 60.9278 113.456C60.9278 113.243 60.8406 113.066 60.6552 112.943C60.5147 112.856 60.1989 112.754 59.6774 112.625C58.9902 112.442 58.5104 112.292 58.2402 112.163C57.9677 112.028 57.7572 111.851 57.6158 111.629C57.4752 111.392 57.403 111.143 57.403 110.874C57.403 110.615 57.4603 110.381 57.5797 110.175C57.6904 109.956 57.8553 109.779 58.0478 109.634C58.2009 109.532 58.3926 109.44 58.6509 109.352C58.9062 109.28 59.1819 109.244 59.4732 109.244C59.9115 109.244 60.2924 109.307 60.634 109.436C60.9608 109.564 61.2074 109.742 61.3723 109.952C61.5255 110.171 61.6362 110.468 61.6935 110.83L60.7605 110.956C60.7157 110.662 60.5893 110.434 60.3945 110.269C60.1966 110.104 59.9083 110.02 59.5455 110.02C59.1104 110.02 58.8072 110.092 58.6156 110.239C58.424 110.383 58.3368 110.551 58.3368 110.749C58.3368 110.871 58.3729 110.986 58.4475 111.079C58.5284 111.181 58.6486 111.265 58.8198 111.334C58.9101 111.373 59.1827 111.456 59.6452 111.577C60.3112 111.763 60.7825 111.906 61.0432 112.015C61.3134 112.137 61.5262 112.306 61.6794 112.521C61.8231 112.74 61.8985 113.016 61.8985 113.337C61.8985 113.659 61.8082 113.952 61.6228 114.241C61.4398 114.519 61.1697 114.739 60.8217 114.885C60.4738 115.047 60.0772 115.126 59.6335 115.126C58.9101 115.126 58.3462 114.973 57.9684 114.667C57.5899 114.373 57.3472 113.914 57.2396 113.308L57.238 113.308Z" fill="#FEFEFE"/>
<path d="M66.6493 112.951L67.5878 113.08C67.4795 113.728 67.2187 114.229 66.7985 114.586C66.376 114.958 65.8623 115.144 65.2505 115.144C64.4793 115.144 63.8588 114.889 63.4057 114.394C62.9376 113.881 62.7012 113.158 62.7012 112.219C62.7012 111.604 62.8064 111.067 63.0012 110.608C63.1991 110.161 63.5109 109.813 63.9193 109.582C64.3363 109.351 64.7832 109.242 65.2631 109.242C65.8686 109.242 66.3642 109.396 66.7569 109.707C67.1441 110.019 67.3931 110.466 67.5014 111.042L66.5653 111.168C66.4844 110.79 66.3226 110.502 66.0972 110.311C65.8812 110.121 65.611 110.022 65.2906 110.022C64.8194 110.022 64.4267 110.196 64.1329 110.541C63.8266 110.889 63.6798 111.435 63.6798 112.185C63.6798 112.941 63.8235 113.499 64.1211 113.829C64.4031 114.18 64.784 114.351 65.2466 114.351C65.6189 114.351 65.9307 114.234 66.1828 114.012C66.4255 113.781 66.5873 113.428 66.6509 112.95L66.6493 112.951Z" fill="#FEFEFE"/>
<path d="M68.6112 115.015V113.926H69.7029V115.015H68.6112Z" fill="#FEFEFE"/>
<path d="M70.5793 112.192C70.5793 111.139 70.8707 110.371 71.4496 109.864C71.9357 109.447 72.5326 109.24 73.2284 109.24C74.0083 109.24 74.6382 109.498 75.1306 109.996C75.6199 110.508 75.8658 111.207 75.8658 112.104C75.8658 112.833 75.7605 113.41 75.5422 113.82C75.3262 114.241 75.0081 114.562 74.5911 114.793C74.1803 115.024 73.7209 115.137 73.2316 115.137C72.4423 115.137 71.8038 114.882 71.3145 114.382C70.8283 113.869 70.5793 113.143 70.5793 112.192ZM71.554 112.187C71.554 112.91 71.7189 113.456 72.037 113.813C72.3465 114.173 72.7447 114.356 73.2253 114.356C73.6989 114.356 74.101 114.173 74.4105 113.81C74.7317 113.453 74.8935 112.901 74.8935 112.157C74.8935 111.455 74.7317 110.927 74.4105 110.567C74.0987 110.209 73.6965 110.026 73.2253 110.026C72.7454 110.026 72.3433 110.209 72.037 110.563C71.7189 110.918 71.554 111.467 71.554 112.187Z" fill="#FEFEFE"/>
<path d="M76.9692 115.015V109.363H77.8119V110.237C78.0396 109.828 78.2376 109.562 78.4206 109.432C78.6098 109.3 78.8133 109.241 79.0355 109.241C79.3654 109.241 79.6897 109.34 80.0196 109.553L79.6835 110.426C79.4557 110.3 79.2271 110.24 78.99 110.24C78.7889 110.24 78.6028 110.3 78.4292 110.426C78.2729 110.552 78.1472 110.726 78.0781 110.951C77.9792 111.293 77.9218 111.658 77.9218 112.063V115.018L76.9684 115.015H76.9692Z" fill="#FEFEFE"/>
<path d="M80.3173 115.474L81.2716 115.603C81.3108 115.903 81.4216 116.116 81.5928 116.251C81.8268 116.431 82.1567 116.521 82.5588 116.521C82.997 116.521 83.3418 116.429 83.5853 116.251C83.8162 116.074 83.9843 115.816 84.0652 115.501C84.1194 115.303 84.1343 114.892 84.1343 114.265C83.7141 114.766 83.1926 115.015 82.5682 115.015C81.7883 115.015 81.1883 114.733 80.7658 114.172C80.3369 113.608 80.1265 112.942 80.1265 112.156C80.1265 111.622 80.2191 111.124 80.4178 110.665C80.6126 110.212 80.8891 109.856 81.2668 109.607C81.636 109.355 82.0734 109.234 82.569 109.234C83.2413 109.234 83.7903 109.52 84.2277 110.062V109.36L85.0917 109.359V114.243C85.0917 115.119 85.0108 115.746 84.8191 116.118C84.6479 116.478 84.3628 116.774 83.9764 116.978C83.5892 117.194 83.1125 117.3 82.5455 117.3C81.8732 117.3 81.3273 117.153 80.9134 116.85C80.4995 116.547 80.304 116.088 80.3197 115.473L80.3173 115.474ZM81.1003 112.088C81.1003 112.832 81.2504 113.377 81.5472 113.714C81.841 114.058 82.2164 114.223 82.657 114.223C83.0984 114.223 83.4698 114.058 83.7699 113.722C84.073 113.38 84.2262 112.846 84.2262 112.12C84.2262 111.43 84.0644 110.908 83.7549 110.557C83.4463 110.206 83.074 110.029 82.6389 110.029C82.2132 110.029 81.8527 110.203 81.5527 110.552C81.2496 110.894 81.0996 111.404 81.0996 112.088H81.1003Z" fill="#FEFEFE"/>
<path d="M80.0251 15.7125C81.1356 15.7125 82.0899 16.11 82.8871 16.904C83.685 17.6988 84.084 18.6562 84.084 19.7769C84.084 20.8945 83.6866 21.8519 82.8925 22.6498C82.0977 23.4478 81.1419 23.8468 80.0243 23.8468C78.9028 23.8468 77.9438 23.4502 77.1459 22.6553C76.3479 21.8613 75.949 20.9016 75.949 19.7769C75.949 18.6593 76.3479 17.7035 77.1459 16.9087C77.9438 16.1147 78.9028 15.7157 80.0243 15.7118L80.0251 15.7125ZM80.0141 23.1784C80.9448 23.1784 81.7428 22.8462 82.408 22.181C83.0724 21.5165 83.407 20.7147 83.4109 19.7769C83.4109 18.8423 83.0787 18.0451 82.4135 17.3838C81.749 16.7226 80.9495 16.3895 80.0149 16.3864C79.0803 16.3864 78.2831 16.7171 77.6218 17.3783C76.9605 18.0396 76.6283 18.8392 76.6244 19.7769C76.6244 20.7115 76.9551 21.511 77.6163 22.1755C78.2776 22.8399 79.0772 23.1745 80.0149 23.1784H80.0141ZM81.9116 22.0302H81.0493C80.5066 21.0422 80.1531 20.4845 79.9874 20.3589C79.8225 20.2332 79.6136 20.1704 79.3623 20.1704H78.9413V22.0302H78.2352V17.6587H79.7502C80.2034 17.6587 80.5513 17.6909 80.7964 17.7561C81.0406 17.8205 81.2385 17.9572 81.3893 18.1661C81.5401 18.3742 81.6155 18.5988 81.6155 18.8399C81.6155 19.1384 81.5079 19.4101 81.2927 19.6544C81.0767 19.8986 80.7681 20.0353 80.366 20.0644V20.0856C80.6283 20.1468 80.9676 20.5112 81.3846 21.1796L81.9132 22.0317L81.9116 22.0302ZM78.9413 19.5664H79.8036C80.1987 19.5664 80.4744 19.5091 80.6283 19.3936C80.783 19.279 80.86 19.1156 80.86 18.9036C80.86 18.6986 80.7862 18.5384 80.6385 18.4237C80.4908 18.309 80.1948 18.2517 79.7494 18.2517H78.9405V19.5672L78.9413 19.5664Z" fill="#FEFEFE"/>
<path d="M141.001 73.9503H139.6L138.5 71.0978H134.586L133.55 73.9503H132.239L135.84 64.5744H137.177L141.002 73.9503H141.001ZM138.122 70.113C137.355 68.0835 136.922 66.9322 136.824 66.6596C136.726 66.3871 136.618 66.018 136.498 65.553H136.466C136.347 66.1845 136.186 66.768 135.986 67.3052L134.938 70.113H138.122Z" fill="#FEFEFE"/>
<path d="M155.723 73.9504H154.571V69.6653C154.571 69.3496 154.55 69.081 154.508 68.8595C154.465 68.638 154.357 68.4393 154.182 68.265C154.007 68.0906 153.729 68.0026 153.35 68.0026C152.898 68.0026 152.508 68.1605 152.18 68.4762C151.852 68.792 151.687 69.3032 151.687 70.0117V73.9511H150.536V69.5389C150.536 68.9506 150.434 68.5477 150.229 68.3302C150.024 68.1126 149.73 68.0042 149.346 68.0042C148.852 68.0042 148.447 68.1754 148.131 68.5163C147.816 68.8579 147.656 69.4949 147.651 70.4287V73.9527H146.5V67.167H147.537V68.1134H147.562C148.023 67.3798 148.698 67.0131 149.589 67.0131C150.088 67.0131 150.497 67.1112 150.817 67.3076C151.137 67.5039 151.372 67.8016 151.521 68.2029C152.024 67.4097 152.721 67.0131 153.612 67.0131C154.316 67.0131 154.842 67.2031 155.193 67.5825C155.542 67.9618 155.719 68.5312 155.724 69.2907V73.9527L155.723 73.9504Z" fill="#FEFEFE"/>
<path d="M163.833 73.9503H162.624C162.513 73.7375 162.434 73.4579 162.388 73.1131C161.616 73.7783 160.782 74.1106 159.887 74.1106C159.171 74.1106 158.606 73.9315 158.192 73.5734C157.779 73.2152 157.572 72.7416 157.572 72.1534C157.572 71.5903 157.77 71.1277 158.166 70.7656C158.563 70.4036 159.256 70.1609 160.245 70.0368L161.32 69.8766C161.72 69.8129 162.051 69.7336 162.311 69.6402C162.311 69.2946 162.3 69.0519 162.278 68.9113C162.257 68.7707 162.195 68.6215 162.093 68.4636C161.991 68.3058 161.822 68.1817 161.588 68.0922C161.353 68.0026 161.045 67.9555 160.661 67.9516C160.166 67.9516 159.775 68.0427 159.49 68.2265C159.204 68.4095 159.007 68.7503 158.896 69.2498L157.77 69.103C157.893 68.4079 158.211 67.8856 158.723 67.5361C159.234 67.1866 159.938 67.0115 160.833 67.0115C161.648 67.0115 162.245 67.1309 162.624 67.3696C163.003 67.6084 163.238 67.9005 163.328 68.2453C163.417 68.5909 163.462 69.0299 163.462 69.5632V71.1112C163.462 72.0536 163.479 72.6843 163.513 73.004C163.547 73.3236 163.654 73.6393 163.833 73.9503ZM162.311 70.9635V70.5481C161.709 70.7483 160.974 70.9062 160.105 71.0216C159.234 71.1371 158.8 71.5054 158.8 72.1283C158.8 72.4393 158.917 72.6953 159.152 72.8956C159.387 73.0966 159.724 73.1979 160.163 73.2027C160.73 73.2027 161.228 73.0338 161.66 72.6977C162.09 72.3607 162.308 71.7827 162.312 70.9643L162.311 70.9635Z" fill="#FEFEFE"/>
<path d="M169.403 67.3759L169.007 68.4377C168.721 68.2712 168.442 68.188 168.169 68.188C167.738 68.188 167.413 68.3796 167.19 68.7637C166.969 69.1469 166.858 69.6888 166.858 70.3878V73.9503H165.707V67.1646H166.755V68.188H166.781C167.148 67.4034 167.627 67.0107 168.22 67.0107C168.613 67.0107 169.007 67.1324 169.403 67.3751V67.3759Z" fill="#FEFEFE"/>
<path d="M176.177 71.6028C176.027 72.4683 175.687 73.1021 175.153 73.5027C174.62 73.9032 174.017 74.1059 173.343 74.1106C172.358 74.1106 171.597 73.7886 171.06 73.1445C170.523 72.5005 170.254 71.6437 170.254 70.574C170.254 69.6912 170.407 68.9859 170.714 68.4574C171.021 67.9288 171.409 67.5558 171.878 67.3382C172.347 67.1207 172.835 67.0123 173.343 67.0123C174.042 67.0123 174.639 67.1937 175.134 67.5558C175.628 67.9186 175.935 68.4511 176.055 69.1548L174.942 69.3276C174.827 68.8713 174.641 68.5281 174.386 68.2979C174.13 68.0678 173.8 67.9524 173.395 67.9524C172.751 67.9524 172.263 68.1801 171.93 68.6372C171.598 69.0935 171.431 69.7305 171.431 70.5496C171.431 71.3853 171.593 72.0293 171.917 72.4817C172.242 72.9333 172.713 73.1618 173.331 73.1658C173.826 73.1658 174.214 73.0252 174.495 72.7432C174.776 72.4621 174.955 72.0356 175.032 71.4646L176.177 71.6052L176.177 71.6028Z" fill="#FEFEFE"/>
<path d="M183.563 73.9503H182.354C182.244 73.7375 182.164 73.4579 182.118 73.1131C181.346 73.7783 180.513 74.1106 179.617 74.1106C178.901 74.1106 178.336 73.9315 177.922 73.5734C177.509 73.2152 177.302 72.7416 177.302 72.1534C177.302 71.5903 177.501 71.1277 177.897 70.7656C178.293 70.4036 178.986 70.1609 179.975 70.0368L181.05 69.8766C181.451 69.8129 181.781 69.7336 182.041 69.6402C182.041 69.2946 182.031 69.0519 182.01 68.9113C181.988 68.7707 181.926 68.6215 181.824 68.4636C181.722 68.3058 181.553 68.1817 181.319 68.0922C181.085 68.0026 180.776 67.9555 180.392 67.9516C179.898 67.9516 179.507 68.0427 179.221 68.2265C178.936 68.4095 178.738 68.7503 178.627 69.2498L177.501 69.103C177.625 68.4079 177.943 67.8856 178.454 67.5361C178.966 67.1866 179.669 67.0115 180.564 67.0115C181.379 67.0115 181.976 67.1309 182.355 67.3696C182.735 67.6084 182.969 67.9005 183.059 68.2453C183.148 68.5909 183.193 69.0299 183.193 69.5632V71.1112C183.193 72.0536 183.21 72.6843 183.244 73.004C183.278 73.3236 183.385 73.6393 183.564 73.9503H183.563ZM182.041 70.9635V70.5481C181.44 70.7483 180.704 70.9062 179.835 71.0216C178.965 71.1371 178.53 71.5054 178.53 72.1283C178.53 72.4393 178.647 72.6953 178.882 72.8956C179.116 73.0966 179.454 73.1979 179.893 73.2027C180.46 73.2027 180.959 73.0338 181.389 72.6977C181.82 72.3607 182.037 71.7827 182.042 70.9643L182.041 70.9635Z" fill="#FEFEFE"/>
<path d="M195.114 73.9503H194.039V73.0872H194.014C193.601 73.7697 192.976 74.1106 192.14 74.1106C191.309 74.1106 190.616 73.7823 190.061 73.1257C189.508 72.4691 189.228 71.6138 189.223 70.5606C189.223 69.465 189.486 68.5995 190.01 67.9641C190.534 67.3288 191.228 67.0107 192.088 67.0107C192.899 67.0107 193.515 67.3201 193.937 67.9382H193.962V64.5744H195.114V73.9503ZM192.261 73.1642C192.765 73.1642 193.191 72.9576 193.541 72.5437C193.89 72.1298 194.064 71.5031 194.064 70.6635C194.064 69.8365 193.904 69.1776 193.585 68.6875C193.265 68.1974 192.806 67.9524 192.209 67.9524C191.613 67.9524 191.162 68.1911 190.86 68.6686C190.558 69.1462 190.404 69.7768 190.4 70.5614C190.4 71.1245 190.481 71.5997 190.643 71.9877C190.804 72.3757 191.035 72.6702 191.334 72.8704C191.632 73.0707 191.941 73.1689 192.26 73.1642H192.261Z" fill="#FEFEFE"/>
<path d="M200.185 67.0107C201.102 67.0107 201.861 67.3091 202.462 67.906C203.063 68.5029 203.366 69.3519 203.37 70.4515C203.37 71.7858 203.044 72.7283 202.391 73.2788C201.739 73.8286 201.003 74.1058 200.185 74.1106C199.328 74.1106 198.584 73.827 197.953 73.26C197.322 72.6929 197.007 71.7929 197.007 70.5614C197.007 69.3676 197.311 68.4786 197.922 67.8942C198.531 67.3099 199.286 67.0162 200.186 67.0115L200.185 67.0107ZM200.185 73.1634C200.842 73.1634 201.34 72.9207 201.682 72.4345C202.023 71.9484 202.194 71.3091 202.194 70.5159C202.194 69.6676 202.002 69.0275 201.618 68.5972C201.234 68.1668 200.757 67.9516 200.186 67.9516C199.601 67.9516 199.122 68.1691 198.747 68.6042C198.372 69.0393 198.184 69.692 198.184 70.5614C198.184 71.423 198.374 72.0709 198.753 72.5052C199.133 72.9403 199.61 73.1595 200.186 73.1642L200.185 73.1634Z" fill="#FEFEFE"/>
<path d="M218.566 73.9504H217.415V69.6653C217.415 69.3496 217.394 69.081 217.351 68.8595C217.309 68.638 217.2 68.4393 217.025 68.265C216.851 68.0906 216.573 68.0026 216.194 68.0026C215.741 68.0026 215.352 68.1605 215.023 68.4762C214.695 68.792 214.531 69.3032 214.531 70.0117V73.9511H213.379V69.5389C213.379 68.9506 213.277 68.5477 213.072 68.3302C212.867 68.1126 212.574 68.0042 212.19 68.0042C211.696 68.0042 211.29 68.1754 210.975 68.5163C210.659 68.8579 210.499 69.4949 210.495 70.4287V73.9527H209.343V67.167H210.379V68.1134H210.405C210.865 67.3798 211.542 67.0131 212.432 67.0131C212.931 67.0131 213.34 67.1112 213.661 67.3076C213.98 67.5039 214.215 67.8016 214.364 68.2029C214.868 67.4097 215.564 67.0131 216.456 67.0131C217.16 67.0131 217.686 67.2031 218.036 67.5825C218.386 67.9618 218.562 68.5312 218.567 69.2907V73.9527L218.566 73.9504Z" fill="#FEFEFE"/>
<path d="M226.676 73.9503H225.467C225.357 73.7375 225.277 73.4579 225.231 73.1131C224.459 73.7783 223.626 74.1106 222.73 74.1106C222.014 74.1106 221.449 73.9315 221.035 73.5734C220.622 73.2152 220.415 72.7416 220.415 72.1534C220.415 71.5903 220.613 71.1277 221.009 70.7656C221.406 70.4036 222.099 70.1609 223.088 70.0368L224.163 69.8766C224.563 69.8129 224.894 69.7336 225.154 69.6402C225.154 69.2946 225.143 69.0519 225.122 68.9113C225.101 68.7707 225.038 68.6215 224.936 68.4636C224.834 68.3058 224.665 68.1817 224.431 68.0922C224.197 68.0026 223.888 67.9555 223.504 67.9516C223.009 67.9516 222.619 68.0427 222.334 68.2265C222.048 68.4095 221.85 68.7503 221.739 69.2498L220.614 69.103C220.737 68.4079 221.055 67.8856 221.567 67.5361C222.078 67.1866 222.782 67.0115 223.677 67.0115C224.492 67.0115 225.089 67.1309 225.468 67.3696C225.847 67.6084 226.082 67.9005 226.172 68.2453C226.261 68.5909 226.306 69.0299 226.306 69.5632V71.1112C226.306 72.0536 226.323 72.6843 226.357 73.004C226.391 73.3236 226.498 73.6393 226.677 73.9503H226.676ZM225.154 70.9635V70.5481C224.552 70.7483 223.817 70.9062 222.948 71.0216C222.078 71.1371 221.643 71.5054 221.643 72.1283C221.643 72.4393 221.76 72.6953 221.995 72.8956C222.23 73.0966 222.567 73.1979 223.006 73.2027C223.573 73.2027 224.072 73.0338 224.503 72.6977C224.933 72.3607 225.151 71.7827 225.156 70.9643L225.154 70.9635Z" fill="#FEFEFE"/>
<path d="M234.133 73.9503H232.976V69.8255C232.976 69.1304 232.852 68.6529 232.604 68.393C232.357 68.1322 232.01 68.0026 231.562 68.0026C231.221 68.0026 230.899 68.0859 230.596 68.2524C230.294 68.4189 230.076 68.6537 229.943 68.9561C229.811 69.2585 229.747 69.6873 229.752 70.2418V73.9511H228.6V67.1654H229.637V68.1244H229.662C229.905 67.7529 230.204 67.4764 230.558 67.2926C230.912 67.1096 231.326 67.0154 231.798 67.0107C232.156 67.0107 232.511 67.0751 232.86 67.2023C233.21 67.3303 233.483 67.522 233.679 67.778C233.875 68.034 234.001 68.3066 234.056 68.5964C234.111 68.8862 234.137 69.2789 234.133 69.7737V73.9496V73.9503Z" fill="#FEFEFE"/>
<path d="M242.282 70.8481H237.197C237.244 71.5989 237.457 72.1722 237.836 72.5688C238.216 72.9655 238.693 73.1634 239.269 73.1634C239.708 73.1634 240.077 73.0487 240.375 72.8178C240.674 72.5877 240.902 72.2358 241.06 71.7623L242.244 71.9091C242.052 72.6168 241.7 73.1602 241.188 73.5404C240.677 73.9197 240.038 74.1098 239.27 74.1098C238.251 74.1098 237.455 73.798 236.884 73.1759C236.312 72.5531 236.024 71.6986 236.021 70.6109C236.021 69.5412 236.298 68.6733 236.852 68.0081C237.406 67.3429 238.191 67.0107 239.206 67.0107C239.7 67.0107 240.176 67.1199 240.632 67.3366C241.089 67.5542 241.479 67.9233 241.803 68.4432C242.126 68.9632 242.286 69.765 242.282 70.8481H242.282ZM241.099 69.9017C241.052 69.2105 240.838 68.7142 240.459 68.411C240.079 68.1086 239.662 67.9547 239.205 67.9508C238.663 67.9508 238.218 68.1322 237.869 68.4943C237.519 68.8571 237.316 69.326 237.261 69.9017H241.099Z" fill="#FEFEFE"/>
<path d="M245.332 74.3148C245.332 74.7624 245.302 75.1465 245.243 75.4661C245.183 75.7858 245.03 76.0693 244.782 76.3167C244.534 76.5641 244.147 76.6874 243.618 76.6874C243.315 76.6874 243.014 76.6489 242.716 76.572L242.94 75.5997C243.153 75.6593 243.332 75.6892 243.477 75.6892C243.724 75.6892 243.903 75.6059 244.014 75.4394C244.125 75.2729 244.181 74.8897 244.181 74.2881V67.1638H245.332V74.314V74.3148ZM245.332 65.879H244.181V64.5744H245.332V65.879Z" fill="#FEFEFE"/>
<path d="M250.366 67.0107C251.282 67.0107 252.042 67.3091 252.642 67.906C253.244 68.5029 253.546 69.3519 253.55 70.4515C253.55 71.7858 253.224 72.7283 252.572 73.2788C251.919 73.8286 251.184 74.1058 250.366 74.1106C249.509 74.1106 248.764 73.827 248.134 73.26C247.503 72.6929 247.187 71.7929 247.187 70.5614C247.187 69.3676 247.492 68.4786 248.102 67.8942C248.712 67.3099 249.466 67.0162 250.366 67.0115L250.366 67.0107ZM250.366 73.1634C251.022 73.1634 251.521 72.9207 251.863 72.4345C252.203 71.9484 252.375 71.3091 252.375 70.5159C252.375 69.6676 252.183 69.0275 251.799 68.5972C251.415 68.1668 250.937 67.9516 250.366 67.9516C249.782 67.9516 249.302 68.1691 248.928 68.6042C248.552 69.0393 248.364 69.692 248.364 70.5614C248.364 71.423 248.554 72.0709 248.934 72.5052C249.313 72.9403 249.791 73.1595 250.366 73.1642L250.366 73.1634Z" fill="#FEFEFE"/>
<path d="M132.024 79.5297L131.851 80.5405C131.621 80.4981 131.395 80.4769 131.173 80.4769C130.896 80.4769 130.67 80.5342 130.495 80.6497C130.32 80.7643 130.231 81.0565 130.227 81.5254V82.1647H131.538V83.0537H130.227V88.9504H129.075V83.0537H128.052V82.1647H129.075V81.4296C129.075 81.0887 129.108 80.7793 129.171 80.502C129.235 80.2248 129.404 79.9758 129.676 79.7543C129.949 79.5328 130.373 79.4198 130.949 79.415C131.29 79.415 131.648 79.4535 132.023 79.5297H132.024Z" fill="#FEFEFE"/>
<path d="M134.128 88.9504H132.977V79.5745H134.128V88.9504Z" fill="#FEFEFE"/>
<path d="M139.161 82.0107C140.078 82.0107 140.837 82.3092 141.438 82.9061C142.039 83.503 142.342 84.3512 142.346 85.4515C142.346 86.7859 142.02 87.7283 141.368 88.2781C140.715 88.8279 139.98 89.1051 139.161 89.1098C138.305 89.1098 137.56 88.8263 136.929 88.2593C136.298 87.6922 135.983 86.793 135.983 85.5607C135.983 84.3669 136.288 83.4778 136.898 82.8935C137.507 82.3092 138.262 82.0155 139.162 82.0107H139.161ZM139.161 88.1634C139.818 88.1634 140.317 87.9208 140.658 87.4346C140.999 86.9485 141.17 86.3084 141.17 85.5159C141.17 84.6677 140.978 84.0276 140.594 83.5972C140.211 83.166 139.732 82.9509 139.161 82.9509C138.577 82.9509 138.097 83.1684 137.722 83.6035C137.346 84.0386 137.159 84.6913 137.159 85.5607C137.159 86.4223 137.349 87.0702 137.728 87.5053C138.107 87.9396 138.585 88.1595 139.161 88.1642L139.161 88.1634Z" fill="#FEFEFE"/>
<path d="M147.853 82.3752L147.457 83.437C147.171 83.2705 146.892 83.188 146.619 83.188C146.188 83.188 145.862 83.3797 145.64 83.7629C145.419 84.147 145.308 84.6881 145.308 85.3879V88.9504H144.156V82.1647H145.206V83.188H145.231C145.598 82.4034 146.078 82.0107 146.671 82.0107C147.063 82.0107 147.457 82.1317 147.853 82.3752Z" fill="#FEFEFE"/>
<path d="M154.965 85.8481H149.88C149.927 86.5982 150.141 87.1723 150.52 87.5689C150.9 87.9655 151.377 88.1635 151.953 88.1635C152.392 88.1635 152.761 88.048 153.06 87.8179C153.358 87.5878 153.587 87.2359 153.744 86.7623L154.928 86.9092C154.736 87.6168 154.384 88.1603 153.872 88.5404C153.36 88.9198 152.721 89.1098 151.954 89.1098C150.935 89.1098 150.139 88.7988 149.568 88.176C148.997 87.5532 148.709 86.6987 148.705 85.6117C148.705 84.5413 148.982 83.6742 149.536 83.009C150.09 82.3438 150.875 82.0115 151.89 82.0115C152.384 82.0115 152.86 82.1207 153.316 82.3375C153.773 82.555 154.163 82.9234 154.487 83.4441C154.81 83.9648 154.97 84.7659 154.966 85.8489L154.965 85.8481ZM153.782 84.9018C153.735 84.2106 153.521 83.7143 153.142 83.4111C152.763 83.1087 152.345 82.9548 151.889 82.9501C151.347 82.9501 150.901 83.1315 150.552 83.4936C150.202 83.8564 150 84.3253 149.945 84.901H153.782V84.9018Z" fill="#FEFEFE"/>
<path d="M160.651 84.0638C160.6 83.6923 160.45 83.4158 160.203 83.232C159.956 83.049 159.609 82.9548 159.161 82.9501C158.722 82.9501 158.368 83.0247 158.099 83.1739C157.831 83.3231 157.694 83.5407 157.69 83.8266C157.69 84.0952 157.797 84.2868 158.01 84.4023C158.223 84.5169 158.649 84.6583 159.288 84.824C160.005 85.007 160.54 85.1696 160.894 85.3102C161.247 85.4507 161.524 85.6471 161.725 85.8984C161.926 86.1505 162.026 86.5039 162.026 86.9602C162.026 87.5658 161.778 88.0755 161.283 88.4894C160.789 88.9025 160.128 89.1098 159.3 89.1098C158.439 89.1098 157.768 88.9284 157.286 88.5664C156.803 88.2035 156.505 87.6561 156.39 86.9226L157.535 86.7498C157.595 87.2234 157.77 87.5768 158.059 87.8116C158.349 88.0456 158.758 88.1635 159.288 88.1635C159.791 88.1635 160.177 88.059 160.445 87.8501C160.714 87.6412 160.848 87.3836 160.848 87.0765C160.848 86.8715 160.787 86.7074 160.663 86.584C160.54 86.4607 160.386 86.3689 160.203 86.3092C160.02 86.2495 159.601 86.1387 158.949 85.9769C157.985 85.7468 157.35 85.4672 157.044 85.1397C156.737 84.8114 156.581 84.4188 156.577 83.9624C156.577 83.3954 156.803 82.9281 157.254 82.5621C157.707 82.1953 158.314 82.0123 159.077 82.0123C159.887 82.0123 160.516 82.1702 160.964 82.4859C161.411 82.8016 161.682 83.2768 161.776 83.9122L160.65 84.0653L160.651 84.0638Z" fill="#FEFEFE"/>
<path d="M166.573 88.9371C166.232 89.0054 165.944 89.0391 165.71 89.0391C165.206 89.0391 164.84 88.952 164.609 88.7768C164.379 88.6025 164.239 88.3763 164.187 88.099C164.136 87.8218 164.11 87.4425 164.11 86.961V83.0537H163.272V82.1647H164.11V80.4761L165.261 79.7787V82.1647H166.413V83.0537H165.261V87.0254C165.261 87.3663 165.295 87.6074 165.363 87.748C165.432 87.8886 165.611 87.9608 165.901 87.9655C166.067 87.9655 166.238 87.9483 166.413 87.9145L166.573 88.9378V88.9371Z" fill="#FEFEFE"/>
<path d="M173.96 88.9504H172.752C172.641 88.7376 172.562 88.458 172.515 88.1124C171.743 88.7776 170.91 89.1098 170.015 89.1098C169.298 89.1098 168.734 88.9308 168.32 88.5726C167.906 88.2145 167.699 87.7409 167.699 87.1527C167.699 86.5895 167.898 86.1269 168.294 85.7649C168.69 85.402 169.383 85.1593 170.373 85.036L171.447 84.8758C171.848 84.8122 172.178 84.7329 172.438 84.6394C172.438 84.2939 172.428 84.0512 172.407 83.9106C172.386 83.77 172.324 83.6208 172.221 83.4629C172.119 83.3051 171.95 83.1818 171.716 83.0922C171.482 83.0027 171.173 82.9556 170.79 82.9516C170.295 82.9516 169.905 83.0435 169.619 83.2265C169.334 83.4095 169.136 83.7512 169.025 84.2499L167.899 84.1022C168.023 83.4072 168.341 82.8849 168.852 82.5354C169.364 82.1851 170.067 82.0107 170.962 82.0107C171.777 82.0107 172.374 82.1301 172.753 82.3689C173.133 82.6076 173.367 82.8998 173.457 83.2446C173.546 83.5902 173.591 84.0292 173.591 84.5625V86.1105C173.591 87.0529 173.608 87.6836 173.642 88.0032C173.676 88.3229 173.783 88.6378 173.962 88.9496L173.96 88.9504ZM172.438 85.9636V85.5481C171.837 85.7484 171.102 85.9063 170.232 86.0217C169.363 86.1364 168.928 86.5055 168.928 87.1283C168.928 87.4401 169.045 87.6954 169.279 87.8956C169.513 88.0959 169.851 88.198 170.29 88.2027C170.857 88.2027 171.356 88.0346 171.786 87.6977C172.218 87.3608 172.434 86.7835 172.439 85.9652L172.438 85.9636Z" fill="#FEFEFE"/>
<path d="M177.023 88.9504H175.873V79.5745H177.023V88.9504Z" fill="#FEFEFE"/>
<path d="M187.103 82.3752L186.706 83.437C186.42 83.2705 186.142 83.188 185.868 83.188C185.438 83.188 185.112 83.3797 184.89 83.7629C184.668 84.147 184.557 84.6881 184.557 85.3879V88.9504H183.406V82.1647H184.455V83.188H184.48C184.847 82.4034 185.326 82.0107 185.919 82.0107C186.312 82.0107 186.706 82.1317 187.103 82.3752Z" fill="#FEFEFE"/>
<path d="M194.215 85.8481H189.131C189.178 86.5982 189.391 87.1723 189.77 87.5689C190.149 87.9655 190.627 88.1635 191.203 88.1635C191.642 88.1635 192.01 88.048 192.309 87.8179C192.608 87.5878 192.835 87.2359 192.994 86.7623L194.177 86.9092C193.985 87.6168 193.633 88.1603 193.121 88.5404C192.609 88.9198 191.97 89.1098 191.203 89.1098C190.184 89.1098 189.388 88.7988 188.817 88.176C188.245 87.5532 187.957 86.6987 187.953 85.6117C187.953 84.5413 188.23 83.6742 188.784 83.009C189.339 82.3438 190.123 82.0115 191.138 82.0115C191.633 82.0115 192.108 82.1207 192.564 82.3375C193.021 82.555 193.41 82.9234 193.735 83.4441C194.058 83.9648 194.218 84.7659 194.215 85.8489L194.215 85.8481ZM193.032 84.9018C192.985 84.2106 192.772 83.7143 192.392 83.4111C192.013 83.1087 191.595 82.9548 191.139 82.9501C190.598 82.9501 190.153 83.1315 189.802 83.4936C189.453 83.8564 189.25 84.3253 189.194 84.901H193.032V84.9018Z" fill="#FEFEFE"/>
<path d="M199.901 84.0638C199.85 83.6923 199.7 83.4158 199.453 83.232C199.206 83.049 198.859 82.9548 198.41 82.9501C197.971 82.9501 197.617 83.0247 197.348 83.1739C197.08 83.3231 196.944 83.5407 196.939 83.8266C196.939 84.0952 197.046 84.2868 197.259 84.4023C197.472 84.5169 197.899 84.6583 198.538 84.824C199.254 85.007 199.789 85.1696 200.143 85.3102C200.498 85.4507 200.775 85.6471 200.975 85.8984C201.175 86.1505 201.276 86.5039 201.276 86.9602C201.276 87.5658 201.029 88.0755 200.534 88.4894C200.04 88.9025 199.378 89.1098 198.551 89.1098C197.69 89.1098 197.018 88.9284 196.537 88.5664C196.055 88.2035 195.757 87.6561 195.642 86.9226L196.787 86.7498C196.846 87.2234 197.022 87.5768 197.311 87.8116C197.601 88.0456 198.01 88.1635 198.54 88.1635C199.043 88.1635 199.429 88.059 199.697 87.8501C199.966 87.6412 200.1 87.3836 200.1 87.0765C200.1 86.8715 200.038 86.7074 199.915 86.584C199.792 86.4607 199.638 86.3689 199.455 86.3092C199.272 86.2495 198.853 86.1387 198.201 85.9769C197.238 85.7468 196.602 85.4672 196.295 85.1397C195.988 84.8114 195.832 84.4188 195.829 83.9624C195.829 83.3954 196.055 82.9281 196.506 82.5621C196.959 82.1953 197.566 82.0123 198.329 82.0123C199.14 82.0123 199.769 82.1702 200.216 82.4859C200.663 82.8016 200.934 83.2768 201.028 83.9122L199.902 84.0653L199.901 84.0638Z" fill="#FEFEFE"/>
<path d="M204.263 83.0404C204.693 82.354 205.34 82.0107 206.2 82.0107C207.092 82.0107 207.795 82.3328 208.311 82.9768C208.827 83.6208 209.085 84.4627 209.085 85.5034C209.085 86.6076 208.799 87.4841 208.228 88.132C207.657 88.78 206.956 89.1067 206.124 89.1106C205.395 89.1106 204.811 88.8208 204.372 88.2412H204.34V91.5602H203.188V82.1655H204.237V83.0412H204.263V83.0404ZM206.047 88.1634C206.584 88.1634 207.028 87.942 207.378 87.4982C207.727 87.0553 207.904 86.3901 207.909 85.5026C207.909 84.6708 207.74 84.0315 207.404 83.5839C207.067 83.1362 206.632 82.9124 206.099 82.9124C205.553 82.9124 205.105 83.1621 204.756 83.6608C204.406 84.1596 204.23 84.8059 204.225 85.5984C204.225 86.438 204.394 87.0757 204.73 87.5108C205.067 87.9451 205.506 88.1634 206.048 88.1634H206.047Z" fill="#FEFEFE"/>
<path d="M213.734 82.0107C214.651 82.0107 215.41 82.3092 216.011 82.9061C216.613 83.503 216.915 84.3512 216.919 85.4515C216.919 86.7859 216.593 87.7283 215.941 88.2781C215.288 88.8279 214.553 89.1051 213.734 89.1098C212.878 89.1098 212.133 88.8263 211.502 88.2593C210.872 87.6922 210.556 86.793 210.556 85.5607C210.556 84.3669 210.861 83.4778 211.471 82.8935C212.08 82.3092 212.835 82.0155 213.735 82.0107H213.734ZM213.734 88.1634C214.391 88.1634 214.89 87.9208 215.231 87.4346C215.572 86.9485 215.743 86.3084 215.743 85.5159C215.743 84.6677 215.551 84.0276 215.167 83.5972C214.784 83.166 214.306 82.9509 213.734 82.9509C213.15 82.9509 212.67 83.1684 212.296 83.6035C211.92 84.0386 211.733 84.6913 211.733 85.5607C211.733 86.4223 211.923 87.0702 212.302 87.5053C212.681 87.9396 213.159 88.1595 213.734 88.1642V88.1634Z" fill="#FEFEFE"/>
<path d="M224.313 88.9504H223.155V84.8248C223.155 84.1297 223.031 83.6522 222.784 83.3922C222.536 83.1323 222.189 83.0019 221.741 83.0019C221.4 83.0019 221.079 83.0852 220.775 83.2517C220.473 83.4182 220.255 83.6522 220.123 83.9554C219.991 84.2577 219.926 84.6865 219.931 85.241V88.9504H218.78V82.1647H219.816V83.1236H219.842C220.084 82.7529 220.384 82.4757 220.737 82.2919C221.091 82.1089 221.504 82.0147 221.978 82.0107C222.336 82.0107 222.69 82.0744 223.04 82.2024C223.389 82.3304 223.663 82.522 223.858 82.7781C224.054 83.0333 224.18 83.3066 224.235 83.5964C224.291 83.8862 224.316 84.2781 224.312 84.7729V88.9496L224.313 88.9504Z" fill="#FEFEFE"/>
<path d="M230.351 84.0638C230.3 83.6923 230.15 83.4158 229.903 83.232C229.656 83.049 229.309 82.9548 228.861 82.9501C228.422 82.9501 228.068 83.0247 227.799 83.1739C227.53 83.3231 227.394 83.5407 227.39 83.8266C227.39 84.0952 227.497 84.2868 227.71 84.4023C227.922 84.5169 228.349 84.6583 228.988 84.824C229.704 85.007 230.239 85.1696 230.593 85.3102C230.947 85.4507 231.224 85.6471 231.424 85.8984C231.625 86.1505 231.725 86.5039 231.725 86.9602C231.725 87.5658 231.478 88.0755 230.983 88.4894C230.488 88.9025 229.828 89.1098 229 89.1098C228.138 89.1098 227.468 88.9284 226.985 88.5664C226.503 88.2035 226.205 87.6561 226.09 86.9226L227.235 86.7498C227.295 87.2234 227.469 87.5768 227.759 87.8116C228.049 88.0456 228.458 88.1635 228.987 88.1635C229.491 88.1635 229.876 88.059 230.145 87.8501C230.414 87.6412 230.548 87.3836 230.548 87.0765C230.548 86.8715 230.487 86.7074 230.363 86.584C230.239 86.4607 230.085 86.3689 229.902 86.3092C229.719 86.2495 229.301 86.1387 228.649 85.9769C227.685 85.7468 227.05 85.4672 226.744 85.1397C226.436 84.8114 226.281 84.4188 226.276 83.9624C226.276 83.3954 226.502 82.9281 226.954 82.5621C227.406 82.1953 228.013 82.0123 228.777 82.0123C229.587 82.0123 230.216 82.1702 230.663 82.4859C231.111 82.8016 231.382 83.2768 231.475 83.9122L230.35 84.0653L230.351 84.0638Z" fill="#FEFEFE"/>
<path d="M239.508 88.9504H238.3C238.189 88.7376 238.11 88.458 238.063 88.1124C237.291 88.7776 236.458 89.1098 235.563 89.1098C234.846 89.1098 234.282 88.9308 233.868 88.5726C233.454 88.2145 233.247 87.7409 233.247 87.1527C233.247 86.5895 233.446 86.127 233.842 85.7649C234.238 85.402 234.931 85.1594 235.92 85.0361L236.994 84.8758C237.396 84.8122 237.726 84.7329 237.986 84.6394C237.986 84.2939 237.975 84.0512 237.954 83.9106C237.933 83.77 237.871 83.6208 237.769 83.4629C237.667 83.3051 237.498 83.1818 237.264 83.0922C237.03 83.0027 236.72 82.9556 236.336 82.9516C235.842 82.9516 235.451 83.0435 235.166 83.2265C234.88 83.4095 234.682 83.7512 234.571 84.2499L233.446 84.1022C233.569 83.4072 233.887 82.8849 234.399 82.5354C234.911 82.1851 235.614 82.0108 236.509 82.0108C237.323 82.0108 237.92 82.1301 238.3 82.3689C238.679 82.6076 238.914 82.8998 239.003 83.2446C239.093 83.5902 239.138 84.0292 239.138 84.5625V86.1105C239.138 87.0529 239.155 87.6836 239.189 88.0032C239.223 88.3229 239.329 88.6378 239.508 88.9496V88.9504ZM237.986 85.9636V85.5481C237.385 85.7484 236.65 85.9063 235.78 86.0217C234.911 86.1364 234.476 86.5055 234.476 87.1283C234.476 87.4401 234.593 87.6954 234.827 87.8956C235.062 88.0959 235.398 88.198 235.838 88.2027C236.405 88.2027 236.904 88.0347 237.334 87.6977C237.766 87.3608 237.982 86.7835 237.987 85.9652L237.986 85.9636ZM238.044 79.4143L236.631 81.2112H235.684L236.535 79.4143H238.044H238.044Z" fill="#FEFEFE"/>
<path d="M246.934 82.1647L244.369 88.9504H243.295L240.717 82.1647H241.932L243.332 86.0916C243.596 86.8338 243.755 87.3364 243.806 87.6011H243.832C243.9 87.3286 244.017 86.961 244.184 86.5008L245.757 82.1647H246.934Z" fill="#FEFEFE"/>
<path d="M254.379 85.8481H249.294C249.341 86.5982 249.554 87.1723 249.934 87.5689C250.313 87.9655 250.79 88.1635 251.366 88.1635C251.805 88.1635 252.174 88.048 252.473 87.8179C252.771 87.5878 252.999 87.2359 253.157 86.7623L254.34 86.9092C254.149 87.6168 253.797 88.1603 253.285 88.5404C252.773 88.9198 252.133 89.1098 251.366 89.1098C250.347 89.1098 249.552 88.7988 248.981 88.176C248.409 87.5532 248.122 86.6987 248.117 85.6117C248.117 84.5413 248.394 83.6742 248.949 83.009C249.503 82.3438 250.288 82.0115 251.302 82.0115C251.797 82.0115 252.272 82.1207 252.729 82.3375C253.185 82.555 253.575 82.9234 253.899 83.4441C254.223 83.9648 254.383 84.7659 254.379 85.8489V85.8481ZM253.195 84.9018C253.148 84.2106 252.935 83.7143 252.556 83.4111C252.177 83.1087 251.759 82.9548 251.302 82.9501C250.761 82.9501 250.316 83.1315 249.966 83.4936C249.615 83.8564 249.414 84.3253 249.358 84.901H253.195V84.9018Z" fill="#FEFEFE"/>
<path d="M257.429 88.9504H256.278V79.5745H257.429V88.9504Z" fill="#FEFEFE"/>
<path d="M151.582 106.688H146.498V109.59H150.904V110.704H146.498V114.951H145.258V105.574H151.582V106.688Z" fill="#FEFEFE"/>
<path d="M159.296 108.324C159.245 107.727 159.029 107.28 158.65 106.981C158.271 106.683 157.726 106.531 157.019 106.527C156.379 106.527 155.859 106.647 155.458 106.885C155.057 107.124 154.857 107.472 154.857 107.928C154.857 108.333 155.01 108.634 155.318 108.83C155.625 109.026 156.217 109.224 157.096 109.425C157.872 109.595 158.505 109.77 158.996 109.949C159.486 110.128 159.906 110.406 160.255 110.781C160.605 111.156 160.78 111.664 160.78 112.303C160.78 113.109 160.46 113.778 159.821 114.311C159.181 114.845 158.344 115.111 157.307 115.111C155.989 115.111 155.004 114.816 154.352 114.228C153.7 113.64 153.353 112.876 153.31 111.939L154.487 111.836C154.543 112.587 154.833 113.132 155.357 113.474C155.882 113.815 156.515 113.988 157.257 113.992C157.952 113.992 158.513 113.849 158.938 113.564C159.365 113.278 159.58 112.89 159.584 112.4C159.584 111.888 159.36 111.514 158.912 111.28C158.465 111.046 157.714 110.815 156.661 110.589C155.607 110.363 154.846 110.041 154.378 109.623C153.909 109.205 153.676 108.668 153.681 108.012C153.681 107.261 153.975 106.641 154.564 106.15C155.152 105.66 155.954 105.415 156.968 105.415C158.009 105.415 158.845 105.658 159.475 106.144C160.106 106.63 160.443 107.325 160.485 108.229L159.296 108.325L159.296 108.324Z" fill="#FEFEFE"/>
<path d="M170.917 111.976C170.644 113.03 170.168 113.814 169.491 114.33C168.813 114.846 167.996 115.106 167.041 115.111C165.506 115.111 164.389 114.631 163.69 113.671C162.991 112.712 162.639 111.555 162.634 110.198C162.634 108.701 163.046 107.531 163.869 106.687C164.692 105.842 165.753 105.418 167.054 105.414C167.966 105.414 168.746 105.646 169.394 106.111C170.042 106.575 170.497 107.256 170.757 108.151L169.542 108.439C169.337 107.786 169.026 107.296 168.608 106.968C168.19 106.64 167.668 106.475 167.041 106.475C166.018 106.475 165.242 106.81 164.713 107.48C164.185 108.149 163.92 109.051 163.92 110.186C163.92 111.49 164.197 112.46 164.752 113.095C165.306 113.731 166.033 114.049 166.933 114.049C167.666 114.049 168.262 113.85 168.717 113.454C169.173 113.058 169.495 112.461 169.683 111.664L170.918 111.977L170.917 111.976Z" fill="#FEFEFE"/>
<path d="M176.477 105.516C177.136 105.516 177.702 105.751 178.175 106.223C178.648 106.694 178.885 107.262 178.885 107.927C178.885 108.59 178.649 109.158 178.179 109.631C177.707 110.105 177.14 110.341 176.477 110.341C175.811 110.341 175.243 110.106 174.769 109.634C174.296 109.163 174.059 108.594 174.059 107.927C174.059 107.264 174.296 106.697 174.769 106.226C175.243 105.754 175.812 105.518 176.477 105.516ZM176.47 109.945C177.022 109.945 177.496 109.748 177.89 109.353C178.285 108.959 178.483 108.484 178.485 107.927C178.485 107.372 178.288 106.9 177.893 106.507C177.499 106.114 177.025 105.918 176.47 105.915C175.916 105.915 175.443 106.112 175.05 106.504C174.658 106.896 174.461 107.37 174.459 107.927C174.459 108.481 174.655 108.955 175.047 109.35C175.44 109.744 175.913 109.943 176.47 109.944V109.945ZM177.596 109.264H177.084C176.762 108.678 176.552 108.347 176.454 108.272C176.356 108.198 176.232 108.16 176.083 108.16H175.833V109.264H175.414V106.67H176.312C176.581 106.67 176.788 106.689 176.933 106.728C177.078 106.766 177.195 106.847 177.285 106.97C177.374 107.094 177.419 107.227 177.419 107.37C177.419 107.547 177.355 107.708 177.227 107.853C177.099 107.998 176.916 108.079 176.677 108.096V108.108C176.832 108.144 177.034 108.36 177.282 108.758L177.595 109.263L177.596 109.264ZM175.833 107.803H176.345C176.58 107.803 176.743 107.769 176.835 107.701C176.927 107.632 176.972 107.536 176.972 107.409C176.972 107.288 176.928 107.193 176.841 107.125C176.754 107.057 176.578 107.023 176.313 107.023H175.833V107.804V107.803Z" fill="#FEFEFE"/>
<path d="M194.764 111.976C194.492 113.03 194.016 113.814 193.338 114.33C192.66 114.846 191.843 115.106 190.888 115.111C189.354 115.111 188.236 114.631 187.537 113.671C186.838 112.712 186.486 111.555 186.482 110.198C186.482 108.701 186.893 107.531 187.716 106.687C188.539 105.842 189.6 105.418 190.901 105.414C191.814 105.414 192.593 105.646 193.241 106.111C193.889 106.575 194.343 107.256 194.603 108.151L193.388 108.439C193.184 107.786 192.872 107.296 192.454 106.968C192.037 106.64 191.514 106.475 190.888 106.475C189.864 106.475 189.088 106.81 188.56 107.48C188.031 108.149 187.766 109.051 187.766 110.186C187.766 111.49 188.044 112.46 188.598 113.095C189.152 113.731 189.879 114.049 190.779 114.049C191.513 114.049 192.107 113.85 192.564 113.454C193.02 113.058 193.342 112.461 193.53 111.664L194.764 111.977V111.976Z" fill="#FEFEFE"/>
<path d="M200.699 114.951H199.548V107.614C198.972 108.16 198.203 108.623 197.239 109.002V107.889C198.565 107.254 199.469 106.468 199.951 105.529H200.699V114.95V114.951Z" fill="#FEFEFE"/>
<path d="M208.547 109.879C209.127 109.989 209.564 110.269 209.858 110.716C210.152 111.163 210.301 111.653 210.305 112.187C210.305 113.04 209.996 113.739 209.378 114.285C208.76 114.83 208.016 115.105 207.146 115.11C206.319 115.11 205.636 114.869 205.099 114.387C204.562 113.905 204.249 113.268 204.159 112.475L205.31 112.315C205.426 112.933 205.635 113.395 205.937 113.703C206.24 114.01 206.642 114.163 207.146 114.163C207.683 114.163 208.137 113.975 208.508 113.6C208.879 113.224 209.066 112.762 209.071 112.212C209.071 111.688 208.903 111.253 208.566 110.907C208.229 110.562 207.786 110.389 207.236 110.389C207.015 110.389 206.744 110.43 206.424 110.511L206.558 109.5C206.865 109.5 207.108 109.485 207.287 109.455C207.466 109.425 207.667 109.353 207.889 109.238C208.11 109.122 208.293 108.958 208.439 108.745C208.584 108.532 208.656 108.263 208.656 107.939C208.656 107.475 208.503 107.115 208.196 106.859C207.889 106.603 207.531 106.475 207.122 106.475C206.657 106.475 206.28 106.622 205.99 106.916C205.7 107.21 205.515 107.631 205.434 108.176L204.282 107.965C204.432 107.15 204.76 106.541 205.267 106.135C205.775 105.73 206.384 105.527 207.096 105.527C207.877 105.527 208.527 105.762 209.047 106.231C209.567 106.7 209.83 107.278 209.833 107.965C209.833 108.839 209.405 109.468 208.548 109.851V109.877L208.547 109.879Z" fill="#FEFEFE"/>
<path d="M216.344 109.879C217.516 110.254 218.103 111.053 218.103 112.276C218.103 113.082 217.815 113.756 217.239 114.298C216.663 114.839 215.923 115.11 215.019 115.11C214.107 115.11 213.365 114.837 212.794 114.292C212.223 113.746 211.935 113.062 211.93 112.239C211.93 111.646 212.091 111.128 212.41 110.684C212.73 110.241 213.165 109.972 213.715 109.879V109.853C212.777 109.563 212.308 108.93 212.308 107.953C212.308 107.262 212.556 106.687 213.05 106.226C213.544 105.765 214.193 105.533 214.994 105.529C215.809 105.529 216.465 105.768 216.964 106.245C217.463 106.723 217.714 107.301 217.719 107.979C217.719 108.9 217.261 109.524 216.344 109.853V109.879ZM215.019 109.425C215.451 109.425 215.81 109.288 216.1 109.015C216.39 108.743 216.537 108.397 216.541 107.979C216.541 107.557 216.395 107.201 216.1 106.911C215.806 106.622 215.441 106.476 215.007 106.476C214.568 106.476 214.205 106.619 213.919 106.905C213.633 107.191 213.49 107.528 213.49 107.916C213.49 108.38 213.637 108.748 213.932 109.015C214.225 109.284 214.588 109.421 215.019 109.425H215.019ZM215.019 114.164C215.561 114.164 216.013 113.989 216.376 113.64C216.739 113.29 216.919 112.836 216.919 112.277C216.919 111.719 216.734 111.26 216.363 110.902C215.992 110.544 215.536 110.365 214.994 110.365C214.436 110.365 213.981 110.548 213.632 110.914C213.282 111.281 213.108 111.727 213.108 112.251C213.108 112.793 213.287 113.247 213.645 113.613C214.003 113.98 214.462 114.163 215.02 114.163L215.019 114.164Z" fill="#FEFEFE"/>
<path d="M225.854 112.711H224.587V114.95H223.435V112.711H219.374V111.65L223.64 105.574H224.587V111.65H225.854V112.711ZM223.436 111.65V107.416H223.411L220.501 111.65H223.437H223.436Z" fill="#FEFEFE"/>
<path d="M232.524 110.537C232.298 110.904 231.989 111.2 231.597 111.427C231.205 111.653 230.777 111.766 230.312 111.766C229.54 111.766 228.885 111.484 228.348 110.922C227.811 110.358 227.541 109.619 227.536 108.702C227.536 107.773 227.811 107.011 228.361 106.419C228.911 105.826 229.62 105.53 230.485 105.53C231.355 105.53 232.108 105.869 232.743 106.547C233.378 107.225 233.696 108.397 233.696 110.064C233.696 111.756 233.406 113.021 232.826 113.856C232.246 114.692 231.417 115.11 230.338 115.11C229.635 115.11 229.046 114.918 228.574 114.534C228.1 114.15 227.812 113.564 227.71 112.775L228.81 112.685C228.984 113.67 229.503 114.163 230.364 114.163C231.072 114.163 231.613 113.841 231.988 113.197C232.364 112.553 232.551 111.666 232.551 110.537H232.526L232.524 110.537ZM230.586 110.761C231.15 110.761 231.595 110.563 231.923 110.167C232.251 109.77 232.417 109.265 232.422 108.651C232.422 108.033 232.254 107.517 231.917 107.103C231.58 106.689 231.145 106.48 230.612 106.476C230.079 106.476 229.629 106.696 229.263 107.135C228.896 107.574 228.713 108.11 228.713 108.74C228.713 109.333 228.892 109.817 229.251 110.192C229.609 110.567 230.055 110.757 230.587 110.761H230.586Z" fill="#FEFEFE"/>
<path d="M241.446 112.711H240.18V114.95H239.029V112.711H234.967V111.65L239.233 105.574H240.18V111.65H241.446V112.711ZM239.029 111.65V107.416H239.003L236.093 111.65H239.029Z" fill="#FEFEFE"/>
</g>
<defs>
<clipPath id="clip0_230_73">
<rect width="257.429" height="129.608" fill="white"/>
</clipPath>
</defs>
</svg>
