<?xml version="1.0" encoding="UTF-8"?>
<svg id="Camada_1" data-name="Camada 1" xmlns="http://www.w3.org/2000/svg" viewBox="0 0 14.92 5.43">
  <defs>
    <style>
      .cls-1 {
        fill: #9d9c9c;
        stroke-width: 0px;
      }
    </style>
  </defs>
  <path class="cls-1" d="m12.16,1.5s0-.01,0-.02h0s-.44-.81-.44-.81c-.06-.07-.07-.11-.07-.12.01-.03.1-.06.17-.06l2.18-.08s.02,0,.04,0c0,0,.02,0,.03.01,0,.02-.01.08-.04.11l-1.25,1.8c-.06.07-.09.09-.1.08-.03,0-.07-.09-.09-.16v-.02s-.42-.75-.42-.75Zm.46,1.08c.09.02.18-.02.27-.14l1.25-1.8s.1-.15.06-.26c-.02-.05-.08-.12-.21-.12l-2.19.08s-.25.02-.31.16c-.03.08,0,.17.09.28l.4.73c-.67.44-6.83,4.38-11.16,3.34-.08-.04-.19.08-.04.16,4.37,1.06,10.54-2.88,11.27-3.36l.37.68c.01.06.07.23.19.27Z"/>
</svg>