<?xml version="1.0" encoding="UTF-8"?>
<svg id="Camada_1" data-name="Camada 1" xmlns="http://www.w3.org/2000/svg" viewBox="0 0 14.86 10.96">
  <defs>
    <style>
      .cls-1 {
        fill: #436d17;
        stroke-width: 0px;
      }
    </style>
  </defs>
  <path class="cls-1" d="m1.77,2.23s0,0,0,0c0,0-.01,0-.02.02l-.72.49s-.04.05-.08.08c-.04.02-.06.03-.07.02-.01,0-.04-.04-.05-.12L.53.55s0-.11.02-.12c0,0,.03,0,.07.01l1.9,1.06c.06.03.12.1.12.13,0,.01-.02.03-.03.04-.02.01-.05.03-.08.04h0s-.75.51-.75.51Zm-.74.72c.05-.03.09-.08.11-.1l.64-.43c.43.76,4.13,7.07,8.51,8.12,1.47.35,2.87.08,4.17-.8.04-.02.04-.07.02-.11-.02-.04-.07-.05-.11-.02-1.26.86-2.62,1.12-4.05.78C5.99,9.34,2.3,3.02,1.91,2.33l.68-.47c.17-.06.21-.16.21-.23,0-.14-.17-.24-.2-.26L.69.31c-.1-.04-.17-.04-.23,0-.11.07-.09.24-.09.27l.29,2.17c.02.13.07.21.15.24.04.02.12.03.22-.04Z"/>
</svg>