<?xml version="1.0" encoding="UTF-8"?>
<svg id="Camada_1" data-name="Camada 1" xmlns="http://www.w3.org/2000/svg" viewBox="0 0 13.96 11.58">
  <defs>
    <style>
      .cls-1 {
        fill: #9d9c9c;
        stroke-width: 0px;
      }
    </style>
  </defs>
  <path class="cls-1" d="m12.45,9.32s-.01,0-.02.01h0s-.79.46-.79.46c-.09.02-.12.05-.12.07,0,.03.06.1.11.14l1.83,1.19s.02.01.03.01c0,0,.02,0,.03,0,.02-.01.03-.07.03-.12l-.14-2.18c-.01-.09-.04-.12-.05-.12-.03,0-.11.04-.16.09h-.02s-.74.44-.74.44Zm.95-.69c.09.03.14.11.16.26l.14,2.19s0,.18-.08.25c-.04.03-.13.06-.24,0l-1.84-1.2s-.21-.15-.18-.3c.01-.09.09-.15.22-.19l.72-.42c-.34-.72-3.58-7.28-7.84-8.62C3.07.17,1.69.34.37,1.11c-.04.02-.08,0-.11-.03-.02-.04,0-.09.03-.11C1.6.21,2.96.02,4.34.41c.06.02.11.03.17.05,4.29,1.35,7.55,7.9,7.92,8.69l.67-.39s.18-.16.3-.13Z"/>
</svg>