<?xml version="1.0" encoding="UTF-8"?>
<svg id="Camada_1" data-name="Camada 1" xmlns="http://www.w3.org/2000/svg" viewBox="0 0 23.38 19.76">
  <defs>
    <style>
      .cls-1 {
        fill: #a8cf45;
        stroke-width: 0px;
      }
    </style>
  </defs>
  <path class="cls-1" d="m22.32,14.15c-.33-.17-.69.07-.8.16l-.73.61c-.44-2.4-2.32-10.57-7.95-13.34C9.54-.04,5.53.48.94,3.13c-.06.04-.11.09-.14.15-.04.1-.04.21.02.31.09.16.3.22.46.12C5.66,1.18,9.45.67,12.55,2.19c5.53,2.72,7.3,11.25,7.62,13.05l-1.26.05c-.38.04-.54.21-.6.35-.16.37.18.73.26.8l2.72,2.51c.15.11.28.15.39.15.05,0,.09,0,.12-.02.09-.02.26-.1.36-.33.06-.13.07-.26.07-.26l.38-3.67c.02-.41-.14-.59-.29-.66Zm-.75,4.15l-2.54-2.35,1.66-.06,1.24-1.05-.36,3.46Z"/>
</svg>