<?xml version="1.0" encoding="UTF-8"?>
<svg id="Camada_1" data-name="Camada 1" xmlns="http://www.w3.org/2000/svg" viewBox="0 0 11.28 9.78">
  <defs>
    <style>
      .cls-1 {
        fill: #9d9c9c;
        stroke-width: 0px;
      }
    </style>
  </defs>
  <path class="cls-1" d="m9.02,8.32s0-.01.01-.02h0s.47-.79.47-.79c.03-.09.05-.12.07-.12.03,0,.1.06.14.12l1.18,1.84s0,.02.01.03c0,0,0,.02,0,.03-.01.02-.07.03-.12.03l-2.18-.16c-.09-.01-.12-.04-.12-.05,0-.03.04-.11.09-.15v-.02s.45-.73.45-.73Zm-.69.95c.02.09.11.14.26.16l2.19.16s.18,0,.25-.08c.03-.04.06-.13,0-.24l-1.18-1.85s-.15-.21-.3-.18c-.09.01-.15.09-.19.22l-.42.71C8.21,7.82,1.68,4.53.37.27c0-.09-.17-.12-.15.05,1.32,4.3,7.85,7.6,8.63,7.99l-.39.66s-.16.17-.13.3Z"/>
</svg>