<?xml version="1.0" encoding="UTF-8"?>
<svg id="Camada_1" data-name="Camada 1" xmlns="http://www.w3.org/2000/svg" viewBox="0 0 13.6 12.62">
  <defs>
    <style>
      .cls-1 {
        fill: #436d17;
        stroke-width: 0px;
      }
    </style>
  </defs>
  <path class="cls-1" d="m.46,9.65s-.01.06,0,.12l.42,2.29s.04.11.06.12c0,0,.03,0,.07-.04l1.58-1.71s.06-.08.08-.13c0-.01.01-.04,0-.05-.01-.02-.06-.03-.14-.04l-1.02.04h0s0,0,0,0h-.03s-.82-.59-.82-.59c-.05-.03-.14-.07-.18-.05,0,0-.01,0-.02.03m2.36.71c-.03.1-.1.18-.11.19l-1.59,1.72c-.1.09-.18.09-.23.08-.12-.04-.16-.21-.17-.24l-.42-2.3c-.03-.21.06-.3.12-.32.13-.05.29.05.33.07l.69.49c.08-.98.73-6.84,4.33-8.98C7.74-.11,10.26.03,13.26,1.45c.04.02.05.06.04.09,0,0,0,0,0,.01-.02.04-.07.06-.1.04C10.24.19,7.77.06,5.84,1.2,2.24,3.34,1.65,9.31,1.59,10.1l.94-.04c.14,0,.22.04.27.1.03.04.05.1.02.19Z"/>
</svg>