<svg width="20" height="27" viewBox="0 0 20 27" fill="none" xmlns="http://www.w3.org/2000/svg">
<path fill-rule="evenodd" clip-rule="evenodd" d="M12.1176 25.9117C11.9706 25.9117 11.8235 25.7941 11.8235 25.6176V23.2647H8.11765V25.5882C8.11765 25.7353 8.02941 25.8823 7.88235 25.9117C7.88235 25.9117 7.85294 25.9117 7.82353 25.9117C7.67647 25.9117 7.52941 25.7941 7.52941 25.6176V23.2647H7.02941C6.52941 23.2647 6.11765 23 5.88235 22.5882C5.64706 22.147 5.67647 21.647 5.94118 21.2353C5.94118 21.2353 7.97059 18.5882 9.41176 17.8823L9.61765 17.7647V7.02939C9.61765 3.8235 7.02941 1.23527 3.82353 1.23527H1.11765L1.17647 1.64703C1.52941 4.88233 4.14706 7.44115 7.38235 7.70586C7.55882 7.70586 7.70588 7.88233 7.67647 8.0588C7.67647 8.23527 7.52941 8.35292 7.35294 8.35292C3.5 8.08821 0.470589 4.8235 0.470589 0.970563V0.647034H3.88235C7.41177 0.647034 10.2941 3.52939 10.3235 7.0588V9.08821L11 8.20586C12.2353 6.58821 14.0882 5.67645 16.1176 5.67645H19.5294V5.99997C19.5294 9.85292 16.6471 13.0294 12.8235 13.4117C12.6176 13.4117 12.5 13.2941 12.4706 13.1176C12.4706 12.9412 12.5882 12.7941 12.7647 12.7647C16 12.4412 18.5 9.94115 18.8529 6.73527L18.9118 6.3235H16.1471C12.9412 6.3235 10.3529 8.91174 10.3529 12.1176V17.8235L10.5588 17.9412C12 18.647 14.0294 21.2941 14.0588 21.2941C14.2941 21.6764 14.3235 22.1764 14.0882 22.6176C13.8529 23.0588 13.4118 23.2941 12.9412 23.2941H12.4412V25.6176C12.4412 25.7647 12.3529 25.9117 12.2059 25.9411C12.2059 25.9411 12.1765 25.9411 12.1471 25.9411M9.88235 18.4706C9.41176 18.6176 6.35294 21.2941 6.5 22.2353C6.52941 22.4412 6.70588 22.6764 7.08824 22.6764H12.8824C13.2647 22.6764 13.4412 22.4412 13.4706 22.2059C13.6176 21.2353 10.5588 18.6176 10.0882 18.4706H9.97059H9.85294H9.88235Z" fill="#A8CF45"/>
</svg>
