<svg width="28" height="28" viewBox="0 0 28 28" fill="none" xmlns="http://www.w3.org/2000/svg">
<path d="M13.3888 17.1306C13.3888 17.1306 13.332 17.1306 13.3036 17.1306C13.2467 16.6189 13.2751 16.1356 13.3036 15.6524L15.1513 14.9986C15.2934 14.9417 15.3787 14.7712 15.3218 14.629C15.265 14.4869 15.0944 14.4016 14.9523 14.4585L13.4173 14.9986C13.7584 13.4067 14.5543 12.2696 14.5543 12.2412C14.6396 12.0991 14.6112 11.9285 14.469 11.8148C14.3269 11.7295 14.1563 11.758 14.0426 11.9001C14.0142 11.9569 13.6447 12.497 13.2751 13.3214L12.8203 12.5255C12.735 12.3833 12.5645 12.3265 12.4223 12.4118C12.2802 12.497 12.2233 12.6676 12.3086 12.8097L12.9909 14.0605C12.735 14.8564 12.536 15.8514 12.6213 16.9316C11.5411 16.4483 10.9157 15.2544 11.0863 13.9184C11.3706 11.9854 12.9056 9.76811 16.3452 9.76811C17.3117 9.76811 17.8802 10.024 17.9655 10.1661C17.9939 10.2514 17.9655 10.3366 17.7096 10.6778C17.2548 11.2747 16.4873 12.2981 16.4873 14.6575C16.4873 15.2544 16.2315 15.8514 15.7766 16.3346C15.1513 16.96 14.2132 17.2727 13.332 17.1306M1.59188 12.4402C1.59188 12.4402 1.79086 12.2128 1.93299 12.2128H3.80914V11.9285C4.12183 6.4138 8.6132 2.09299 14.0711 2.09299C17.5107 2.09299 20.7513 3.79857 22.6843 6.66964C22.6843 6.72649 23.3381 7.83512 22.3147 8.54578C21.4904 9.11431 20.7797 9.02903 20.1543 8.26152C18.2782 5.95898 16.6294 5.07776 14.0995 5.07776C10.2619 5.07776 7.13502 8.00568 6.85076 11.9001V12.2128H9.267C9.40914 12.2128 9.55127 12.2981 9.60812 12.4402C9.66497 12.5823 9.66497 12.7245 9.55127 12.8666L6.16853 17.4432C6.16853 17.4432 5.99797 17.5854 5.85584 17.5854C5.74213 17.5854 5.62842 17.5285 5.57157 17.4432L1.67716 12.8666C1.67716 12.8666 1.56345 12.5823 1.6203 12.4402H1.59188ZM5.82741 18.1823C6.11167 18.1823 6.39594 18.0402 6.59492 17.8128L9.97766 13.2361C10.2051 12.9519 10.2619 12.5255 10.0914 12.1844C9.92081 11.8432 9.57969 11.6158 9.21015 11.6158H7.41929C7.84568 8.20466 10.6315 5.64629 14.0426 5.64629C16.402 5.64629 17.8518 6.4138 19.6426 8.60263C20.467 9.59756 21.5188 9.76811 22.599 9.02903C23.7645 8.23309 23.4802 6.9539 23.1675 6.35695C21.1208 3.31532 17.7096 1.49603 14.0711 1.49603C8.38578 1.49603 3.69543 5.90212 3.26903 11.6158H1.96142C1.59188 11.6158 1.22233 11.8432 1.0802 12.1844C0.909643 12.5255 0.966496 12.9519 1.22233 13.2361L5.11675 17.8128C5.31573 18.0402 5.57157 18.1539 5.85584 18.1539L5.82741 18.1823ZM26.4081 15.6524C26.4081 15.6524 26.2091 15.8798 26.067 15.8798H24.1909V16.1641C23.9066 21.6788 19.4152 25.9996 13.9574 25.9996C10.5178 25.9996 7.27716 24.294 5.34416 21.4229C5.34416 21.3661 4.69035 20.2575 5.7137 19.5468C6.08325 19.291 6.39594 19.1773 6.70863 19.1773C7.13502 19.1773 7.50457 19.4047 7.87411 19.8311C9.75025 22.1336 11.399 23.0148 13.9289 23.0148C17.7665 23.0148 20.8934 20.0869 21.1777 16.1925V15.8798H18.7614C18.6193 15.8798 18.4772 15.7945 18.4203 15.6524C18.3634 15.5102 18.3634 15.3681 18.4772 15.226L21.8599 10.6493C21.8599 10.6493 22.0305 10.5072 22.1726 10.5072C22.2863 10.5072 22.4 10.5641 22.4569 10.6493L26.3513 15.226C26.3513 15.226 26.465 15.5102 26.4081 15.6524ZM26.8061 14.8564L22.9117 10.2798C22.7127 10.0524 22.4569 9.93867 22.1442 9.93867C21.8599 9.93867 21.5756 10.0808 21.3766 10.3082L17.9939 14.8849C17.7665 15.1691 17.7096 15.5955 17.8802 15.9366C18.0508 16.2778 18.3919 16.5052 18.7614 16.5052H20.5523C20.1259 19.9163 17.3401 22.4747 13.9289 22.4747C11.5695 22.4747 10.1198 21.7072 8.32893 19.5184C7.50457 18.5234 6.45279 18.3529 5.37259 19.092C4.2071 19.8879 4.49137 21.1671 4.80406 21.7641C6.85076 24.8057 10.2619 26.5965 13.9005 26.5965C19.5858 26.5965 24.2761 22.162 24.7025 16.4767H26.0101C26.3797 16.4767 26.7492 16.2493 26.8914 15.9082C27.0619 15.5671 27.0051 15.1407 26.7492 14.8564H26.8061ZM16.2599 16.7894C16.8284 16.2209 17.1695 15.4818 17.1411 14.6859C17.1411 12.5255 17.7949 11.6443 18.2497 11.0473C18.5056 10.6778 18.7614 10.3651 18.5624 9.93867C18.3066 9.39857 17.2832 9.19959 16.402 9.19959C14.4975 9.19959 11.1147 10.1945 10.5746 13.8615C10.3188 15.5955 11.2569 17.1021 12.7634 17.6138C12.8772 18.2392 13.0477 18.8646 13.3604 19.4899C13.4173 19.6036 13.531 19.6605 13.6162 19.6605C13.6731 19.6605 13.7015 19.6605 13.7584 19.6321C13.9005 19.5468 13.9574 19.3762 13.9005 19.2341C13.6447 18.7509 13.5025 18.2392 13.3888 17.7559C13.531 17.7559 13.6731 17.7559 13.8152 17.7559C14.7249 17.7559 15.6061 17.3864 16.2599 16.7326V16.7894Z" fill="#A8CF45"/>
</svg>
