<svg width="24" height="24" viewBox="0 0 24 24" fill="none" xmlns="http://www.w3.org/2000/svg">
<g clip-path="url(#clip0_154_284)">
<path d="M3.82947 13.6518C3.82947 13.6518 3.62485 13.7395 3.62485 13.8272C3.62485 13.9149 3.71254 14.0026 3.82947 14.0026C4.09257 14.0026 4.38489 14.0902 4.67722 14.1487C4.99878 14.2364 5.32034 14.3241 5.6419 14.3241C5.96346 14.3241 6.28502 14.2364 6.60657 14.1487C6.8989 14.061 7.19123 14.0026 7.45432 14.0026C7.71742 14.0026 8.00974 14.0902 8.30207 14.1487C8.62363 14.2364 8.94519 14.3241 9.26675 14.3241C9.5883 14.3241 9.90986 14.2364 10.2314 14.1487C10.5237 14.061 10.8161 14.0026 11.0792 14.0026C11.3423 14.0026 11.6346 14.0902 11.9269 14.1487C12.2485 14.2364 12.5408 14.3241 12.8916 14.3241C13.2424 14.3241 13.5347 14.2364 13.8563 14.1487C14.1486 14.061 14.4409 14.0026 14.704 14.0026C14.9671 14.0026 15.2594 14.0902 15.5518 14.1487C15.8733 14.2364 16.1949 14.3241 16.5164 14.3241C16.838 14.3241 17.1596 14.2364 17.4811 14.1487C17.7734 14.061 18.0658 14.0026 18.3289 14.0026C18.592 14.0026 18.8843 14.0902 19.1766 14.1487C19.4982 14.2364 19.8197 14.3241 20.1413 14.3241C20.2582 14.3241 20.3167 14.2364 20.3167 14.1487C20.3167 14.061 20.229 13.9733 20.1413 13.9733C19.8782 13.9733 19.5859 13.8856 19.2935 13.8272C18.972 13.7395 18.6504 13.6518 18.3289 13.6518C18.0073 13.6518 17.6857 13.7395 17.3642 13.8272C17.0719 13.9149 16.7795 13.9733 16.5164 13.9733C16.3118 13.9733 16.078 13.9149 15.8441 13.8564C16.1364 13.7979 16.4287 13.5933 16.6041 13.301C16.8965 12.804 16.7795 12.2194 16.3703 11.8686L16.7503 11.2254C17.0134 11.2254 17.2473 11.1378 17.5103 11.0793C17.8027 10.9916 18.095 10.9331 18.3581 10.9331C18.6212 10.9331 18.9135 11.0208 19.2058 11.0793C19.5274 11.167 19.849 11.2547 20.1705 11.2547C20.2875 11.2547 20.3459 11.167 20.3459 11.0793C20.3459 10.9916 20.2582 10.9039 20.1705 10.9039C19.9074 10.9039 19.6151 10.8162 19.3228 10.7577C19.0012 10.67 18.6797 10.5823 18.3581 10.5823C18.0365 10.5823 17.715 10.67 17.3934 10.7577C17.2473 10.787 17.1303 10.8454 16.9842 10.8747L17.1303 10.6116C17.5104 9.96845 17.2765 9.1207 16.6334 8.76991L16.2826 8.56528L16.4872 8.21449C16.4872 8.21449 16.6334 8.30219 16.7211 8.30219C16.8965 8.30219 17.0426 8.21449 17.1303 8.06832L17.715 7.04518C17.715 7.04518 17.8027 6.81132 17.7734 6.69439C17.7442 6.57746 17.6565 6.46053 17.5396 6.40206L14.324 4.53117C14.0901 4.38501 13.7978 4.47271 13.6516 4.70657L13.067 5.72971C13.067 5.72971 12.9793 5.96357 13.0085 6.0805C13.0378 6.19743 13.1255 6.31437 13.2424 6.37283L13.0378 6.72362L12.687 6.51899C12.0438 6.13897 11.1961 6.37283 10.8453 7.01595L10.0853 8.33142C9.88063 8.24372 9.64677 8.24372 9.41291 8.33142C9.12058 8.41912 8.85749 8.59451 8.71133 8.85761C8.56516 9.1207 8.5067 9.44226 8.59439 9.73458C8.59439 9.82228 8.65286 9.88075 8.68209 9.93921C8.30207 9.93921 7.95128 10.1731 7.74665 10.4946C7.74665 10.5239 7.71742 10.5823 7.68818 10.6116C7.57125 10.6116 7.48355 10.6116 7.36662 10.6116C7.04506 10.6116 6.72351 10.6993 6.40195 10.787C6.10962 10.8747 5.81729 10.9331 5.5542 10.9331C5.29111 10.9331 4.99878 10.8454 4.70645 10.787C4.38489 10.6993 4.06333 10.6116 3.74178 10.6116C3.62485 10.6116 3.53715 10.6993 3.53715 10.787C3.53715 10.8747 3.62485 10.9624 3.74178 10.9624C4.00487 10.9624 4.2972 11.0501 4.58952 11.1085C4.91108 11.1962 5.23264 11.2839 5.5542 11.2839C5.87576 11.2839 6.19732 11.1962 6.51888 11.1085C6.8112 11.0208 7.10353 10.9624 7.36662 10.9624C7.42509 10.9624 7.51279 10.9624 7.60048 10.9624C7.60048 11.0793 7.60048 11.2254 7.62972 11.3424C7.62972 11.4301 7.68818 11.4885 7.71742 11.547C7.62972 11.547 7.57125 11.547 7.48355 11.5762C7.19123 11.6639 6.92813 11.8393 6.78197 12.1024C6.46041 12.6286 6.63581 13.301 7.162 13.6518C6.8989 13.6518 6.66504 13.7395 6.40195 13.7979C6.10962 13.8856 5.81729 13.9441 5.5542 13.9441C5.29111 13.9441 4.99878 13.8564 4.70645 13.7979C4.38489 13.7102 4.06333 13.6225 3.74178 13.6225M13.3593 5.81741L13.944 4.79427C13.944 4.79427 14.0024 4.7358 14.0317 4.7358C14.0317 4.7358 14.0609 4.7358 14.0901 4.7358L17.3057 6.60669C17.3057 6.60669 17.335 6.66516 17.3642 6.66516C17.3642 6.66516 17.3642 6.72362 17.3642 6.75286L16.7795 7.776C16.7795 7.776 16.6918 7.83446 16.6334 7.80523L13.5932 6.05127L13.4178 5.93434C13.4178 5.93434 13.3885 5.87588 13.3593 5.87588C13.3593 5.87588 13.3593 5.81741 13.3593 5.78818V5.81741ZM11.1669 7.13288C11.43 6.66516 12.0438 6.51899 12.5116 6.78209L13.0085 7.07441C13.0085 7.07441 13.0962 7.10365 13.1547 7.07441C13.2132 7.07441 13.2424 7.04518 13.2716 6.98672L13.5639 6.46053L16.078 7.92216L15.7856 8.44835C15.7856 8.44835 15.7564 8.53605 15.7856 8.59451C15.7856 8.65298 15.8441 8.68221 15.8733 8.71144L16.3703 9.00377C16.6041 9.1207 16.7503 9.35456 16.838 9.58842C16.8965 9.85152 16.8672 10.1146 16.7503 10.3192L15.9903 11.6347L10.4361 8.41912L11.1961 7.10365L11.1669 7.13288ZM8.94519 9.55919C8.88672 9.35456 8.94519 9.14993 9.03288 8.97454C9.12058 8.79914 9.29598 8.68221 9.50061 8.62374C9.55907 8.62374 9.64677 8.62374 9.70523 8.62374C9.8514 8.62374 9.96833 8.65298 10.0853 8.74068L15.9318 12.1024C16.2826 12.3071 16.4287 12.7748 16.2241 13.1548C16.0195 13.5348 15.5518 13.6518 15.1717 13.4471L9.32521 10.0854C9.14981 9.99768 9.03288 9.82228 8.97442 9.61765L8.94519 9.55919ZM9.12058 10.3485L12.4823 12.3071L14.7917 13.6518C14.7917 13.6518 14.6748 13.6518 14.6163 13.6518C14.2948 13.6518 13.9732 13.7395 13.6516 13.8272C13.3593 13.9149 13.067 13.9733 12.8039 13.9733C12.57 13.9733 12.3069 13.9149 12.0438 13.8564L8.3313 11.7224C8.1559 11.6347 8.03897 11.4593 7.98051 11.2547C7.92204 11.0501 7.98051 10.8454 8.06821 10.67C8.27284 10.29 8.74056 10.1731 9.12058 10.3777V10.3485ZM7.10353 12.2778C7.19123 12.1024 7.36662 11.9855 7.57125 11.927C7.77588 11.8686 7.98051 11.927 8.1559 12.0147L10.9622 13.6225C10.6407 13.6225 10.3484 13.7102 10.0268 13.7979C9.73447 13.8856 9.44214 13.9441 9.17905 13.9441C8.91595 13.9441 8.62363 13.8564 8.3313 13.7979C8.2436 13.7979 8.1559 13.7395 8.06821 13.7395L7.39586 13.3594C7.04506 13.1548 6.8989 12.6871 7.10353 12.3071V12.2778Z" fill="#A8CF45"/>
<path d="M20.1705 17.0718C19.9074 17.0718 19.6151 16.9842 19.3228 16.9257C19.0012 16.838 18.6797 16.7503 18.3581 16.7503C18.0365 16.7503 17.715 16.838 17.3934 16.9257C17.1011 17.0134 16.8088 17.0718 16.5457 17.0718C16.2826 17.0718 15.9902 16.9842 15.6979 16.9257C15.3764 16.838 15.084 16.7503 14.7332 16.7503C14.6748 16.7503 14.6163 16.7503 14.5286 16.7503C14.3825 15.7271 13.5055 14.9379 12.4531 14.9379C11.8977 14.9379 11.3715 15.1425 10.9915 15.5225C10.6407 15.8733 10.4068 16.341 10.3776 16.838C10.2899 16.838 10.2314 16.8672 10.1437 16.8965C9.8514 16.9842 9.55907 17.0426 9.29598 17.0426C9.03288 17.0426 8.74056 16.9549 8.44823 16.8965C8.12667 16.8088 7.80511 16.7211 7.48355 16.7211C7.16199 16.7211 6.84043 16.8088 6.51887 16.8965C6.22655 16.9842 5.93422 17.0426 5.67113 17.0426C5.40803 17.0426 5.11571 16.9549 4.82338 16.8965C4.50182 16.8088 4.18026 16.7211 3.8587 16.7211C3.74177 16.7211 3.68331 16.8088 3.68331 16.8965C3.68331 16.9842 3.77101 17.0718 3.8587 17.0718C4.15103 17.0718 4.41412 17.1595 4.70645 17.218C5.02801 17.3057 5.34957 17.3934 5.67113 17.3934C5.99269 17.3934 6.31425 17.3057 6.6358 17.218C6.92813 17.1303 7.22046 17.0718 7.48355 17.0718C7.74664 17.0718 8.03897 17.1595 8.3313 17.218C8.65286 17.3057 8.97442 17.3934 9.29598 17.3934C9.61753 17.3934 9.93909 17.3057 10.2607 17.218C10.553 17.1303 10.8453 17.0718 11.1084 17.0718C11.3715 17.0718 11.6638 17.1595 11.9561 17.218C12.2777 17.3057 12.57 17.3934 12.9208 17.3934C13.2716 17.3934 13.5639 17.3057 13.8855 17.218C14.1778 17.1303 14.4702 17.0718 14.7332 17.0718C14.9963 17.0718 15.2887 17.1595 15.581 17.218C15.9026 17.3057 16.2241 17.3934 16.5457 17.3934C16.8672 17.3934 17.1888 17.3057 17.5103 17.218C17.8027 17.1303 18.095 17.0718 18.3581 17.0718C18.6212 17.0718 18.9135 17.1595 19.2058 17.218C19.5274 17.3057 19.849 17.3934 20.1705 17.3934C20.2874 17.3934 20.3459 17.3057 20.3459 17.218C20.3459 17.1303 20.2582 17.0426 20.1705 17.0426M13.7686 16.8965C13.4762 16.9842 13.1839 17.0426 12.9208 17.0426C12.6577 17.0426 12.3654 16.9549 12.0731 16.8965C11.7515 16.8088 11.43 16.7211 11.1084 16.7211C10.9915 16.7211 10.8745 16.7211 10.7576 16.7503C10.9038 15.9318 11.6054 15.2887 12.4531 15.2887C13.3008 15.2887 14.0317 15.9318 14.1486 16.7795C14.0024 16.7795 13.8855 16.838 13.7686 16.8672V16.8965Z" fill="#A8CF45"/>
<path d="M7.54203 17.5981C6.98661 17.5981 6.54812 18.0366 6.54812 18.5921C6.54812 19.1475 6.98661 19.586 7.54203 19.586C8.09745 19.586 8.53594 19.1475 8.53594 18.5921C8.53594 18.0366 8.09745 17.5981 7.54203 17.5981ZM7.54203 19.2059C7.19124 19.2059 6.92814 18.9136 6.92814 18.5921C6.92814 18.2705 7.19124 17.9782 7.54203 17.9782C7.89282 17.9782 8.15591 18.2705 8.15591 18.5921C8.15591 18.9136 7.89282 19.2059 7.54203 19.2059Z" fill="#A8CF45"/>
<path d="M18.592 11.81C18.2412 11.81 17.9488 12.1023 17.9488 12.4531C17.9488 12.8039 18.2412 13.0962 18.592 13.0962C18.9427 13.0962 19.2351 12.8039 19.2351 12.4531C19.2351 12.1023 18.9427 11.81 18.592 11.81ZM18.592 12.687C18.592 12.687 18.3289 12.57 18.3289 12.4239C18.3289 12.2777 18.4458 12.1608 18.592 12.1608C18.7381 12.1608 18.855 12.2777 18.855 12.4239C18.855 12.57 18.7381 12.687 18.592 12.687Z" fill="#A8CF45"/>
<path d="M6.08039 12.4531C6.08039 12.1023 5.78806 11.81 5.43727 11.81C5.08648 11.81 4.79415 12.1023 4.79415 12.4531C4.79415 12.8039 5.08648 13.0962 5.43727 13.0962C5.78806 13.0962 6.08039 12.8039 6.08039 12.4531ZM5.20341 12.4531C5.20341 12.4531 5.32034 12.19 5.4665 12.19C5.61267 12.19 5.7296 12.307 5.7296 12.4531C5.7296 12.5993 5.61267 12.7162 5.4665 12.7162C5.32034 12.7162 5.20341 12.5993 5.20341 12.4531Z" fill="#A8CF45"/>
<path d="M5.26187 15.6981C5.26187 16.1658 5.6419 16.5166 6.08039 16.5166C6.51887 16.5166 6.8989 16.1366 6.8989 15.6981C6.8989 15.2596 6.51887 14.8796 6.08039 14.8796C5.6419 14.8796 5.26187 15.2596 5.26187 15.6981ZM6.54811 15.6981C6.54811 15.932 6.34348 16.1366 6.10962 16.1366C5.87576 16.1366 5.67113 15.932 5.67113 15.6981C5.67113 15.4642 5.87576 15.2596 6.10962 15.2596C6.34348 15.2596 6.54811 15.4642 6.54811 15.6981Z" fill="#A8CF45"/>
<path d="M12.0146 0.584717C5.70037 0.584717 0.584656 5.70043 0.584656 11.9854C0.584656 18.2705 5.70037 23.3862 11.9854 23.3862C18.2704 23.3862 23.3861 18.2705 23.3861 11.9854C23.3861 5.70043 18.2996 0.584717 12.0146 0.584717ZM22.6845 11.9854C22.6845 14.7918 21.5737 17.335 19.7905 19.2351L4.73569 4.20956C6.63581 2.42637 9.17905 1.31553 11.9854 1.31553C17.8611 1.31553 22.6553 6.10969 22.6553 11.9854H22.6845ZM1.31547 11.9854C1.31547 9.17911 2.42631 6.63587 4.2095 4.73575L19.2351 19.7613C17.335 21.5445 14.7917 22.6554 11.9854 22.6554C6.10962 22.6554 1.31547 17.8612 1.31547 11.9854Z" fill="#A8CF45"/>
</g>
<defs>
<clipPath id="clip0_154_284">
<rect width="24" height="24" fill="white"/>
</clipPath>
</defs>
</svg>
