<svg width="21" height="27" viewBox="0 0 21 27" fill="none" xmlns="http://www.w3.org/2000/svg">
<g clip-path="url(#clip0_154_273)">
<path d="M0.439329 4.48127V4.42269C0.439329 4.42269 0.439329 3.95407 0.439329 3.42687C0.439329 2.95825 0.439329 2.46035 0.439329 2.19675C0.439329 1.72813 0.64435 1.34737 0.937237 1.08378C1.25941 0.790889 1.66945 0.615157 2.13807 0.55658C2.13807 0.55658 2.13807 0.55658 2.16736 0.55658H14.1757C14.2636 0.55658 14.3515 0.585868 14.41 0.673734L20.1799 6.26788C20.1799 6.26788 20.2678 6.41432 20.2678 6.4729L20.5021 24.5733C20.5021 25.1005 20.3556 25.5106 20.0628 25.8034C19.7699 26.0963 19.3598 26.2428 18.8033 26.2721C18.7741 26.2721 18.0126 26.2721 17.1632 26.2721C16.0502 26.2721 14.7322 26.2721 14.6444 26.2721L2.40167 26.3892C1.78661 26.3892 1.2887 26.2721 0.966526 25.9792C0.615062 25.6863 0.468618 25.247 0.468618 24.6905V14.7323L0.351463 4.48127H0.439329ZM1.05439 3.42687C1.05439 3.89549 1.05439 4.33482 1.05439 4.45198C1.14226 11.247 1.17155 17.9248 1.17155 24.6905C1.17155 25.0712 1.25941 25.3641 1.46443 25.5398C1.66945 25.7156 2.02092 25.8034 2.48954 25.8034C6.56067 25.8034 10.6611 25.7156 14.7322 25.6863C14.7908 25.6863 16.1088 25.6863 17.251 25.6863C18.1004 25.6863 18.8326 25.6863 18.8619 25.6863C19.2427 25.6863 19.5356 25.5691 19.7113 25.3934C19.887 25.2177 19.9749 24.9541 19.9749 24.6026L19.7406 6.79507L15.9916 6.85365C15.3766 6.85365 14.9079 6.70721 14.5565 6.44361C14.2343 6.2093 14.0293 5.85783 13.9707 5.38922C13.9707 5.35993 13.9707 5.30135 13.9707 5.27206V5.18419V1.17164H2.22594C1.90376 1.20093 1.61088 1.31809 1.40586 1.52311C1.23012 1.69884 1.11297 1.93315 1.11297 2.22604C1.11297 2.48963 1.11297 2.98754 1.11297 3.45616L1.05439 3.42687ZM19.272 6.18001L14.4979 1.5524V5.12562C14.4979 5.50637 14.6444 5.76997 14.8787 5.9457C15.113 6.12143 15.4644 6.2093 15.9331 6.2093L19.272 6.15072V6.18001Z" fill="#A8CF45"/>
<path d="M11.8619 20.8243C11.8619 20.8243 11.7448 20.7071 11.7448 20.6485C11.7448 20.6192 11.7155 20.5607 11.7155 20.5021C11.7155 20.4142 11.7448 20.3264 11.8033 20.2678L13.4728 18.8033C13.59 18.6862 13.795 18.7155 13.9121 18.8033C14.0293 18.9205 14 19.1255 13.9121 19.2134L12.8284 20.1506H15.0544C15.523 20.1506 15.9038 20.0335 16.1966 19.887C16.4602 19.7406 16.636 19.5356 16.7531 19.3013C16.8703 19.0669 16.9289 18.7741 16.9289 18.4519C16.9289 17.8954 16.7238 17.2803 16.3724 16.7238L15.5816 15.4059C15.5816 15.4059 15.5523 15.0837 15.6987 14.9958C15.8452 14.9079 16.0209 14.9665 16.1088 15.113L16.8996 16.431C17.3096 17.1046 17.5146 17.8075 17.5439 18.4519C17.5439 18.8619 17.4854 19.2427 17.3096 19.5649C17.1339 19.9163 16.8703 20.2092 16.5188 20.4142C16.1381 20.6192 15.6695 20.7657 15.0837 20.7657H12.8577L14.1464 21.7029C14.2929 21.7908 14.2929 21.9958 14.205 22.113C14.1172 22.2301 13.9121 22.2594 13.795 22.1715L11.9205 20.795L11.8619 20.8243Z" fill="#A8CF45"/>
<path d="M3.89539 15.6695C3.74895 15.7281 3.57322 15.6695 3.48535 15.523C3.42678 15.3766 3.48535 15.2009 3.66109 15.1423C4.42259 14.8494 5.1841 14.5272 5.9456 14.205C6.09205 14.1465 6.23849 14.205 6.32636 14.3222C6.32636 14.3222 6.32636 14.3515 6.32636 14.3808C6.32636 14.3808 6.32636 14.3808 6.32636 14.4101L6.91213 16.4603C6.97071 16.6067 6.85355 16.7825 6.70711 16.8117C6.56067 16.841 6.38493 16.7532 6.32636 16.6067L5.9456 15.2302L5.06694 16.8117C4.6569 17.5147 4.45188 18.1297 4.48117 18.6569C4.48117 18.9498 4.56904 19.2134 4.68619 19.4184C4.80334 19.6235 5.00837 19.8285 5.27196 19.9749C5.71129 20.2092 6.32636 20.3557 7.11715 20.3264H8.64016C8.8159 20.3264 8.93305 20.4143 8.96234 20.59C8.96234 20.7657 8.84519 20.8829 8.66945 20.8829H7.14644C6.26778 20.9122 5.53556 20.7657 5.00837 20.4728C4.6569 20.2678 4.3933 20.0335 4.21757 19.7113C4.04184 19.4184 3.92468 19.0377 3.92468 18.6569C3.92468 18.0419 4.1297 17.3097 4.59832 16.5189L5.41841 15.0544L3.95397 15.6402L3.89539 15.6695Z" fill="#A8CF45"/>
<path d="M7.61507 12.5064C7.61507 12.5064 7.35147 12.6822 7.20503 12.6236C7.05858 12.5357 7.00001 12.36 7.08787 12.2135L7.7908 11.0127C8.25942 10.1926 8.84519 9.60685 9.46026 9.25539C9.8703 9.02108 10.3096 8.90392 10.7197 8.87463C11.159 8.87463 11.5983 8.9625 12.0084 9.19681C12.5356 9.4897 13.0335 9.9876 13.4435 10.6905L14.1172 11.8328L14.3515 10.5734C14.3808 10.3976 14.5272 10.3098 14.7029 10.3391C14.8787 10.3684 14.9665 10.5148 14.9372 10.6905L14.5565 12.7115C14.5565 12.7115 14.4979 12.8872 14.41 12.9165C14.3515 12.9458 14.2636 12.9751 14.1757 12.9165L12.1255 12.3893C11.9498 12.36 11.8619 12.1843 11.9205 12.0378C11.9498 11.8914 12.1255 11.7742 12.3013 11.8328L13.6485 12.1843L12.9456 10.9541C12.5649 10.3391 12.1548 9.92903 11.7155 9.66543C11.3933 9.4897 11.0711 9.40183 10.749 9.40183C10.4268 9.40183 10.1046 9.51899 9.75314 9.69472C9.22595 9.9876 8.72804 10.5148 8.28871 11.247L7.58578 12.4479L7.61507 12.5064Z" fill="#A8CF45"/>
</g>
<defs>
<clipPath id="clip0_154_273">
<rect width="21" height="26.9749" fill="white"/>
</clipPath>
</defs>
</svg>
