<?xml version="1.0" encoding="UTF-8"?>
<svg id="Camada_1" data-name="Camada 1" xmlns="http://www.w3.org/2000/svg" viewBox="0 0 71.25 16.93">
  <defs>
    <style>
      .cls-1 {
        fill: #a8cf45;
        stroke-width: 0px;
      }
    </style>
  </defs>
  <path class="cls-1" d="m19.99,12.89V3.91c1.4,0,3.28-.18,4.37.51,1.14.72.91,2.37.91,3.97,0,.72.05,1.7-.03,2.38-.32,2.51-2.87,2.11-5.25,2.11M17.08.34c-.63.1-.67.49-.67,1.13v12.5c0,1.75-.28,2.49,1.09,2.49,1.19,0,2.38,0,3.57,0,2.49,0,4.08-.15,5.71-1.43.32-.25.62-.56.87-.9.91-1.19,1.19-2.65,1.19-4.2,0-1.18.02-2.39,0-3.57-.04-2.01-.78-3.69-2.32-4.82-.64-.48-1.57-.86-2.52-1.05-1.27-.25-3.68-.18-5.15-.18-.5,0-1.3-.05-1.76.03ZM6.19,10.18c.08-.27,1.46-4.46,1.6-4.75l1.6,4.75h-3.2Zm-1.41,3.58h6.02c.17.45.35.92.52,1.38.54,1.46.72,1.32,2.54,1.32s1.68-.38,1.04-2.01l-1.62-4.18c-.71-1.85-1.45-3.71-2.15-5.56-.35-.93-.72-1.84-1.08-2.78-.17-.45-.32-.99-.62-1.29-.41-.4-.97-.32-1.62-.32-1.71,0-1.69.07-2.27,1.59-1.41,3.7-2.89,7.41-4.3,11.12-.21.56-1.03,2.42-.97,2.9.07.57.81.54,1.38.54.52,0,1.4.07,1.82-.13.45-.21.57-.67.77-1.17.18-.45.38-.95.54-1.4ZM38.21.35c4.5,0,8.14,3.65,8.14,8.14,0,1.98-.71,3.79-1.88,5.2.1.1.19.21.3.32.73.75-3.28,1.05-4.06.85-.27-.07-.48-.25-.48-.73.01-.37.81-4.13,1.39-3.49l.24.26c.46-.69.73-1.52.73-2.42,0-2.42-1.96-4.38-4.38-4.38s-4.38,1.96-4.38,4.38,1.96,4.38,4.38,4.38c.61,0,1.2-.13,1.73-.35l-.34,1.95c-.12.55.16.98.78,1.02l1.9.06c-1.2.69-2.59,1.09-4.07,1.09-4.5,0-8.14-3.65-8.14-8.14S33.71.35,38.21.35Zm15.07,16.08h-2.18c-.21,0-.37-.17-.37-.37V4.95c0-.62-.5-1.12-1.12-1.12h-3.05c-.21,0-.37-.17-.37-.37V1c0-.36.29-.65.65-.65h11.4c.36,0,.65.29.65.65v2.45c0,.21-.17.37-.37.37h-3.74c-.21,0-.37.17-.37.37v11.1c0,.62-.5,1.12-1.12,1.12Zm0,0h-2.18c-.21,0-.37-.17-.37-.37V4.95c0-.62-.5-1.12-1.12-1.12h-3.05c-.21,0-.37-.17-.37-.37V1c0-.36.29-.65.65-.65h11.4c.36,0,.65.29.65.65v2.45c0,.21-.17.37-.37.37h-3.74c-.21,0-.37.17-.37.37v11.1c0,.62-.5,1.12-1.12,1.12m8.86-.04c-1.03,0-1.87-.84-1.87-1.87V2.22c0-1.03.84-1.87,1.87-1.87h7.79c.58,0,1.06.47,1.06,1.06v2.06c0,.19-.16.35-.35.35-2.16,0-4.32,0-6.48,0-.21,0-.37.17-.37.37v2.05c0,.21.17.37.37.37,1.55,0,3.1,0,4.65,0,.36,0,.65.29.65.65v2.45c0,.21-.17.37-.37.37-1.65,0-3.29,0-4.93,0-.21,0-.37.17-.37.37v2.06c0,.21.17.37.37.37,2.17,0,4.33,0,6.49,0,.19,0,.35.16.35.35v2.06c0,.58-.47,1.06-1.06,1.06h-7.79Z"/>
</svg>