<svg width="69" height="58" viewBox="0 0 69 58" fill="none" xmlns="http://www.w3.org/2000/svg">
<path d="M65.8717 41.5334C64.8978 41.0344 63.8353 41.7389 63.5107 42.003L61.3563 43.7935C60.0577 36.749 54.5094 12.7682 37.8939 4.63765C28.1548 -0.117408 16.3204 1.40891 2.77416 9.18725C2.59709 9.30466 2.44953 9.45142 2.36099 9.62753C2.24294 9.92105 2.24294 10.2439 2.42002 10.5375C2.68563 11.0071 3.30539 11.1832 3.77759 10.8897C16.704 3.46356 27.8892 1.9666 37.0381 6.42814C53.3584 14.4119 58.5821 39.4494 59.5265 44.7328L55.808 44.8796C54.6865 44.997 54.2143 45.496 54.0372 45.9069C53.565 46.9929 54.5684 48.0496 54.8045 48.2551L62.8319 55.6225C63.2746 55.9453 63.6583 56.0628 63.9829 56.0628C64.1305 56.0628 64.2485 56.0628 64.337 56.004C64.6026 55.9453 65.1044 55.7105 65.3995 55.0354C65.5766 54.6538 65.6061 54.2723 65.6061 54.2723L66.7275 43.5C66.7866 42.2966 66.3144 41.7682 65.8717 41.5628V41.5334ZM63.6583 53.7146L56.1621 46.8168L61.0612 46.6407L64.7207 43.5587L63.6583 53.7146Z" fill="#A8CF45"/>
</svg>
