<?xml version="1.0" encoding="UTF-8"?>
<svg id="Camada_1" data-name="Camada 1" xmlns="http://www.w3.org/2000/svg" viewBox="0 0 37.08 11.83">
  <defs>
    <style>
      .cls-1 {
        fill: #fff;
        fill-rule: evenodd;
        stroke-width: 0px;
      }
    </style>
  </defs>
  <path class="cls-1" d="m7.62,7.2c-.03.92.13,1.33-.38,1.3-2.31-.09-2.02.41-2.06-1.49l-1.08.16c-.41.03-.7-.73.03-.79,1.93-.19,1.87-.63,1.83,1.33h.85v-1.33c0-.22.25-.38.44-.38.38,0,.35.63,1.17.63.54-.03.92-.44.92-.98,0-1.08-.79-.66-.79-1.23,0-.13.06-.22.09-.32.19-.47.06-1.08-.35-1.39-.25-.22-.73-.25-.76-.51-.03-.47-.13-.73-.63-1.01-.35-.19-.89-.16-1.23.06-1.2.73-2.12,4.33-2.44,5.82-.06.32-.09.79-.47.79-.19,0-.28-.13-.41-.25-.44-.47-.76-.79-1.14-1.23-.16-.16-.35-.32-.38-.57-.03-.19.19-.38.41-.38s.32.19.66.54c.25.32.28.35.63.7.06-.22.09-.41.16-.6.25-1.01.51-2.02.92-3,.44-1.14,1.17-2.78,2.69-2.78.51,0,.98.19,1.39.54.25.22.41.47.54.82t.03.16s.06.03.13.06c.06.03.16.06.22.13.57.38.92.89.89,1.61,0,.44-.03.44-.06.63.03.03.25.19.35.32.25.32.35.7.35,1.11,0,.95-.76,1.74-1.74,1.74-.28,0-.54-.03-.79-.19h0Zm2.25,2.21c-.28-.13-.6-.16-.92-.16-.82,0-1.61.41-1.61,1.17s.76,1.14,1.58,1.14c.28,0,.57-.06.85-.16l.25-.66-.13-.03c-.19.35-.44.7-.95.7-.63,0-.98-.57-.98-1.04s.32-.98.95-.98c.47,0,.73.28.82.66h.13v-.63Zm-3.07-.03c-.19-.1-.41-.13-.63-.13-.47,0-.95.22-.95.66,0,.63,1.27.6,1.27,1.14,0,.22-.19.35-.44.35-.44,0-.73-.35-.85-.66h-.13l.13.66c.22.1.51.16.76.16.51,0,1.01-.19,1.01-.66,0-.7-1.23-.63-1.23-1.17,0-.19.16-.35.38-.35.41,0,.47.32.57.57h.09l.03-.57Zm-2.97,1.11c.38,0,.54,0,.6.35h.09c0-.28,0-.57.03-.85h-.1c-.09.28-.28.32-.6.32h-.32v-.85h.28c.41,0,.73,0,.73.44h.13l.09-.6h-2.25v.1c.44.06.51.03.51.63v.76c0,.6-.06.57-.51.63v.1h1.61v-.1c-.63-.03-.6-.19-.6-.63v-.28h.28ZM10.34,1.06c-.03.1-.09.13-.16.13-.16,0-.22-.13-.22-.25s.06-.25.19-.25c.09,0,.16.03.19.13h.13c0-.16-.13-.25-.32-.25-.22,0-.35.16-.35.38s.13.38.38.38c.13,0,.28-.09.28-.25h-.13Zm-.19.41c-.32,0-.57-.22-.57-.54,0-.28.25-.54.57-.54.28,0,.54.25.54.54,0,.32-.25.54-.54.54Zm0,.13c.35,0,.66-.28.66-.66s-.32-.66-.66-.66c-.38,0-.7.28-.7.66s.32.66.7.66Zm15.78,7.46h.47v2.06h.95v.38h-1.42v-2.44Zm-1.01,0h.51v2.44h-.51v-2.44Zm-.32,2.37c-.16.06-.35.09-.54.09-.79,0-1.33-.38-1.33-1.2s.51-1.3,1.33-1.3c.16,0,.38.03.54.1l-.03.41c-.19-.1-.35-.13-.51-.13-.51,0-.82.38-.82.89,0,.47.32.85.82.85.19,0,.41-.03.54-.1v.38Zm-4.27-2.37h.6l.92,1.8v-1.8h.47v2.44h-.6l-.92-1.83v1.83h-.47v-2.44Zm-2.5,0h.47v1.39c0,.41.16.7.51.7.38,0,.51-.28.51-.7v-1.39h.51v1.55c0,.63-.38.92-1.01.92s-.98-.28-.98-.92v-1.55Zm-2.78,1.2c0,.76.41,1.27,1.17,1.27s1.2-.54,1.2-1.27-.44-1.23-1.2-1.23-1.17.51-1.17,1.23Zm.51,0c0-.41.19-.85.66-.85s.7.44.7.85c0,.44-.19.89-.7.89-.47,0-.66-.44-.66-.89Zm-.76,1.17c-.16.06-.35.09-.54.09-.79,0-1.33-.38-1.33-1.2s.51-1.3,1.33-1.3c.16,0,.38.03.54.1l-.03.41c-.19-.1-.35-.13-.54-.13-.47,0-.79.38-.79.89,0,.47.28.85.82.85.19,0,.41-.03.54-.1v.38Zm19.83-3.54h.47v-.92h.22c.51,0,.92-.19.92-.76,0-.6-.47-.73-1.01-.73h-.6v2.4Zm.47-2.02h.19c.22,0,.44.09.44.38,0,.25-.22.35-.44.35h-.19v-.73Zm-1.46-.38h.51v2.4h-.51v-2.4Zm-2.44,0h.47v.95h.98v-.95h.47v2.4h-.47v-1.04h-.98v1.04h-.47v-2.4Zm-.63.44c-.16-.06-.32-.13-.51-.13-.16,0-.38.09-.38.35,0,.41,1.08.25,1.08,1.04,0,.54-.44.73-.92.73-.25,0-.38-.03-.63-.1l.06-.41c.16.06.35.13.54.13s.44-.1.44-.32c0-.44-1.08-.25-1.08-1.04,0-.54.41-.76.85-.76.22,0,.41.03.57.09l-.03.41Zm-3.8,1.96h.66c.73,0,1.39-.25,1.39-1.2s-.66-1.2-1.39-1.2h-.66v2.4Zm.47-2.02h.28c.38,0,.79.28.79.82,0,.51-.41.82-.79.82h-.28v-1.64Zm-2.66,2.02h.51v-1.01h.16c.19,0,.25.06.32.25l.32.76h.54l-.41-.95c-.03-.09-.13-.22-.25-.25.32-.03.51-.28.51-.57,0-.66-.63-.63-1.14-.63h-.54v2.4Zm.51-2.02h.16c.22,0,.51,0,.51.32,0,.28-.28.32-.51.32h-.16v-.63Zm-3.19,2.02h.51l.19-.57h.98l.22.57h.54l-.95-2.4h-.54l-.95,2.4Zm1.55-.95h-.7l.35-.98.35.98Zm-4.9-1.45h.54l.44,1.93.41-1.93h.66l.41,1.93h.03l.44-1.93h.47l-.63,2.4h-.63l-.44-1.93-.41,1.93h-.63l-.66-2.4Zm-1.68,0h1.42v.38h-.92v.57h.85v.41h-.85v.66h.95v.38h-1.45v-2.4Zm-1.49.38h-.7v-.38h1.9v.38h-.7v2.02h-.51v-2.02Zm-1.04.06c-.16-.06-.35-.13-.51-.13s-.38.09-.38.35c0,.41,1.08.25,1.08,1.04,0,.54-.44.73-.92.73-.25,0-.38-.03-.63-.1l.06-.41c.16.06.35.13.54.13s.44-.1.44-.32c0-.44-1.08-.25-1.08-1.04,0-.54.41-.76.85-.76.19,0,.38.03.57.09l-.03.41Zm9.52-3.67h-.7v-.38h1.87v.38h-.7v2.02h-.47v-2.02Zm-1.08.06c-.13-.06-.32-.1-.47-.1s-.38.06-.38.32c0,.44,1.04.25,1.04,1.08,0,.51-.41.73-.89.73-.28,0-.38-.03-.63-.09l.03-.44c.19.1.38.16.57.16s.41-.1.41-.32c0-.47-1.04-.28-1.04-1.08,0-.54.41-.73.85-.73.19,0,.38.03.57.06l-.06.41Zm-3.23-.44h1.45v.38h-.95v.6h.85v.38h-.85v.66h.95v.38h-1.45V1.88Zm-2.15,2.4h.51v-.98h.13c.22,0,.28.06.35.25l.28.73h.54l-.38-.92c-.03-.13-.13-.25-.25-.25v-.03c.32-.03.51-.25.51-.54,0-.7-.63-.66-1.14-.66h-.54v2.4h0Zm.51-2.02h.16c.22,0,.51.03.51.32,0,.32-.28.35-.51.35h-.16v-.66Zm-3.26.82c0,.73.41,1.27,1.17,1.27s1.2-.54,1.2-1.27-.44-1.23-1.2-1.23-1.17.51-1.17,1.23Zm.51,0c0-.41.19-.85.66-.85s.7.44.7.85c0,.44-.19.89-.7.89s-.66-.44-.66-.89Zm-2.12-1.2h1.33v.38h-.85v.6h.82v.38h-.82v1.04h-.47V1.88Z"/>
</svg>