<?xml version="1.0" encoding="UTF-8"?>
<svg id="Camada_1" data-name="Camada 1" xmlns="http://www.w3.org/2000/svg" viewBox="0 0 40.94 11.42">
  <defs>
    <style>
      .cls-1 {
        fill: #ff782d;
      }

      .cls-1, .cls-2 {
        stroke-width: 0px;
      }

      .cls-2 {
        fill: #4e4e4e;
      }
    </style>
  </defs>
  <g>
    <path class="cls-1" d="m9.29,2.25c.09,0,.21,0,.34.03.13.02.31.05.54.11v1.49c-.14-.06-.28-.09-.43-.1-.03,0-.06,0-.09,0-.11,0-.23.02-.33.05-.12.05-.22.12-.3.21-.08.09-.12.21-.12.35v3.22h-1.71v-3.3c0-.36.05-.66.16-.92.11-.26.26-.47.45-.64.19-.17.41-.29.67-.37.25-.08.53-.12.82-.12"/>
    <path class="cls-1" d="m4.05,3.23c.22,0,.39-.06.51-.19.12-.14.17-.29.17-.46s-.06-.31-.17-.44c-.11-.13-.28-.19-.51-.19h-1.05v1.27h1.05Zm0,2.77c.27,0,.47-.08.61-.23.13-.15.2-.32.2-.51s-.07-.35-.2-.51c-.13-.15-.34-.23-.61-.23h-1.05v1.47h1.05Zm2.62-.56c0,.11,0,.21-.02.29-.09.58-.34,1.03-.75,1.36-.41.33-1,.49-1.8.49H1.17V.42h2.87c.34,0,.66.05.95.15.29.1.53.24.74.43.21.18.37.41.48.68.11.26.16.54.16.86v.06c0,.08-.02.18-.05.28-.03.11-.08.22-.14.32-.06.11-.14.21-.23.31-.09.1-.2.18-.33.25.24.12.44.27.58.44.15.17.25.34.32.53.07.18.11.36.12.54,0,.06.01.12.01.17Z"/>
  </g>
  <g>
    <path class="cls-2" d="m36.09,9.59s-.06,0-.09.01c-.03,0-.05.02-.08.03-.02.02-.04.03-.06.06-.01.02-.02.05-.02.08v.45s0,.06.02.08c.01.02.03.05.06.06.02.02.05.03.08.04.03,0,.06.01.09.01.03,0,.05,0,.08-.01.03,0,.05-.02.08-.04.02-.02.04-.04.06-.06.01-.02.02-.05.02-.08v-.45s0-.06-.02-.08c-.01-.02-.03-.04-.06-.06-.02-.02-.05-.03-.08-.03-.03,0-.06-.01-.08-.01m-.52.18c0-.08.02-.14.04-.2.03-.06.07-.1.12-.14.05-.04.11-.07.17-.09.06-.02.13-.03.19-.03s.13,0,.19.03c.06.02.12.05.17.09.05.04.09.08.12.14.03.06.04.12.04.2v.46c0,.08-.01.14-.04.2-.03.06-.07.1-.12.14-.05.04-.11.07-.17.09-.06.02-.12.03-.19.03s-.13,0-.19-.03c-.06-.02-.12-.05-.17-.09-.05-.04-.09-.09-.12-.14-.03-.06-.04-.12-.04-.2v-.46Zm-.39-.43h.3l-.47,1.32h-.29l-.47-1.32h.3l.27.77.04.26h.02l.05-.26.26-.77Zm-1.09,1.32h-.29v-1.32h.29v1.32Zm-.32-1.65c0-.05.02-.1.05-.13.04-.04.08-.05.13-.05s.1.02.13.05c.04.04.05.08.05.13s-.02.1-.05.13c-.04.04-.08.05-.13.05s-.1-.02-.13-.05c-.04-.04-.05-.08-.05-.13Zm-.26,1.68c-.06,0-.13,0-.18-.03-.06-.02-.11-.05-.15-.08-.04-.04-.08-.09-.1-.15-.02-.06-.04-.13-.04-.21v-1.19h.25l.03.31h.25v.26h-.25v.62c0,.05,0,.09.02.12.02.03.04.05.07.07.03.01.06.02.09.03.03,0,.07,0,.11,0v.24s-.07,0-.1,0Zm-1.25-.6c-.08,0-.14.02-.19.06-.04.04-.07.08-.07.14,0,.03,0,.06.02.08.01.02.03.04.05.05.02.01.05.02.08.03.03,0,.06,0,.09,0,.05,0,.09,0,.13,0,.04,0,.08-.01.11-.02v-.29s-.06-.02-.1-.03c-.04,0-.08-.01-.12-.01Zm.23-.33s0-.06-.02-.09c-.02-.02-.04-.05-.06-.06-.03-.02-.05-.03-.09-.04-.03,0-.07-.01-.1-.01-.05,0-.1,0-.15.03-.05.02-.09.05-.13.08l-.16-.16c.07-.08.15-.13.23-.16.08-.03.16-.04.25-.04.06,0,.13,0,.19.03.06.02.12.04.17.08.05.04.09.08.12.14.03.05.04.12.04.19v.85c-.06.02-.14.04-.22.06-.09.02-.18.03-.28.03-.07,0-.14,0-.2-.02-.06-.01-.12-.03-.17-.07-.05-.03-.09-.07-.12-.12-.03-.05-.05-.12-.05-.2,0-.07.01-.14.04-.19.03-.05.06-.1.11-.13.05-.03.1-.06.16-.08.06-.02.12-.03.18-.03.05,0,.09,0,.14.01.05,0,.09.02.13.04v-.15Zm-1.01-.44s.05,0,.07,0c.02,0,.05,0,.08.01v.25s-.06-.01-.1-.01h-.02s-.09.01-.12.03c-.04.02-.07.04-.1.07-.03.03-.04.07-.04.11v.89h-.28v-.89c0-.1.02-.18.07-.24.05-.07.1-.12.18-.16.02-.01.04-.02.07-.03.03,0,.05-.01.08-.02.03,0,.05,0,.07,0,.02,0,.04,0,.05,0Zm-1.27.27s-.06,0-.09.01c-.03,0-.06.02-.08.03-.02.02-.04.03-.06.06-.01.02-.02.05-.02.08v.45s0,.06.02.08c.01.02.03.05.06.06.02.02.05.03.08.04.03,0,.06.01.09.01.03,0,.05,0,.08-.01.03,0,.05-.02.08-.04.02-.02.04-.04.06-.06.01-.02.02-.05.02-.08v-.45s0-.06-.02-.08c-.01-.02-.03-.04-.06-.06-.02-.02-.05-.03-.08-.03-.03,0-.06-.01-.08-.01Zm-.52.18c0-.08.02-.14.04-.2.03-.06.07-.1.12-.14.05-.04.11-.07.17-.09.06-.02.13-.03.19-.03s.13,0,.19.03c.06.02.12.05.17.09.05.04.09.08.12.14.03.06.04.12.04.2v.46c0,.08-.02.14-.04.2-.03.06-.07.1-.12.14-.05.04-.1.07-.17.09-.06.02-.12.03-.19.03s-.13,0-.19-.03c-.06-.02-.12-.05-.17-.09-.05-.04-.09-.09-.12-.14-.03-.06-.04-.12-.04-.2v-.46Zm-.81.67h.02c.07,0,.13-.01.19-.04.06-.03.09-.08.09-.15v-.47s0-.07-.02-.1c-.02-.03-.04-.05-.06-.07-.02-.02-.05-.03-.09-.04-.03,0-.07-.01-.1-.01-.08,0-.15.01-.21.04v.81s.06.02.1.02c.03,0,.05,0,.08,0Zm.03-1.13h.02c.07,0,.14,0,.2.03.06.02.12.04.17.08.05.04.09.08.12.14.03.06.04.13.04.22v.47c0,.07-.02.14-.04.19-.03.06-.07.1-.12.14-.05.04-.1.07-.17.08-.06.02-.12.03-.19.03h-.02s-.07,0-.1-.01c-.04,0-.08-.02-.12-.04v.45h-.28v-1.67c.07-.03.15-.06.24-.08.08-.02.16-.03.24-.03Zm-.82,0s.05,0,.07,0c.02,0,.05,0,.08.01v.25s-.06-.01-.1-.01h-.02s-.09.01-.12.03c-.04.02-.07.04-.1.07-.03.03-.04.07-.04.11v.89h-.28v-.89c0-.1.02-.18.07-.24.05-.07.1-.12.18-.16.02-.01.04-.02.07-.03.03,0,.05-.01.08-.02.03,0,.05,0,.07,0,.02,0,.04,0,.05,0Zm-1.27.27s-.06,0-.09.01c-.03,0-.05.02-.08.03-.02.02-.04.03-.06.06-.01.02-.02.05-.02.08v.45s0,.06.02.08c.01.02.03.05.06.06.02.02.05.03.08.04.03,0,.06.01.09.01.03,0,.05,0,.08-.01.03,0,.05-.02.08-.04.02-.02.04-.04.06-.06.01-.02.02-.05.02-.08v-.45s0-.06-.02-.08c-.01-.02-.03-.04-.06-.06-.02-.02-.05-.03-.08-.03-.03,0-.06-.01-.08-.01Zm-.52.18c0-.08.02-.14.04-.2.03-.06.07-.1.12-.14.05-.04.11-.07.17-.09.06-.02.13-.03.19-.03s.13,0,.19.03c.06.02.12.05.17.09.05.04.09.08.12.14.03.06.04.12.04.2v.46c0,.08-.02.14-.04.2-.03.06-.07.1-.12.14-.05.04-.11.07-.17.09-.06.02-.12.03-.19.03s-.13,0-.19-.03c-.06-.02-.12-.05-.17-.09-.05-.04-.09-.09-.12-.14-.03-.06-.04-.12-.04-.2v-.46Zm-1.52-.36c0-.1.02-.18.06-.25.04-.07.09-.13.16-.18.07-.05.14-.09.22-.11.08-.02.17-.04.26-.04.07,0,.13,0,.2.03.06.02.13.04.19.08.06.03.11.08.16.13.05.05.09.11.12.18l-.26.13c-.04-.08-.1-.14-.18-.18-.07-.04-.15-.06-.23-.06-.05,0-.1,0-.15.02-.05.01-.09.03-.13.05-.04.02-.07.05-.09.09-.02.04-.03.08-.03.13v.69s.01.09.03.12c.02.04.05.07.09.09.04.02.08.04.13.05.05.01.1.02.15.02.08,0,.16-.02.23-.06.08-.04.13-.1.18-.18l.26.12c-.03.07-.08.13-.13.18-.05.05-.1.1-.16.13-.06.03-.12.06-.19.08-.07.02-.13.03-.2.03-.09,0-.17-.01-.25-.04-.08-.02-.16-.06-.22-.11-.06-.05-.12-.11-.16-.18-.04-.07-.06-.16-.06-.26v-.69Zm-1.18,1.02h0s.09-.01.12-.04.05-.06.06-.11c0-.02,0-.04-.02-.06-.01-.02-.03-.03-.05-.04-.02-.01-.04-.02-.07-.03-.02,0-.05-.01-.07-.02-.05,0-.1-.02-.15-.04-.06-.02-.11-.04-.15-.07-.05-.03-.09-.07-.12-.12-.03-.05-.05-.11-.05-.19s.02-.14.05-.19c.03-.05.07-.09.12-.12.05-.03.1-.06.16-.07.06-.01.12-.02.17-.02.07,0,.15.01.22.05.08.03.15.08.21.14l-.17.18s-.08-.07-.14-.08c-.05-.02-.1-.03-.15-.03s-.09,0-.13.03c-.04.02-.06.05-.06.09,0,.03,0,.05.02.08.01.02.03.04.06.05.02.01.05.02.08.03.03,0,.06.02.09.02.05,0,.11.02.16.04.05.02.1.04.14.07.04.03.07.07.1.12.03.05.04.11.04.18s-.01.13-.04.18c-.03.05-.06.1-.1.13-.04.03-.09.06-.15.08-.06.02-.11.03-.17.03-.05,0-.1,0-.16-.02-.05-.01-.1-.03-.15-.06-.05-.03-.09-.06-.13-.1-.04-.04-.07-.09-.09-.14l.21-.14c.04.06.08.11.15.14.06.03.11.05.17.05Zm-1.22-.84s-.06,0-.09.01c-.03,0-.05.02-.08.03-.02.02-.04.03-.06.06-.01.02-.02.05-.02.08v.45s0,.06.02.08c.01.02.03.05.06.06.02.02.05.03.08.04.03,0,.06.01.09.01s.06,0,.08-.01c.03,0,.05-.02.08-.04.02-.02.04-.04.06-.06.01-.02.02-.05.02-.08v-.45s0-.06-.02-.08c-.01-.02-.03-.04-.06-.06-.02-.02-.05-.03-.08-.03-.03,0-.06-.01-.08-.01Zm-.52.18c0-.08.02-.14.04-.2.03-.06.07-.1.12-.14.05-.04.11-.07.17-.09.06-.02.13-.03.19-.03s.13,0,.19.03c.06.02.12.05.17.09.05.04.09.08.12.14.03.06.04.12.04.2v.46c0,.08-.02.14-.04.2-.03.06-.07.1-.12.14-.05.04-.11.07-.17.09-.06.02-.13.03-.19.03s-.13,0-.19-.03c-.06-.02-.12-.05-.17-.09-.05-.04-.09-.09-.12-.14s-.04-.12-.04-.2v-.46Zm-.27.92c-.06,0-.13,0-.18-.03-.06-.02-.11-.05-.15-.08-.04-.04-.08-.09-.1-.15-.02-.06-.04-.13-.04-.21v-1.19h.25l.03.31h.25v.26h-.25v.62c0,.05,0,.09.02.12.02.03.04.05.06.07.03.01.06.02.09.03.04,0,.07,0,.11,0v.24s-.07,0-.1,0Zm-.75-.9v.88h-.28v-.88s-.01-.07-.03-.1c-.02-.03-.04-.05-.07-.07-.03-.02-.06-.03-.09-.04-.03,0-.07-.01-.1-.01-.04,0-.07,0-.1.01-.03,0-.06.02-.09.03v1.04h-.28v-1.24c.06-.03.14-.06.21-.08.08-.02.16-.03.24-.03.07,0,.15,0,.22.03.07.02.13.04.19.08.05.04.1.09.13.15.03.06.05.13.05.22Zm-1.54-.01s0-.06-.02-.08c-.01-.02-.03-.04-.05-.06-.02-.02-.05-.03-.08-.04-.03,0-.06-.01-.09-.01s-.06,0-.09.01c-.03,0-.06.02-.08.04-.02.02-.04.04-.05.06-.01.02-.02.05-.02.08v.12h.48v-.12Zm-.24.91c-.06,0-.13,0-.19-.03-.06-.02-.12-.05-.17-.09-.05-.04-.09-.09-.12-.14-.03-.06-.04-.12-.04-.2v-.46c0-.08.02-.14.04-.2.03-.06.07-.1.12-.14.05-.04.11-.07.17-.08.06-.02.13-.03.19-.03s.13,0,.19.03c.06.02.12.05.17.08.05.04.09.08.12.14.03.06.04.12.04.2v.36h-.76v.09s0,.06.02.08c.01.02.03.04.05.06.02.02.05.03.07.04.03,0,.06.01.09.01.05,0,.1,0,.14-.03.04-.02.08-.05.1-.1l.23.13s-.06.09-.09.12c-.04.03-.08.06-.12.08-.04.02-.09.04-.13.05-.05.01-.09.02-.13.02Zm-.77-.94v.91h-.28v-.9c0-.06-.02-.1-.06-.13-.04-.03-.09-.04-.15-.04-.03,0-.05,0-.08.01-.03,0-.05.02-.07.03-.02.01-.04.03-.05.05-.01.02-.02.04-.02.07v.91h-.28v-.91s0-.06-.02-.08c-.01-.02-.03-.04-.05-.05-.02-.01-.05-.02-.07-.03-.03,0-.06,0-.09,0-.03,0-.07,0-.1.01-.03,0-.06.02-.09.04v1.02h-.28v-1.21c.06-.04.13-.07.21-.1.08-.03.16-.04.24-.04.08,0,.15.01.22.04.07.03.12.07.16.14.04-.06.09-.1.16-.13.06-.03.13-.04.21-.05.06,0,.12,0,.18.03.06.02.11.04.16.08.05.04.08.08.11.14.03.06.04.12.04.19Zm-1.98.91h-.29v-1.32h.29v1.32Zm-.32-1.65c0-.05.02-.1.05-.13.03-.04.08-.05.13-.05s.1.02.13.05c.04.04.05.08.05.13s-.02.1-.05.13c-.04.04-.08.05-.13.05s-.1-.02-.13-.05c-.04-.04-.05-.08-.05-.13Zm-.29.31s.05,0,.07,0c.02,0,.05,0,.08.01v.25s-.06-.01-.1-.01h-.02s-.09.01-.12.03c-.04.02-.07.04-.1.07-.03.03-.04.07-.04.11v.89h-.28v-.89c0-.1.02-.18.07-.24.05-.07.1-.12.18-.16.02-.01.04-.02.07-.03.03,0,.05-.01.08-.02.03,0,.05,0,.07,0,.02,0,.04,0,.05,0Zm-1.34,1.13h.02c.07,0,.13-.01.19-.04.06-.03.09-.08.09-.15v-.47s0-.07-.02-.1c-.02-.03-.04-.05-.06-.07-.02-.02-.05-.03-.09-.04-.03,0-.07-.01-.1-.01-.08,0-.15.01-.21.04v.81s.06.02.1.02c.03,0,.05,0,.08,0Zm.03-1.13h.02c.07,0,.14,0,.2.03.06.02.12.04.17.08.05.04.09.08.12.14.03.06.04.13.04.22v.47c0,.07-.01.14-.04.19-.03.06-.07.1-.12.14-.05.04-.1.07-.17.08-.06.02-.12.03-.19.03h-.02s-.07,0-.1-.01c-.04,0-.08-.02-.12-.04v.45h-.28v-1.67c.07-.03.15-.06.24-.08.08-.02.16-.03.24-.03Zm-1.29,1.37c-.07,0-.14,0-.2-.03-.07-.02-.12-.04-.17-.08-.05-.04-.09-.09-.11-.14-.03-.06-.04-.13-.04-.21v-.89h.28v.89s.01.07.03.1c.02.03.04.05.06.06.03.02.06.03.09.04.03,0,.07.01.1.01s.07,0,.1-.01c.03,0,.06-.02.09-.03v-1.06h.28v1.24c-.08.03-.17.06-.25.08-.09.02-.17.03-.26.03Zm-1.77-1.33s.01.07.03.09c.02.03.05.05.09.06.04.02.08.03.12.04.05.01.09.02.14.03.08.01.16.03.24.06.08.02.15.06.21.1.06.04.11.1.15.17.03.06.05.13.05.21,0,.02,0,.03,0,.05,0,.09-.02.16-.06.22-.04.06-.09.12-.15.16-.06.04-.13.07-.21.09-.08.02-.16.03-.24.03-.07,0-.14,0-.2-.03-.07-.02-.13-.05-.19-.08-.06-.04-.11-.08-.16-.14-.05-.05-.09-.12-.12-.19l.27-.12c.04.09.1.15.17.2.07.04.15.07.24.07.05,0,.09,0,.13-.01.04,0,.08-.02.12-.04.03-.02.06-.04.08-.07.02-.03.03-.06.04-.1v-.02s0-.08-.03-.1c-.02-.03-.05-.06-.09-.08-.04-.02-.08-.04-.13-.05-.05-.01-.1-.02-.16-.03-.07-.02-.15-.03-.22-.06-.07-.02-.14-.05-.2-.09-.06-.04-.11-.09-.14-.15-.04-.06-.05-.14-.05-.23,0-.08.03-.15.07-.22.04-.06.09-.12.15-.16.06-.04.13-.08.2-.1.07-.02.15-.03.23-.03.07,0,.13,0,.2.02.06.01.12.04.18.07.06.03.11.07.15.12.05.05.09.11.12.18l-.27.12c-.04-.09-.09-.14-.16-.17-.07-.03-.14-.04-.22-.04-.04,0-.09,0-.13.02-.04.01-.08.03-.11.04-.03.02-.06.04-.08.07-.02.03-.03.06-.03.1Z"/>
    <path class="cls-2" d="m37.3,10.43h0s.09-.01.12-.04c.03-.02.05-.06.06-.11,0-.02,0-.04-.02-.06-.01-.02-.03-.03-.05-.04-.02-.01-.04-.02-.07-.03-.02,0-.05-.01-.07-.02-.05,0-.1-.02-.15-.04-.06-.02-.11-.04-.15-.07-.05-.03-.09-.07-.12-.12-.03-.05-.05-.11-.05-.19s.02-.14.05-.19c.03-.05.07-.09.12-.12.05-.03.1-.06.16-.07.06-.01.12-.02.17-.02.07,0,.15.02.22.05.08.03.15.08.21.14l-.17.18s-.08-.07-.14-.08c-.05-.02-.1-.03-.15-.03s-.09,0-.13.03c-.04.02-.06.05-.06.09,0,.03,0,.05.02.08.01.02.03.04.06.05.02.01.05.02.08.03.03,0,.06.02.09.02.05,0,.1.02.16.04.05.02.1.04.14.07.04.03.07.07.1.12.03.05.04.1.04.17s-.01.13-.04.18c-.03.05-.06.09-.1.13-.04.03-.09.06-.15.08-.06.02-.11.03-.17.03-.05,0-.1,0-.16-.02-.05-.01-.1-.03-.15-.06-.05-.03-.09-.06-.13-.1-.04-.04-.07-.09-.09-.14l.21-.14c.04.06.08.11.15.14.06.03.11.05.17.05"/>
    <path class="cls-2" d="m11.01,6.42c.67.86,1.58,1.3,2.45,1.3,1.32,0,2.78-.76,2.84-2.15.08-1.77-1.2-2.21-2.48-2.45-.56-.12-.93-.32-.95-.67.03-.83,1.32-.86,2.07-.06l1.19-.91c-.74-.9-1.58-1.15-2.46-1.15-1.32,0-2.6.74-2.6,2.15s1.06,2.1,2.21,2.28c.59.08,1.25.31,1.23.72-.05.77-1.63.73-2.35-.14l-1.15,1.08Z"/>
    <path class="cls-2" d="m18.43,5.69s0,.06,0,.09c0,.03,0,.05.02.08,0,.02.02.05.03.07.01.02.02.04.04.06.02.02.03.04.05.06.02.02.04.03.06.05.02.02.04.03.06.04.02.01.05.02.07.03.05.02.1.04.16.05.05.01.11.02.17.02.03,0,.06,0,.09,0,.03,0,.05,0,.08-.01.03,0,.05-.01.08-.02.03,0,.05-.02.08-.03.02-.01.05-.02.07-.04.02-.01.04-.03.06-.04.02-.01.04-.03.06-.05.02-.02.04-.04.05-.06.03-.04.05-.08.07-.12.01-.05.02-.1.02-.16V1.93h1.65v3.76c0,.08,0,.17-.01.25,0,.08-.02.16-.04.23-.02.08-.04.15-.06.22-.03.07-.05.14-.09.2-.03.06-.07.13-.11.19-.04.06-.08.12-.12.17-.04.05-.09.1-.14.15-.05.05-.1.09-.16.14-.05.04-.11.08-.17.12-.05.03-.1.06-.16.09h0s-.02.01-.02.01c-.06.03-.12.06-.19.09-.06.03-.13.05-.2.07-.07.02-.14.04-.21.06-.07.02-.14.03-.21.04-.07.01-.14.02-.21.02-.07,0-.14,0-.21,0-.14,0-.28-.01-.42-.03-.14-.02-.28-.05-.42-.09-.07-.02-.14-.04-.2-.07-.06-.03-.12-.05-.18-.08h0c-.06-.03-.12-.07-.18-.11-.06-.04-.11-.08-.17-.12-.05-.04-.11-.09-.15-.14-.05-.05-.1-.1-.14-.15-.04-.05-.08-.11-.12-.17-.04-.06-.07-.12-.11-.19-.03-.07-.06-.13-.09-.2-.03-.07-.05-.14-.06-.22-.02-.07-.03-.15-.04-.23,0-.08-.01-.16-.01-.25V1.93h1.65v3.76Z"/>
    <path class="cls-2" d="m24.21,4.57s.06,0,.08,0c.03,0,.05,0,.07-.01.02,0,.04-.01.06-.02.02,0,.04-.02.06-.03.02-.01.04-.03.05-.04.02-.02.03-.03.05-.05.01-.02.03-.03.04-.05.01-.02.02-.04.03-.06,0-.02.02-.04.03-.06,0-.02.01-.04.02-.07,0-.02,0-.05.01-.07,0-.02,0-.05,0-.07s0-.05,0-.07c0-.02,0-.05-.01-.07,0-.02-.01-.04-.02-.07,0-.02-.02-.04-.03-.06,0-.02-.02-.04-.03-.06-.01-.02-.02-.04-.04-.05-.01-.02-.03-.03-.05-.05-.02-.02-.03-.03-.05-.04-.02-.01-.04-.02-.06-.03-.02,0-.04-.02-.06-.02-.02,0-.05-.01-.07-.01-.03,0-.05,0-.08,0h-.68v1.1h.68Zm-2.18-2.64h2.18c.17,0,.34.01.49.04.08.01.15.03.23.06.07.02.14.05.21.08.07.03.13.06.19.09.06.03.12.07.17.11.06.04.11.08.16.12.05.04.1.09.14.14s.09.1.13.15c.04.05.08.11.11.16.03.06.06.11.09.17.03.06.05.12.07.18.02.06.04.12.06.18.02.06.03.12.04.19.01.06.02.13.02.19,0,.06,0,.13,0,.19,0,.13-.01.26-.03.38-.02.13-.06.25-.1.38-.02.06-.05.12-.08.18-.03.06-.06.12-.09.17-.03.05-.07.11-.11.16-.04.05-.08.1-.12.15-.04.05-.09.09-.14.14-.05.04-.1.09-.16.12-.06.04-.11.08-.17.11-.06.03-.12.07-.19.09-.13.06-.28.1-.43.13-.15.03-.32.04-.49.04h-.68v1.6h-1.64V1.93h.13Z"/>
    <path class="cls-2" d="m29.14,4.57s.06,0,.08,0c.03,0,.05,0,.07-.01.02,0,.04-.01.06-.02.02,0,.04-.02.05-.03.02-.01.04-.03.05-.04.02-.02.03-.03.05-.05.01-.02.03-.03.04-.05.01-.02.02-.04.03-.06.01-.02.02-.04.03-.06,0-.02.01-.04.02-.07,0-.02,0-.05.01-.07,0-.02,0-.05,0-.07s0-.05,0-.07c0-.02,0-.05-.01-.07,0-.02-.01-.04-.02-.07,0-.02-.02-.04-.03-.06,0-.02-.02-.04-.03-.06-.01-.02-.02-.04-.04-.05-.01-.02-.03-.03-.05-.05-.02-.02-.03-.03-.05-.04-.02-.01-.04-.02-.05-.03-.02,0-.04-.02-.06-.02-.02,0-.05-.01-.07-.01-.03,0-.05,0-.08,0h-.68v1.1h.68Zm-2.18-2.64h2.18c.17,0,.34.01.49.04.08.01.15.03.23.06.07.02.14.05.21.08.07.03.13.06.19.09.06.03.12.07.18.11.06.04.11.08.16.12.05.04.1.09.14.14s.09.1.13.15c.04.05.08.11.11.16.03.06.06.11.09.17.03.06.05.12.07.18.02.06.04.12.06.18.02.06.03.12.04.19.01.06.02.13.02.19,0,.06,0,.13,0,.19,0,.13-.01.26-.03.38-.02.13-.06.25-.1.38-.02.06-.05.12-.08.18-.03.06-.06.12-.09.17-.03.05-.07.11-.11.16-.04.05-.08.1-.12.15-.04.05-.09.09-.14.14-.05.04-.1.09-.16.12-.06.04-.11.08-.17.11-.06.03-.12.07-.19.09-.13.06-.28.1-.43.13-.15.03-.32.04-.49.04h-.68v1.6h-1.64V1.93h.13Z"/>
    <polygon class="cls-2" points="31.89 1.93 33.28 1.93 33.38 1.93 33.4 1.93 33.4 1.96 33.4 2.06 33.4 6.03 35.5 6.03 35.6 6.03 35.63 6.03 35.63 6.05 35.63 6.16 35.63 7.52 35.63 7.63 35.63 7.65 35.6 7.65 35.5 7.65 31.89 7.65 31.78 7.65 31.76 7.65 31.76 7.63 31.76 7.52 31.76 2.06 31.76 1.96 31.76 1.93 31.78 1.93 31.89 1.93"/>
    <polygon class="cls-2" points="36.12 5.4 34.24 2.12 34.15 1.97 34.13 1.93 34.17 1.93 34.34 1.93 35.95 1.93 36.01 1.93 36.03 1.93 36.04 1.95 36.06 2 36.94 3.78 37.81 2 37.84 1.95 37.85 1.93 37.86 1.93 37.93 1.93 39.55 1.93 39.73 1.93 39.77 1.93 39.75 1.97 39.66 2.12 37.76 5.4 37.76 7.65 36.12 7.65 36.12 5.4"/>
  </g>
</svg>