<?xml version="1.0" encoding="UTF-8"?>
<svg id="Camada_1" data-name="Camada 1" xmlns="http://www.w3.org/2000/svg" xmlns:xlink="http://www.w3.org/1999/xlink" viewBox="0 0 112.13 32.57">
  <defs>
    <style>
      .cls-1 {
        fill: #fff;
      }

      .cls-1, .cls-2, .cls-3 {
        stroke-width: 0px;
      }

      .cls-2 {
        fill: #a8cf45;
      }

      .cls-3 {
        fill: url(#Gradiente_sem_nome_17);
      }
    </style>
    <linearGradient id="Gradiente_sem_nome_17" data-name="Gradiente sem nome 17" x1="22.22" y1="3.75" x2="22.22" y2="30.65" gradientUnits="userSpaceOnUse">
      <stop offset=".19" stop-color="#fff"/>
      <stop offset=".65" stop-color="#a8cf45"/>
    </linearGradient>
  </defs>
  <g>
    <path class="cls-1" d="m10.5,15.84c-1.79,0-3.28-.56-4.47-1.67-1.19-1.11-1.79-2.55-1.79-4.31s.59-3.21,1.78-4.32c1.18-1.11,2.68-1.66,4.48-1.66,1.99,0,3.51.76,4.56,2.29.29.42.11.99-.35,1.21l-1.26.59c-.25.12-.55.03-.71-.21-.19-.29-.44-.54-.75-.76-.46-.32-.96-.49-1.5-.49-.94,0-1.71.32-2.31.96-.61.64-.91,1.44-.91,2.38s.3,1.74.91,2.38c.61.64,1.38.96,2.31.96.54,0,1.04-.16,1.5-.49.31-.22.56-.47.75-.76.15-.23.45-.33.71-.21l1.24.59c.48.23.63.83.32,1.26-.38.51-.83.96-1.37,1.35-.83.6-1.87.89-3.15.89"/>
    <path class="cls-1" d="m57.53,15.84c-1.8,0-3.17-.44-4.09-1.34-.92-.89-1.39-2.07-1.39-3.55v-6.04c0-.47.38-.84.84-.84h1.73c.26,0,.46.21.46.46v6.31c0,.7.21,1.27.63,1.71.42.43,1.02.65,1.81.65s1.37-.22,1.79-.65c.42-.43.63-1,.63-1.71v-6.31c0-.26.21-.46.46-.46h1.71c.47,0,.84.38.84.84v6.02c0,1.49-.46,2.68-1.38,3.57-.92.89-2.27,1.34-4.07,1.34"/>
    <path class="cls-1" d="m77.04,15.63h-1.86c-.46,0-.84-.38-.84-.84v-6.68l-2.86,7.34c-.04.11-.14.18-.26.18h-.93c-.12,0-.22-.07-.26-.18l-2.84-7.34v6.68c0,.46-.38.84-.84.84h-1.86c-.15,0-.28-.13-.28-.28V4.35c0-.15.13-.28.28-.28h3.29c.35,0,.66.21.78.54l2.2,5.74,2.22-5.74c.13-.32.44-.54.78-.54h3.29c.15,0,.28.13.28.28v11c0,.15-.13.28-.28.28"/>
    <path class="cls-1" d="m87.05,12.25c-.58.64-1.33.95-2.27.95h-.33c-.85-.05-1.55-.36-2.08-.95-.58-.64-.87-1.43-.87-2.39s.29-1.75.87-2.39c.53-.59,1.23-.91,2.08-.94h0s.33-.01.33-.01c.94,0,1.7.32,2.27.95.58.64.87,1.43.87,2.39s-.28,1.76-.87,2.39m2.15-6.69c-1.17-1.12-2.64-1.68-4.42-1.68h-.12c-.07,0-.14,0-.2,0-1.69.04-3.1.6-4.22,1.67-1.17,1.12-1.76,2.56-1.76,4.3s.59,3.18,1.76,4.3c1.12,1.08,2.53,1.64,4.22,1.67.07,0,.13,0,.2,0h.12c1.78,0,3.26-.56,4.42-1.68,1.17-1.12,1.75-2.56,1.75-4.3s-.59-3.18-1.75-4.3Z"/>
    <path class="cls-1" d="m39.88,15.63h-1.18c-.89,0-1.73-.43-2.26-1.15l-4.05-5.54v6.41c0,.15-.13.28-.28.28h-1.86c-.46,0-.84-.38-.84-.84V4.91c0-.46.38-.84.84-.84h.81c.89,0,1.73.42,2.25,1.14l3.84,5.22v-6.08c0-.15.13-.28.28-.28h1.88c.46,0,.84.38.84.84v10.44c0,.15-.13.28-.28.28"/>
    <path class="cls-1" d="m46.19,15.84c-1.36,0-2.55-.25-3.57-.75-.91-.45-1.21-1.59-.63-2.42l.22-.31c.22-.31.65-.36.95-.13.91.71,1.96,1.06,3.16,1.06.51,0,.91-.09,1.21-.27.29-.18.44-.41.44-.68,0-.24-.16-.44-.49-.6-.32-.16-.73-.27-1.21-.35-.49-.07-1.01-.2-1.58-.36-.57-.17-1.09-.36-1.58-.59-.49-.23-.89-.59-1.21-1.08-.32-.5-.49-1.09-.49-1.79,0-1.02.41-1.88,1.24-2.6.83-.72,1.95-1.07,3.37-1.07,1.07,0,2.03.17,2.9.52,1.01.4,1.37,1.65.71,2.52l-.15.2c-.21.27-.59.34-.88.15-.85-.56-1.82-.83-2.89-.83-.83,0-1.25.28-1.25.83,0,.22.16.41.49.56.32.16.73.28,1.21.36.49.08,1.01.21,1.57.37.56.17,1.08.37,1.57.6.48.23.89.59,1.21,1.07.32.49.49,1.06.49,1.73,0,1.18-.42,2.12-1.27,2.82-.84.7-2.03,1.05-3.55,1.05"/>
  </g>
  <g>
    <path class="cls-2" d="m66.9,30.51h-1.86c-.46,0-.84-.38-.84-.84v-10.44c0-.15.13-.28.28-.28h1.86c.46,0,.84.38.84.84v10.44c0,.15-.13.28-.28.28"/>
    <path class="cls-2" d="m94.74,30.51h-1.86c-.15,0-.28-.13-.28-.28v-7.84c0-.46-.38-.84-.84-.84h-2.12c-.15,0-.28-.13-.28-.28v-1.83c0-.27.22-.49.49-.49h8.47c.27,0,.49.22.49.49v1.83c0,.15-.12.28-.28.28h-2.66c-.15,0-.28.13-.28.28v7.84c0,.46-.38.84-.84.84"/>
    <path class="cls-2" d="m101.1,30.51c-.74,0-1.35-.6-1.35-1.35v-8.85c0-.74.6-1.35,1.35-1.35h6.02c.42,0,.76.34.76.76v1.48c0,.14-.11.25-.25.25-1.55,0-3.11,0-4.67,0-.15,0-.27.12-.27.27v1.41c0,.15.12.27.27.27,1.12,0,2.23,0,3.35,0,.26,0,.47.21.47.47v1.76c0,.15-.12.27-.27.27-1.18,0-2.37,0-3.55,0-.15,0-.27.12-.27.27v1.55c0,.15.12.27.27.27,1.56,0,3.12,0,4.67,0,.14,0,.25.11.25.25v1.48c0,.42-.34.76-.76.76h-6.02"/>
    <path class="cls-2" d="m69.76,30.51c-.74,0-1.35-.6-1.35-1.35v-8.85c0-.74.6-1.35,1.35-1.35h6.03c.42,0,.76.34.76.76v1.48c0,.14-.11.25-.25.25-1.55,0-3.11,0-4.67,0-.15,0-.27.12-.27.27v1.41c0,.15.12.27.27.27,1.12,0,2.23,0,3.35,0,.26,0,.47.21.47.47v1.76c0,.15-.12.27-.27.27-1.18,0-2.37,0-3.55,0-.15,0-.27.12-.27.27v1.55c0,.15.12.27.27.27,1.56,0,3.12,0,4.67,0,.14,0,.25.11.25.25v1.48c0,.42-.34.76-.76.76h-6.03"/>
    <path class="cls-2" d="m46.19,30.72c-1.36,0-2.55-.25-3.57-.75-.91-.45-1.21-1.59-.63-2.42l.22-.31c.22-.31.65-.36.95-.13.91.71,1.96,1.06,3.16,1.06.51,0,.91-.09,1.21-.27.29-.18.44-.41.44-.69,0-.24-.16-.44-.49-.6-.32-.16-.73-.27-1.21-.35-.49-.07-1.01-.2-1.58-.36-.57-.17-1.09-.36-1.58-.59-.49-.23-.89-.59-1.21-1.08-.32-.5-.49-1.09-.49-1.78,0-1.02.41-1.88,1.24-2.6.83-.72,1.95-1.07,3.37-1.07,1.07,0,2.03.17,2.9.52,1.01.4,1.37,1.65.71,2.52l-.15.2c-.21.27-.59.34-.88.15-.85-.56-1.82-.83-2.89-.83-.83,0-1.25.28-1.25.83,0,.22.16.41.49.56.32.16.73.27,1.21.36.49.08,1.01.21,1.57.37.56.17,1.08.37,1.57.6.48.23.89.59,1.21,1.07.32.48.49,1.06.49,1.73,0,1.18-.42,2.12-1.27,2.82-.84.7-2.03,1.05-3.55,1.05"/>
    <path class="cls-2" d="m88.13,30.51h-1.18c-.89,0-1.73-.43-2.26-1.15l-4.05-5.54v6.41c0,.15-.12.28-.28.28h-1.86c-.46,0-.84-.38-.84-.84v-9.88c0-.46.38-.84.84-.84h.81c.89,0,1.73.42,2.25,1.14l3.84,5.22v-6.08c0-.15.13-.28.28-.28h1.88c.46,0,.84.38.84.84v10.44c0,.15-.13.28-.28.28"/>
    <path class="cls-2" d="m39.88,30.51h-1.18c-.89,0-1.73-.43-2.26-1.15l-4.05-5.54v6.41c0,.15-.13.28-.28.28h-1.86c-.46,0-.84-.38-.84-.84v-9.88c0-.46.38-.84.84-.84h.81c.89,0,1.73.42,2.25,1.14l3.84,5.22v-6.08c0-.15.13-.28.28-.28h1.88c.46,0,.84.38.84.84v10.44c0,.15-.13.28-.28.28"/>
    <path class="cls-2" d="m10.5,30.72c-1.79,0-3.28-.56-4.47-1.67-1.19-1.12-1.79-2.55-1.79-4.31s.59-3.21,1.78-4.32c1.18-1.11,2.68-1.66,4.48-1.66,1.99,0,3.51.76,4.56,2.28.29.42.11.99-.35,1.21l-1.26.59c-.25.12-.55.03-.71-.21-.19-.29-.44-.54-.75-.76-.46-.32-.96-.49-1.5-.49-.94,0-1.71.32-2.31.96-.61.64-.91,1.44-.91,2.38s.3,1.74.91,2.38c.61.64,1.38.96,2.31.96.54,0,1.04-.16,1.5-.49.31-.22.56-.47.75-.76.15-.24.45-.33.71-.21l1.24.59c.48.23.63.83.32,1.26-.38.51-.83.96-1.37,1.35-.83.6-1.87.89-3.15.89"/>
    <path class="cls-2" d="m58.1,30.72c-1.79,0-3.28-.56-4.47-1.67-1.19-1.12-1.79-2.55-1.79-4.31s.59-3.21,1.78-4.32c1.18-1.11,2.68-1.66,4.48-1.66,1.99,0,3.51.76,4.56,2.28.29.42.11.99-.35,1.21l-1.26.59c-.25.12-.55.03-.71-.21-.19-.29-.44-.54-.75-.76-.46-.32-.96-.49-1.5-.49-.94,0-1.71.32-2.31.96-.61.64-.91,1.44-.91,2.38s.3,1.74.91,2.38c.61.64,1.38.96,2.31.96.54,0,1.04-.16,1.5-.49.31-.22.56-.47.75-.76.15-.24.45-.33.71-.21l1.24.59c.48.23.63.83.32,1.26-.37.51-.83.96-1.37,1.35-.83.6-1.87.89-3.15.89"/>
  </g>
  <path class="cls-2" d="m95.26,8.55c-.97-.89-1.15-2.15-1.17-3.6,1.2.07,2.67.38,3.75,1.37,1.1,1.01,1.39,2.47,1.46,3.33-1.53-.02-3.04-.18-4.04-1.09m6.86-4.18c1.31-1.12,3.1-1.46,4.53-1.52-.03,1.61-.23,3.01-1.38,4-1.2,1.03-3.03,1.2-4.87,1.22.08-.93.41-2.58,1.73-3.71Zm-8.71,11.06c-.28.08-.43.38-.35.65.09.28.38.43.65.35,2.05-.63,3.8-1.02,6.13-1.02s5.09.38,7.18,1.02c.28.09.57-.07.65-.35.09-.28-.07-.57-.35-.65-2.03-.62-4.59-1.01-6.96-1.06v-5.25c2.05-.02,4.11-.21,5.58-1.47,1.62-1.39,1.75-3.32,1.75-5.33,0-.29-.23-.52-.52-.52-1.67,0-4.02.31-5.74,1.78-1.12.96-1.65,2.2-1.9,3.24-.25-.45-.57-.89-1-1.27-1.49-1.37-3.53-1.65-4.98-1.65-.29,0-.52.23-.52.52,0,1.86.12,3.63,1.52,4.91,1.26,1.16,3.02,1.35,4.77,1.37v3.68c-2.2.05-3.92.45-5.91,1.06Z"/>
  <path class="cls-3" d="m25.36,9.86c0-.96-.29-1.76-.87-2.39-.58-.64-1.33-.95-2.27-.95s-1.71.32-2.29.95c-.58.63-.87,1.43-.87,2.39,0,.09,0,.18.01.26h0v14.5s0,.08,0,.12,0,.08,0,.12v.12h0c.04.84.32,1.54.83,2.12-.63.06-1.26.1-1.4.15-.47.09-.58.43-.56.67,0,.29.21.98.51,1.66-.23-.16-.45-.35-.66-.55-1.12-1.07-1.71-2.42-1.76-4.05,0-.08,0-.16,0-.24v-14.62h0c0-.09,0-.17,0-.26,0-1.74.59-3.18,1.76-4.3,1.17-1.12,2.65-1.68,4.43-1.68s3.25.56,4.42,1.68c1.17,1.12,1.75,2.56,1.75,4.3,0,.09,0,.17,0,.26h.01v14.86h-.01c-.05,1.63-.64,2.99-1.75,4.05-1.17,1.12-2.64,1.68-4.42,1.68-.75,0-1.45-.1-2.1-.3l-.14.26c-.33.66-1.44-1.94-1.48-2.5-.01-.2.06-.37.37-.49.25-.08,2.93-.4,2.64.13l-.1.18c.25.06.53.09.82.09.94,0,1.69-.32,2.27-.95.53-.58.81-1.3.86-2.15h.01v-14.86h-.01c.01-.08.01-.17.01-.26"/>
</svg>