<?xml version="1.0" encoding="UTF-8"?>
<svg id="Camada_1" data-name="Camada 1" xmlns="http://www.w3.org/2000/svg" viewBox="0 0 29.47 10.74">
  <defs>
    <style>
      .cls-1, .cls-2 {
        fill: #fff;
        stroke-width: 0px;
      }

      .cls-2 {
        fill-rule: evenodd;
      }
    </style>
  </defs>
  <path class="cls-1" d="m29.09.38H.38v9.97h28.71V.38ZM.19,0h29.09c.11,0,.19.09.19.19v10.35c0,.11-.09.19-.19.19H.19c-.11,0-.19-.09-.19-.19V.19c0-.11.09-.19.19-.19Z"/>
  <path class="cls-2" d="m20.31,5.64l-.6.54h-.39l.48-.54h.51Zm-17.42-.17h-.93V1.88h1.8c.39,0,.69.11.92.34.22.23.33.51.33.85s-.11.62-.33.85c-.22.23-.53.34-.92.34h-.87v1.21Zm.75-2.02c.13,0,.23-.03.31-.1.08-.07.12-.16.12-.28s-.04-.22-.12-.29c-.08-.07-.18-.1-.31-.1h-.75v.77h.75Zm4.78,2.02h-1.06l-.6-1.21h-.47v1.21h-.93V1.88h1.8c.39,0,.69.11.92.34.22.23.33.51.33.86,0,.29-.07.52-.21.7-.14.18-.31.31-.5.37l.73,1.32Zm-1.41-2.02c.13,0,.23-.03.32-.1.09-.07.13-.16.13-.29s-.04-.21-.13-.28c-.09-.07-.19-.1-.32-.1h-.73v.77h.73Zm7.43,2.02h-1.51V1.88h1.51c.57,0,1.04.16,1.4.49.36.32.54.76.54,1.31s-.18.99-.54,1.31c-.36.33-.83.49-1.4.49Zm0-.81c.31,0,.55-.1.73-.29.18-.19.27-.43.27-.7,0-.29-.09-.53-.26-.71-.17-.18-.42-.27-.73-.27h-.59v1.98h.58Zm4.01.87c-.56,0-.98-.14-1.27-.42-.29-.28-.43-.64-.43-1.1V1.88h.94v2.11c0,.22.07.4.2.53.13.13.32.2.56.2s.43-.07.56-.2c.13-.13.2-.31.2-.53V1.88h.94v2.13c0,.46-.14.83-.43,1.11-.29.28-.71.42-1.26.42Zm4.04-.06h-.93v-2.79h-1.01v-.81h2.94v.81h-1v2.79Zm3.07-2.9h0c-.31,0-.59.12-.79.33-.19.19-.31.45-.33.73h.35l-.78.89-.78-.89h.34c.02-.31.11-.63.27-.91h0c.18-.31.43-.58.74-.76.39-.22.83-.29,1.25-.23.43.06.84.26,1.15.58l.1.1-.8.43-.05-.04c-.09-.07-.2-.13-.32-.17-.11-.04-.23-.06-.35-.06h0Zm-.04,2.13h0c.31,0,.59-.12.79-.33.19-.19.31-.45.33-.73h-.35l.78-.89.78.89h-.34c-.02.31-.11.63-.27.91-.18.31-.43.58-.74.76-.38.22-.83.29-1.25.23-.43-.06-.84-.26-1.15-.58l-.1-.1.8-.43.05.04c.09.07.2.13.31.17.11.04.23.06.35.06h0ZM10.61,1.7c1.07,0,1.93.86,1.93,1.93s-.86,1.93-1.93,1.93-1.93-.86-1.93-1.93.86-1.93,1.93-1.93Zm0,.88c.58,0,1.05.47,1.05,1.05s-.47,1.05-1.05,1.05-1.05-.47-1.05-1.05.47-1.05,1.05-1.05Zm16.83,6.31h-1.66v-2.51h.65v1.95h1.01v.57Zm-2.03,0h-1.84v-2.51h1.84v.57h-1.19v.39h1.17v.57h-1.17v.43h1.19v.57Zm-3.12,0h-.81l-.95-2.51h.73l.62,1.81.62-1.81h.73l-.95,2.51Zm-2.4-.93l-.32-.95-.32.95h.64Zm1.04.93h-.73l-.12-.36h-.99l-.12.36h-.73l.95-2.51h.81l.95,2.51Zm-3.22,0h-.65v-1.95h-.7v-.57h2.05v.57h-.7v1.95Zm-1.66,0h-.63l-1.06-1.45v1.45h-.65v-2.51h.67l1.02,1.38v-1.38h.65v2.51Zm-2.71,0h-1.84v-2.51h1.84v.57h-1.19v.39h1.17v.57h-1.17v.43h1.19v.57Zm-2.85,0h-.65v-1.95h-.7v-.57h2.05v.57h-.7v1.95Zm-2.49.05c-.46,0-.84-.13-1.12-.4l.34-.49c.22.22.49.33.8.33.11,0,.2-.02.26-.06.06-.04.1-.09.1-.15,0-.05-.04-.1-.11-.13-.07-.03-.16-.06-.26-.08-.11-.02-.22-.04-.34-.08-.12-.04-.24-.08-.34-.13-.11-.05-.19-.13-.26-.24-.07-.11-.11-.24-.11-.39,0-.22.09-.41.27-.56.18-.16.42-.23.73-.23.41,0,.75.12,1.02.35l-.35.46c-.21-.17-.46-.26-.73-.26-.18,0-.27.06-.27.18,0,.05.04.09.11.12.07.03.16.06.26.08.11.02.22.04.34.08.12.04.24.08.34.13.11.05.19.13.26.23.07.11.11.23.11.38,0,.26-.09.46-.28.61-.18.15-.44.23-.77.23Zm-2.57,0c-.39,0-.69-.1-.89-.29-.2-.19-.3-.45-.3-.77v-1.5h.66v1.47c0,.15.05.28.14.37.09.09.22.14.39.14s.3-.05.39-.14c.09-.09.14-.22.14-.37v-1.47h.66v1.49c0,.32-.1.58-.3.78-.2.19-.49.29-.88.29Zm-2.54,0c-.46,0-.84-.13-1.11-.4l.34-.49c.22.22.49.33.8.33.11,0,.2-.02.26-.06.06-.04.1-.09.1-.15,0-.05-.04-.1-.11-.13-.07-.03-.16-.06-.26-.08-.11-.02-.22-.04-.34-.08-.12-.04-.24-.08-.34-.13-.11-.05-.19-.13-.26-.24-.07-.11-.11-.24-.11-.39,0-.22.09-.41.27-.56.18-.16.42-.23.73-.23.41,0,.75.12,1.02.35l-.35.46c-.21-.17-.46-.26-.73-.26-.18,0-.27.06-.27.18,0,.05.04.09.11.12.07.03.16.06.26.08.11.02.22.04.34.08.12.04.24.08.34.13.11.05.19.13.26.23.07.11.11.23.11.38,0,.26-.09.46-.27.61-.18.15-.44.23-.77.23Z"/>
</svg>